M48
;Layer_Color=9474304
;FILE_FORMAT=2:5
INCH,TZ
;TYPE=PLATED
T1F00S00C0.01968
T2F00S00C0.02800
T3F00S00C0.03150
T4F00S00C0.03937
T5F00S00C0.04724
T6F00S00C0.11417
;TYPE=NON_PLATED
T7F00S00C0.03346
%
T01
X140000Y110000
X150000
X155000Y120000
X145000
X150000Y130000
X140000
X145000Y140000
X155000
X150000Y150000
X135000Y140000
X110000Y150000
X160000
X170000
X165000Y140000
X160000Y130000
X165000Y120000
X175000
X180000Y110000
X190000
X200000
X210000
X220000
X230000
X240000
X250000
X260000
X270000
X280000
X290000
X300000
X310000
X305000Y120000
X295000
X285000
X275000
X265000
X255000
X245000
X235000
X225000
X215000
X205000
X195000
X200000Y130000
X210000
X220000
X230000
X240000
X250000
X260000
X270000
X280000
X290000
X300000
X310000
X305000Y140000
X295000
X285000
X275000
X265000
X255000
X245000
X235000
X225000
X215000
X205000
X210000Y150000
X220000
X230000
X240000
X250000
X260000
X270000
X280000
X290000
X300000
X310000
X200000
X170000Y110000
X160000
X320000
X330000
X335000Y120000
X325000
X315000
X320000Y130000
X330000
X340000
X335000Y140000
X325000
X315000
X320000Y150000
X330000
X340000
X410000Y110000
X420000
X430000
X440000
X450000
X460000
X465000Y120000
X455000
X460000Y130000
X470000
X480000
X485000Y140000
X475000
X480000Y150000
X470000
X475000Y120000
X485000
X480000Y110000
X470000
X475000Y160000
X485000
X480000Y170000
X470000
X475000Y180000
X485000
X480000Y190000
X470000
X475000Y200000
X485000
X480000Y210000
X485000Y220000
X480000Y230000
X475000Y260000
X480000Y270000
X470000
X475000Y280000
X485000
X480000Y290000
X470000
X475000Y300000
X485000
X480000Y310000
X470000
X460000
X450000
X440000
X445000Y300000
X455000
X465000
X460000Y290000
X450000
X440000
X430000
X420000
X410000
X396000Y302000
X386500
X377000
X358000Y311500
X330000Y310000
X320000
X325000Y300000
X335000
X337500Y275000
X353000Y282000
X353500Y255000
X363000Y254500
Y261000
X369000Y263000
X388500Y245500
X393000Y250000
X381000Y227500
X380500Y201500
Y176500
X387500
X400500Y174000
X393000Y164000
X398500Y158000
X405000
X385000Y160000
X375000
X394500Y190000
X408000Y202000
X410000Y227500
X425000Y240000
X435000Y280000
X445000
X455000
X465000
X460000Y270000
X435000Y300000
X314000Y276500
X313500Y270000
X315000Y240000
X325000
X335000
X345000
X333000Y251000
X330000Y230000
X320000
X325000Y220000
X315000
X333000Y197000
X305000Y220000
X310000Y230000
X291000Y224000
X279500Y225000
X256500Y226500
X253500Y217000
X244000Y216500
X235500
X223000Y206500
X201000Y246000
X213500Y262000
X208000Y287500
Y301500
X219000Y302500
X241000Y301000
X241800Y310500
X249000Y304500
X260500Y310000
X277500
X271500Y288500
X256000Y276500
X264000Y263500
X280000Y266750
X289500Y266500
Y254500
X164500Y250000
Y244000
X163500Y214500
X166500Y192500
X165000Y160000
X166500Y281000
X170000Y310000
X185000Y295000
X142500Y301000
X115000Y300000
X120000Y310000
X110000
Y290000
X120000
X115000Y280000
X114000Y264000
X124500Y272500
Y253000
X131000Y251500
Y242500
X124500Y240500
X142000Y242500
Y251500
X153000Y235000
X155000Y220000
X146000
X130000Y210000
X120000
X110000
X115000Y220000
X113000Y227000
X115000Y200000
X125000
X135000
X140000Y190000
X150000
X145000Y180000
X135000
X125000
X115000
X120000Y190000
X130000
X110000
Y170000
X120000
X150000
X155000Y160000
Y320000
X115000
X110000Y330000
X115000Y340000
X140000Y350000
X145000Y360000
X140000Y370000
X145000Y380000
X167000Y329000
X165000Y320000
X224000Y312500
X225700Y326500
Y330000
X229300
Y326500
X233000
Y330000
Y333600
X236500
X236600Y330000
Y326500
X229300Y333600
X225700
X218800Y335000
X223800Y341000
X231800Y348468
X247000Y353500
X261500Y354500
X266500Y364500
X266000Y344000
X257500Y340000
X256800Y333500
Y324500
X250800Y339500
X240500Y364000
X207526Y363726
Y359226
X300000Y337000
X295000Y320000
X321000Y349000
X322000Y359500
X328000Y365000
X338500Y363603
X346000Y364500
X374152Y363000
X390000Y363000
X385000Y340000
X375000
X380000Y330000
X390000
X395000Y320000
X405000
X415000
X425000
X435000
X445000
X455000
X465000
X460000Y330000
X450000
X440000
X445000Y340000
X455000
X465000
X460000Y350000
X450000
X440000
X445000Y360000
X455000
X465000
X460000Y370000
X450000
X440000
X445000Y380000
X455000
X465000
X435000Y340000
X398500Y343000
X385000Y320000
X370000Y330000
X359000Y345000
X337500Y342000
X475000Y340000
X485000
X480000Y350000
X470000
X475000Y360000
X485000
X480000Y370000
X470000
X475000Y380000
X485000
X480000Y330000
X470000
X475000Y320000
X485000
T02
X246500Y248500
Y258500
X253500Y260500
X255000Y267953
X246500Y269000
Y280000
T03
X355512Y132087
Y141929
X371260
Y132087
X387008
Y141929
T04
X446000Y150500
X456000
Y160500
Y170500
Y180500
Y190500
Y200500
Y210500
Y220500
X446000
Y230500
X456000
Y240500
X446000
Y210500
Y200500
Y190500
Y180500
Y170500
Y160500
T05
X347244Y137008
X395275
X422980Y269000
X423000Y279000
X422980Y300000
X423000Y310000
X422800Y331500
Y341500
Y351500
Y361500
Y371500
T06
X181890Y135630
X481890Y245866
X131496Y157283
Y334449
X181890Y356102
T07
X107284Y232480
Y259252
M30
