G04*
G04 #@! TF.GenerationSoftware,Altium Limited,Altium Designer,19.1.8 (144)*
G04*
G04 Layer_Color=32896*
%FSLAX25Y25*%
%MOIN*%
G70*
G01*
G75*
%ADD10C,0.00984*%
%ADD14C,0.01000*%
%ADD116C,0.00197*%
D10*
X130437Y251429D02*
X129699Y251855D01*
Y251003D01*
X130437Y251429D01*
D14*
X130000Y261398D02*
X128001D01*
X129000D01*
Y255400D01*
X130000D01*
X128001D01*
X121003Y260398D02*
X122003Y261398D01*
X124002D01*
X125002Y260398D01*
Y256400D01*
X124002Y255400D01*
X122003D01*
X121003Y256400D01*
X119004Y260398D02*
X118004Y261398D01*
X116005D01*
X115005Y260398D01*
Y259399D01*
X116005Y258399D01*
X117004D01*
X116005D01*
X115005Y257399D01*
Y256400D01*
X116005Y255400D01*
X118004D01*
X119004Y256400D01*
X158700Y260998D02*
X156701D01*
X157700D01*
Y255000D01*
X158700D01*
X156701D01*
X149703Y259998D02*
X150703Y260998D01*
X152702D01*
X153702Y259998D01*
Y256000D01*
X152702Y255000D01*
X150703D01*
X149703Y256000D01*
X147704Y255000D02*
X145704D01*
X146704D01*
Y260998D01*
X147704Y259998D01*
D116*
X159557Y250200D02*
X158722Y250682D01*
Y249718D01*
X159557Y250200D01*
M02*
