G04*
G04 #@! TF.GenerationSoftware,Altium Limited,Altium Designer,19.1.8 (144)*
G04*
G04 Layer_Color=16711935*
%FSLAX25Y25*%
%MOIN*%
G70*
G01*
G75*
%ADD10C,0.00984*%
%ADD15C,0.00787*%
%ADD17C,0.00394*%
%ADD116C,0.00197*%
D10*
X264400Y347354D02*
Y366646D01*
Y347354D02*
X288612D01*
Y366646D01*
X264400D02*
X288612D01*
X319094Y347354D02*
Y366646D01*
X294882D02*
X319094D01*
X294882Y347354D02*
Y366646D01*
Y347354D02*
X319094D01*
D15*
X221304Y355496D02*
Y367504D01*
X209296D02*
X221304D01*
X209296Y355496D02*
Y367504D01*
Y355496D02*
X221304D01*
D17*
X330654Y267996D02*
X330390Y268980D01*
X329669Y269701D01*
X328685Y269965D01*
X327701Y269701D01*
X326980Y268980D01*
X326716Y267996D01*
X326980Y267012D01*
X327701Y266291D01*
X328685Y266028D01*
X329669Y266291D01*
X330390Y267012D01*
X330654Y267996D01*
X390118Y353256D02*
X389331D01*
X390118D01*
X221312Y322205D02*
Y337953D01*
X240997D01*
Y322205D02*
Y337953D01*
X221312Y322205D02*
X240997D01*
X221312Y324173D02*
X223280Y322205D01*
X254130Y351153D02*
Y357846D01*
X257870Y351153D02*
Y357846D01*
X254130Y351153D02*
X257870D01*
X254130Y357846D02*
X257870D01*
X233397Y350880D02*
Y357573D01*
X229656Y350880D02*
Y357573D01*
X233397D01*
X229656Y350880D02*
X233397D01*
X248870Y345153D02*
Y351847D01*
X245130Y345153D02*
Y351847D01*
X248870D01*
X245130Y345153D02*
X248870D01*
X331630Y347555D02*
Y354445D01*
X335370Y347555D02*
Y354445D01*
X331630Y347555D02*
X335370D01*
X331630Y354445D02*
X335370D01*
X326130Y356153D02*
Y362846D01*
X329870Y356153D02*
Y362846D01*
X326130Y356153D02*
X329870D01*
X326130Y362846D02*
X329870D01*
X304153Y338870D02*
X310846D01*
X304153Y335130D02*
X310846D01*
X304153D02*
Y338870D01*
X310846Y335130D02*
Y338870D01*
X259079Y266453D02*
X261047Y268421D01*
X259079Y258579D02*
Y268421D01*
Y258579D02*
X268921D01*
Y268421D01*
X259079D02*
X268921D01*
X257555Y274630D02*
X264445D01*
X257555Y278370D02*
X264445D01*
Y274630D02*
Y278370D01*
X257555Y274630D02*
Y278370D01*
X263154Y242870D02*
X269847D01*
X263154Y239130D02*
X269847D01*
X263154D02*
Y242870D01*
X269847Y239130D02*
Y242870D01*
X263055Y248630D02*
X269945D01*
X263055Y252370D02*
X269945D01*
Y248630D02*
Y252370D01*
X263055Y248630D02*
Y252370D01*
X141870Y265555D02*
Y272445D01*
X138130Y265555D02*
Y272445D01*
X141870D01*
X138130Y265555D02*
X141870D01*
X150870D02*
Y272445D01*
X147130Y265555D02*
Y272445D01*
X150870D01*
X147130Y265555D02*
X150870D01*
X132370D02*
Y272445D01*
X128630Y265555D02*
Y272445D01*
X132370D01*
X128630Y265555D02*
X132370D01*
X128630Y294153D02*
Y300847D01*
X132370Y294153D02*
Y300847D01*
X128630Y294153D02*
X132370D01*
X128630Y300847D02*
X132370D01*
X132370Y279654D02*
Y286347D01*
X128630Y279654D02*
Y286347D01*
X132370D01*
X128630Y279654D02*
X132370D01*
X168870Y331055D02*
Y337945D01*
X165130Y331055D02*
Y337945D01*
X168870D01*
X165130Y331055D02*
X168870D01*
X211702Y315098D02*
Y339902D01*
X186898Y315098D02*
Y339902D01*
X211702D01*
X186898Y315098D02*
X211702D01*
X247355Y335370D02*
X254245D01*
X247355Y331630D02*
X254245D01*
X247355D02*
Y335370D01*
X254245Y331630D02*
Y335370D01*
X247355Y326370D02*
X254245D01*
X247355Y322630D02*
X254245D01*
X247355D02*
Y326370D01*
X254245Y322630D02*
Y326370D01*
X254153Y317370D02*
X260846D01*
X254153Y313630D02*
X260846D01*
X254153D02*
Y317370D01*
X260846Y313630D02*
Y317370D01*
X132653Y240630D02*
X139347D01*
X132653Y244370D02*
X139347D01*
Y240630D02*
Y244370D01*
X132653Y240630D02*
Y244370D01*
X378153Y361130D02*
X384846D01*
X378153Y364870D02*
X384846D01*
Y361130D02*
Y364870D01*
X378153Y361130D02*
Y364870D01*
X395555Y364870D02*
X402445D01*
X395555Y361130D02*
X402445D01*
X395555D02*
Y364870D01*
X402445Y361130D02*
Y364870D01*
X363555Y361130D02*
X370445D01*
X363555Y364870D02*
X370445D01*
Y361130D02*
Y364870D01*
X363555Y361130D02*
Y364870D01*
X371370Y348654D02*
Y355346D01*
X367630Y348654D02*
Y355346D01*
X371370D01*
X367630Y348654D02*
X371370D01*
X395153Y337370D02*
X401847D01*
X395153Y333630D02*
X401847D01*
X395153D02*
Y337370D01*
X401847Y333630D02*
Y337370D01*
X394130Y303055D02*
Y309945D01*
X397870Y303055D02*
Y309945D01*
X394130Y303055D02*
X397870D01*
X394130Y309945D02*
X397870D01*
X384630Y303055D02*
Y309945D01*
X388370Y303055D02*
Y309945D01*
X384630Y303055D02*
X388370D01*
X384630Y309945D02*
X388370D01*
X375130Y303055D02*
Y309945D01*
X378870Y303055D02*
Y309945D01*
X375130Y303055D02*
X378870D01*
X375130Y309945D02*
X378870D01*
X399130Y271654D02*
Y278346D01*
X402870Y271654D02*
Y278346D01*
X399130Y271654D02*
X402870D01*
X399130Y278346D02*
X402870D01*
X409370Y229055D02*
Y235945D01*
X405630Y229055D02*
Y235945D01*
X409370D01*
X405630Y229055D02*
X409370D01*
X399870D02*
Y235945D01*
X396130Y229055D02*
Y235945D01*
X399870D01*
X396130Y229055D02*
X399870D01*
X390370D02*
Y235945D01*
X386630Y229055D02*
Y235945D01*
X390370D01*
X386630Y229055D02*
X390370D01*
X424154Y191870D02*
X430847D01*
X424154Y188130D02*
X430847D01*
X424154D02*
Y191870D01*
X430847Y188130D02*
Y191870D01*
X424154Y183870D02*
X430847D01*
X424154Y180130D02*
X430847D01*
X424154D02*
Y183870D01*
X430847Y180130D02*
Y183870D01*
X424154Y175870D02*
X430847D01*
X424154Y172130D02*
X430847D01*
X424154D02*
Y175870D01*
X430847Y172130D02*
Y175870D01*
X423654Y162130D02*
X430346D01*
X423654Y165870D02*
X430346D01*
Y162130D02*
Y165870D01*
X423654Y162130D02*
Y165870D01*
Y154130D02*
X430346D01*
X423654Y157870D02*
X430346D01*
Y154130D02*
Y157870D01*
X423654Y154130D02*
Y157870D01*
Y146130D02*
X430346D01*
X423654Y149870D02*
X430346D01*
Y146130D02*
Y149870D01*
X423654Y146130D02*
Y149870D01*
X278130Y270654D02*
X281870D01*
X278130Y277346D02*
X281870D01*
X278130Y270654D02*
Y277346D01*
X281870Y270654D02*
Y277346D01*
X287630Y270654D02*
X291370D01*
X287630Y277346D02*
X291370D01*
X287630Y270654D02*
Y277346D01*
X291370Y270654D02*
Y277346D01*
X297130Y270654D02*
X300870D01*
X297130Y277346D02*
X300870D01*
X297130Y270654D02*
Y277346D01*
X300870Y270654D02*
Y277346D01*
X278130Y256153D02*
X281870D01*
X278130Y262846D02*
X281870D01*
X278130Y256153D02*
Y262846D01*
X281870Y256153D02*
Y262846D01*
X287630Y256153D02*
X291370D01*
X287630Y262846D02*
X291370D01*
X287630Y256153D02*
Y262846D01*
X291370Y256153D02*
Y262846D01*
X297130Y256153D02*
X300870D01*
X297130Y262846D02*
X300870D01*
X297130Y256153D02*
Y262846D01*
X300870Y256153D02*
Y262846D01*
X223598Y276402D02*
X248402D01*
X223598Y251598D02*
X248402D01*
Y276402D01*
X223598Y251598D02*
Y276402D01*
X239647Y308630D02*
Y312370D01*
X232954Y308630D02*
Y312370D01*
Y308630D02*
X239647D01*
X232954Y312370D02*
X239647D01*
X124531Y249854D02*
X128469D01*
X124531Y244146D02*
Y249854D01*
Y244146D02*
X128469D01*
Y249854D01*
X127484D02*
X128469Y248870D01*
X310846Y326630D02*
Y330370D01*
X304153Y326630D02*
Y330370D01*
Y326630D02*
X310846D01*
X304153Y330370D02*
X310846D01*
X290154Y335130D02*
Y338870D01*
X296847Y335130D02*
Y338870D01*
X290154D02*
X296847D01*
X290154Y335130D02*
X296847D01*
X325142Y251461D02*
Y271539D01*
X342858Y251461D02*
Y271539D01*
X325142D02*
X342858D01*
X325142Y251461D02*
X342858D01*
X350406Y347500D02*
Y359311D01*
X338595Y347500D02*
X350406D01*
X338595D02*
Y359311D01*
X350406D01*
X347453D02*
X350406Y356358D01*
X390905Y346563D02*
Y354437D01*
X379095Y346563D02*
X390905D01*
X379095D02*
Y354437D01*
X390905D01*
X144130Y218847D02*
X147870D01*
X144130Y212154D02*
X147870D01*
Y218847D01*
X144130Y212154D02*
Y218847D01*
X157653Y190630D02*
Y194370D01*
X164347Y190630D02*
Y194370D01*
X157653D02*
X164347D01*
X157653Y190630D02*
X164347D01*
X156130Y183846D02*
X159870D01*
X156130Y177154D02*
X159870D01*
Y183846D01*
X156130Y177154D02*
Y183846D01*
X144130Y205346D02*
X147870D01*
X144130Y198653D02*
X147870D01*
Y205346D01*
X144130Y198653D02*
Y205346D01*
X261130Y214347D02*
X264870D01*
X261130Y207653D02*
X264870D01*
Y214347D01*
X261130Y207653D02*
Y214347D01*
X242130D02*
X245870D01*
X242130Y207653D02*
X245870D01*
Y214347D01*
X242130Y207653D02*
Y214347D01*
X251630D02*
X255370D01*
X251630Y207653D02*
X255370D01*
Y214347D01*
X251630Y207653D02*
Y214347D01*
X233630D02*
X237370D01*
X233630Y207653D02*
X237370D01*
Y214347D01*
X233630Y207653D02*
Y214347D01*
X168630Y242846D02*
X172370D01*
X168630Y236154D02*
X172370D01*
Y242846D01*
X168630Y236154D02*
Y242846D01*
X132653Y249630D02*
Y253370D01*
X139347Y249630D02*
Y253370D01*
X132653D02*
X139347D01*
X132653Y249630D02*
X139347D01*
X168630Y250555D02*
X172370D01*
X168630Y257445D02*
X172370D01*
X168630Y250555D02*
Y257445D01*
X172370Y250555D02*
Y257445D01*
X178130Y242945D02*
X181870D01*
X178130Y236055D02*
X181870D01*
Y242945D01*
X178130Y236055D02*
Y242945D01*
Y257347D02*
X181870D01*
X178130Y250654D02*
X181870D01*
Y257347D01*
X178130Y250654D02*
Y257347D01*
X155630Y355847D02*
X159370D01*
X155630Y349153D02*
X159370D01*
Y355847D01*
X155630Y349153D02*
Y355847D01*
X158610Y308295D02*
X172390D01*
Y282705D02*
Y308295D01*
X158610Y282705D02*
X172390D01*
X158610D02*
Y308295D01*
Y299240D02*
X167665Y308295D01*
D116*
X150949Y251035D02*
X157051D01*
Y242965D02*
Y251035D01*
X150949Y242965D02*
X157051D01*
X150949D02*
Y251035D01*
M02*
