G04*
G04 #@! TF.GenerationSoftware,Altium Limited,Altium Designer,19.1.8 (144)*
G04*
G04 Layer_Physical_Order=2*
G04 Layer_Color=16711680*
%FSLAX25Y25*%
%MOIN*%
G70*
G01*
G75*
%ADD16C,0.00800*%
%ADD75R,0.07480X0.07480*%
%ADD83C,0.03347*%
%ADD88C,0.07000*%
%ADD89C,0.10000*%
%ADD90C,0.05000*%
%ADD91C,0.02000*%
%ADD92C,0.08000*%
%ADD93C,0.01200*%
%ADD94C,0.03000*%
%ADD95C,0.01500*%
%ADD97C,0.07480*%
%ADD98C,0.06693*%
%ADD99C,0.07874*%
%ADD100C,0.23622*%
%ADD101O,0.15000X0.19685*%
%ADD102C,0.03937*%
%ADD103C,0.05000*%
%ADD104C,0.03500*%
%ADD105R,0.01378X0.02480*%
%ADD106R,0.02284X0.01181*%
%ADD107R,0.02284X0.00984*%
%ADD108R,0.02953X0.00984*%
G36*
X489285Y254960D02*
X488363Y254476D01*
X487785Y254366D01*
X486635Y255310D01*
X485158Y256100D01*
X483556Y256586D01*
X482890Y256651D01*
Y245866D01*
Y235081D01*
X483556Y235146D01*
X485158Y235633D01*
X486635Y236422D01*
X487785Y237366D01*
X488363Y237256D01*
X489285Y236772D01*
Y102447D01*
X405990D01*
Y115748D01*
X405963Y115884D01*
X405975Y116022D01*
X405876Y116898D01*
X405793Y117160D01*
X405754Y117432D01*
X405463Y118264D01*
X405323Y118501D01*
X405225Y118758D01*
X404756Y119505D01*
X404567Y119704D01*
X404415Y119933D01*
X403873Y120474D01*
X403904Y120866D01*
X404186Y121641D01*
X404408Y121974D01*
X440500D01*
X441283Y122077D01*
X442013Y122380D01*
X442640Y122860D01*
X458140Y138360D01*
X458621Y138987D01*
X458923Y139717D01*
X459026Y140500D01*
Y145161D01*
X459037Y145207D01*
X459046Y145411D01*
X459061Y145520D01*
X459087Y145631D01*
X459125Y145747D01*
X459178Y145871D01*
X459249Y146005D01*
X459341Y146151D01*
X459458Y146308D01*
X459600Y146476D01*
X459774Y146657D01*
X459813Y146687D01*
X460670Y147804D01*
X461209Y149104D01*
X461393Y150500D01*
X461209Y151896D01*
X460670Y153196D01*
X459813Y154313D01*
X459445Y154596D01*
Y156404D01*
X459813Y156687D01*
X460670Y157804D01*
X461209Y159104D01*
X461393Y160500D01*
X461209Y161896D01*
X460670Y163196D01*
X459813Y164313D01*
X459445Y164596D01*
Y166404D01*
X459813Y166687D01*
X460670Y167804D01*
X461209Y169104D01*
X461393Y170500D01*
X461209Y171896D01*
X460670Y173196D01*
X459813Y174313D01*
X459445Y174596D01*
Y176404D01*
X459813Y176687D01*
X460670Y177804D01*
X461209Y179104D01*
X461393Y180500D01*
X461209Y181896D01*
X460670Y183196D01*
X459813Y184313D01*
X459445Y184596D01*
Y186404D01*
X459813Y186687D01*
X460670Y187804D01*
X461209Y189104D01*
X461393Y190500D01*
X461209Y191896D01*
X460670Y193196D01*
X459813Y194313D01*
X459445Y194596D01*
Y196404D01*
X459813Y196687D01*
X460670Y197804D01*
X461209Y199104D01*
X461393Y200500D01*
X461209Y201896D01*
X460670Y203196D01*
X459813Y204313D01*
X459445Y204596D01*
Y206404D01*
X459813Y206687D01*
X460670Y207804D01*
X461209Y209104D01*
X461393Y210500D01*
X461209Y211896D01*
X460670Y213196D01*
X459813Y214313D01*
X459445Y214596D01*
Y216404D01*
X459813Y216687D01*
X460670Y217804D01*
X461209Y219104D01*
X461393Y220500D01*
X461209Y221896D01*
X460670Y223196D01*
X459813Y224313D01*
X459445Y224596D01*
Y226404D01*
X459813Y226687D01*
X460670Y227804D01*
X461209Y229104D01*
X461393Y230500D01*
X461209Y231896D01*
X460670Y233196D01*
X459813Y234313D01*
X459445Y234596D01*
Y236404D01*
X459813Y236687D01*
X460670Y237804D01*
X461209Y239104D01*
X461393Y240500D01*
X461209Y241896D01*
X460670Y243196D01*
X459813Y244313D01*
X458696Y245170D01*
X457396Y245709D01*
X456000Y245893D01*
X454604Y245709D01*
X453304Y245170D01*
X452187Y244313D01*
X451330Y243196D01*
X451271Y243053D01*
X450596Y242888D01*
X449602Y242945D01*
X449100Y243600D01*
X448192Y244297D01*
X447135Y244735D01*
X447000Y244752D01*
Y240500D01*
X446000D01*
Y239500D01*
X441748D01*
X441765Y239365D01*
X442203Y238308D01*
X442900Y237400D01*
X443555Y236898D01*
X443612Y235904D01*
X443447Y235229D01*
X443304Y235170D01*
X442187Y234313D01*
X441330Y233196D01*
X440791Y231896D01*
X440607Y230500D01*
X440791Y229104D01*
X441330Y227804D01*
X442187Y226687D01*
X442555Y226404D01*
Y224596D01*
X442187Y224313D01*
X441330Y223196D01*
X440791Y221896D01*
X440607Y220500D01*
X440791Y219104D01*
X441330Y217804D01*
X442187Y216687D01*
X443304Y215830D01*
X443447Y215771D01*
X443612Y215096D01*
X443555Y214102D01*
X442900Y213600D01*
X442203Y212692D01*
X441765Y211635D01*
X441748Y211500D01*
X446000D01*
Y209500D01*
X441748D01*
X441765Y209365D01*
X442203Y208308D01*
X442900Y207400D01*
X443555Y206898D01*
X443612Y205904D01*
X443447Y205229D01*
X443304Y205170D01*
X442187Y204313D01*
X441330Y203196D01*
X440791Y201896D01*
X440607Y200500D01*
X440791Y199104D01*
X441094Y198372D01*
X440487Y198120D01*
X439860Y197640D01*
X430360Y188140D01*
X429880Y187513D01*
X429577Y186783D01*
X429474Y186000D01*
Y157753D01*
X427247Y155526D01*
X409894D01*
X408874Y156954D01*
X408875Y157026D01*
X409003Y158000D01*
X408866Y159036D01*
X408466Y160001D01*
X407915Y160720D01*
X407863Y160803D01*
X407804Y160866D01*
X407801Y160879D01*
X407796Y160905D01*
X407792Y160946D01*
X407788Y161068D01*
X407774Y161129D01*
Y194500D01*
X407679Y195218D01*
X407402Y195887D01*
X406961Y196461D01*
X406274Y197149D01*
Y257500D01*
X406179Y258218D01*
X405902Y258887D01*
X405461Y259461D01*
X402461Y262461D01*
X401887Y262902D01*
X401218Y263179D01*
X400500Y263274D01*
X372967D01*
X372866Y264036D01*
X372466Y265001D01*
X371830Y265830D01*
X371001Y266466D01*
X370036Y266866D01*
X369000Y267003D01*
X367964Y266866D01*
X366999Y266466D01*
X366170Y265830D01*
X365991Y265598D01*
X365464Y264995D01*
X364036Y264866D01*
X363000Y265003D01*
X361964Y264866D01*
X360999Y264467D01*
X360170Y263830D01*
X359534Y263001D01*
X359134Y262036D01*
X358997Y261000D01*
X359134Y259964D01*
X359534Y258999D01*
X360170Y258170D01*
Y257330D01*
X359534Y256501D01*
X359134Y255536D01*
X358344Y255187D01*
X357406Y255736D01*
X357366Y256036D01*
X356966Y257001D01*
X356330Y257830D01*
X355644Y258357D01*
X355622Y258377D01*
Y278794D01*
X355637Y278854D01*
X355641Y278930D01*
X355641Y278931D01*
X355650Y278949D01*
X355669Y278978D01*
X355700Y279020D01*
X355745Y279074D01*
X355848Y279181D01*
X355893Y279251D01*
X356467Y279999D01*
X356866Y280964D01*
X357003Y282000D01*
X356866Y283036D01*
X356467Y284001D01*
X355830Y284830D01*
X355001Y285467D01*
X354036Y285866D01*
X353000Y286003D01*
X351964Y285866D01*
X350999Y285467D01*
X350170Y284830D01*
X349534Y284001D01*
X349134Y283036D01*
X348997Y282000D01*
X349134Y280964D01*
X349534Y279999D01*
X350107Y279251D01*
X350152Y279181D01*
X350255Y279074D01*
X350300Y279020D01*
X350331Y278978D01*
X350350Y278949D01*
X350359Y278931D01*
X350360Y278930D01*
X350363Y278854D01*
X350378Y278794D01*
Y258066D01*
X350376Y258061D01*
X350378Y258039D01*
Y257952D01*
X350362Y257886D01*
X350359Y257792D01*
X350355Y257759D01*
X350348Y257715D01*
X350341Y257684D01*
X350273Y257480D01*
X350253Y257430D01*
X350122Y257165D01*
X350041Y257023D01*
X350032Y256998D01*
X349634Y256036D01*
X348023Y255294D01*
X347622Y255543D01*
Y260000D01*
X347622Y260000D01*
X347533Y260679D01*
X347271Y261311D01*
X346854Y261854D01*
X346854Y261854D01*
X338961Y269748D01*
X339356Y271474D01*
X339501Y271533D01*
X340330Y272170D01*
X340967Y272999D01*
X341366Y273964D01*
X341503Y275000D01*
X341366Y276036D01*
X340967Y277001D01*
X340330Y277830D01*
X339803Y278235D01*
X339771Y278311D01*
X339354Y278854D01*
X339354Y278854D01*
X311854Y306354D01*
X311311Y306771D01*
X310679Y307033D01*
X310000Y307122D01*
X310000Y307122D01*
X282166D01*
X281972Y307264D01*
X281225Y308622D01*
X281366Y308964D01*
X281503Y310000D01*
X281366Y311036D01*
X280966Y312001D01*
X280330Y312830D01*
X279501Y313467D01*
X278536Y313866D01*
X277500Y314003D01*
X276464Y313866D01*
X275499Y313467D01*
X274751Y312893D01*
X274681Y312848D01*
X274574Y312745D01*
X274520Y312700D01*
X274478Y312669D01*
X274449Y312650D01*
X274431Y312641D01*
X274430Y312641D01*
X274354Y312637D01*
X274294Y312622D01*
X263706D01*
X263646Y312637D01*
X263570Y312641D01*
X263569Y312641D01*
X263551Y312650D01*
X263522Y312669D01*
X263480Y312700D01*
X263426Y312745D01*
X263319Y312848D01*
X263249Y312893D01*
X262501Y313467D01*
X261536Y313866D01*
X260500Y314003D01*
X259464Y313866D01*
X258499Y313467D01*
X257670Y312830D01*
X257033Y312001D01*
X256634Y311036D01*
X256497Y310000D01*
X256634Y308964D01*
X256775Y308622D01*
X256028Y307264D01*
X255834Y307122D01*
X252206D01*
X252146Y307137D01*
X252070Y307140D01*
X252069Y307141D01*
X252051Y307150D01*
X252022Y307169D01*
X251980Y307200D01*
X251926Y307245D01*
X251819Y307348D01*
X251749Y307393D01*
X251001Y307966D01*
X250036Y308366D01*
X249000Y308503D01*
X247964Y308366D01*
X246999Y307966D01*
X246170Y307330D01*
X245533Y306501D01*
X245134Y305536D01*
X245029Y304738D01*
X244958Y304649D01*
X244548Y304361D01*
X243544Y304050D01*
X243001Y304467D01*
X242036Y304866D01*
X241000Y305003D01*
X239964Y304866D01*
X238999Y304467D01*
X238170Y303830D01*
X237533Y303001D01*
X237134Y302036D01*
X236997Y301000D01*
X237113Y300122D01*
X237057Y299868D01*
X236066Y298622D01*
X226586D01*
X223121Y302087D01*
X223089Y302140D01*
X223038Y302196D01*
X223038Y302197D01*
X223032Y302216D01*
X223024Y302250D01*
X223016Y302302D01*
X223010Y302372D01*
X223007Y302520D01*
X222989Y302602D01*
X222866Y303536D01*
X222466Y304501D01*
X222106Y304971D01*
X222521Y306167D01*
X222772Y306471D01*
X224000D01*
X225176Y306587D01*
X226307Y306930D01*
X227349Y307487D01*
X228263Y308237D01*
X229013Y309151D01*
X229570Y310193D01*
X229913Y311324D01*
X230029Y312500D01*
X229913Y313676D01*
X229570Y314807D01*
X229013Y315849D01*
X228263Y316763D01*
X227349Y317513D01*
X226307Y318070D01*
X225176Y318413D01*
X224000Y318529D01*
X211500D01*
Y333968D01*
X213000Y334477D01*
X213317Y334064D01*
X215591Y331791D01*
X216531Y331069D01*
X217625Y330616D01*
X218800Y330461D01*
X219975Y330616D01*
X221069Y331069D01*
X222009Y331791D01*
X222731Y332731D01*
X223184Y333825D01*
X223339Y335000D01*
X223338Y335009D01*
X223421Y335272D01*
X224560Y336560D01*
X224570Y336562D01*
X224975Y336616D01*
X226069Y337069D01*
X227009Y337791D01*
X227731Y338731D01*
X228184Y339825D01*
X228339Y341000D01*
Y349420D01*
X229380Y350461D01*
X233420D01*
X247591Y336291D01*
X248531Y335569D01*
X249625Y335116D01*
X250800Y334961D01*
X251975Y335116D01*
X253069Y335569D01*
X254009Y336291D01*
X254049Y336343D01*
X255499Y336533D01*
X256310Y336197D01*
X256504Y336004D01*
X257235Y335443D01*
X258086Y335090D01*
X259000Y334970D01*
X272000D01*
X272914Y335090D01*
X273765Y335443D01*
X274496Y336004D01*
X288962Y350470D01*
X314351D01*
X314861Y349920D01*
X315328Y348970D01*
X315087Y348176D01*
X314971Y347000D01*
Y332000D01*
X315087Y330824D01*
X315430Y329693D01*
X315987Y328650D01*
X316737Y327737D01*
X327237Y317237D01*
X328151Y316487D01*
X329193Y315930D01*
X330324Y315587D01*
X331500Y315471D01*
X360003D01*
X366471Y309003D01*
Y302000D01*
X366587Y300824D01*
X366930Y299693D01*
X367487Y298651D01*
X368237Y297737D01*
X369150Y296987D01*
X370193Y296430D01*
X371324Y296087D01*
X372500Y295971D01*
X372706Y295991D01*
X373000Y295953D01*
X373000Y295953D01*
X408740D01*
X409726Y295196D01*
X411064Y294642D01*
X412500Y294453D01*
X421373D01*
X421482Y294408D01*
X422980Y294210D01*
X424479Y294408D01*
X425875Y294986D01*
X427074Y295906D01*
X427994Y297105D01*
X428573Y298501D01*
X428770Y300000D01*
X428573Y301499D01*
X427994Y302895D01*
X427331Y303760D01*
X427740Y305260D01*
X427740D01*
Y309000D01*
X423000D01*
X418260D01*
Y305547D01*
X414760D01*
X413774Y306304D01*
X412436Y306858D01*
X411000Y307048D01*
X378529D01*
Y311500D01*
X378529Y311500D01*
X378413Y312676D01*
X378070Y313807D01*
X377513Y314849D01*
X376763Y315763D01*
X376763Y315763D01*
X366763Y325763D01*
X365849Y326513D01*
X364807Y327070D01*
X363676Y327413D01*
X362500Y327529D01*
X333997D01*
X327029Y334497D01*
Y347000D01*
X326913Y348176D01*
X326570Y349307D01*
X326403Y349621D01*
X326031Y350392D01*
X326496Y351504D01*
X327584Y352591D01*
X328970Y352017D01*
Y346500D01*
X329090Y345586D01*
X329443Y344735D01*
X330004Y344004D01*
X334115Y339893D01*
X334670Y339170D01*
X335499Y338533D01*
X336464Y338134D01*
X337500Y337997D01*
X338536Y338134D01*
X339501Y338533D01*
X340330Y339170D01*
X340967Y339999D01*
X341366Y340964D01*
X341503Y342000D01*
X341366Y343036D01*
X340967Y344001D01*
X340330Y344830D01*
X339501Y345466D01*
X338536Y345866D01*
X338064Y345929D01*
X336030Y347962D01*
Y364538D01*
X336962Y365470D01*
X340038D01*
X342197Y363310D01*
X342533Y362499D01*
X343170Y361670D01*
X343999Y361034D01*
X344810Y360697D01*
X345004Y360504D01*
X345735Y359943D01*
X346586Y359590D01*
X347500Y359470D01*
X347500Y359470D01*
X372304D01*
X373116Y359134D01*
X374152Y358997D01*
X375188Y359134D01*
X375999Y359470D01*
X380152D01*
X381065Y359590D01*
X381917Y359943D01*
X382648Y360504D01*
X383209Y361235D01*
X383561Y362086D01*
X383682Y363000D01*
X383561Y363914D01*
X383209Y364765D01*
X382648Y365496D01*
X381917Y366057D01*
X381065Y366410D01*
X380152Y366530D01*
X375999D01*
X375188Y366866D01*
X374152Y367003D01*
X373116Y366866D01*
X372304Y366530D01*
X349444D01*
X348830Y367330D01*
X348001Y367967D01*
X347190Y368303D01*
X343996Y371496D01*
X343265Y372057D01*
X342414Y372410D01*
X341500Y372530D01*
X335500D01*
X335284Y372502D01*
X334459Y373906D01*
X334877Y374470D01*
X417060D01*
Y365760D01*
X417060D01*
X417643Y364502D01*
X417730Y364260D01*
X417208Y362999D01*
X417010Y361500D01*
X417208Y360001D01*
X417786Y358605D01*
X418706Y357406D01*
X418910Y357250D01*
Y355750D01*
X418706Y355594D01*
X417786Y354395D01*
X417208Y352998D01*
X417010Y351500D01*
X417208Y350002D01*
X417786Y348605D01*
X418706Y347406D01*
X418910Y347250D01*
Y345750D01*
X418706Y345594D01*
X417786Y344395D01*
X417208Y342999D01*
X417010Y341500D01*
X417208Y340002D01*
X417786Y338605D01*
X418706Y337406D01*
X419476Y336815D01*
X419667Y335417D01*
X419574Y334999D01*
X419419Y334881D01*
X418659Y333891D01*
X418182Y332737D01*
X418151Y332500D01*
X422800D01*
X427449D01*
X427418Y332737D01*
X426940Y333891D01*
X426181Y334881D01*
X426026Y334999D01*
X425933Y335417D01*
X426124Y336815D01*
X426894Y337406D01*
X427814Y338605D01*
X428392Y340002D01*
X428543Y341143D01*
X428573Y341254D01*
X428589Y341479D01*
X428610Y341614D01*
X428643Y341748D01*
X428688Y341886D01*
X428749Y342028D01*
X428828Y342178D01*
X428927Y342336D01*
X429048Y342502D01*
X429194Y342678D01*
X429407Y342903D01*
X429426Y342934D01*
X432996Y346504D01*
X433557Y347235D01*
X433910Y348086D01*
X434030Y349000D01*
Y375500D01*
X433910Y376414D01*
X433557Y377265D01*
X432996Y377996D01*
X430496Y380496D01*
X429765Y381057D01*
X428914Y381410D01*
X428000Y381530D01*
X333000D01*
X332086Y381410D01*
X331235Y381057D01*
X330504Y380496D01*
X330504Y380496D01*
X324538Y374530D01*
X257000D01*
X257000Y374530D01*
X256086Y374410D01*
X255235Y374057D01*
X254504Y373496D01*
X246270Y365262D01*
X244643Y365757D01*
X244431Y366269D01*
X243709Y367209D01*
X242769Y367931D01*
X241675Y368384D01*
X240678Y368515D01*
X240448Y368611D01*
X239274Y368765D01*
X225026D01*
X225026Y368765D01*
X223852Y368611D01*
X222757Y368157D01*
X221817Y367436D01*
X221817Y367436D01*
X213317Y358936D01*
X212939Y358443D01*
X211504Y359037D01*
X211529Y359226D01*
X211393Y360262D01*
X210993Y361228D01*
X210802Y361476D01*
X210993Y361725D01*
X211393Y362690D01*
X211529Y363726D01*
X211393Y364762D01*
X210993Y365728D01*
X210357Y366557D01*
X209528Y367193D01*
X208562Y367593D01*
X207526Y367729D01*
X206490Y367593D01*
X205525Y367193D01*
X204696Y366557D01*
X204060Y365728D01*
X203660Y364762D01*
X203524Y363726D01*
X203660Y362690D01*
X204060Y361725D01*
X204251Y361476D01*
X204060Y361228D01*
X203660Y360262D01*
X203524Y359226D01*
X203660Y358190D01*
X204060Y357225D01*
X204696Y356396D01*
X205525Y355760D01*
X206490Y355360D01*
X207526Y355224D01*
X208562Y355360D01*
X209528Y355760D01*
X210357Y356396D01*
X210605Y356720D01*
X212040Y356126D01*
X211988Y355726D01*
Y345298D01*
X211500Y344000D01*
X210488Y344000D01*
X189530D01*
X189107Y345500D01*
X189443Y345706D01*
X190977Y347016D01*
X192286Y348549D01*
X193340Y350268D01*
X194111Y352131D01*
X194582Y354092D01*
X194662Y355102D01*
X182890D01*
Y343330D01*
X183900Y343410D01*
X185500Y343794D01*
X186443Y343292D01*
X187000Y342729D01*
Y312000D01*
X187514D01*
X188088Y310614D01*
X180737Y303263D01*
X179987Y302349D01*
X179430Y301307D01*
X179087Y300176D01*
X178971Y299000D01*
Y295000D01*
X179087Y293824D01*
X179430Y292693D01*
X179987Y291651D01*
X180737Y290737D01*
X181650Y289987D01*
X182693Y289430D01*
X182739Y289416D01*
X207952Y264202D01*
Y262000D01*
X208142Y260564D01*
X208696Y259226D01*
X209577Y258077D01*
X210726Y257196D01*
X212064Y256642D01*
X213500Y256452D01*
X214936Y256642D01*
X216274Y257196D01*
X217423Y258077D01*
X218304Y259226D01*
X218858Y260564D01*
X219047Y262000D01*
Y266500D01*
X219047Y266500D01*
X218858Y267936D01*
X218304Y269274D01*
X217423Y270423D01*
X217423Y270423D01*
X206019Y281826D01*
X206794Y283065D01*
X206855Y283112D01*
X208000Y282961D01*
X209175Y283116D01*
X210269Y283569D01*
X211209Y284291D01*
X211931Y285231D01*
X212384Y286325D01*
X212539Y287500D01*
Y301500D01*
X212384Y302675D01*
X211931Y303769D01*
X211209Y304709D01*
X210869Y304971D01*
X211378Y306471D01*
X215228D01*
X215479Y306167D01*
X215894Y304971D01*
X215533Y304501D01*
X215134Y303536D01*
X214997Y302500D01*
X215134Y301464D01*
X215533Y300499D01*
X216170Y299670D01*
X216999Y299033D01*
X217964Y298634D01*
X218898Y298511D01*
X218980Y298493D01*
X219128Y298490D01*
X219198Y298484D01*
X219250Y298476D01*
X219284Y298468D01*
X219303Y298462D01*
X219304Y298462D01*
X219360Y298411D01*
X219413Y298379D01*
X223646Y294146D01*
X223646Y294146D01*
X224189Y293729D01*
X224821Y293467D01*
X225500Y293378D01*
X225500Y293378D01*
X302914D01*
X314317Y281974D01*
X314162Y281252D01*
X313706Y280464D01*
X312964Y280366D01*
X311999Y279966D01*
X311251Y279393D01*
X311181Y279348D01*
X311074Y279245D01*
X311020Y279200D01*
X310978Y279169D01*
X310949Y279150D01*
X310931Y279141D01*
X310930Y279140D01*
X310854Y279137D01*
X310794Y279122D01*
X306500D01*
X306500Y279122D01*
X305821Y279033D01*
X305189Y278771D01*
X304646Y278354D01*
X304646Y278354D01*
X299414Y273122D01*
X283750D01*
X283750Y273122D01*
X283071Y273033D01*
X282439Y272771D01*
X281896Y272354D01*
X281896Y272354D01*
X280413Y270871D01*
X280360Y270839D01*
X280304Y270788D01*
X280303Y270788D01*
X280284Y270782D01*
X280250Y270774D01*
X280198Y270766D01*
X280128Y270760D01*
X279979Y270757D01*
X279898Y270739D01*
X278964Y270616D01*
X277999Y270216D01*
X277170Y269580D01*
X276534Y268751D01*
X276134Y267786D01*
X275997Y266750D01*
X276134Y265714D01*
X276534Y264749D01*
X277170Y263920D01*
X277999Y263283D01*
X278964Y262884D01*
X280000Y262747D01*
X281036Y262884D01*
X282001Y263283D01*
X282830Y263920D01*
X283467Y264749D01*
X283834Y265636D01*
X283892Y265731D01*
X284070Y265850D01*
X284946Y265634D01*
X285716Y265265D01*
X286034Y264499D01*
X286670Y263670D01*
X287499Y263034D01*
X288464Y262634D01*
X289500Y262497D01*
X290536Y262634D01*
X291501Y263034D01*
X292249Y263607D01*
X292319Y263652D01*
X292426Y263755D01*
X292480Y263800D01*
X292522Y263831D01*
X292551Y263850D01*
X292569Y263859D01*
X292570Y263860D01*
X292646Y263863D01*
X292706Y263878D01*
X307500D01*
X307500Y263878D01*
X308179Y263967D01*
X308811Y264229D01*
X309354Y264646D01*
X311353Y266645D01*
X311499Y266533D01*
X312464Y266134D01*
X313500Y265997D01*
X314536Y266134D01*
X315501Y266533D01*
X316330Y267170D01*
X316967Y267999D01*
X317366Y268964D01*
X317503Y270000D01*
X317366Y271036D01*
X316967Y272001D01*
X316953Y272018D01*
X316830Y273670D01*
X317466Y274499D01*
X317866Y275464D01*
X317964Y276206D01*
X318752Y276662D01*
X319474Y276817D01*
X339253Y257039D01*
Y251625D01*
X339253Y251625D01*
X339342Y250946D01*
X339604Y250314D01*
X340021Y249771D01*
X344146Y245646D01*
X344146Y245646D01*
X344689Y245229D01*
X345321Y244967D01*
X346000Y244878D01*
X346000Y244878D01*
X374914D01*
X382378Y237414D01*
Y196586D01*
X381646Y195854D01*
X381229Y195311D01*
X380967Y194679D01*
X380878Y194000D01*
X380878Y194000D01*
Y180600D01*
X380860Y180589D01*
X380804Y180538D01*
X380803Y180538D01*
X380784Y180532D01*
X380750Y180524D01*
X380698Y180516D01*
X380628Y180510D01*
X380480Y180507D01*
X380398Y180489D01*
X379464Y180366D01*
X378499Y179966D01*
X377670Y179330D01*
X377033Y178501D01*
X376634Y177536D01*
X376497Y176500D01*
X376634Y175464D01*
X377033Y174499D01*
X377670Y173670D01*
X378499Y173033D01*
X379464Y172634D01*
X380500Y172497D01*
X381536Y172634D01*
X382501Y173033D01*
X383330Y173670D01*
X384670D01*
X385499Y173033D01*
X386464Y172634D01*
X387500Y172497D01*
X388536Y172634D01*
X388726Y172713D01*
X390226Y171799D01*
Y167129D01*
X390212Y167068D01*
X390208Y166946D01*
X390204Y166905D01*
X390199Y166879D01*
X390196Y166866D01*
X390137Y166804D01*
X390085Y166720D01*
X389533Y166001D01*
X389134Y165036D01*
X388997Y164000D01*
X389134Y162964D01*
X389533Y161999D01*
X390170Y161170D01*
X390999Y160533D01*
X391964Y160134D01*
X393000Y159997D01*
X393432Y160054D01*
X394138Y159456D01*
X394484Y159024D01*
X394596Y158748D01*
X394497Y158000D01*
X394625Y157026D01*
X394626Y156954D01*
X393606Y155526D01*
X366083D01*
X365300Y155423D01*
X364570Y155121D01*
X363943Y154640D01*
X357841Y148537D01*
X357805Y148516D01*
X357640Y148368D01*
X357539Y148295D01*
X357414Y148222D01*
X357260Y148151D01*
X357072Y148084D01*
X356848Y148023D01*
X356586Y147972D01*
X356285Y147934D01*
X355946Y147911D01*
X355522Y147905D01*
X355443Y147888D01*
X354348Y147780D01*
X353229Y147441D01*
X352197Y146889D01*
X351293Y146148D01*
X350551Y145244D01*
X350000Y144212D01*
X349661Y143093D01*
X349649Y142979D01*
X349232Y142545D01*
X348244Y141951D01*
Y137008D01*
Y132065D01*
X349232Y131471D01*
X349649Y131037D01*
X349661Y130923D01*
X350000Y129804D01*
X350551Y128772D01*
X351293Y127868D01*
X352197Y127126D01*
X353229Y126575D01*
X354348Y126235D01*
X355443Y126128D01*
X355522Y126111D01*
X355946Y126105D01*
X356285Y126082D01*
X356586Y126044D01*
X356848Y125993D01*
X357072Y125932D01*
X357260Y125865D01*
X357414Y125793D01*
X357539Y125721D01*
X357640Y125648D01*
X357805Y125500D01*
X357841Y125478D01*
X359687Y123632D01*
X359066Y122132D01*
X347638D01*
X347502Y122105D01*
X347364Y122117D01*
X346488Y122018D01*
X346226Y121934D01*
X345953Y121896D01*
X345121Y121605D01*
X344884Y121465D01*
X344628Y121367D01*
X343881Y120898D01*
X343681Y120709D01*
X343453Y120556D01*
X342829Y119933D01*
X342677Y119704D01*
X342488Y119505D01*
X342019Y118758D01*
X341921Y118501D01*
X341781Y118264D01*
X341490Y117432D01*
X341451Y117160D01*
X341368Y116898D01*
X341269Y116022D01*
X341281Y115884D01*
X341254Y115748D01*
Y102447D01*
X133943D01*
Y121850D01*
X133922Y121956D01*
X133934Y122064D01*
X133724Y124456D01*
X133664Y124662D01*
X133650Y124876D01*
X133029Y127197D01*
X132934Y127389D01*
X132883Y127597D01*
X131868Y129774D01*
X131741Y129947D01*
X131654Y130144D01*
X130277Y132111D01*
X130122Y132260D01*
X130002Y132438D01*
X128304Y134136D01*
X128126Y134256D01*
X127977Y134411D01*
X126010Y135788D01*
X125813Y135875D01*
X125640Y136002D01*
X123463Y137017D01*
X123255Y137068D01*
X123063Y137162D01*
X120743Y137784D01*
X120528Y137798D01*
X120323Y137858D01*
X117930Y138068D01*
X117822Y138056D01*
X117717Y138077D01*
X102447D01*
Y353655D01*
X117717D01*
X117822Y353676D01*
X117930Y353665D01*
X120323Y353874D01*
X120528Y353934D01*
X120743Y353948D01*
X123063Y354570D01*
X123255Y354665D01*
X123463Y354716D01*
X125640Y355731D01*
X125813Y355857D01*
X126010Y355944D01*
X127977Y357322D01*
X128126Y357477D01*
X128304Y357596D01*
X130002Y359294D01*
X130122Y359473D01*
X130277Y359621D01*
X131654Y361589D01*
X131741Y361785D01*
X131868Y361958D01*
X132883Y364135D01*
X132934Y364343D01*
X133029Y364536D01*
X133650Y366856D01*
X133664Y367070D01*
X133724Y367276D01*
X133934Y369669D01*
X133922Y369776D01*
X133943Y369882D01*
Y389285D01*
X489285D01*
Y254960D01*
D02*
G37*
G36*
X427924Y344303D02*
X427669Y344032D01*
X427439Y343757D01*
X427236Y343478D01*
X427058Y343194D01*
X426907Y342905D01*
X426781Y342612D01*
X426682Y342315D01*
X426608Y342013D01*
X426560Y341707D01*
X426539Y341396D01*
X422979Y345236D01*
X423289Y345235D01*
X423595Y345263D01*
X423897Y345319D01*
X424194Y345404D01*
X424487Y345517D01*
X424776Y345659D01*
X425061Y345830D01*
X425342Y346028D01*
X425618Y346256D01*
X425890Y346512D01*
X427924Y344303D01*
D02*
G37*
G36*
X276094Y308622D02*
X275940Y308770D01*
X275784Y308902D01*
X275625Y309019D01*
X275464Y309120D01*
X275300Y309206D01*
X275134Y309276D01*
X274965Y309330D01*
X274794Y309369D01*
X274620Y309392D01*
X274444Y309400D01*
Y310600D01*
X274620Y310608D01*
X274794Y310631D01*
X274965Y310670D01*
X275134Y310724D01*
X275300Y310794D01*
X275464Y310880D01*
X275625Y310981D01*
X275784Y311098D01*
X275940Y311230D01*
X276094Y311378D01*
Y308622D01*
D02*
G37*
G36*
X262059Y311230D02*
X262216Y311098D01*
X262375Y310981D01*
X262536Y310880D01*
X262700Y310794D01*
X262866Y310724D01*
X263035Y310670D01*
X263206Y310631D01*
X263380Y310608D01*
X263556Y310600D01*
Y309400D01*
X263380Y309392D01*
X263206Y309369D01*
X263035Y309330D01*
X262866Y309276D01*
X262700Y309206D01*
X262536Y309120D01*
X262375Y309019D01*
X262216Y308902D01*
X262059Y308770D01*
X261906Y308622D01*
Y311378D01*
X262059Y311230D01*
D02*
G37*
G36*
X250559Y305730D02*
X250716Y305598D01*
X250875Y305481D01*
X251036Y305380D01*
X251200Y305294D01*
X251366Y305224D01*
X251535Y305170D01*
X251706Y305131D01*
X251880Y305108D01*
X252056Y305100D01*
Y303900D01*
X251880Y303892D01*
X251706Y303869D01*
X251535Y303830D01*
X251366Y303776D01*
X251200Y303706D01*
X251036Y303620D01*
X250875Y303519D01*
X250716Y303402D01*
X250559Y303270D01*
X250406Y303122D01*
Y305878D01*
X250559Y305730D01*
D02*
G37*
G36*
X220973Y302267D02*
X220990Y302063D01*
X221019Y301868D01*
X221062Y301683D01*
X221117Y301506D01*
X221185Y301339D01*
X221266Y301182D01*
X221360Y301033D01*
X221466Y300893D01*
X221585Y300763D01*
X220737Y299915D01*
X220606Y300034D01*
X220467Y300140D01*
X220319Y300234D01*
X220161Y300315D01*
X219994Y300383D01*
X219817Y300438D01*
X219632Y300481D01*
X219437Y300510D01*
X219233Y300527D01*
X219020Y300532D01*
X220968Y302480D01*
X220973Y302267D01*
D02*
G37*
G36*
X242560Y302230D02*
X242716Y302098D01*
X242875Y301981D01*
X243036Y301880D01*
X243200Y301795D01*
X243366Y301725D01*
X243535Y301670D01*
X243706Y301631D01*
X243880Y301608D01*
X244056Y301600D01*
Y300400D01*
X243880Y300392D01*
X243706Y300369D01*
X243535Y300330D01*
X243366Y300275D01*
X243200Y300205D01*
X243036Y300120D01*
X242875Y300019D01*
X242716Y299902D01*
X242560Y299770D01*
X242406Y299622D01*
Y302378D01*
X242560Y302230D01*
D02*
G37*
G36*
X354230Y280440D02*
X354098Y280284D01*
X353981Y280125D01*
X353880Y279964D01*
X353795Y279800D01*
X353725Y279634D01*
X353670Y279465D01*
X353631Y279294D01*
X353608Y279120D01*
X353600Y278944D01*
X352400D01*
X352392Y279120D01*
X352369Y279294D01*
X352330Y279465D01*
X352275Y279634D01*
X352205Y279800D01*
X352120Y279964D01*
X352019Y280125D01*
X351902Y280284D01*
X351770Y280440D01*
X351622Y280594D01*
X354378D01*
X354230Y280440D01*
D02*
G37*
G36*
X312594Y275122D02*
X312440Y275270D01*
X312284Y275402D01*
X312125Y275519D01*
X311964Y275620D01*
X311800Y275706D01*
X311634Y275776D01*
X311465Y275830D01*
X311294Y275869D01*
X311120Y275892D01*
X310944Y275900D01*
Y277100D01*
X311120Y277108D01*
X311294Y277131D01*
X311465Y277170D01*
X311634Y277224D01*
X311800Y277294D01*
X311964Y277380D01*
X312125Y277481D01*
X312284Y277598D01*
X312440Y277730D01*
X312594Y277878D01*
Y275122D01*
D02*
G37*
G36*
X311632Y269380D02*
X311624Y269384D01*
X311604Y269387D01*
X311572Y269390D01*
X311401Y269397D01*
X311000Y269400D01*
Y270600D01*
X311632Y270620D01*
Y269380D01*
D02*
G37*
G36*
X282585Y268487D02*
X282466Y268356D01*
X282360Y268217D01*
X282266Y268069D01*
X282185Y267911D01*
X282117Y267744D01*
X282062Y267567D01*
X282019Y267382D01*
X281990Y267187D01*
X281973Y266983D01*
X281968Y266770D01*
X280020Y268718D01*
X280233Y268723D01*
X280437Y268740D01*
X280632Y268769D01*
X280817Y268812D01*
X280994Y268867D01*
X281161Y268935D01*
X281318Y269016D01*
X281467Y269110D01*
X281607Y269216D01*
X281737Y269335D01*
X282585Y268487D01*
D02*
G37*
G36*
X291059Y267730D02*
X291216Y267598D01*
X291375Y267481D01*
X291536Y267380D01*
X291700Y267295D01*
X291866Y267225D01*
X292035Y267170D01*
X292206Y267131D01*
X292380Y267108D01*
X292556Y267100D01*
Y265900D01*
X292380Y265892D01*
X292206Y265869D01*
X292035Y265830D01*
X291866Y265775D01*
X291700Y265705D01*
X291536Y265620D01*
X291375Y265519D01*
X291216Y265402D01*
X291059Y265270D01*
X290906Y265122D01*
Y267878D01*
X291059Y267730D01*
D02*
G37*
G36*
X370974Y262806D02*
X370993Y262636D01*
X371026Y262470D01*
X371074Y262307D01*
X371135Y262148D01*
X371210Y261992D01*
X371300Y261841D01*
X371403Y261693D01*
X371521Y261549D01*
X371652Y261408D01*
X370592Y260348D01*
X370451Y260479D01*
X370307Y260597D01*
X370159Y260700D01*
X370008Y260790D01*
X369852Y260865D01*
X369693Y260926D01*
X369531Y260974D01*
X369364Y261007D01*
X369194Y261026D01*
X369020Y261032D01*
X370968Y262980D01*
X370974Y262806D01*
D02*
G37*
G36*
X364974Y260806D02*
X364993Y260636D01*
X365026Y260470D01*
X365074Y260307D01*
X365135Y260148D01*
X365210Y259992D01*
X365300Y259841D01*
X365403Y259693D01*
X365521Y259549D01*
X365652Y259408D01*
X364592Y258348D01*
X364451Y258479D01*
X364307Y258597D01*
X364159Y258700D01*
X364008Y258790D01*
X363852Y258865D01*
X363693Y258926D01*
X363530Y258974D01*
X363364Y259007D01*
X363194Y259026D01*
X363020Y259032D01*
X364968Y260980D01*
X364974Y260806D01*
D02*
G37*
G36*
X353609Y257964D02*
X353635Y257789D01*
X353679Y257624D01*
X353740Y257467D01*
X353819Y257319D01*
X353915Y257180D01*
X354029Y257049D01*
X354160Y256927D01*
X354309Y256814D01*
X354476Y256710D01*
X351810Y256010D01*
X351922Y256205D01*
X352111Y256587D01*
X352188Y256772D01*
X352306Y257133D01*
X352347Y257308D01*
X352376Y257480D01*
X352394Y257648D01*
X352400Y257814D01*
X353600Y258147D01*
X353609Y257964D01*
D02*
G37*
G36*
X364532Y255759D02*
X364667Y255652D01*
X364808Y255558D01*
X364956Y255476D01*
X365112Y255407D01*
X365276Y255350D01*
X365446Y255307D01*
X365624Y255275D01*
X365809Y255256D01*
X366001Y255250D01*
Y253750D01*
X365809Y253744D01*
X365624Y253725D01*
X365446Y253694D01*
X365276Y253649D01*
X365112Y253593D01*
X364956Y253524D01*
X364808Y253442D01*
X364667Y253348D01*
X364532Y253241D01*
X364406Y253122D01*
Y255878D01*
X364532Y255759D01*
D02*
G37*
G36*
X390474Y245306D02*
X390493Y245136D01*
X390526Y244970D01*
X390574Y244807D01*
X390635Y244648D01*
X390710Y244492D01*
X390800Y244341D01*
X390903Y244193D01*
X391021Y244049D01*
X391152Y243908D01*
X390092Y242848D01*
X389951Y242979D01*
X389807Y243097D01*
X389659Y243200D01*
X389508Y243290D01*
X389352Y243365D01*
X389193Y243426D01*
X389031Y243474D01*
X388864Y243507D01*
X388694Y243526D01*
X388520Y243532D01*
X390468Y245480D01*
X390474Y245306D01*
D02*
G37*
G36*
X456320Y197169D02*
X455945Y197124D01*
X455248Y196982D01*
X454926Y196887D01*
X454623Y196774D01*
X454337Y196645D01*
X454069Y196499D01*
X453819Y196335D01*
X453587Y196156D01*
X453373Y195959D01*
X451801Y197216D01*
X452005Y197440D01*
X452184Y197679D01*
X452336Y197932D01*
X452462Y198200D01*
X452563Y198483D01*
X452637Y198780D01*
X452686Y199091D01*
X452708Y199417D01*
X452705Y199758D01*
X452676Y200113D01*
X456320Y197169D01*
D02*
G37*
G36*
X395256Y192809D02*
X395275Y192624D01*
X395306Y192446D01*
X395351Y192276D01*
X395407Y192112D01*
X395476Y191956D01*
X395558Y191808D01*
X395652Y191667D01*
X395759Y191533D01*
X395878Y191406D01*
X393122D01*
X393241Y191533D01*
X393348Y191667D01*
X393442Y191808D01*
X393524Y191956D01*
X393593Y192112D01*
X393650Y192276D01*
X393693Y192446D01*
X393725Y192624D01*
X393744Y192809D01*
X393750Y193001D01*
X395250D01*
X395256Y192809D01*
D02*
G37*
G36*
X455967Y187154D02*
X455599Y187147D01*
X455247Y187118D01*
X454913Y187068D01*
X454594Y186996D01*
X454292Y186903D01*
X454007Y186789D01*
X453738Y186653D01*
X453485Y186495D01*
X453249Y186316D01*
X453029Y186115D01*
X451615Y187529D01*
X451816Y187749D01*
X451995Y187985D01*
X452153Y188238D01*
X452289Y188507D01*
X452403Y188792D01*
X452496Y189094D01*
X452568Y189413D01*
X452618Y189748D01*
X452647Y190099D01*
X452654Y190466D01*
X455967Y187154D01*
D02*
G37*
G36*
X387609Y179464D02*
X387635Y179289D01*
X387679Y179124D01*
X387740Y178967D01*
X387819Y178819D01*
X387915Y178680D01*
X388029Y178549D01*
X388160Y178427D01*
X388309Y178314D01*
X388476Y178210D01*
X385810Y177510D01*
X385922Y177705D01*
X386111Y178087D01*
X386188Y178272D01*
X386306Y178633D01*
X386347Y178808D01*
X386376Y178980D01*
X386394Y179148D01*
X386400Y179314D01*
X387600Y179647D01*
X387609Y179464D01*
D02*
G37*
G36*
X383085Y178237D02*
X382966Y178106D01*
X382860Y177967D01*
X382766Y177819D01*
X382685Y177661D01*
X382617Y177494D01*
X382562Y177317D01*
X382519Y177132D01*
X382490Y176937D01*
X382473Y176733D01*
X382468Y176520D01*
X380520Y178468D01*
X380733Y178473D01*
X380937Y178490D01*
X381132Y178519D01*
X381317Y178562D01*
X381494Y178617D01*
X381661Y178685D01*
X381819Y178766D01*
X381967Y178860D01*
X382106Y178966D01*
X382237Y179085D01*
X383085Y178237D01*
D02*
G37*
G36*
X456674Y177222D02*
X456297Y177137D01*
X455598Y176930D01*
X455277Y176810D01*
X454976Y176677D01*
X454693Y176533D01*
X454429Y176376D01*
X454184Y176209D01*
X453959Y176029D01*
X453752Y175838D01*
X452016Y176930D01*
X452223Y177158D01*
X452400Y177399D01*
X452547Y177651D01*
X452664Y177916D01*
X452751Y178193D01*
X452808Y178482D01*
X452835Y178783D01*
X452832Y179097D01*
X452799Y179422D01*
X452736Y179760D01*
X456674Y177222D01*
D02*
G37*
G36*
X401256Y176809D02*
X401275Y176624D01*
X401306Y176446D01*
X401350Y176276D01*
X401407Y176112D01*
X401476Y175956D01*
X401558Y175808D01*
X401652Y175667D01*
X401759Y175532D01*
X401878Y175406D01*
X399122D01*
X399241Y175532D01*
X399348Y175667D01*
X399442Y175808D01*
X399524Y175956D01*
X399593Y176112D01*
X399650Y176276D01*
X399693Y176446D01*
X399725Y176624D01*
X399744Y176809D01*
X399750Y177001D01*
X401250D01*
X401256Y176809D01*
D02*
G37*
G36*
X455967Y167154D02*
X455599Y167147D01*
X455247Y167118D01*
X454913Y167068D01*
X454594Y166997D01*
X454292Y166903D01*
X454007Y166789D01*
X453738Y166653D01*
X453485Y166495D01*
X453249Y166316D01*
X453029Y166115D01*
X451615Y167529D01*
X451816Y167749D01*
X451995Y167985D01*
X452153Y168238D01*
X452289Y168507D01*
X452403Y168792D01*
X452496Y169094D01*
X452568Y169413D01*
X452618Y169747D01*
X452647Y170099D01*
X452654Y170466D01*
X455967Y167154D01*
D02*
G37*
G36*
X393756Y166809D02*
X393775Y166624D01*
X393807Y166446D01*
X393850Y166276D01*
X393907Y166112D01*
X393976Y165956D01*
X394058Y165808D01*
X394152Y165667D01*
X394259Y165533D01*
X394378Y165406D01*
X391622D01*
X391741Y165533D01*
X391848Y165667D01*
X391942Y165808D01*
X392024Y165956D01*
X392093Y166112D01*
X392149Y166276D01*
X392194Y166446D01*
X392225Y166624D01*
X392244Y166809D01*
X392250Y167001D01*
X393750D01*
X393756Y166809D01*
D02*
G37*
G36*
X405756Y160809D02*
X405775Y160624D01*
X405806Y160446D01*
X405851Y160276D01*
X405907Y160112D01*
X405976Y159957D01*
X406058Y159808D01*
X406152Y159667D01*
X406259Y159532D01*
X406378Y159406D01*
X403622D01*
X403741Y159532D01*
X403848Y159667D01*
X403942Y159808D01*
X404024Y159957D01*
X404093Y160112D01*
X404149Y160276D01*
X404193Y160446D01*
X404225Y160624D01*
X404244Y160809D01*
X404250Y161001D01*
X405750D01*
X405756Y160809D01*
D02*
G37*
G36*
X399256D02*
X399275Y160624D01*
X399307Y160446D01*
X399351Y160276D01*
X399407Y160112D01*
X399476Y159957D01*
X399558Y159808D01*
X399652Y159667D01*
X399759Y159532D01*
X399878Y159406D01*
X397122D01*
X397241Y159532D01*
X397348Y159667D01*
X397442Y159808D01*
X397524Y159957D01*
X397593Y160112D01*
X397650Y160276D01*
X397693Y160446D01*
X397725Y160624D01*
X397744Y160809D01*
X397750Y161001D01*
X399250D01*
X399256Y160809D01*
D02*
G37*
G36*
X458087Y147845D02*
X457859Y147577D01*
X457658Y147304D01*
X457483Y147029D01*
X457336Y146749D01*
X457215Y146466D01*
X457121Y146180D01*
X457054Y145890D01*
X457013Y145596D01*
X457000Y145299D01*
X455000D01*
X454987Y145596D01*
X454946Y145890D01*
X454879Y146180D01*
X454785Y146466D01*
X454664Y146749D01*
X454517Y147029D01*
X454342Y147304D01*
X454141Y147577D01*
X453913Y147845D01*
X453657Y148110D01*
X458343D01*
X458087Y147845D01*
D02*
G37*
G36*
X376330Y145585D02*
X376110Y145340D01*
X375914Y145070D01*
X375742Y144773D01*
X375593Y144450D01*
X375468Y144102D01*
X375366Y143727D01*
X375288Y143327D01*
X375234Y142900D01*
X375203Y142447D01*
X375197Y141969D01*
X371299Y145866D01*
X371778Y145873D01*
X372231Y145903D01*
X372657Y145958D01*
X373058Y146035D01*
X373433Y146137D01*
X373781Y146262D01*
X374104Y146411D01*
X374400Y146583D01*
X374671Y146779D01*
X374916Y146999D01*
X376330Y145585D01*
D02*
G37*
G36*
X360582D02*
X360362Y145340D01*
X360166Y145070D01*
X359994Y144773D01*
X359845Y144450D01*
X359720Y144102D01*
X359618Y143727D01*
X359540Y143327D01*
X359486Y142900D01*
X359455Y142447D01*
X359449Y141969D01*
X355551Y145866D01*
X356030Y145873D01*
X356483Y145903D01*
X356909Y145958D01*
X357310Y146035D01*
X357684Y146137D01*
X358033Y146262D01*
X358356Y146411D01*
X358652Y146583D01*
X358923Y146779D01*
X359168Y146999D01*
X360582Y145585D01*
D02*
G37*
G36*
X388606Y145561D02*
X390568Y145111D01*
X390910Y145062D01*
X391543Y145007D01*
X391834Y145000D01*
X393159Y143000D01*
X392798Y142981D01*
X392466Y142923D01*
X392164Y142826D01*
X391889Y142690D01*
X391644Y142516D01*
X391427Y142303D01*
X391240Y142051D01*
X391080Y141761D01*
X390950Y141432D01*
X390849Y141064D01*
X388163Y145693D01*
X388606Y145561D01*
D02*
G37*
G36*
X444865Y146265D02*
X445749Y146149D01*
X446168Y145458D01*
X446373Y144652D01*
X434747Y133026D01*
X400334D01*
X399588Y134518D01*
X400085Y135719D01*
X400124Y136008D01*
X395275D01*
Y138008D01*
X400124D01*
X400085Y138297D01*
X399588Y139498D01*
X400346Y140974D01*
X437500D01*
X438283Y141077D01*
X439013Y141379D01*
X439640Y141860D01*
X441640Y143860D01*
X442121Y144487D01*
X442423Y145217D01*
X442502Y145815D01*
X443093Y146248D01*
X444026Y146613D01*
X444865Y146265D01*
D02*
G37*
G36*
X390952Y132566D02*
X391081Y132237D01*
X391239Y131947D01*
X391425Y131696D01*
X391641Y131483D01*
X391886Y131309D01*
X392159Y131174D01*
X392462Y131077D01*
X392793Y131019D01*
X393154Y131000D01*
X392709Y129000D01*
X392246Y128993D01*
X390868Y128891D01*
X390411Y128830D01*
X389051Y128565D01*
X388601Y128449D01*
X388152Y128320D01*
X390853Y132933D01*
X390952Y132566D01*
D02*
G37*
G36*
X359455Y131569D02*
X359486Y131116D01*
X359540Y130689D01*
X359618Y130288D01*
X359720Y129914D01*
X359845Y129565D01*
X359994Y129243D01*
X360166Y128946D01*
X360362Y128675D01*
X360582Y128431D01*
X359168Y127016D01*
X358923Y127236D01*
X358652Y127432D01*
X358356Y127605D01*
X358033Y127754D01*
X357684Y127879D01*
X357310Y127980D01*
X356909Y128058D01*
X356483Y128112D01*
X356030Y128143D01*
X355551Y128150D01*
X359449Y132047D01*
X359455Y131569D01*
D02*
G37*
%LPC*%
G36*
X182890Y368874D02*
Y357102D01*
X194662D01*
X194582Y358113D01*
X194111Y360073D01*
X193340Y361936D01*
X192286Y363656D01*
X190977Y365189D01*
X189443Y366499D01*
X187724Y367552D01*
X185861Y368324D01*
X183900Y368795D01*
X182890Y368874D01*
D02*
G37*
G36*
X180890D02*
X179879Y368795D01*
X177919Y368324D01*
X176056Y367552D01*
X174336Y366499D01*
X172803Y365189D01*
X171493Y363656D01*
X170440Y361936D01*
X169668Y360073D01*
X169197Y358113D01*
X169118Y357102D01*
X180890D01*
Y368874D01*
D02*
G37*
G36*
X170046Y355102D02*
X169118D01*
X169197Y354092D01*
X169529Y352710D01*
X169711Y353259D01*
X169922Y354163D01*
X170045Y355071D01*
X170046Y355102D01*
D02*
G37*
G36*
X180890D02*
X170961D01*
X180890Y345174D01*
Y355102D01*
D02*
G37*
G36*
Y344258D02*
X180859Y344257D01*
X179950Y344134D01*
X179047Y343924D01*
X178498Y343742D01*
X179879Y343410D01*
X180890Y343330D01*
Y344258D01*
D02*
G37*
G36*
X132496Y347221D02*
Y335449D01*
X139931D01*
Y342717D01*
X140601Y342096D01*
X141330Y341540D01*
X142118Y341050D01*
X142635Y340791D01*
X141892Y342002D01*
X140583Y343535D01*
X139049Y344845D01*
X137330Y345899D01*
X135467Y346670D01*
X133506Y347141D01*
X132496Y347221D01*
D02*
G37*
G36*
X390000Y367003D02*
X388964Y366866D01*
X387999Y366466D01*
X387170Y365830D01*
X386533Y365001D01*
X386134Y364036D01*
X385997Y363000D01*
X386134Y361964D01*
X386533Y360999D01*
X386940Y360469D01*
X386959Y360238D01*
X386961Y360087D01*
X386974Y360027D01*
Y345000D01*
X387077Y344217D01*
X387380Y343487D01*
X387860Y342860D01*
X389860Y340860D01*
X390487Y340380D01*
X391217Y340077D01*
X392000Y339974D01*
X392000Y339974D01*
X395498D01*
X395548Y339962D01*
X395892Y339949D01*
X395956Y339943D01*
X395967Y339941D01*
X396499Y339533D01*
X397464Y339134D01*
X398500Y338997D01*
X399536Y339134D01*
X400501Y339533D01*
X401330Y340170D01*
X401966Y340999D01*
X402366Y341964D01*
X402503Y343000D01*
X402366Y344036D01*
X401966Y345001D01*
X401330Y345830D01*
X400501Y346466D01*
X399536Y346866D01*
X398500Y347003D01*
X397464Y346866D01*
X396499Y346466D01*
X395969Y346060D01*
X395738Y346041D01*
X395587Y346039D01*
X395527Y346026D01*
X393253D01*
X393026Y346253D01*
Y359998D01*
X393038Y360048D01*
X393051Y360392D01*
X393057Y360456D01*
X393059Y360467D01*
X393466Y360999D01*
X393866Y361964D01*
X394003Y363000D01*
X393866Y364036D01*
X393466Y365001D01*
X392830Y365830D01*
X392001Y366466D01*
X391036Y366866D01*
X390000Y367003D01*
D02*
G37*
G36*
X130496Y347221D02*
X129486Y347141D01*
X127525Y346670D01*
X125662Y345899D01*
X123943Y344845D01*
X122409Y343535D01*
X121100Y342002D01*
X120046Y340283D01*
X119274Y338420D01*
X118804Y336459D01*
X118724Y335449D01*
X130496D01*
Y347221D01*
D02*
G37*
G36*
X427449Y330500D02*
X423800D01*
Y326851D01*
X424037Y326882D01*
X425190Y327360D01*
X426181Y328119D01*
X426940Y329110D01*
X427418Y330263D01*
X427449Y330500D01*
D02*
G37*
G36*
X421800D02*
X418151D01*
X418182Y330263D01*
X418659Y329110D01*
X419419Y328119D01*
X420409Y327360D01*
X421563Y326882D01*
X421800Y326851D01*
Y330500D01*
D02*
G37*
G36*
X139931Y333449D02*
X132496D01*
Y321677D01*
X133506Y321756D01*
X135467Y322227D01*
X137330Y322999D01*
X139049Y324052D01*
X140583Y325362D01*
X141892Y326895D01*
X142635Y328107D01*
X142118Y327848D01*
X141330Y327357D01*
X140601Y326802D01*
X139931Y326181D01*
Y333449D01*
D02*
G37*
G36*
X130496D02*
X118724D01*
X118804Y332438D01*
X119274Y330478D01*
X120046Y328615D01*
X121100Y326895D01*
X122409Y325362D01*
X123943Y324052D01*
X125662Y322999D01*
X127525Y322227D01*
X129486Y321756D01*
X130496Y321677D01*
Y333449D01*
D02*
G37*
G36*
X427740Y314740D02*
X424000D01*
Y311000D01*
X427740D01*
Y314740D01*
D02*
G37*
G36*
X422000D02*
X418260D01*
Y311000D01*
X422000D01*
Y314740D01*
D02*
G37*
G36*
X427740Y283740D02*
X424000D01*
Y280000D01*
X427740D01*
Y283740D01*
D02*
G37*
G36*
X422000D02*
X418260D01*
Y280000D01*
X422000D01*
Y283740D01*
D02*
G37*
G36*
X427740Y278000D02*
X423000D01*
X418260D01*
Y274260D01*
X418260Y274260D01*
X418630Y272760D01*
X417966Y271895D01*
X417388Y270498D01*
X417191Y269000D01*
X417388Y267501D01*
X417966Y266105D01*
X418886Y264906D01*
X420085Y263986D01*
X421482Y263408D01*
X422980Y263210D01*
X424479Y263408D01*
X425875Y263986D01*
X427074Y264906D01*
X427994Y266105D01*
X428573Y267501D01*
X428770Y269000D01*
X428573Y270498D01*
X427994Y271895D01*
X427331Y272760D01*
X427740Y274260D01*
X427740D01*
Y278000D01*
D02*
G37*
G36*
X108284Y261731D02*
Y260252D01*
X109763D01*
X109619Y260600D01*
X109190Y261158D01*
X108632Y261587D01*
X108284Y261731D01*
D02*
G37*
G36*
X106284D02*
X105936Y261587D01*
X105377Y261158D01*
X104949Y260600D01*
X104805Y260252D01*
X106284D01*
Y261731D01*
D02*
G37*
G36*
X109763Y258252D02*
X108284D01*
Y256773D01*
X108632Y256917D01*
X109190Y257345D01*
X109619Y257904D01*
X109763Y258252D01*
D02*
G37*
G36*
X106284D02*
X104805D01*
X104949Y257904D01*
X105377Y257345D01*
X105936Y256917D01*
X106284Y256773D01*
Y258252D01*
D02*
G37*
G36*
X246500Y284539D02*
X245325Y284384D01*
X244231Y283931D01*
X243291Y283209D01*
X242746Y282500D01*
X223500D01*
Y246000D01*
X223000Y245500D01*
X243130D01*
X243291Y245291D01*
X244231Y244569D01*
X245325Y244116D01*
X246500Y243961D01*
X247675Y244116D01*
X248769Y244569D01*
X249709Y245291D01*
X250431Y246231D01*
X250884Y247325D01*
X251039Y248500D01*
X250884Y249675D01*
X250431Y250769D01*
X250080Y251227D01*
X250041Y251797D01*
X250039Y252018D01*
X250030Y252061D01*
Y254939D01*
X250039Y254982D01*
X250041Y255231D01*
X250056Y255580D01*
X250413Y255912D01*
X250809Y256230D01*
X252053Y256228D01*
X252325Y256116D01*
X253500Y255961D01*
X254675Y256116D01*
X255769Y256569D01*
X256709Y257291D01*
X257431Y258231D01*
X257884Y259325D01*
X258039Y260500D01*
X257884Y261675D01*
X257431Y262769D01*
X257269Y264022D01*
X258209Y264743D01*
X258931Y265683D01*
X259384Y266778D01*
X259539Y267953D01*
X259384Y269127D01*
X258931Y270222D01*
X258209Y271162D01*
X257269Y271884D01*
X256175Y272337D01*
X255000Y272492D01*
X253825Y272337D01*
X252731Y271884D01*
X252273Y271533D01*
X251703Y271494D01*
X251482Y271492D01*
X251462Y271488D01*
X250510Y271665D01*
X250030Y272784D01*
Y276439D01*
X250039Y276482D01*
X250041Y276731D01*
X250057Y277126D01*
X250071Y277262D01*
X250431Y277731D01*
X250884Y278825D01*
X251039Y280000D01*
X250884Y281175D01*
X250431Y282269D01*
X249709Y283209D01*
X248769Y283931D01*
X247675Y284384D01*
X246500Y284539D01*
D02*
G37*
G36*
X480890Y256651D02*
X480223Y256586D01*
X478621Y256100D01*
X477144Y255310D01*
X475850Y254248D01*
X474788Y252954D01*
X473999Y251477D01*
X473513Y249875D01*
X473349Y248209D01*
Y246866D01*
X480890D01*
Y256651D01*
D02*
G37*
G36*
X445000Y244752D02*
X444865Y244735D01*
X443808Y244297D01*
X442900Y243600D01*
X442203Y242692D01*
X441765Y241635D01*
X441748Y241500D01*
X445000D01*
Y244752D01*
D02*
G37*
G36*
X480890Y244866D02*
X473349D01*
Y243524D01*
X473513Y241857D01*
X473999Y240255D01*
X474788Y238778D01*
X475850Y237484D01*
X477144Y236422D01*
X478621Y235633D01*
X480223Y235146D01*
X480890Y235081D01*
Y244866D01*
D02*
G37*
G36*
X108284Y234960D02*
Y233480D01*
X109763D01*
X109619Y233828D01*
X109190Y234387D01*
X108632Y234815D01*
X108284Y234960D01*
D02*
G37*
G36*
X106284D02*
X105936Y234815D01*
X105377Y234387D01*
X104949Y233828D01*
X104805Y233480D01*
X106284D01*
Y234960D01*
D02*
G37*
G36*
X109763Y231480D02*
X108284D01*
Y230001D01*
X108632Y230145D01*
X109190Y230574D01*
X109619Y231132D01*
X109763Y231480D01*
D02*
G37*
G36*
X106284D02*
X104805D01*
X104949Y231132D01*
X105377Y230574D01*
X105936Y230145D01*
X106284Y230001D01*
Y231480D01*
D02*
G37*
G36*
X124500Y277039D02*
X123325Y276884D01*
X122231Y276431D01*
X121291Y275709D01*
X120569Y274769D01*
X120116Y273675D01*
X119961Y272500D01*
Y258832D01*
X119429Y257539D01*
X118254Y257384D01*
X117159Y256931D01*
X116219Y256209D01*
X113291Y253280D01*
X112569Y252341D01*
X112116Y251246D01*
X111961Y250071D01*
Y234000D01*
X112116Y232825D01*
X112569Y231731D01*
X113291Y230791D01*
X120791Y223291D01*
X121731Y222569D01*
X122825Y222116D01*
X124000Y221961D01*
X137620D01*
X142791Y216791D01*
X143731Y216069D01*
X144825Y215616D01*
X146000Y215461D01*
X147175Y215616D01*
X148269Y216069D01*
X149209Y216791D01*
X149931Y217731D01*
X150384Y218825D01*
X150539Y220000D01*
X150384Y221175D01*
X149931Y222269D01*
X149209Y223209D01*
X142709Y229709D01*
X141769Y230431D01*
X140675Y230884D01*
X139500Y231039D01*
X125880D01*
X121039Y235880D01*
Y242460D01*
X122055Y243539D01*
X124992D01*
Y242539D01*
X126963D01*
X126997Y242500D01*
X127134Y241464D01*
X127533Y240499D01*
X128170Y239670D01*
X128999Y239034D01*
X129964Y238634D01*
X131000Y238497D01*
X132036Y238634D01*
X133001Y239034D01*
X133830Y239670D01*
X134467Y240499D01*
X134866Y241464D01*
X135003Y242500D01*
X134866Y243536D01*
X134467Y244501D01*
X133830Y245330D01*
X133001Y245967D01*
X132558Y247000D01*
X133001Y248033D01*
X133830Y248670D01*
X134467Y249499D01*
X134866Y250464D01*
X135003Y251500D01*
X134969Y251755D01*
X135931Y252956D01*
X137069D01*
X138031Y251755D01*
X137997Y251500D01*
X138134Y250464D01*
X138533Y249499D01*
X139170Y248670D01*
X139999Y248033D01*
X140628Y247773D01*
X140678Y247565D01*
Y246435D01*
X140628Y246227D01*
X139999Y245967D01*
X139170Y245330D01*
X138533Y244501D01*
X138134Y243536D01*
X137997Y242500D01*
X138134Y241464D01*
X138533Y240499D01*
X139170Y239670D01*
X139999Y239034D01*
X140964Y238634D01*
X142000Y238497D01*
X143036Y238634D01*
X144001Y239034D01*
X144830Y239670D01*
X145466Y240499D01*
X145866Y241464D01*
X145989Y242398D01*
X146007Y242479D01*
X146010Y242628D01*
X146016Y242698D01*
X146024Y242750D01*
X146032Y242784D01*
X146038Y242803D01*
X146038Y242804D01*
X146089Y242860D01*
X146121Y242913D01*
X146602Y243393D01*
X149279D01*
Y242457D01*
X151311D01*
Y240374D01*
X151924D01*
X152022Y238874D01*
X151964Y238866D01*
X150999Y238467D01*
X150170Y237830D01*
X149533Y237001D01*
X149134Y236036D01*
X148997Y235000D01*
X149134Y233964D01*
X149533Y232999D01*
X150170Y232170D01*
X150999Y231534D01*
X151964Y231134D01*
X153000Y230997D01*
X154036Y231134D01*
X155001Y231534D01*
X155308Y231769D01*
X160726Y226351D01*
Y217629D01*
X160712Y217568D01*
X160708Y217446D01*
X160704Y217405D01*
X160699Y217379D01*
X160696Y217366D01*
X160637Y217303D01*
X160585Y217220D01*
X160034Y216501D01*
X159634Y215536D01*
X159497Y214500D01*
X159634Y213464D01*
X160034Y212499D01*
X160670Y211670D01*
X161499Y211034D01*
X162464Y210634D01*
X163500Y210497D01*
X164536Y210634D01*
X165501Y211034D01*
X166330Y211670D01*
X166966Y212499D01*
X167366Y213464D01*
X167503Y214500D01*
X167366Y215536D01*
X166966Y216501D01*
X166415Y217220D01*
X166363Y217303D01*
X166304Y217366D01*
X166301Y217379D01*
X166296Y217405D01*
X166292Y217446D01*
X166288Y217568D01*
X166274Y217629D01*
Y227500D01*
X166179Y228218D01*
X165902Y228887D01*
X165461Y229461D01*
X162582Y232341D01*
X163156Y233726D01*
X206851D01*
X226039Y214539D01*
X226613Y214098D01*
X227282Y213821D01*
X228000Y213726D01*
X232371D01*
X232432Y213712D01*
X232554Y213708D01*
X232595Y213704D01*
X232621Y213699D01*
X232634Y213696D01*
X232697Y213637D01*
X232780Y213585D01*
X233499Y213034D01*
X234464Y212634D01*
X235500Y212497D01*
X236536Y212634D01*
X237501Y213034D01*
X238330Y213670D01*
X238930Y214451D01*
X239231Y214499D01*
X240269D01*
X240570Y214451D01*
X241170Y213670D01*
X241999Y213034D01*
X242964Y212634D01*
X243863Y212515D01*
X243958Y212493D01*
X244043Y212491D01*
X244055Y212484D01*
X244077Y212469D01*
X244109Y212443D01*
X244198Y212359D01*
X244251Y212326D01*
X246539Y210039D01*
X247113Y209598D01*
X247782Y209321D01*
X248500Y209226D01*
X285000D01*
X285718Y209321D01*
X286387Y209598D01*
X286961Y210039D01*
X292961Y216039D01*
X293402Y216613D01*
X293679Y217282D01*
X293774Y218000D01*
Y220871D01*
X293788Y220932D01*
X293792Y221054D01*
X293796Y221095D01*
X293801Y221121D01*
X293804Y221134D01*
X293863Y221197D01*
X293915Y221280D01*
X294466Y221999D01*
X294866Y222964D01*
X295003Y224000D01*
X294866Y225036D01*
X294466Y226001D01*
X293830Y226830D01*
X293001Y227467D01*
X292036Y227866D01*
X291000Y228003D01*
X289964Y227866D01*
X288999Y227467D01*
X288170Y226830D01*
X287533Y226001D01*
X287134Y225036D01*
X286997Y224000D01*
X287134Y222964D01*
X287533Y221999D01*
X288085Y221280D01*
X288137Y221197D01*
X288196Y221134D01*
X288199Y221121D01*
X288204Y221095D01*
X288208Y221054D01*
X288212Y220932D01*
X288226Y220871D01*
Y219149D01*
X283851Y214774D01*
X279318D01*
X278696Y216274D01*
X281461Y219039D01*
X281902Y219613D01*
X282179Y220282D01*
X282274Y221000D01*
Y221871D01*
X282288Y221932D01*
X282292Y222054D01*
X282296Y222095D01*
X282301Y222121D01*
X282304Y222134D01*
X282363Y222197D01*
X282415Y222280D01*
X282966Y222999D01*
X283366Y223964D01*
X283503Y225000D01*
X283366Y226036D01*
X282966Y227001D01*
X282330Y227830D01*
X281501Y228467D01*
X280536Y228866D01*
X279500Y229003D01*
X278464Y228866D01*
X277499Y228467D01*
X276670Y227830D01*
X276033Y227001D01*
X275634Y226036D01*
X275497Y225000D01*
X275634Y223964D01*
X276033Y222999D01*
X276585Y222280D01*
X276637Y222197D01*
X276696Y222134D01*
X276699Y222122D01*
X274351Y219774D01*
X256629D01*
X256568Y219788D01*
X256446Y219792D01*
X256405Y219796D01*
X256379Y219801D01*
X256123Y220354D01*
X255902Y220887D01*
X255838Y220971D01*
X255769Y221119D01*
X256341Y222339D01*
X256500Y222497D01*
X257536Y222634D01*
X258501Y223033D01*
X259330Y223670D01*
X259966Y224499D01*
X260366Y225464D01*
X260503Y226500D01*
X260366Y227536D01*
X259966Y228501D01*
X259330Y229330D01*
X258501Y229966D01*
X257536Y230366D01*
X256500Y230503D01*
X255464Y230366D01*
X254499Y229966D01*
X254374Y229871D01*
X254271Y229830D01*
X254179Y229771D01*
X254142Y229750D01*
X254104Y229731D01*
X254064Y229715D01*
X254020Y229701D01*
X253972Y229688D01*
X253916Y229677D01*
X253853Y229668D01*
X253781Y229663D01*
X253647Y229659D01*
X253582Y229644D01*
X234778D01*
X204961Y259461D01*
X204387Y259902D01*
X203718Y260179D01*
X203000Y260274D01*
X159500D01*
X158782Y260179D01*
X158113Y259902D01*
X157539Y259461D01*
X152487Y254409D01*
X151311Y253626D01*
X149811Y253398D01*
X145354Y257854D01*
X144811Y258271D01*
X144179Y258533D01*
X143500Y258622D01*
X143500Y258622D01*
X129039D01*
Y272500D01*
X128884Y273675D01*
X128431Y274769D01*
X127709Y275709D01*
X126769Y276431D01*
X125675Y276884D01*
X124500Y277039D01*
D02*
G37*
G36*
X223000Y211039D02*
X171000D01*
X169825Y210884D01*
X168731Y210431D01*
X167791Y209709D01*
X163291Y205209D01*
X162569Y204269D01*
X162116Y203175D01*
X161961Y202000D01*
Y192500D01*
X162116Y191325D01*
X162569Y190231D01*
X163291Y189291D01*
X164231Y188569D01*
X165325Y188116D01*
X166500Y187961D01*
X167675Y188116D01*
X168769Y188569D01*
X169709Y189291D01*
X170431Y190231D01*
X170884Y191325D01*
X171039Y192500D01*
Y200120D01*
X172880Y201961D01*
X223000D01*
X224175Y202116D01*
X225269Y202569D01*
X226209Y203291D01*
X226931Y204231D01*
X227384Y205325D01*
X227539Y206500D01*
X227384Y207675D01*
X226931Y208769D01*
X226209Y209709D01*
X225269Y210431D01*
X224175Y210884D01*
X223000Y211039D01*
D02*
G37*
G36*
X132496Y170055D02*
Y158283D01*
X144268D01*
X144188Y159294D01*
X143718Y161255D01*
X142946Y163118D01*
X141892Y164837D01*
X140583Y166370D01*
X139049Y167680D01*
X137330Y168733D01*
X135467Y169505D01*
X133506Y169976D01*
X132496Y170055D01*
D02*
G37*
G36*
X130496D02*
X129486Y169976D01*
X127525Y169505D01*
X125662Y168733D01*
X123943Y167680D01*
X122409Y166370D01*
X121100Y164837D01*
X120046Y163118D01*
X119274Y161255D01*
X118804Y159294D01*
X118724Y158283D01*
X130496D01*
Y170055D01*
D02*
G37*
G36*
X144268Y156283D02*
X132496D01*
Y144511D01*
X133506Y144591D01*
X135467Y145062D01*
X137330Y145833D01*
X139049Y146887D01*
X140583Y148197D01*
X141892Y149730D01*
X142946Y151449D01*
X143718Y153312D01*
X144188Y155273D01*
X144268Y156283D01*
D02*
G37*
G36*
X130496D02*
X118724D01*
X118804Y155273D01*
X119274Y153312D01*
X120046Y151449D01*
X121100Y149730D01*
X122409Y148197D01*
X123943Y146887D01*
X125662Y145833D01*
X127525Y145062D01*
X129486Y144591D01*
X130496Y144511D01*
Y156283D01*
D02*
G37*
G36*
X346244Y141856D02*
X345955Y141818D01*
X344754Y141320D01*
X343723Y140529D01*
X342932Y139498D01*
X342434Y138297D01*
X342396Y138008D01*
X346244D01*
Y141856D01*
D02*
G37*
G36*
X182890Y148402D02*
Y136630D01*
X194662D01*
X194582Y137640D01*
X194111Y139601D01*
X193340Y141464D01*
X192286Y143183D01*
X190977Y144717D01*
X189443Y146026D01*
X187724Y147080D01*
X185861Y147852D01*
X183900Y148322D01*
X182890Y148402D01*
D02*
G37*
G36*
X180890D02*
X179879Y148322D01*
X177919Y147852D01*
X176056Y147080D01*
X174336Y146026D01*
X172803Y144717D01*
X171493Y143183D01*
X170440Y141464D01*
X169668Y139601D01*
X169197Y137640D01*
X169118Y136630D01*
X180890D01*
Y148402D01*
D02*
G37*
G36*
X346244Y136008D02*
X342396D01*
X342434Y135719D01*
X342932Y134518D01*
X343723Y133487D01*
X344754Y132695D01*
X345955Y132198D01*
X346244Y132160D01*
Y136008D01*
D02*
G37*
G36*
X194662Y134630D02*
X182890D01*
Y122858D01*
X183900Y122938D01*
X185861Y123408D01*
X187724Y124180D01*
X189443Y125233D01*
X190977Y126543D01*
X192286Y128077D01*
X193340Y129796D01*
X194111Y131659D01*
X194582Y133620D01*
X194662Y134630D01*
D02*
G37*
G36*
X180890D02*
X169118D01*
X169197Y133620D01*
X169668Y131659D01*
X170440Y129796D01*
X171493Y128077D01*
X172803Y126543D01*
X174336Y125233D01*
X176056Y124180D01*
X177919Y123408D01*
X179879Y122938D01*
X180890Y122858D01*
Y134630D01*
D02*
G37*
%LPD*%
G36*
X391306Y361513D02*
X391242Y361417D01*
X391185Y361306D01*
X391136Y361181D01*
X391094Y361041D01*
X391060Y360887D01*
X391034Y360718D01*
X391015Y360534D01*
X391000Y360123D01*
X389000D01*
X388996Y360336D01*
X388966Y360718D01*
X388939Y360887D01*
X388906Y361041D01*
X388864Y361181D01*
X388815Y361306D01*
X388758Y361417D01*
X388694Y361513D01*
X388622Y361594D01*
X391378D01*
X391306Y361513D01*
D02*
G37*
G36*
X397094Y341622D02*
X397013Y341694D01*
X396917Y341758D01*
X396806Y341815D01*
X396681Y341864D01*
X396541Y341905D01*
X396387Y341939D01*
X396218Y341966D01*
X396034Y341985D01*
X395623Y342000D01*
Y344000D01*
X395836Y344004D01*
X396218Y344034D01*
X396387Y344060D01*
X396541Y344094D01*
X396681Y344136D01*
X396806Y344185D01*
X396917Y344242D01*
X397013Y344306D01*
X397094Y344378D01*
Y341622D01*
D02*
G37*
G36*
X248202Y278153D02*
X248160Y278068D01*
X248123Y277957D01*
X248090Y277823D01*
X248062Y277663D01*
X248023Y277272D01*
X248003Y276782D01*
X248000Y276500D01*
X245000D01*
X244998Y276782D01*
X244937Y277663D01*
X244910Y277823D01*
X244878Y277957D01*
X244840Y278068D01*
X244797Y278153D01*
X244750Y278215D01*
X248250D01*
X248202Y278153D01*
D02*
G37*
G36*
X248003Y272218D02*
X248062Y271337D01*
X248090Y271177D01*
X248123Y271043D01*
X248160Y270932D01*
X248202Y270847D01*
X248250Y270785D01*
X244750D01*
X244797Y270847D01*
X244840Y270932D01*
X244878Y271043D01*
X244910Y271177D01*
X244937Y271337D01*
X244977Y271728D01*
X244998Y272218D01*
X245000Y272500D01*
X248000D01*
X248003Y272218D01*
D02*
G37*
G36*
X248895Y269767D02*
X248963Y269701D01*
X249057Y269643D01*
X249178Y269593D01*
X249325Y269550D01*
X249498Y269515D01*
X249699Y269488D01*
X250179Y269457D01*
X250459Y269453D01*
X250270Y266453D01*
X247413Y266673D01*
X248854Y269841D01*
X248895Y269767D01*
D02*
G37*
G36*
X253215Y266203D02*
X253153Y266250D01*
X253068Y266293D01*
X252957Y266330D01*
X252823Y266363D01*
X252663Y266390D01*
X252272Y266430D01*
X251782Y266450D01*
X251500Y266453D01*
Y269453D01*
X251782Y269455D01*
X252663Y269515D01*
X252823Y269543D01*
X252957Y269575D01*
X253068Y269613D01*
X253153Y269655D01*
X253215Y269703D01*
Y266203D01*
D02*
G37*
G36*
X251715Y258750D02*
X251653Y258798D01*
X251568Y258840D01*
X251457Y258877D01*
X251323Y258910D01*
X251164Y258938D01*
X250771Y258978D01*
X250374Y258994D01*
X248971Y258878D01*
X246658Y260995D01*
X249500Y262000D01*
X250000Y260420D01*
Y262000D01*
X250282Y262002D01*
X251164Y262063D01*
X251323Y262090D01*
X251457Y262123D01*
X251568Y262160D01*
X251653Y262203D01*
X251715Y262250D01*
Y258750D01*
D02*
G37*
G36*
X248202Y256653D02*
X248160Y256568D01*
X248123Y256457D01*
X248090Y256323D01*
X248062Y256164D01*
X248023Y255771D01*
X248003Y255282D01*
X248000Y255000D01*
X245000D01*
X244998Y255282D01*
X244937Y256164D01*
X244910Y256323D01*
X244878Y256457D01*
X244840Y256568D01*
X244797Y256653D01*
X244750Y256715D01*
X248250D01*
X248202Y256653D01*
D02*
G37*
G36*
X248003Y251718D02*
X248062Y250836D01*
X248090Y250677D01*
X248123Y250543D01*
X248160Y250432D01*
X248202Y250347D01*
X248250Y250285D01*
X244750D01*
X244797Y250347D01*
X244840Y250432D01*
X244878Y250543D01*
X244910Y250677D01*
X244937Y250836D01*
X244977Y251228D01*
X244998Y251718D01*
X245000Y252000D01*
X248000D01*
X248003Y251718D01*
D02*
G37*
G36*
X127109Y254689D02*
X126990Y254559D01*
X126884Y254421D01*
X126789Y254272D01*
X126707Y254115D01*
X126637Y253947D01*
X126579Y253770D01*
X126533Y253584D01*
X126499Y253389D01*
X126478Y253184D01*
X126468Y252969D01*
X124570Y254967D01*
X124782Y254966D01*
X124985Y254979D01*
X125179Y255004D01*
X125363Y255044D01*
X125539Y255096D01*
X125706Y255162D01*
X125864Y255242D01*
X126013Y255334D01*
X126152Y255441D01*
X126283Y255560D01*
X127109Y254689D01*
D02*
G37*
G36*
X124696Y250508D02*
X124362Y250483D01*
X123085Y250459D01*
X123054Y250477D01*
X123062Y250501D01*
X122001Y251562D01*
X121977Y251554D01*
X121959Y251585D01*
X121946Y251653D01*
X121939Y251760D01*
X121937Y251904D01*
X121963Y252565D01*
X122008Y253196D01*
X124696Y250508D01*
D02*
G37*
G36*
X143973Y251267D02*
X143990Y251063D01*
X144019Y250868D01*
X144062Y250683D01*
X144117Y250506D01*
X144185Y250339D01*
X144266Y250182D01*
X144360Y250033D01*
X144466Y249893D01*
X144585Y249763D01*
X143737Y248915D01*
X143606Y249034D01*
X143467Y249140D01*
X143318Y249234D01*
X143161Y249315D01*
X142994Y249383D01*
X142817Y249438D01*
X142632Y249481D01*
X142437Y249510D01*
X142233Y249527D01*
X142020Y249532D01*
X143968Y251480D01*
X143973Y251267D01*
D02*
G37*
G36*
X164187Y248057D02*
X164018Y248077D01*
X163853Y248083D01*
X163695Y248075D01*
X163542Y248053D01*
X163395Y248016D01*
X163254Y247965D01*
X163118Y247900D01*
X162988Y247820D01*
X162864Y247726D01*
X162746Y247617D01*
X162180Y248183D01*
X162286Y248299D01*
X162378Y248422D01*
X162454Y248549D01*
X162516Y248682D01*
X162563Y248821D01*
X162594Y248966D01*
X162611Y249116D01*
X162613Y249272D01*
X162600Y249433D01*
X162573Y249600D01*
X164187Y248057D01*
D02*
G37*
G36*
X157717Y248433D02*
X157740Y248405D01*
X157781Y248380D01*
X157836Y248359D01*
X157908Y248341D01*
X157996Y248326D01*
X158100Y248315D01*
X158356Y248302D01*
X158509Y248300D01*
Y247500D01*
X157709Y247504D01*
Y248464D01*
X157717Y248433D01*
D02*
G37*
G36*
X158509Y245700D02*
X158356Y245698D01*
X157996Y245674D01*
X157908Y245659D01*
X157836Y245641D01*
X157781Y245620D01*
X157740Y245595D01*
X157717Y245567D01*
X157709Y245536D01*
Y246496D01*
X158509Y246500D01*
Y245700D01*
D02*
G37*
G36*
X162864Y246274D02*
X162988Y246180D01*
X163118Y246100D01*
X163254Y246035D01*
X163395Y245984D01*
X163542Y245947D01*
X163695Y245925D01*
X163853Y245917D01*
X164018Y245923D01*
X164187Y245943D01*
X162573Y244400D01*
X162600Y244567D01*
X162613Y244728D01*
X162611Y244884D01*
X162594Y245034D01*
X162563Y245179D01*
X162516Y245318D01*
X162454Y245451D01*
X162378Y245579D01*
X162286Y245701D01*
X162180Y245817D01*
X162746Y246383D01*
X162864Y246274D01*
D02*
G37*
G36*
X144585Y244237D02*
X144466Y244107D01*
X144360Y243967D01*
X144266Y243818D01*
X144185Y243661D01*
X144117Y243494D01*
X144062Y243317D01*
X144019Y243132D01*
X143990Y242937D01*
X143973Y242733D01*
X143968Y242520D01*
X142020Y244468D01*
X142233Y244473D01*
X142437Y244490D01*
X142632Y244519D01*
X142817Y244562D01*
X142994Y244617D01*
X143161Y244685D01*
X143318Y244766D01*
X143467Y244860D01*
X143606Y244966D01*
X143737Y245085D01*
X144585Y244237D01*
D02*
G37*
G36*
X207918Y243659D02*
X207344Y242274D01*
X169568D01*
X168473Y243774D01*
X168503Y244000D01*
X168366Y245036D01*
X167966Y246001D01*
X167330Y246830D01*
Y247170D01*
X167966Y247999D01*
X168366Y248964D01*
X168503Y250000D01*
X168473Y250226D01*
X169568Y251726D01*
X199851D01*
X207918Y243659D01*
D02*
G37*
G36*
X154635Y236117D02*
X154728Y236040D01*
X154835Y235972D01*
X154957Y235913D01*
X155094Y235863D01*
X155245Y235823D01*
X155412Y235791D01*
X155593Y235768D01*
X155789Y235754D01*
X156000Y235750D01*
Y234250D01*
X155789Y234245D01*
X155412Y234209D01*
X155245Y234177D01*
X155094Y234137D01*
X154957Y234087D01*
X154835Y234028D01*
X154728Y233960D01*
X154635Y233883D01*
X154558Y233797D01*
Y236203D01*
X154635Y236117D01*
D02*
G37*
G36*
X254860Y225411D02*
X254760Y225546D01*
X254650Y225667D01*
X254530Y225773D01*
X254398Y225865D01*
X254256Y225943D01*
X254104Y226007D01*
X253941Y226057D01*
X253767Y226092D01*
X253582Y226114D01*
X253387Y226121D01*
X253700Y227621D01*
X253890Y227626D01*
X254075Y227641D01*
X254255Y227665D01*
X254430Y227700D01*
X254600Y227745D01*
X254766Y227800D01*
X254926Y227864D01*
X255082Y227939D01*
X255233Y228024D01*
X255379Y228118D01*
X254860Y225411D01*
D02*
G37*
G36*
X280759Y223467D02*
X280652Y223333D01*
X280558Y223192D01*
X280476Y223043D01*
X280407Y222888D01*
X280350Y222724D01*
X280307Y222554D01*
X280275Y222376D01*
X280256Y222191D01*
X280250Y221999D01*
X278750D01*
X278744Y222191D01*
X278725Y222376D01*
X278694Y222554D01*
X278649Y222724D01*
X278593Y222888D01*
X278524Y223043D01*
X278442Y223192D01*
X278348Y223333D01*
X278241Y223467D01*
X278122Y223594D01*
X280878D01*
X280759Y223467D01*
D02*
G37*
G36*
X292259Y222467D02*
X292152Y222333D01*
X292058Y222192D01*
X291976Y222043D01*
X291907Y221888D01*
X291850Y221724D01*
X291807Y221554D01*
X291775Y221376D01*
X291756Y221191D01*
X291750Y220999D01*
X290250D01*
X290244Y221191D01*
X290225Y221376D01*
X290194Y221554D01*
X290149Y221724D01*
X290093Y221888D01*
X290024Y222043D01*
X289942Y222192D01*
X289848Y222333D01*
X289741Y222467D01*
X289622Y222594D01*
X292378D01*
X292259Y222467D01*
D02*
G37*
G36*
X164256Y217309D02*
X164275Y217124D01*
X164306Y216946D01*
X164350Y216776D01*
X164407Y216612D01*
X164476Y216457D01*
X164558Y216308D01*
X164652Y216167D01*
X164759Y216033D01*
X164878Y215906D01*
X162122D01*
X162241Y216033D01*
X162348Y216167D01*
X162442Y216308D01*
X162524Y216457D01*
X162593Y216612D01*
X162650Y216776D01*
X162694Y216946D01*
X162725Y217124D01*
X162744Y217309D01*
X162750Y217501D01*
X164250D01*
X164256Y217309D01*
D02*
G37*
G36*
X255032Y218259D02*
X255167Y218152D01*
X255308Y218058D01*
X255456Y217976D01*
X255612Y217907D01*
X255776Y217850D01*
X255946Y217807D01*
X256124Y217775D01*
X256309Y217756D01*
X256501Y217750D01*
Y216250D01*
X256309Y216244D01*
X256124Y216225D01*
X255946Y216194D01*
X255776Y216149D01*
X255612Y216093D01*
X255456Y216024D01*
X255308Y215942D01*
X255167Y215848D01*
X255032Y215741D01*
X254906Y215622D01*
Y218378D01*
X255032Y218259D01*
D02*
G37*
G36*
X234094Y215122D02*
X233967Y215241D01*
X233833Y215348D01*
X233692Y215442D01*
X233543Y215524D01*
X233388Y215593D01*
X233224Y215650D01*
X233054Y215693D01*
X232876Y215725D01*
X232691Y215744D01*
X232499Y215750D01*
Y217250D01*
X232691Y217256D01*
X232876Y217275D01*
X233054Y217306D01*
X233224Y217351D01*
X233388Y217407D01*
X233543Y217476D01*
X233692Y217558D01*
X233833Y217652D01*
X233967Y217759D01*
X234094Y217878D01*
Y215122D01*
D02*
G37*
G36*
X245974Y216306D02*
X245993Y216136D01*
X246026Y215969D01*
X246074Y215807D01*
X246135Y215648D01*
X246210Y215492D01*
X246300Y215341D01*
X246403Y215193D01*
X246521Y215049D01*
X246652Y214908D01*
X245592Y213848D01*
X245451Y213979D01*
X245307Y214097D01*
X245159Y214200D01*
X245008Y214290D01*
X244852Y214365D01*
X244693Y214426D01*
X244531Y214474D01*
X244364Y214507D01*
X244194Y214526D01*
X244020Y214532D01*
X245968Y216480D01*
X245974Y216306D01*
D02*
G37*
D16*
X164500Y249937D02*
Y250000D01*
X162463Y247900D02*
X164500Y249937D01*
Y244000D02*
Y244063D01*
X162463Y246100D02*
X164500Y244063D01*
X156579Y247984D02*
X156663Y247900D01*
X162463D01*
X156579Y246016D02*
X156663Y246100D01*
X162463D01*
D75*
X423000Y279000D02*
D03*
Y310000D02*
D03*
X422800Y371500D02*
D03*
D83*
X107284Y259252D02*
D03*
Y232480D02*
D03*
D88*
X396000Y301500D02*
X411000D01*
X377000D02*
X386500D01*
X396000D01*
X373000D02*
X377000D01*
X412500Y300000D02*
X422990D01*
X411000Y301500D02*
X412500Y300000D01*
X372500Y302000D02*
X373000Y301500D01*
X185000Y295000D02*
X213500Y266500D01*
Y262000D02*
Y266500D01*
D89*
X274500Y253000D02*
X333000Y251000D01*
X264000Y263500D02*
X274500Y253000D01*
X333000Y197000D02*
Y251000D01*
X164500Y326500D02*
Y338713D01*
X142500Y304500D02*
X164500Y326500D01*
X114000Y290500D02*
X124500Y301000D01*
X114000Y266476D02*
Y290500D01*
X131496Y334449D02*
X161551D01*
X164500Y338713D02*
X181890Y356102D01*
X142500Y301000D02*
Y304500D01*
X124500Y301000D02*
X142500D01*
X256000Y276500D02*
X259500D01*
X264000Y263500D02*
Y272000D01*
X259500Y276500D02*
X264000Y272000D01*
D90*
X229300Y333600D02*
X231800Y336100D01*
X266500Y364500D02*
X317000D01*
X256800Y329000D02*
Y333500D01*
X261500Y348500D02*
X266000Y344000D01*
X261500Y348500D02*
Y354500D01*
X208000Y287500D02*
Y301500D01*
X239500Y364000D02*
X240500D01*
X239274Y364226D02*
X239500Y364000D01*
X225026Y364226D02*
X239274D01*
X235300Y355000D02*
X250800Y339500D01*
X227500Y355000D02*
X235300D01*
X223800Y351300D02*
X227500Y355000D01*
X223800Y341000D02*
Y351300D01*
X216526Y355726D02*
X225026Y364226D01*
X216526Y337274D02*
Y355726D01*
Y337274D02*
X218800Y335000D01*
X231800Y336100D02*
Y348468D01*
X317000Y364500D02*
X322000Y359500D01*
X124500Y253000D02*
Y272500D01*
X171000Y206500D02*
X223000D01*
X166500Y202000D02*
X171000Y206500D01*
X166500Y192500D02*
Y202000D01*
X236600Y330000D02*
X237600Y329000D01*
X256800Y324500D02*
Y329000D01*
X229300Y333600D02*
X229300Y333600D01*
X116500Y234000D02*
Y250071D01*
Y234000D02*
X124000Y226500D01*
X139500D01*
X146000Y220000D01*
X116500Y250071D02*
X119429Y253000D01*
X124500D01*
D91*
X390000Y345000D02*
Y363000D01*
Y345000D02*
X392000Y343000D01*
X398500D01*
X428500Y152500D02*
X432500Y156500D01*
X366083Y152500D02*
X428500D01*
X355512Y141929D02*
X366083Y152500D01*
X432500Y186000D02*
X442000Y195500D01*
X432500Y156500D02*
Y186000D01*
X442000Y195500D02*
X451500D01*
X451000Y185500D02*
X456000Y190500D01*
X442000Y185500D02*
X451000D01*
X436000Y179500D02*
X442000Y185500D01*
X436000Y150500D02*
Y179500D01*
X442500Y175500D02*
X452000D01*
X439500Y172500D02*
X442500Y175500D01*
X439500Y146000D02*
Y172500D01*
X451000Y165500D02*
X456000Y170500D01*
X451000Y145000D02*
Y165500D01*
X434500Y149000D02*
X436000Y150500D01*
X378331Y149000D02*
X434500D01*
X437500Y144000D02*
X439500Y146000D01*
X389079Y144000D02*
X437500D01*
X440500Y125000D02*
X456000Y140500D01*
X362598Y125000D02*
X440500D01*
X355512Y132087D02*
X362598Y125000D01*
X436000Y130000D02*
X451000Y145000D01*
X390000Y130000D02*
X436000D01*
X387913Y132087D02*
X390000Y130000D01*
X451500Y195500D02*
X456000Y200000D01*
Y200500D01*
X371260Y141929D02*
X378331Y149000D01*
X388132Y143053D02*
X389079Y144000D01*
X387008Y141929D02*
X388132Y143053D01*
X452000Y175500D02*
X456000Y179500D01*
Y180500D01*
X387008Y132087D02*
X387913D01*
X456000Y140500D02*
Y150500D01*
X388132Y143053D02*
Y144000D01*
D92*
X449000Y279000D02*
X460500Y267500D01*
X423010Y279000D02*
X449000D01*
X302000Y335000D02*
X325500Y311500D01*
X285000Y335000D02*
X302000D01*
X325500Y311500D02*
X357000D01*
X256800Y329000D02*
X279000D01*
X237600D02*
X256800D01*
X372500Y302000D02*
Y311500D01*
X358000Y297500D02*
X376500Y279000D01*
X423010D01*
X358000Y297500D02*
Y311500D01*
X362500Y321500D02*
X372500Y311500D01*
X331500Y321500D02*
X362500D01*
X321000Y332000D02*
Y347000D01*
Y332000D02*
X331500Y321500D01*
X279000Y329000D02*
X285000Y335000D01*
X185000Y299000D02*
X198500Y312500D01*
X224000D01*
X185000Y295000D02*
Y299000D01*
X236600Y326500D02*
X241800Y321300D01*
Y311500D02*
Y321300D01*
X460500Y258500D02*
Y267500D01*
X446000Y244000D02*
X460500Y258500D01*
X446000Y240500D02*
Y244000D01*
D93*
X353000Y255500D02*
Y282000D01*
Y255500D02*
X353500Y255000D01*
X376000Y247500D02*
X385000Y238500D01*
X346000Y247500D02*
X376000D01*
X341875Y251625D02*
X346000Y247500D01*
X387000Y177500D02*
X388000Y176500D01*
X377000Y250500D02*
X388000Y239500D01*
X348000Y250500D02*
X377000D01*
X345000Y253500D02*
X348000Y250500D01*
X306500Y276500D02*
X314000D01*
X311000Y270000D02*
X313500D01*
X307500Y266500D02*
X311000Y270000D01*
X300500Y270500D02*
X306500Y276500D01*
X283750Y270500D02*
X300500D01*
X280000Y266750D02*
X283750Y270500D01*
X289500Y266500D02*
X307500D01*
X345000Y253500D02*
Y260000D01*
X304000Y301000D02*
X345000Y260000D01*
X241000Y301000D02*
X304000D01*
X337500Y275000D02*
Y277000D01*
X310000Y304500D02*
X337500Y277000D01*
X249000Y304500D02*
X310000D01*
X341875Y251625D02*
Y258125D01*
X304000Y296000D02*
X341875Y258125D01*
X225500Y296000D02*
X304000D01*
X388000Y195000D02*
Y239500D01*
X385000Y195500D02*
Y238500D01*
X219000Y302500D02*
X225500Y296000D01*
X380500Y176500D02*
X383500Y179500D01*
Y194000D01*
X385000Y195500D01*
X387000Y194000D02*
X388000Y195000D01*
X387000Y177500D02*
Y194000D01*
X260500Y310000D02*
X277500D01*
X149547Y249953D02*
X151421D01*
X143500Y256000D02*
X149547Y249953D01*
X127571Y256000D02*
X143500D01*
X124572Y253000D02*
X127571Y256000D01*
X124500Y253000D02*
X124572D01*
X142000Y251500D02*
X145516Y247984D01*
X151421D01*
X142000Y242500D02*
X145516Y246016D01*
X151421D01*
D94*
X428000Y378000D02*
X430500Y375500D01*
Y349000D02*
Y375500D01*
X423000Y341500D02*
X430500Y349000D01*
X333000Y378000D02*
X428000D01*
X347500Y363000D02*
X380152D01*
X346000Y364500D02*
X347500Y363000D01*
X341500Y369000D02*
X346000Y364500D01*
X335500Y369000D02*
X341500D01*
X332500Y366000D02*
X335500Y369000D01*
X332500Y346500D02*
Y366000D01*
X326000Y371000D02*
X333000Y378000D01*
X257000Y371000D02*
X326000D01*
X332500Y346500D02*
X337000Y342000D01*
X338500Y363603D02*
X338897D01*
X357500Y345000D01*
X337000Y342000D02*
X337500D01*
X323500Y354000D02*
X325000Y355500D01*
X272000Y338500D02*
X287500Y354000D01*
X259000Y338500D02*
X272000D01*
X257500Y340000D02*
X259000Y338500D01*
X247000Y361000D02*
X257000Y371000D01*
X247000Y353500D02*
Y361000D01*
X328000Y358000D02*
Y365000D01*
X324000Y354000D02*
X328000Y358000D01*
X287500Y354000D02*
X323500D01*
X357500Y345000D02*
X359000D01*
X246500Y248500D02*
Y258500D01*
X248088Y267953D02*
X255000D01*
X246500Y269000D02*
Y280000D01*
Y269000D02*
X247041D01*
X248088Y267953D01*
X246500Y259000D02*
X248000Y260500D01*
X246500Y258500D02*
Y259000D01*
X248000Y260500D02*
X253500D01*
D95*
X371500D02*
X400500D01*
X369000Y263000D02*
X371500Y260500D01*
X366500Y257500D02*
X398000D01*
X363000Y261000D02*
X366500Y257500D01*
X363000Y254500D02*
X395500D01*
X400500Y260500D02*
X403500Y257500D01*
X398000D02*
X400500Y255000D01*
X395500Y254500D02*
X397500Y252500D01*
X122500Y242500D02*
Y245031D01*
X122531Y248969D02*
Y251031D01*
X394500Y190000D02*
Y248500D01*
X393000Y250000D02*
X394500Y248500D01*
X400500Y195000D02*
Y255000D01*
X403500Y196000D02*
Y257500D01*
X388500Y245500D02*
X391500Y242500D01*
X397500Y194000D02*
Y252500D01*
X391500Y194000D02*
Y242500D01*
X291000Y224000D02*
Y225000D01*
Y218000D02*
Y224000D01*
X233629Y226871D02*
X256871D01*
X285000Y212000D02*
X291000Y218000D01*
X248500Y212000D02*
X285000D01*
X244000Y216500D02*
X248500Y212000D01*
X279500Y221000D02*
Y225000D01*
X275500Y217000D02*
X279500Y221000D01*
X253500Y217000D02*
X275500D01*
X203000Y257500D02*
X233629Y226871D01*
X249000Y224000D02*
X253500Y219500D01*
X231500Y224000D02*
X249000D01*
X201000Y254500D02*
X231500Y224000D01*
X162500Y254500D02*
X201000D01*
X159500Y257500D02*
X203000D01*
X253500Y217000D02*
Y219500D01*
X228000Y216500D02*
X235500D01*
X241500Y221000D02*
X243534Y218966D01*
X229500Y221000D02*
X241500D01*
X211000Y239500D02*
X229500Y221000D01*
X243534Y216966D02*
Y218966D01*
Y216966D02*
X244000Y216500D01*
X162500Y239500D02*
X211000D01*
X208000Y236500D02*
X228000Y216500D01*
X160485Y236500D02*
X208000D01*
X163500Y214500D02*
Y227500D01*
X154000Y252000D02*
X159500Y257500D01*
X154000Y250386D02*
Y252000D01*
X154061Y242923D02*
X160485Y236500D01*
X158112Y243888D02*
X162500Y239500D01*
X156971Y243888D02*
X158112D01*
X158000Y250000D02*
X162500Y254500D01*
X156626Y250000D02*
X158000D01*
X153000Y235000D02*
X156000D01*
X163500Y227500D01*
X154061Y242923D02*
Y243553D01*
X154000Y243614D02*
X154061Y243553D01*
X156579Y249953D02*
X156626Y250000D01*
X150047Y244047D02*
X151421D01*
X144000Y238000D02*
X150047Y244047D01*
X127097Y238000D02*
X144000D01*
X124597Y240500D02*
X127097Y238000D01*
X124500Y240500D02*
X124597D01*
X122500Y242500D02*
X124500Y240500D01*
X124531Y245031D02*
X125500D01*
X122500D02*
X124531D01*
X122531Y251031D02*
X124500Y253000D01*
X124531Y248969D02*
X125500D01*
X122531D02*
X124531D01*
X129969Y245031D02*
X130534Y244466D01*
Y242966D02*
Y244466D01*
Y242966D02*
X131000Y242500D01*
X128469Y245031D02*
X129969D01*
Y248969D02*
X130534Y249534D01*
Y251034D01*
X131000Y251500D01*
X128469Y248969D02*
X129969D01*
X398500Y158000D02*
Y165000D01*
X396000Y167500D02*
X398500Y165000D01*
X396000Y167500D02*
Y185500D01*
X403500Y196000D02*
X405000Y194500D01*
Y158000D02*
Y194500D01*
X402000Y187000D02*
Y193500D01*
X400500Y195000D02*
X402000Y193500D01*
X400500Y174000D02*
Y185500D01*
X402000Y187000D01*
X390000Y192500D02*
X391500Y194000D01*
X390000Y188500D02*
Y192500D01*
X393000Y164000D02*
Y185500D01*
X390000Y188500D02*
X393000Y185500D01*
X399000Y188500D02*
Y192500D01*
X396000Y185500D02*
X399000Y188500D01*
X397500Y194000D02*
X399000Y192500D01*
X394500Y190000D02*
X395500D01*
X455500Y240500D02*
X456000D01*
D97*
X422980Y269000D02*
D03*
Y300000D02*
D03*
X422800Y331500D02*
D03*
Y341500D02*
D03*
Y351500D02*
D03*
Y361500D02*
D03*
D98*
X446000Y220500D02*
D03*
Y230500D02*
D03*
X456000Y150500D02*
D03*
Y160500D02*
D03*
Y170500D02*
D03*
Y180500D02*
D03*
Y190500D02*
D03*
Y200500D02*
D03*
Y210500D02*
D03*
Y220500D02*
D03*
Y230500D02*
D03*
Y240500D02*
D03*
X446000Y150500D02*
D03*
Y160500D02*
D03*
Y170500D02*
D03*
Y180500D02*
D03*
Y190500D02*
D03*
Y200500D02*
D03*
Y210500D02*
D03*
Y240500D02*
D03*
D99*
X387008Y132087D02*
D03*
X371260D02*
D03*
X355512D02*
D03*
X387008Y141929D02*
D03*
X371260D02*
D03*
X355512D02*
D03*
X395275Y137008D02*
D03*
X347244D02*
D03*
D100*
X131496Y334449D02*
D03*
X181890Y356102D02*
D03*
X131496Y157283D02*
D03*
X181890Y135630D02*
D03*
D101*
X481890Y245866D02*
D03*
D102*
X166500Y281000D02*
D03*
X485000Y380000D02*
D03*
X480000Y370000D02*
D03*
X485000Y360000D02*
D03*
X480000Y350000D02*
D03*
X485000Y340000D02*
D03*
X480000Y330000D02*
D03*
X485000Y320000D02*
D03*
X480000Y310000D02*
D03*
X485000Y300000D02*
D03*
X480000Y290000D02*
D03*
X485000Y280000D02*
D03*
X480000Y270000D02*
D03*
Y230000D02*
D03*
X485000Y220000D02*
D03*
X480000Y210000D02*
D03*
X485000Y200000D02*
D03*
X480000Y190000D02*
D03*
X485000Y180000D02*
D03*
X480000Y170000D02*
D03*
X485000Y160000D02*
D03*
X480000Y150000D02*
D03*
X485000Y140000D02*
D03*
X480000Y130000D02*
D03*
X485000Y120000D02*
D03*
X480000Y110000D02*
D03*
X475000Y380000D02*
D03*
X470000Y370000D02*
D03*
X475000Y360000D02*
D03*
X470000Y350000D02*
D03*
X475000Y340000D02*
D03*
X470000Y330000D02*
D03*
X475000Y320000D02*
D03*
X470000Y310000D02*
D03*
X475000Y300000D02*
D03*
X470000Y290000D02*
D03*
X475000Y280000D02*
D03*
X470000Y270000D02*
D03*
X475000Y260000D02*
D03*
Y200000D02*
D03*
X470000Y190000D02*
D03*
X475000Y180000D02*
D03*
X470000Y170000D02*
D03*
X475000Y160000D02*
D03*
X470000Y150000D02*
D03*
X475000Y140000D02*
D03*
X470000Y130000D02*
D03*
X475000Y120000D02*
D03*
X470000Y110000D02*
D03*
X465000Y380000D02*
D03*
X460000Y370000D02*
D03*
X465000Y360000D02*
D03*
X460000Y350000D02*
D03*
X465000Y340000D02*
D03*
X460000Y330000D02*
D03*
X465000Y320000D02*
D03*
X460000Y310000D02*
D03*
X465000Y300000D02*
D03*
X460000Y290000D02*
D03*
X465000Y280000D02*
D03*
X460000Y270000D02*
D03*
Y130000D02*
D03*
X465000Y120000D02*
D03*
X460000Y110000D02*
D03*
X455000Y380000D02*
D03*
X450000Y370000D02*
D03*
X455000Y360000D02*
D03*
X450000Y350000D02*
D03*
X455000Y340000D02*
D03*
X450000Y330000D02*
D03*
X455000Y320000D02*
D03*
X450000Y310000D02*
D03*
X455000Y300000D02*
D03*
X450000Y290000D02*
D03*
X455000Y280000D02*
D03*
Y120000D02*
D03*
X450000Y110000D02*
D03*
X445000Y380000D02*
D03*
X440000Y370000D02*
D03*
X445000Y360000D02*
D03*
X440000Y350000D02*
D03*
X445000Y340000D02*
D03*
X440000Y330000D02*
D03*
X445000Y320000D02*
D03*
X440000Y310000D02*
D03*
X445000Y300000D02*
D03*
X440000Y290000D02*
D03*
X445000Y280000D02*
D03*
X440000Y110000D02*
D03*
X435000Y340000D02*
D03*
Y320000D02*
D03*
Y300000D02*
D03*
X430000Y290000D02*
D03*
X435000Y280000D02*
D03*
X430000Y110000D02*
D03*
X425000Y320000D02*
D03*
X420000Y290000D02*
D03*
X425000Y240000D02*
D03*
X420000Y110000D02*
D03*
X415000Y320000D02*
D03*
X410000Y290000D02*
D03*
Y110000D02*
D03*
X405000Y320000D02*
D03*
X390000Y330000D02*
D03*
X395000Y320000D02*
D03*
X385000Y340000D02*
D03*
X380000Y330000D02*
D03*
X385000Y320000D02*
D03*
Y160000D02*
D03*
X375000Y340000D02*
D03*
X370000Y330000D02*
D03*
X375000Y160000D02*
D03*
X345000Y240000D02*
D03*
X340000Y150000D02*
D03*
Y130000D02*
D03*
X330000Y310000D02*
D03*
X335000Y300000D02*
D03*
Y240000D02*
D03*
X330000Y230000D02*
D03*
Y150000D02*
D03*
X335000Y140000D02*
D03*
X330000Y130000D02*
D03*
X335000Y120000D02*
D03*
X330000Y110000D02*
D03*
X320000Y310000D02*
D03*
X325000Y300000D02*
D03*
Y240000D02*
D03*
X320000Y230000D02*
D03*
X325000Y220000D02*
D03*
X320000Y150000D02*
D03*
X325000Y140000D02*
D03*
X320000Y130000D02*
D03*
X325000Y120000D02*
D03*
X320000Y110000D02*
D03*
X315000Y240000D02*
D03*
X310000Y230000D02*
D03*
X315000Y220000D02*
D03*
X310000Y150000D02*
D03*
X315000Y140000D02*
D03*
X310000Y130000D02*
D03*
X315000Y120000D02*
D03*
X310000Y110000D02*
D03*
X305000Y220000D02*
D03*
X300000Y150000D02*
D03*
X305000Y140000D02*
D03*
X300000Y130000D02*
D03*
X305000Y120000D02*
D03*
X300000Y110000D02*
D03*
X295000Y320000D02*
D03*
X290000Y150000D02*
D03*
X295000Y140000D02*
D03*
X290000Y130000D02*
D03*
X295000Y120000D02*
D03*
X290000Y110000D02*
D03*
X280000Y150000D02*
D03*
X285000Y140000D02*
D03*
X280000Y130000D02*
D03*
X285000Y120000D02*
D03*
X280000Y110000D02*
D03*
X270000Y150000D02*
D03*
X275000Y140000D02*
D03*
X270000Y130000D02*
D03*
X275000Y120000D02*
D03*
X270000Y110000D02*
D03*
X260000Y150000D02*
D03*
X265000Y140000D02*
D03*
X260000Y130000D02*
D03*
X265000Y120000D02*
D03*
X260000Y110000D02*
D03*
X250000Y150000D02*
D03*
X255000Y140000D02*
D03*
X250000Y130000D02*
D03*
X255000Y120000D02*
D03*
X250000Y110000D02*
D03*
X240000Y150000D02*
D03*
X245000Y140000D02*
D03*
X240000Y130000D02*
D03*
X245000Y120000D02*
D03*
X240000Y110000D02*
D03*
X230000Y150000D02*
D03*
X235000Y140000D02*
D03*
X230000Y130000D02*
D03*
X235000Y120000D02*
D03*
X230000Y110000D02*
D03*
X220000Y150000D02*
D03*
X225000Y140000D02*
D03*
X220000Y130000D02*
D03*
X225000Y120000D02*
D03*
X220000Y110000D02*
D03*
X210000Y150000D02*
D03*
X215000Y140000D02*
D03*
X210000Y130000D02*
D03*
X215000Y120000D02*
D03*
X210000Y110000D02*
D03*
X200000Y150000D02*
D03*
X205000Y140000D02*
D03*
X200000Y130000D02*
D03*
X205000Y120000D02*
D03*
X200000Y110000D02*
D03*
X195000Y120000D02*
D03*
X190000Y110000D02*
D03*
X180000D02*
D03*
X170000Y310000D02*
D03*
Y150000D02*
D03*
X175000Y120000D02*
D03*
X170000Y110000D02*
D03*
X165000Y320000D02*
D03*
Y160000D02*
D03*
X160000Y150000D02*
D03*
X165000Y140000D02*
D03*
X160000Y130000D02*
D03*
X165000Y120000D02*
D03*
X160000Y110000D02*
D03*
X155000Y320000D02*
D03*
Y220000D02*
D03*
X150000Y190000D02*
D03*
Y170000D02*
D03*
X155000Y160000D02*
D03*
X150000Y150000D02*
D03*
X155000Y140000D02*
D03*
X150000Y130000D02*
D03*
X155000Y120000D02*
D03*
X150000Y110000D02*
D03*
X145000Y380000D02*
D03*
X140000Y370000D02*
D03*
X145000Y360000D02*
D03*
X140000Y350000D02*
D03*
Y190000D02*
D03*
X145000Y180000D02*
D03*
Y140000D02*
D03*
X140000Y130000D02*
D03*
X145000Y120000D02*
D03*
X140000Y110000D02*
D03*
X130000Y210000D02*
D03*
X135000Y200000D02*
D03*
X130000Y190000D02*
D03*
X135000Y180000D02*
D03*
Y140000D02*
D03*
X120000Y310000D02*
D03*
Y290000D02*
D03*
Y210000D02*
D03*
X125000Y200000D02*
D03*
X120000Y190000D02*
D03*
X125000Y180000D02*
D03*
X120000Y170000D02*
D03*
X115000Y340000D02*
D03*
X110000Y330000D02*
D03*
X115000Y320000D02*
D03*
X110000Y310000D02*
D03*
X115000Y300000D02*
D03*
X110000Y290000D02*
D03*
X115000Y280000D02*
D03*
Y220000D02*
D03*
X110000Y210000D02*
D03*
X115000Y200000D02*
D03*
X110000Y190000D02*
D03*
X115000Y180000D02*
D03*
X110000Y170000D02*
D03*
Y150000D02*
D03*
X369000Y263000D02*
D03*
X363000Y261000D02*
D03*
Y254500D02*
D03*
X314000Y276500D02*
D03*
X313500Y270000D02*
D03*
X396000Y302000D02*
D03*
X386500D02*
D03*
X377000D02*
D03*
X359000Y345000D02*
D03*
X358000Y311500D02*
D03*
X353000Y282000D02*
D03*
X346000Y364500D02*
D03*
X338500Y363603D02*
D03*
X337500Y342000D02*
D03*
X300000Y337000D02*
D03*
X266500Y364500D02*
D03*
X261500Y354500D02*
D03*
X266000Y344000D02*
D03*
X247000Y353500D02*
D03*
X388500Y245500D02*
D03*
X393000Y250000D02*
D03*
X271500Y288500D02*
D03*
X408000Y202000D02*
D03*
X380500Y201500D02*
D03*
X201000Y246000D02*
D03*
X333000Y197000D02*
D03*
X337500Y275000D02*
D03*
X280000Y266750D02*
D03*
X289500Y266500D02*
D03*
Y254500D02*
D03*
X353500Y255000D02*
D03*
X333000Y251000D02*
D03*
X114000Y264000D02*
D03*
X167000Y329000D02*
D03*
X113000Y227000D02*
D03*
X291000Y224000D02*
D03*
X279500Y225000D02*
D03*
X256500Y226500D02*
D03*
X253500Y217000D02*
D03*
X235500Y216500D02*
D03*
X244000D02*
D03*
X224000Y312500D02*
D03*
X208000Y301500D02*
D03*
Y287500D02*
D03*
X387500Y176500D02*
D03*
X380500D02*
D03*
X219000Y302500D02*
D03*
X241000Y301000D02*
D03*
X249000Y304500D02*
D03*
X277500Y310000D02*
D03*
X260500D02*
D03*
X257500Y340000D02*
D03*
X185000Y295000D02*
D03*
X213500Y262000D02*
D03*
X142500Y301000D02*
D03*
X240500Y364000D02*
D03*
X231800Y348468D02*
D03*
X207526Y359226D02*
D03*
Y363726D02*
D03*
X124500Y272500D02*
D03*
X218800Y335000D02*
D03*
X256000Y276500D02*
D03*
X264000Y263500D02*
D03*
X223000Y206500D02*
D03*
X256800Y324500D02*
D03*
Y333500D02*
D03*
X250800Y339500D02*
D03*
X241800Y310500D02*
D03*
X223800Y341000D02*
D03*
X381000Y227500D02*
D03*
X410000D02*
D03*
X163500Y214500D02*
D03*
X321000Y349000D02*
D03*
X322000Y359500D02*
D03*
X328000Y365000D02*
D03*
X153000Y235000D02*
D03*
X166500Y192500D02*
D03*
X146000Y220000D02*
D03*
X374152Y363000D02*
D03*
X390000Y363000D02*
D03*
X398500Y343000D02*
D03*
X164500Y244000D02*
D03*
Y250000D02*
D03*
X124500Y240500D02*
D03*
Y253000D02*
D03*
X142000Y251500D02*
D03*
Y242500D02*
D03*
X131000D02*
D03*
Y251500D02*
D03*
X393000Y164000D02*
D03*
X398500Y158000D02*
D03*
X400500Y174000D02*
D03*
X394500Y190000D02*
D03*
X405000Y158000D02*
D03*
D103*
X255000Y267953D02*
D03*
X246500Y280000D02*
D03*
Y258500D02*
D03*
Y269000D02*
D03*
Y248500D02*
D03*
X253500Y260500D02*
D03*
D104*
X229300Y333600D02*
D03*
X233000D02*
D03*
X236600Y326500D02*
D03*
X233000D02*
D03*
X229300D02*
D03*
X225700D02*
D03*
X236600Y330000D02*
D03*
X233000D02*
D03*
X229300D02*
D03*
X225700D02*
D03*
X236500Y333600D02*
D03*
X225700D02*
D03*
D105*
X154000Y250386D02*
D03*
Y243614D02*
D03*
D106*
X151421Y249953D02*
D03*
Y244047D02*
D03*
X156579D02*
D03*
Y249953D02*
D03*
D107*
X151421Y247984D02*
D03*
Y246016D02*
D03*
X156579D02*
D03*
Y247984D02*
D03*
D108*
X128469Y248969D02*
D03*
Y247000D02*
D03*
Y245031D02*
D03*
X124531D02*
D03*
Y247000D02*
D03*
Y248969D02*
D03*
M02*
