G04*
G04 #@! TF.GenerationSoftware,Altium Limited,Altium Designer,19.1.8 (144)*
G04*
G04 Layer_Physical_Order=1*
G04 Layer_Color=255*
%FSLAX25Y25*%
%MOIN*%
G70*
G01*
G75*
%ADD14C,0.01000*%
%ADD16C,0.00800*%
%ADD19R,0.01181X0.03347*%
%ADD20R,0.03347X0.01181*%
%ADD21R,0.14567X0.10630*%
%ADD22R,0.06791X0.08799*%
%ADD23R,0.02992X0.01595*%
%ADD24R,0.03898X0.01595*%
%ADD25R,0.03543X0.02756*%
%ADD26R,0.03543X0.03150*%
%ADD27R,0.02756X0.03543*%
%ADD28R,0.03150X0.03543*%
%ADD29R,0.20079X0.13780*%
%ADD30R,0.03543X0.05118*%
%ADD31R,0.05118X0.05118*%
%ADD32R,0.02756X0.07874*%
%ADD33R,0.04724X0.03543*%
%ADD34R,0.05906X0.01575*%
%ADD35R,0.07284X0.04921*%
%ADD36R,0.02559X0.04134*%
%ADD37R,0.00787X0.02953*%
%ADD38R,0.15000X0.06496*%
%ADD39R,0.04016X0.02402*%
%ADD40R,0.05000X0.02402*%
%ADD41R,0.03740X0.01575*%
%ADD42O,0.06693X0.01378*%
%ADD43R,0.09449X0.07087*%
%ADD44R,0.07087X0.07087*%
%ADD45R,0.03937X0.02953*%
%ADD46R,0.03937X0.01575*%
%ADD47R,0.01575X0.03740*%
%ADD48R,0.07284X0.03543*%
%ADD49R,0.07284X0.12598*%
%ADD75R,0.07480X0.07480*%
%ADD83C,0.03347*%
%ADD88C,0.07000*%
%ADD89C,0.10000*%
%ADD90C,0.05000*%
%ADD91C,0.02000*%
%ADD92C,0.08000*%
%ADD93C,0.01200*%
%ADD94C,0.03000*%
%ADD95C,0.01500*%
%ADD96C,0.03500*%
%ADD97C,0.07480*%
%ADD98C,0.06693*%
%ADD99C,0.07874*%
%ADD100C,0.23622*%
%ADD101O,0.15000X0.19685*%
%ADD102C,0.03937*%
%ADD103C,0.05000*%
%ADD104C,0.03500*%
G36*
X426528Y375228D02*
X419072Y367772D01*
X419001Y367954D01*
X418789Y368265D01*
X418435Y368707D01*
X416526Y370809D01*
X412001Y375428D01*
X419272Y382299D01*
X426528Y375228D01*
D02*
G37*
G36*
X216959Y365880D02*
X215180Y365868D01*
X215279Y365880D01*
X215367Y365914D01*
X215445Y365971D01*
X215513Y366051D01*
X215570Y366153D01*
X215617Y366277D01*
X215653Y366424D01*
X215679Y366594D01*
X215695Y366786D01*
X215700Y367000D01*
X216900D01*
X216959Y365880D01*
D02*
G37*
G36*
X223371Y366140D02*
X223407Y366108D01*
X223467Y366080D01*
X223551Y366056D01*
X223659Y366036D01*
X223791Y366019D01*
X224127Y365997D01*
X224559Y365990D01*
Y364790D01*
X224331Y364788D01*
X223659Y364743D01*
X223551Y364723D01*
X223467Y364699D01*
X223407Y364671D01*
X223371Y364640D01*
X223359Y364604D01*
Y366175D01*
X223371Y366140D01*
D02*
G37*
G36*
X347888Y365078D02*
X347917Y365041D01*
X347956Y365008D01*
X348004Y364979D01*
X348063Y364955D01*
X348131Y364935D01*
X348208Y364920D01*
X348296Y364909D01*
X348393Y364902D01*
X348500Y364900D01*
Y364100D01*
X348393Y364098D01*
X348208Y364080D01*
X348131Y364065D01*
X348063Y364045D01*
X348004Y364021D01*
X347956Y363992D01*
X347917Y363959D01*
X347888Y363922D01*
X347868Y363880D01*
Y365120D01*
X347888Y365078D01*
D02*
G37*
G36*
X344132Y363880D02*
X344112Y363922D01*
X344083Y363959D01*
X344044Y363992D01*
X343996Y364021D01*
X343937Y364045D01*
X343869Y364065D01*
X343792Y364080D01*
X343704Y364091D01*
X343607Y364098D01*
X343500Y364100D01*
Y364900D01*
X343607Y364902D01*
X343792Y364920D01*
X343869Y364935D01*
X343937Y364955D01*
X343996Y364979D01*
X344044Y365008D01*
X344083Y365041D01*
X344112Y365078D01*
X344132Y365120D01*
Y363880D01*
D02*
G37*
G36*
X385849Y364710D02*
X385939Y364666D01*
X386089Y364627D01*
X386299Y364594D01*
X386569Y364565D01*
X387739Y364510D01*
X388819Y364500D01*
Y361500D01*
X388249Y361497D01*
X386089Y361373D01*
X385939Y361334D01*
X385849Y361290D01*
X385819Y361240D01*
Y364760D01*
X385849Y364710D01*
D02*
G37*
G36*
X377181Y361240D02*
X377151Y361290D01*
X377061Y361334D01*
X376911Y361373D01*
X376701Y361406D01*
X376431Y361435D01*
X375261Y361490D01*
X374181Y361500D01*
Y364500D01*
X374751Y364503D01*
X376911Y364627D01*
X377061Y364666D01*
X377151Y364710D01*
X377181Y364760D01*
Y361240D01*
D02*
G37*
G36*
X371347Y364710D02*
X371432Y364666D01*
X371574Y364627D01*
X371772Y364594D01*
X372027Y364565D01*
X373132Y364510D01*
X374152Y364500D01*
Y361500D01*
X373613Y361497D01*
X371574Y361373D01*
X371432Y361334D01*
X371347Y361290D01*
X371319Y361240D01*
Y364760D01*
X371347Y364710D01*
D02*
G37*
G36*
X394681Y361240D02*
X394651Y361290D01*
X394561Y361334D01*
X394411Y361373D01*
X394201Y361406D01*
X393931Y361435D01*
X392761Y361490D01*
X391681Y361500D01*
Y364500D01*
X392251Y364503D01*
X394411Y364627D01*
X394561Y364666D01*
X394651Y364710D01*
X394681Y364760D01*
Y361240D01*
D02*
G37*
G36*
X420129Y358882D02*
X419902Y359094D01*
X419658Y359284D01*
X419399Y359452D01*
X419123Y359597D01*
X418831Y359720D01*
X418523Y359821D01*
X418199Y359899D01*
X417859Y359955D01*
X417502Y359989D01*
X417130Y360000D01*
Y363000D01*
X417502Y363011D01*
X417859Y363045D01*
X418199Y363101D01*
X418523Y363179D01*
X418831Y363280D01*
X419123Y363403D01*
X419399Y363548D01*
X419658Y363716D01*
X419902Y363906D01*
X420129Y364118D01*
Y358882D01*
D02*
G37*
G36*
X373974Y370966D02*
X371655Y368648D01*
X371094Y367917D01*
X370742Y367065D01*
X370703Y366772D01*
X360669D01*
Y361377D01*
X360642Y361240D01*
X360646Y361219D01*
X360643Y361198D01*
X360666Y360094D01*
X360662Y359939D01*
X360228Y358483D01*
X359935Y358444D01*
X354250D01*
X352902Y358470D01*
X351671Y359311D01*
Y363776D01*
X351485Y364712D01*
X350955Y365506D01*
X350230Y366230D01*
X349436Y366761D01*
X349237Y366800D01*
X348830Y367330D01*
X348001Y367967D01*
X347036Y368366D01*
X346000Y368503D01*
X344964Y368366D01*
X343999Y367967D01*
X343170Y367330D01*
X342763Y366800D01*
X342564Y366761D01*
X341770Y366230D01*
X339738Y364199D01*
X339208Y363405D01*
X339196Y363348D01*
X339096Y363198D01*
X339014Y362787D01*
X338957D01*
Y362498D01*
X338910Y362261D01*
Y361787D01*
X338382D01*
Y359039D01*
X334828D01*
X334813Y359039D01*
X334812Y359039D01*
X334789D01*
X334788Y359039D01*
X334786Y359039D01*
X334287D01*
X333272Y358905D01*
X333056Y358929D01*
X331772Y359952D01*
Y363735D01*
X331866Y363964D01*
X332003Y365000D01*
X331866Y366036D01*
X331467Y367001D01*
X330830Y367830D01*
X330001Y368466D01*
X329036Y368866D01*
X328000Y369003D01*
X326964Y368866D01*
X325999Y368466D01*
X325430Y368030D01*
X317500D01*
X316586Y367910D01*
X316081Y367701D01*
X313000D01*
Y366795D01*
X299992D01*
Y367701D01*
X299200D01*
X299194Y367709D01*
X298254Y368431D01*
X297159Y368884D01*
X295984Y369039D01*
X294810Y368884D01*
X293715Y368431D01*
X292982Y367868D01*
X292920Y367845D01*
X291867Y367737D01*
X290657Y368137D01*
X290273Y368431D01*
X289179Y368884D01*
X288004Y369039D01*
X286829Y368884D01*
X285735Y368431D01*
X284794Y367709D01*
X284788Y367701D01*
X283502D01*
Y366795D01*
X270494D01*
Y367701D01*
X269716D01*
X269709Y367709D01*
X268769Y368431D01*
X267675Y368884D01*
X266500Y369039D01*
X241000D01*
X241000Y369039D01*
X239825Y368884D01*
X238731Y368431D01*
X237791Y367709D01*
X237291Y367209D01*
X235358Y367103D01*
X232107Y370354D01*
X231564Y370771D01*
X230931Y371033D01*
X231221Y372466D01*
X373352Y372466D01*
X373974Y370966D01*
D02*
G37*
G36*
X403307Y361210D02*
X403296Y361120D01*
X403287Y360970D01*
X403256Y358240D01*
X400256D01*
X400193Y361240D01*
X403319D01*
X403307Y361210D01*
D02*
G37*
G36*
X255100Y356253D02*
X254939Y356367D01*
X254778Y356469D01*
X254616Y356559D01*
X254452Y356637D01*
X254288Y356703D01*
X254252Y356715D01*
Y356665D01*
X254244Y356701D01*
X254228Y356722D01*
X254123Y356757D01*
X253957Y356799D01*
X253790Y356829D01*
X253622Y356847D01*
X253453Y356853D01*
Y358053D01*
X253622Y358059D01*
X253790Y358077D01*
X253957Y358107D01*
X254123Y358149D01*
X254228Y358183D01*
X254244Y358205D01*
X254252Y358240D01*
Y358191D01*
X254288Y358203D01*
X254452Y358269D01*
X254616Y358347D01*
X254778Y358437D01*
X254939Y358539D01*
X255100Y358653D01*
Y356253D01*
D02*
G37*
G36*
X366022Y357330D02*
X362466D01*
X362519Y357434D01*
X362566Y357630D01*
X362608Y357920D01*
X362675Y358782D01*
X362705Y360092D01*
X362681Y361240D01*
X362732D01*
X362733Y361290D01*
X362741Y361627D01*
X362744Y362573D01*
X365744D01*
X366022Y357330D01*
D02*
G37*
G36*
X223796Y360810D02*
X223690Y359130D01*
X223647Y358894D01*
X223690Y358658D01*
X223729Y358328D01*
X223782Y357488D01*
X223800Y356408D01*
X223620D01*
X223641Y356329D01*
X223690Y356059D01*
X223729Y355729D01*
X223782Y354889D01*
X223800Y353809D01*
X220800D01*
X220787Y354379D01*
X220747Y354889D01*
X220682Y355339D01*
X220590Y355729D01*
X220471Y356059D01*
X220327Y356329D01*
X220156Y356539D01*
X219959Y356689D01*
X219735Y356779D01*
X219485Y356809D01*
X220791D01*
X220787Y356978D01*
X220747Y357488D01*
X220682Y357938D01*
X220590Y358328D01*
X220571Y358380D01*
X219485D01*
X219735Y358410D01*
X219959Y358500D01*
X220156Y358650D01*
X220327Y358860D01*
X220345Y358894D01*
X220327Y358928D01*
X220156Y359138D01*
X219959Y359288D01*
X219735Y359378D01*
X219485Y359408D01*
X220571D01*
X220590Y359460D01*
X220682Y359850D01*
X220747Y360300D01*
X220787Y360810D01*
X220800Y361380D01*
X223800D01*
X223796Y360810D01*
D02*
G37*
G36*
X330010Y354560D02*
X330042Y354421D01*
X330082Y354287D01*
X330131Y354156D01*
X330187Y354031D01*
X330251Y353910D01*
X330324Y353794D01*
X330404Y353682D01*
X330493Y353574D01*
X330589Y353471D01*
X329529Y352411D01*
X329426Y352507D01*
X329318Y352596D01*
X329206Y352676D01*
X329090Y352749D01*
X328969Y352813D01*
X328843Y352870D01*
X328713Y352918D01*
X328579Y352958D01*
X328440Y352990D01*
X328297Y353014D01*
X329986Y354703D01*
X330010Y354560D01*
D02*
G37*
G36*
X375506Y356240D02*
X375620Y356067D01*
X375777Y355878D01*
X375974Y355673D01*
X376213Y355453D01*
X376610Y355133D01*
X377358Y354720D01*
X377965Y354448D01*
X378518Y354247D01*
X379015Y354119D01*
X379456Y354063D01*
X379843Y354079D01*
X380174Y354167D01*
X380450Y354327D01*
X376744Y351398D01*
X376711Y351415D01*
X376611Y351477D01*
X376395Y351617D01*
X376388Y351607D01*
X375936Y351898D01*
X374437Y352741D01*
X374140Y352873D01*
X373873Y352972D01*
X373638Y353040D01*
X373433Y353076D01*
X373259Y353080D01*
X373524Y353484D01*
X373413Y353557D01*
X374773Y355391D01*
X375433Y356398D01*
X375506Y356240D01*
D02*
G37*
G36*
X245240Y350087D02*
X245228Y350180D01*
X245192Y350264D01*
X245132Y350338D01*
X245048Y350402D01*
X244940Y350456D01*
X244808Y350500D01*
X244652Y350535D01*
X244472Y350559D01*
X244268Y350574D01*
X244040Y350579D01*
Y351779D01*
X244270Y351785D01*
X244476Y351803D01*
X244657Y351833D01*
X244814Y351875D01*
X244948Y351929D01*
X245057Y351995D01*
X245142Y352073D01*
X245203Y352163D01*
X245240Y352265D01*
X245252Y352379D01*
X245240Y350087D01*
D02*
G37*
G36*
X349262Y356836D02*
X349412Y356746D01*
X349662Y356666D01*
X350012Y356597D01*
X350462Y356538D01*
X351662Y356453D01*
X354212Y356405D01*
Y351406D01*
X353262Y351390D01*
X351662Y351268D01*
X351012Y351161D01*
X350462Y351023D01*
X350012Y350854D01*
X349662Y350655D01*
X349412Y350426D01*
X349262Y350165D01*
X349212Y349874D01*
Y356937D01*
X349262Y356836D01*
D02*
G37*
G36*
X339788Y356937D02*
Y349874D01*
X339738Y350278D01*
X339588Y350640D01*
X339338Y350958D01*
X338988Y351235D01*
X338538Y351469D01*
X337988Y351660D01*
X337338Y351809D01*
X336588Y351915D01*
X335738Y351979D01*
X334788Y352000D01*
Y357000D01*
X339788Y356937D01*
D02*
G37*
G36*
X228526Y362057D02*
X227852Y360557D01*
X227755D01*
Y353801D01*
X228755Y353652D01*
Y352274D01*
X231526D01*
Y350274D01*
X228755D01*
Y350159D01*
X227255Y349538D01*
X225830Y350962D01*
Y353764D01*
X225839Y353809D01*
X225836Y353826D01*
X225839Y353843D01*
X225830Y354376D01*
Y356363D01*
X225839Y356408D01*
X225836Y356424D01*
X225839Y356441D01*
X225830Y356974D01*
Y360673D01*
X225831Y360682D01*
X225830Y360685D01*
Y360772D01*
X225835Y360794D01*
X225839Y361364D01*
X225840Y361385D01*
X226059Y362260D01*
X226503Y362767D01*
X227966D01*
X228526Y362057D01*
D02*
G37*
G36*
X290504Y357000D02*
X285504Y349500D01*
X285454Y350450D01*
X285304Y351300D01*
X285054Y352050D01*
X284704Y352700D01*
X284254Y353250D01*
X283704Y353700D01*
X283054Y354050D01*
X282304Y354300D01*
X281454Y354450D01*
X280504Y354500D01*
Y359500D01*
X281454Y359550D01*
X282304Y359700D01*
X283054Y359950D01*
X283704Y360300D01*
X284254Y360750D01*
X284704Y361300D01*
X285054Y361950D01*
X285304Y362700D01*
X285454Y363550D01*
X285504Y364500D01*
X290504Y357000D01*
D02*
G37*
G36*
X393271Y350582D02*
X393316Y350577D01*
X393496Y350570D01*
X394756Y350561D01*
Y349061D01*
X393256Y349036D01*
Y350586D01*
X393271Y350582D01*
D02*
G37*
G36*
X376744Y349036D02*
X376729Y349041D01*
X376684Y349045D01*
X376504Y349052D01*
X375244Y349061D01*
Y350561D01*
X376744Y350586D01*
Y349036D01*
D02*
G37*
G36*
X316335Y348323D02*
X316280Y348382D01*
X316201Y348405D01*
X316099Y348392D01*
X315972Y348342D01*
X315821Y348257D01*
X315646Y348136D01*
X315447Y347979D01*
X314978Y347558D01*
X314707Y347293D01*
X313293Y348707D01*
X313619Y349036D01*
X314943Y350525D01*
X314995Y350622D01*
X315012Y350689D01*
X316335Y348323D01*
D02*
G37*
G36*
X371275Y350287D02*
X371320Y350174D01*
X371395Y350075D01*
X371500Y349989D01*
X371635Y349916D01*
X371800Y349856D01*
X371995Y349810D01*
X372220Y349777D01*
X372475Y349757D01*
X372760Y349750D01*
Y348250D01*
X372475Y348244D01*
X371995Y348199D01*
X371800Y348159D01*
X371635Y348108D01*
X371500Y348045D01*
X371395Y347971D01*
X371320Y347886D01*
X371275Y347789D01*
X371260Y347681D01*
Y350413D01*
X371275Y350287D01*
D02*
G37*
G36*
X268503Y350619D02*
X268567Y350512D01*
X268673Y350367D01*
X269012Y349966D01*
X270200Y348716D01*
X270603Y348311D01*
X269189Y346897D01*
X268771Y347301D01*
X268025Y347935D01*
X267697Y348165D01*
X267399Y348336D01*
X267131Y348450D01*
X266893Y348505D01*
X266686Y348503D01*
X266508Y348442D01*
X266360Y348323D01*
X268482Y350689D01*
X268503Y350619D01*
D02*
G37*
G36*
X334224Y346673D02*
X334156Y346649D01*
X334096Y346609D01*
X334044Y346553D01*
X334000Y346481D01*
X333964Y346393D01*
X333936Y346289D01*
X333916Y346169D01*
X333904Y346033D01*
X333900Y345881D01*
X333100D01*
X333096Y346033D01*
X333084Y346169D01*
X333064Y346289D01*
X333036Y346393D01*
X333000Y346481D01*
X332956Y346553D01*
X332904Y346609D01*
X332844Y346649D01*
X332776Y346673D01*
X332700Y346681D01*
X334300D01*
X334224Y346673D01*
D02*
G37*
G36*
X393272Y348224D02*
X393319Y348190D01*
X393399Y348122D01*
X394035Y347518D01*
X394847Y346714D01*
X393827Y345613D01*
X393518Y345911D01*
X392966Y346379D01*
X392722Y346550D01*
X392499Y346678D01*
X392297Y346764D01*
X392117Y346808D01*
X391958Y346810D01*
X391821Y346769D01*
X391705Y346685D01*
X393256Y348224D01*
X393272Y348224D01*
D02*
G37*
G36*
X200466Y363726D02*
Y359226D01*
X200601Y357854D01*
X201002Y356535D01*
X201652Y355319D01*
X202526Y354253D01*
X203592Y353378D01*
X204808Y352728D01*
X206128Y352328D01*
X207500Y352192D01*
X208872Y352328D01*
X210192Y352728D01*
X211408Y353378D01*
X212474Y354253D01*
X212921Y354797D01*
X213166D01*
Y355093D01*
X217473D01*
Y354797D01*
X218700D01*
X218720Y354663D01*
X218749Y354277D01*
X218761Y353762D01*
X218770Y353724D01*
Y349500D01*
X218890Y348586D01*
X219243Y347735D01*
X219777Y347039D01*
X219700Y346483D01*
X219309Y345539D01*
X214369D01*
X212646Y345589D01*
X212009Y345645D01*
X211484Y345719D01*
X211339Y345750D01*
Y346823D01*
X209466D01*
X209330Y346850D01*
X209192Y346823D01*
X192785D01*
X192093Y348323D01*
X192286Y348549D01*
X193340Y350268D01*
X194111Y352131D01*
X194582Y354092D01*
X194662Y355102D01*
X169118D01*
X169197Y354092D01*
X169668Y352131D01*
X170440Y350268D01*
X171493Y348549D01*
X172803Y347016D01*
X174336Y345706D01*
X176056Y344652D01*
X177919Y343881D01*
X177500Y342472D01*
X162039D01*
Y349547D01*
X161884Y350722D01*
X161431Y351817D01*
X161408Y353151D01*
X162474Y354026D01*
X163348Y355092D01*
X163998Y356308D01*
X164399Y357628D01*
X164534Y359000D01*
Y369586D01*
X167413Y372466D01*
X200466D01*
Y363726D01*
D02*
G37*
G36*
X310974Y341500D02*
X310335Y340772D01*
X307075D01*
X306925Y339772D01*
X305547D01*
Y337000D01*
X304547D01*
Y336000D01*
X302169D01*
Y334228D01*
X304567D01*
X304726Y334047D01*
Y332272D01*
X301169D01*
Y331122D01*
X291370D01*
X290755Y332622D01*
X291348Y333228D01*
X293925Y333228D01*
X295011Y334228D01*
X295453D01*
Y337000D01*
Y339772D01*
X295011D01*
X293925Y340772D01*
X292989Y340772D01*
X288717D01*
X288597Y340845D01*
X287613Y341893D01*
X287539Y342000D01*
X287500Y342198D01*
X287423Y342783D01*
X287121Y343513D01*
X287076Y343570D01*
X287888Y344976D01*
X288004Y344961D01*
X289179Y345116D01*
X290273Y345569D01*
X290657Y345864D01*
X291867Y346263D01*
X292920Y346155D01*
X292982Y346131D01*
X293715Y345569D01*
X294810Y345116D01*
X295984Y344961D01*
X297159Y345116D01*
X298254Y345569D01*
X299194Y346291D01*
X299200Y346299D01*
X299992D01*
Y347205D01*
X310974D01*
Y341500D01*
D02*
G37*
G36*
X247666Y344186D02*
X247652Y344166D01*
X247640Y344131D01*
X247629Y344082D01*
X247620Y344020D01*
X247607Y343854D01*
X247600Y343500D01*
X246400D01*
X246399Y343632D01*
X246371Y344082D01*
X246360Y344131D01*
X246348Y344166D01*
X246334Y344186D01*
X246319Y344193D01*
X247681D01*
X247666Y344186D01*
D02*
G37*
G36*
X396448Y345123D02*
X396594Y345008D01*
X396740Y344915D01*
X396886Y344842D01*
X397033Y344789D01*
X397180Y344756D01*
X397328Y344744D01*
X397477Y344752D01*
X397625Y344781D01*
X397775Y344830D01*
X396656Y342311D01*
X396596Y342461D01*
X396451Y342756D01*
X396368Y342902D01*
X396176Y343188D01*
X396069Y343328D01*
X395830Y343605D01*
X395699Y343741D01*
X396304Y345257D01*
X396448Y345123D01*
D02*
G37*
G36*
X339228Y342973D02*
X339342Y342844D01*
X339461Y342730D01*
X339586Y342631D01*
X339717Y342547D01*
X339854Y342478D01*
X339996Y342425D01*
X340144Y342387D01*
X340297Y342364D01*
X340457Y342357D01*
Y341557D01*
X340295Y341549D01*
X340138Y341527D01*
X339986Y341490D01*
X339840Y341438D01*
X339698Y341370D01*
X339562Y341288D01*
X339431Y341192D01*
X339305Y341080D01*
X339185Y340953D01*
X339069Y340812D01*
X339120Y343118D01*
X339228Y342973D01*
D02*
G37*
G36*
X330280Y340719D02*
X328689Y339090D01*
X327019Y340629D01*
X327139Y340549D01*
X327279Y340511D01*
X327439Y340514D01*
X327621Y340559D01*
X327823Y340645D01*
X328045Y340773D01*
X328288Y340943D01*
X328552Y341154D01*
X329141Y341701D01*
X330280Y340719D01*
D02*
G37*
G36*
X285496Y341676D02*
X285430Y340910D01*
X285390Y340723D01*
X285342Y340569D01*
X285285Y340450D01*
X285219Y340365D01*
X285144Y340314D01*
X285061Y340297D01*
X282797D01*
X282931Y340314D01*
X283050Y340365D01*
X283156Y340450D01*
X283247Y340569D01*
X283324Y340723D01*
X283387Y340910D01*
X283437Y341131D01*
X283472Y341387D01*
X283493Y341676D01*
X283500Y342000D01*
X285500D01*
X285496Y341676D01*
D02*
G37*
G36*
X348074Y339074D02*
X347225D01*
X347230Y339090D01*
X347234Y339130D01*
X347241Y339281D01*
X347250Y340297D01*
X348050D01*
X348074Y339074D01*
D02*
G37*
G36*
X351500Y339600D02*
X350900Y339000D01*
X350891Y339015D01*
X350866Y339046D01*
X350764Y339158D01*
X350052Y339882D01*
X350618Y340448D01*
X351500Y339600D01*
D02*
G37*
G36*
X345448Y339882D02*
X344600Y339000D01*
X344000Y339600D01*
X344015Y339609D01*
X344046Y339634D01*
X344158Y339736D01*
X344882Y340448D01*
X345448Y339882D01*
D02*
G37*
G36*
X276414Y340288D02*
X276459Y340280D01*
X276534Y340273D01*
X276939Y340258D01*
X277899Y340250D01*
Y338750D01*
X276399Y338746D01*
Y340297D01*
X276414Y340288D01*
D02*
G37*
G36*
X272683Y340297D02*
Y338746D01*
X272668Y338758D01*
X272623Y338769D01*
X272548Y338778D01*
X272308Y338793D01*
X271183Y338809D01*
Y340309D01*
X272683Y340297D01*
D02*
G37*
G36*
X249242Y338297D02*
X249144Y338411D01*
X249035Y338514D01*
X248917Y338604D01*
X248788Y338683D01*
X248649Y338749D01*
X248499Y338804D01*
X248340Y338846D01*
X248170Y338876D01*
X247990Y338894D01*
X247800Y338900D01*
Y340100D01*
X247990Y340106D01*
X248170Y340124D01*
X248340Y340154D01*
X248499Y340196D01*
X248649Y340251D01*
X248788Y340317D01*
X248917Y340396D01*
X249035Y340486D01*
X249144Y340589D01*
X249242Y340703D01*
Y338297D01*
D02*
G37*
G36*
X239471Y339823D02*
X239237Y339580D01*
X238867Y339143D01*
X238732Y338949D01*
X238629Y338772D01*
X238560Y338610D01*
X238523Y338465D01*
X238519Y338335D01*
X238548Y338222D01*
X238611Y338126D01*
X237466Y339417D01*
X237460Y339430D01*
X237482Y339468D01*
X237531Y339532D01*
X237711Y339735D01*
X238641Y340690D01*
X239471Y339823D01*
D02*
G37*
G36*
X259473Y339767D02*
X259490Y339563D01*
X259519Y339368D01*
X259562Y339183D01*
X259617Y339006D01*
X259685Y338839D01*
X259766Y338682D01*
X259860Y338533D01*
X259966Y338393D01*
X260085Y338263D01*
X259237Y337415D01*
X259106Y337534D01*
X258967Y337640D01*
X258819Y337734D01*
X258661Y337815D01*
X258494Y337883D01*
X258317Y337938D01*
X258132Y337981D01*
X257937Y338010D01*
X257733Y338027D01*
X257520Y338032D01*
X259468Y339980D01*
X259473Y339767D01*
D02*
G37*
G36*
X316311Y336531D02*
X316296Y336536D01*
X316251Y336540D01*
X316071Y336547D01*
X314811Y336556D01*
Y338056D01*
X316311Y338082D01*
Y336531D01*
D02*
G37*
G36*
X281345Y337738D02*
Y336187D01*
X281336Y336199D01*
X281311Y336210D01*
X281269Y336219D01*
X281209Y336227D01*
X281041Y336240D01*
X280500Y336250D01*
Y337750D01*
X281345Y337738D01*
D02*
G37*
G36*
X209377Y344562D02*
X209527Y344339D01*
X209777Y344142D01*
X210127Y343972D01*
X210577Y343828D01*
X211127Y343710D01*
X211777Y343618D01*
X212527Y343552D01*
X214327Y343500D01*
Y338500D01*
X213376Y338475D01*
X212524Y338400D01*
X211773Y338275D01*
X211121Y338100D01*
X210570Y337875D01*
X210119Y337600D01*
X209768Y337275D01*
X209517Y336900D01*
X209366Y336475D01*
X209315Y336000D01*
X209327Y344811D01*
X209377Y344562D01*
D02*
G37*
G36*
X311834Y338626D02*
X311879Y338506D01*
X311954Y338401D01*
X312059Y338310D01*
X312194Y338232D01*
X312359Y338169D01*
X312554Y338120D01*
X312779Y338084D01*
X313034Y338063D01*
X313319Y338056D01*
Y336556D01*
X313032Y336549D01*
X312775Y336526D01*
X312549Y336489D01*
X312352Y336436D01*
X312186Y336369D01*
X312050Y336286D01*
X311944Y336189D01*
X311868Y336076D01*
X311822Y335949D01*
X311807Y335806D01*
X311819Y338760D01*
X311834Y338626D01*
D02*
G37*
G36*
X242461Y335578D02*
X240664D01*
X240778Y335591D01*
X240880Y335627D01*
X240970Y335686D01*
X241048Y335771D01*
X241114Y335878D01*
X241168Y336011D01*
X241210Y336167D01*
X241240Y336347D01*
X241258Y336551D01*
X241264Y336778D01*
X242464D01*
X242461Y335578D01*
D02*
G37*
G36*
X290909Y335252D02*
X290811Y335354D01*
X290688Y335409D01*
X290539Y335417D01*
X290365Y335379D01*
X290165Y335295D01*
X289941Y335165D01*
X289690Y334988D01*
X289415Y334765D01*
X288788Y334180D01*
X288121Y335634D01*
X288401Y335925D01*
X288847Y336455D01*
X289012Y336693D01*
X289138Y336914D01*
X289226Y337117D01*
X289276Y337303D01*
X289287Y337471D01*
X289259Y337622D01*
X289193Y337755D01*
X290909Y335252D01*
D02*
G37*
G36*
X310814Y335240D02*
X310716Y335343D01*
X310591Y335399D01*
X310442Y335409D01*
X310268Y335372D01*
X310068Y335290D01*
X309843Y335160D01*
X309594Y334985D01*
X309319Y334763D01*
X308693Y334180D01*
X308026Y335634D01*
X308305Y335924D01*
X308749Y336452D01*
X308912Y336690D01*
X309038Y336911D01*
X309124Y337114D01*
X309173Y337300D01*
X309183Y337469D01*
X309154Y337621D01*
X309087Y337755D01*
X310814Y335240D01*
D02*
G37*
G36*
X285076Y335174D02*
X285121Y335170D01*
X285301Y335163D01*
X286561Y335154D01*
Y333653D01*
X285061Y333628D01*
Y335179D01*
X285076Y335174D01*
D02*
G37*
G36*
X281345Y335179D02*
Y333628D01*
X281330Y333640D01*
X281285Y333651D01*
X281210Y333660D01*
X280970Y333675D01*
X279845Y333691D01*
Y335191D01*
X281345Y335179D01*
D02*
G37*
G36*
X272683Y333628D02*
X272668Y333633D01*
X272623Y333637D01*
X272443Y333644D01*
X271183Y333653D01*
Y335154D01*
X272683Y335179D01*
Y333628D01*
D02*
G37*
G36*
X189285Y332933D02*
X189234Y333408D01*
X189084Y333833D01*
X188833Y334208D01*
X188483Y334533D01*
X188032Y334808D01*
X187480Y335033D01*
X186829Y335208D01*
X186077Y335333D01*
X185225Y335408D01*
X184273Y335433D01*
Y340433D01*
X185225Y340458D01*
X186077Y340533D01*
X186829Y340658D01*
X187480Y340833D01*
X188032Y341058D01*
X188483Y341333D01*
X188833Y341658D01*
X189084Y342033D01*
X189234Y342458D01*
X189285Y342933D01*
Y332933D01*
D02*
G37*
G36*
X173461Y313000D02*
X173616Y311825D01*
X174069Y310731D01*
X174791Y309791D01*
X179396Y305185D01*
X178822Y303799D01*
X172063D01*
Y300727D01*
X172059Y300714D01*
X172039Y300529D01*
X171912Y300451D01*
X171630Y300336D01*
X171198Y300220D01*
X170622Y300125D01*
X169911Y300062D01*
X169035Y300039D01*
X153295D01*
X152120Y299884D01*
X151026Y299431D01*
X150819Y299272D01*
X147653D01*
Y291728D01*
X146462Y290984D01*
X135039D01*
Y293500D01*
X134884Y294675D01*
X134431Y295769D01*
X134272Y295977D01*
Y299523D01*
X134431Y299731D01*
X134884Y300825D01*
X135039Y302000D01*
Y308620D01*
X159813Y333394D01*
X164228D01*
Y332744D01*
X167000D01*
X169772D01*
Y333394D01*
X173461D01*
Y313000D01*
D02*
G37*
G36*
X489285Y254960D02*
X488363Y254476D01*
X487785Y254366D01*
X486635Y255310D01*
X485158Y256100D01*
X483556Y256586D01*
X482890Y256651D01*
Y245866D01*
Y235081D01*
X483556Y235146D01*
X485158Y235633D01*
X486635Y236422D01*
X487785Y237366D01*
X488363Y237256D01*
X489285Y236772D01*
Y102447D01*
X405990D01*
Y115748D01*
X405963Y115884D01*
X405975Y116022D01*
X405876Y116898D01*
X405793Y117160D01*
X405754Y117432D01*
X405463Y118264D01*
X405323Y118501D01*
X405225Y118758D01*
X404756Y119505D01*
X404567Y119704D01*
X404415Y119933D01*
X403873Y120474D01*
X403904Y120866D01*
X404186Y121641D01*
X404408Y121974D01*
X440500D01*
X441283Y122077D01*
X442013Y122380D01*
X442640Y122860D01*
X464140Y144360D01*
X464620Y144987D01*
X464923Y145717D01*
X465026Y146500D01*
Y155500D01*
X464923Y156283D01*
X464620Y157013D01*
X464140Y157640D01*
X462185Y159594D01*
X462159Y159637D01*
X462019Y159788D01*
X461932Y159897D01*
X461844Y160026D01*
X461755Y160177D01*
X461666Y160350D01*
X461580Y160547D01*
X461504Y160747D01*
X461338Y161311D01*
X461267Y161625D01*
X461235Y161695D01*
X461209Y161896D01*
X460670Y163196D01*
X459813Y164313D01*
X459445Y164596D01*
Y166404D01*
X459813Y166687D01*
X460670Y167804D01*
X461209Y169104D01*
X461393Y170500D01*
X461209Y171896D01*
X460670Y173196D01*
X459813Y174313D01*
X459445Y174596D01*
Y176404D01*
X459813Y176687D01*
X460670Y177804D01*
X461209Y179104D01*
X461393Y180500D01*
X461209Y181896D01*
X460670Y183196D01*
X459813Y184313D01*
X459445Y184596D01*
Y186404D01*
X459813Y186687D01*
X460670Y187804D01*
X461209Y189104D01*
X461393Y190500D01*
X461209Y191896D01*
X460670Y193196D01*
X459813Y194313D01*
X459445Y194596D01*
Y196404D01*
X459813Y196687D01*
X460670Y197804D01*
X461209Y199104D01*
X461393Y200500D01*
X461209Y201896D01*
X460763Y202971D01*
X461133Y203907D01*
X461250Y204086D01*
X461577Y204479D01*
X462676Y204587D01*
X463807Y204930D01*
X464850Y205487D01*
X465763Y206237D01*
X470763Y211237D01*
X471513Y212151D01*
X472070Y213193D01*
X472413Y214324D01*
X472529Y215500D01*
Y239933D01*
X473999Y240255D01*
X474788Y238778D01*
X475850Y237484D01*
X477144Y236422D01*
X478621Y235633D01*
X480223Y235146D01*
X480890Y235081D01*
Y245866D01*
Y256651D01*
X480223Y256586D01*
X478621Y256100D01*
X477144Y255310D01*
X475850Y254248D01*
X474788Y252954D01*
X473999Y251477D01*
X473513Y249875D01*
X473456Y249303D01*
X472840Y249082D01*
X471927Y249076D01*
X471513Y249850D01*
X470763Y250763D01*
X470763Y250763D01*
X448263Y273263D01*
X447350Y274013D01*
X446307Y274570D01*
X445176Y274913D01*
X444000Y275029D01*
X433500D01*
Y275000D01*
X433471Y275029D01*
X427740D01*
Y278000D01*
X423000D01*
X418260D01*
Y276888D01*
X416760Y276267D01*
X408263Y284763D01*
X407349Y285513D01*
X406307Y286070D01*
X405176Y286413D01*
X404000Y286529D01*
X401500D01*
X400324Y286413D01*
X399193Y286070D01*
X398150Y285513D01*
X397237Y284763D01*
X396487Y283850D01*
X395930Y282807D01*
X395587Y281676D01*
X394030Y281178D01*
X387854Y287354D01*
X387311Y287771D01*
X386679Y288033D01*
X386000Y288122D01*
X386000Y288122D01*
X364086D01*
X354122Y298086D01*
Y337439D01*
X354858Y338634D01*
X355622Y338634D01*
X358500D01*
Y341094D01*
X354081D01*
X353358Y340849D01*
X353354Y340854D01*
X352811Y341271D01*
X352623Y341349D01*
X352327Y341634D01*
X351671Y342289D01*
Y347500D01*
X351618Y347768D01*
Y349194D01*
X351907Y349241D01*
X353357Y349352D01*
X354245Y349367D01*
X354246Y349367D01*
X364000D01*
X364228Y349397D01*
X365527Y348620D01*
X365728Y348188D01*
Y345669D01*
X370957D01*
X370979Y345661D01*
X371113Y345669D01*
X371123D01*
X371260Y345642D01*
X371396Y345669D01*
X373272D01*
Y345669D01*
X374124Y345614D01*
X374684Y345065D01*
X374732Y344935D01*
Y344661D01*
X382669D01*
Y344957D01*
X387331D01*
Y344661D01*
X391623D01*
X391698Y344646D01*
X391775Y344661D01*
X391839D01*
X392149Y344398D01*
X392410Y344146D01*
X392428Y344134D01*
X392441Y344117D01*
X392492Y344085D01*
X394193Y342385D01*
X394232Y342324D01*
X394323Y342229D01*
X394486Y342041D01*
X394518Y342000D01*
X394636Y341823D01*
X394650Y341798D01*
X394731Y341633D01*
X394764Y341551D01*
X394876Y341379D01*
X395034Y340999D01*
X395670Y340170D01*
X396188Y339772D01*
X395889Y338432D01*
X395801Y338272D01*
X393169D01*
Y336500D01*
X395547D01*
Y335500D01*
X396547D01*
Y332728D01*
X397925D01*
X398075Y331728D01*
X399577D01*
X400400Y331387D01*
X401575Y331233D01*
X403743D01*
X404917Y331387D01*
X406012Y331841D01*
X406952Y332562D01*
X408709Y334320D01*
X409431Y335260D01*
X409884Y336354D01*
X410039Y337529D01*
Y344466D01*
X416192D01*
X417206Y343000D01*
X417203Y342966D01*
X417010Y341500D01*
X417208Y340002D01*
X417786Y338605D01*
X418706Y337406D01*
X419476Y336815D01*
X419667Y335417D01*
X419574Y334999D01*
X419419Y334881D01*
X418659Y333891D01*
X418182Y332737D01*
X418151Y332500D01*
X422800D01*
X427449D01*
X427418Y332737D01*
X426940Y333891D01*
X426181Y334881D01*
X426026Y334999D01*
X425933Y335417D01*
X426124Y336815D01*
X426894Y337406D01*
X427814Y338605D01*
X428392Y340002D01*
X428590Y341500D01*
X428392Y342999D01*
X427814Y344395D01*
X427744Y344486D01*
X426928Y345623D01*
X427962Y346516D01*
X427974Y346526D01*
X428848Y347592D01*
X429498Y348808D01*
X429899Y350128D01*
X430034Y351500D01*
X429899Y352872D01*
X429498Y354192D01*
X428848Y355408D01*
X427974Y356474D01*
X427962Y356484D01*
X426928Y357377D01*
X427744Y358514D01*
X427814Y358605D01*
X428392Y360001D01*
X428590Y361500D01*
X428392Y362999D01*
X427870Y364260D01*
X427954Y364493D01*
X428540Y365760D01*
X428540Y365760D01*
X428540Y365760D01*
Y367216D01*
X428848Y367592D01*
X429498Y368808D01*
X429899Y370128D01*
X430034Y371500D01*
X429899Y372872D01*
X429498Y374192D01*
X428848Y375408D01*
X428540Y375783D01*
Y377240D01*
X427385D01*
X420695Y383760D01*
X420674Y383773D01*
X419974Y384474D01*
X418908Y385349D01*
X417692Y385999D01*
X416372Y386399D01*
X415000Y386534D01*
X214500Y386534D01*
X214500Y386534D01*
X164500D01*
X163128Y386399D01*
X161808Y385999D01*
X160592Y385349D01*
X159526Y384474D01*
X159526Y384474D01*
X152526Y377474D01*
X151652Y376408D01*
X151002Y375192D01*
X150601Y373872D01*
X150466Y372500D01*
Y359000D01*
X150601Y357628D01*
X151002Y356308D01*
X151652Y355092D01*
X152526Y354026D01*
X153592Y353151D01*
X153569Y351817D01*
X153116Y350722D01*
X152961Y349547D01*
Y339380D01*
X145640Y332059D01*
X144938Y332242D01*
X144213Y332753D01*
X144268Y333449D01*
X132496D01*
Y321677D01*
X133191Y321732D01*
X133702Y321007D01*
X133886Y320305D01*
X127291Y313709D01*
X126569Y312769D01*
X126116Y311675D01*
X125961Y310500D01*
Y302000D01*
X126116Y300825D01*
X126569Y299731D01*
X126728Y299523D01*
Y295977D01*
X126569Y295769D01*
X126116Y294675D01*
X125961Y293500D01*
Y288342D01*
X126116Y287168D01*
X126569Y286073D01*
X126728Y285866D01*
Y282524D01*
X126569Y282317D01*
X126116Y281222D01*
X125961Y280047D01*
Y277039D01*
X124500D01*
X123325Y276884D01*
X122231Y276431D01*
X121291Y275709D01*
X120569Y274769D01*
X120116Y273675D01*
X119961Y272500D01*
X120116Y271325D01*
X120569Y270231D01*
X121291Y269291D01*
X122231Y268569D01*
X123325Y268116D01*
X124500Y267961D01*
X127728D01*
Y267244D01*
X130500D01*
X133272D01*
Y267961D01*
X137228D01*
Y267244D01*
X140000D01*
X142772D01*
Y267961D01*
X146228D01*
Y267244D01*
X149000D01*
Y266000D01*
X148500D01*
Y265244D01*
X146228D01*
Y263669D01*
X148500D01*
Y229000D01*
X152500Y225000D01*
X176000D01*
Y183000D01*
X188000Y171000D01*
X352000Y171000D01*
X381000Y200000D01*
X391705D01*
X391803Y198500D01*
X391217Y198423D01*
X390487Y198120D01*
X389860Y197640D01*
X359747Y167526D01*
X172301D01*
X162694Y177133D01*
X162666Y177177D01*
X161949Y177947D01*
X161772Y178168D01*
Y178313D01*
X161779Y178335D01*
X161772Y178468D01*
Y178515D01*
X161798Y178669D01*
X161772Y178786D01*
Y180075D01*
Y186831D01*
X160774D01*
Y188728D01*
X165235D01*
X165464Y188634D01*
X166500Y188497D01*
X167536Y188634D01*
X168501Y189033D01*
X169330Y189670D01*
X169966Y190499D01*
X170366Y191464D01*
X170503Y192500D01*
X170366Y193536D01*
X169966Y194501D01*
X169330Y195330D01*
X168501Y195966D01*
X167536Y196366D01*
X166500Y196503D01*
X166330Y196480D01*
X165961Y196961D01*
X163990Y198933D01*
X163985Y198943D01*
X163954Y198969D01*
X163920Y199002D01*
X163888Y199054D01*
X163381Y199600D01*
X163370Y199613D01*
Y200132D01*
X163347Y200312D01*
Y203461D01*
X163347Y204961D01*
X163347Y205539D01*
Y210363D01*
X163500Y210497D01*
X164536Y210634D01*
X165501Y211034D01*
X166330Y211670D01*
X166966Y212499D01*
X167366Y213464D01*
X167503Y214500D01*
X167366Y215536D01*
X166966Y216501D01*
X166330Y217330D01*
X165501Y217967D01*
X164536Y218366D01*
X163500Y218503D01*
X162464Y218366D01*
X161499Y217967D01*
X160670Y217330D01*
X160034Y216501D01*
X159634Y215536D01*
X159610Y215357D01*
X159563Y215244D01*
X159541Y215138D01*
X159530Y215098D01*
X159517Y215060D01*
X159501Y215022D01*
X159481Y214983D01*
X159457Y214941D01*
X159427Y214896D01*
X159390Y214846D01*
X159344Y214793D01*
X159252Y214696D01*
X159217Y214639D01*
X158598Y214020D01*
X158157Y213446D01*
X157880Y212777D01*
X157218Y212728D01*
X157118Y212708D01*
X157016Y212717D01*
X156963Y212701D01*
X154792D01*
X152496Y214996D01*
X151765Y215557D01*
X150914Y215910D01*
X150000Y216030D01*
X149772D01*
Y218735D01*
X149866Y218964D01*
X150003Y220000D01*
X149866Y221036D01*
X149772Y221265D01*
Y221831D01*
X149537D01*
X149467Y222001D01*
X148830Y222830D01*
X148001Y223466D01*
X147036Y223866D01*
X146000Y224003D01*
X144970Y223867D01*
X146000Y223000D01*
X144480Y222970D01*
X143245Y222888D01*
X143170Y222830D01*
X142534Y222001D01*
X142463Y221831D01*
X142228D01*
Y221265D01*
X142134Y221036D01*
X141997Y220000D01*
X142134Y218964D01*
X142228Y218735D01*
Y215075D01*
Y211502D01*
X142225Y211493D01*
X142228Y211420D01*
Y211318D01*
X142201Y211181D01*
X142228Y211045D01*
Y209831D01*
X142228Y209169D01*
X142228Y209169D01*
X142228Y208331D01*
X142228D01*
Y206455D01*
X142201Y206319D01*
X142228Y206182D01*
Y206080D01*
X142225Y206007D01*
X142228Y205998D01*
Y201575D01*
X143228Y201425D01*
Y200047D01*
X148772D01*
Y201425D01*
X149772Y201575D01*
Y205615D01*
X150840Y206248D01*
X151220Y206307D01*
X151867Y205811D01*
X152654Y205485D01*
Y204961D01*
X153163D01*
X154240Y203521D01*
X154067Y203039D01*
X153654D01*
Y197299D01*
X153654D01*
X154669Y196272D01*
Y194396D01*
X154642Y194260D01*
X154669Y194123D01*
Y194113D01*
X154662Y193979D01*
X154669Y193957D01*
Y191043D01*
X154662Y191021D01*
X154669Y190887D01*
Y190877D01*
X154642Y190740D01*
X154669Y190604D01*
Y188728D01*
X155226D01*
Y186831D01*
X154228D01*
Y180075D01*
Y174169D01*
X156234D01*
X156256Y174162D01*
X156389Y174169D01*
X156591D01*
X156763Y174155D01*
X156809Y174169D01*
X156953D01*
X157024Y174121D01*
X157608Y173629D01*
X157951Y173299D01*
X158002Y173266D01*
X168908Y162360D01*
X168908Y162360D01*
X169534Y161880D01*
X170264Y161577D01*
X171047Y161474D01*
X361000D01*
X361783Y161577D01*
X362513Y161880D01*
X363140Y162360D01*
X375371Y174592D01*
X376565Y174525D01*
X377192Y174292D01*
X377670Y173670D01*
X378499Y173033D01*
X379464Y172634D01*
X380500Y172497D01*
X381536Y172634D01*
X382501Y173033D01*
X383330Y173670D01*
X384670D01*
X385499Y173033D01*
X386464Y172634D01*
X387126Y172547D01*
X387303Y172396D01*
X387411Y172292D01*
X387462Y172258D01*
X390857Y168863D01*
X390509Y167091D01*
X390170Y166830D01*
X389533Y166001D01*
X389134Y165036D01*
X388997Y164000D01*
X389134Y162964D01*
X389533Y161999D01*
X390170Y161170D01*
X390999Y160533D01*
X391964Y160134D01*
X393000Y159997D01*
X393432Y160054D01*
X394138Y159456D01*
X394484Y159024D01*
X394596Y158748D01*
X394497Y158000D01*
X394634Y156964D01*
X395034Y155999D01*
X395440Y155469D01*
X395459Y155237D01*
X395461Y155087D01*
X395474Y155027D01*
Y153000D01*
X395577Y152217D01*
X395880Y151487D01*
X396360Y150860D01*
X406360Y140860D01*
X406360Y140860D01*
X406987Y140380D01*
X407717Y140077D01*
X408500Y139974D01*
X408500Y139974D01*
X433000D01*
X433783Y140077D01*
X434513Y140380D01*
X435140Y140860D01*
X438140Y143860D01*
X438621Y144487D01*
X438923Y145217D01*
X439026Y146000D01*
Y159247D01*
X440145Y160366D01*
X441707Y159807D01*
X441765Y159365D01*
X442203Y158308D01*
X442900Y157400D01*
X443808Y156703D01*
X444865Y156265D01*
X444933Y156256D01*
Y154744D01*
X444865Y154735D01*
X443808Y154297D01*
X442900Y153600D01*
X442203Y152692D01*
X441765Y151635D01*
X441748Y151500D01*
X446000D01*
Y150500D01*
X447000D01*
Y146248D01*
X447135Y146265D01*
X448192Y146703D01*
X449100Y147400D01*
X449602Y148055D01*
X450596Y148112D01*
X451271Y147947D01*
X451330Y147804D01*
X452187Y146687D01*
X453304Y145830D01*
X454453Y145354D01*
X454718Y144784D01*
X454953Y143732D01*
X439247Y128026D01*
X393243D01*
X392371Y129526D01*
X392519Y129804D01*
X392859Y130923D01*
X392870Y131037D01*
X393288Y131471D01*
X394275Y132065D01*
Y137008D01*
Y141951D01*
X393288Y142545D01*
X392870Y142979D01*
X392859Y143093D01*
X392519Y144212D01*
X391968Y145244D01*
X391226Y146148D01*
X390322Y146889D01*
X389291Y147441D01*
X388172Y147780D01*
X387008Y147895D01*
X385844Y147780D01*
X384725Y147441D01*
X383693Y146889D01*
X382789Y146148D01*
X382048Y145244D01*
X381496Y144212D01*
X381157Y143093D01*
X381042Y141929D01*
X381157Y140765D01*
X381496Y139646D01*
X382048Y138615D01*
X382527Y138030D01*
X382682Y137008D01*
X382527Y135985D01*
X382048Y135401D01*
X381496Y134370D01*
X381157Y133250D01*
X381042Y132087D01*
X381157Y130923D01*
X381496Y129804D01*
X381602Y129605D01*
X380894Y128349D01*
X379401Y128225D01*
X377868Y129757D01*
X377847Y129794D01*
X377698Y129959D01*
X377625Y130059D01*
X377553Y130184D01*
X377482Y130338D01*
X377414Y130526D01*
X377354Y130750D01*
X377303Y131012D01*
X377264Y131313D01*
X377242Y131652D01*
X377236Y132077D01*
X377219Y132155D01*
X377111Y133250D01*
X376771Y134370D01*
X376220Y135401D01*
X375740Y135985D01*
X375585Y137008D01*
X375740Y138030D01*
X376220Y138615D01*
X376771Y139646D01*
X377111Y140765D01*
X377225Y141929D01*
X377111Y143093D01*
X376771Y144212D01*
X376220Y145244D01*
X375478Y146148D01*
X374574Y146889D01*
X373543Y147441D01*
X372424Y147780D01*
X371260Y147895D01*
X370096Y147780D01*
X368977Y147441D01*
X367945Y146889D01*
X367041Y146148D01*
X366299Y145244D01*
X365748Y144212D01*
X365409Y143093D01*
X365294Y141929D01*
X365409Y140765D01*
X365748Y139646D01*
X366299Y138615D01*
X366779Y138030D01*
X366934Y137008D01*
X366779Y135985D01*
X366299Y135401D01*
X365748Y134370D01*
X365409Y133250D01*
X365294Y132087D01*
X365409Y130923D01*
X365748Y129804D01*
X366299Y128772D01*
X367041Y127868D01*
X367945Y127126D01*
X368977Y126575D01*
X370096Y126235D01*
X371191Y126128D01*
X371270Y126111D01*
X371694Y126105D01*
X372033Y126082D01*
X372334Y126044D01*
X372596Y125993D01*
X372820Y125932D01*
X373008Y125865D01*
X373162Y125793D01*
X373287Y125721D01*
X373388Y125648D01*
X373553Y125500D01*
X373589Y125478D01*
X375435Y123632D01*
X374814Y122132D01*
X347638D01*
X347502Y122105D01*
X347364Y122117D01*
X346488Y122018D01*
X346226Y121934D01*
X345953Y121896D01*
X345121Y121605D01*
X344884Y121465D01*
X344628Y121367D01*
X343881Y120898D01*
X343681Y120709D01*
X343453Y120556D01*
X342829Y119933D01*
X342677Y119704D01*
X342488Y119505D01*
X342019Y118758D01*
X341921Y118501D01*
X341781Y118264D01*
X341490Y117432D01*
X341451Y117160D01*
X341368Y116898D01*
X341269Y116022D01*
X341281Y115884D01*
X341254Y115748D01*
Y102447D01*
X133943D01*
Y121850D01*
X133922Y121956D01*
X133934Y122064D01*
X133724Y124456D01*
X133664Y124662D01*
X133650Y124876D01*
X133029Y127197D01*
X132934Y127389D01*
X132883Y127597D01*
X131868Y129774D01*
X131741Y129947D01*
X131654Y130144D01*
X130277Y132111D01*
X130122Y132260D01*
X130002Y132438D01*
X128304Y134136D01*
X128126Y134256D01*
X127977Y134411D01*
X126010Y135788D01*
X125813Y135875D01*
X125640Y136002D01*
X123463Y137017D01*
X123255Y137068D01*
X123063Y137162D01*
X120743Y137784D01*
X120528Y137798D01*
X120323Y137858D01*
X117930Y138068D01*
X117822Y138056D01*
X117717Y138077D01*
X102447D01*
Y224197D01*
X102544D01*
Y227756D01*
X104544D01*
Y224197D01*
X106315D01*
Y226931D01*
X107815Y228025D01*
X107859Y228011D01*
Y224197D01*
X110418D01*
Y227756D01*
Y232068D01*
X109980Y232480D01*
X109888Y233178D01*
X109619Y233828D01*
X109190Y234387D01*
X108632Y234815D01*
X108284Y234960D01*
Y232480D01*
X106284D01*
Y234960D01*
X105936Y234815D01*
X105377Y234387D01*
X104949Y233828D01*
X104679Y233178D01*
X104672Y233121D01*
X103231Y232187D01*
X102447Y232526D01*
Y240929D01*
X105134D01*
Y244866D01*
X102756D01*
Y246866D01*
X105134D01*
Y250803D01*
X102447D01*
Y259207D01*
X103231Y259545D01*
X104672Y258611D01*
X104679Y258554D01*
X104949Y257904D01*
X105377Y257345D01*
X105936Y256917D01*
X106284Y256773D01*
Y259252D01*
X108284D01*
Y256773D01*
X108632Y256917D01*
X109190Y257345D01*
X109619Y257904D01*
X109888Y258554D01*
X109980Y259252D01*
X110418Y259664D01*
Y263976D01*
Y267535D01*
X107859D01*
Y263722D01*
X107815Y263708D01*
X106315Y264801D01*
Y267535D01*
X104544D01*
Y263976D01*
X102544D01*
Y267535D01*
X102447D01*
Y353655D01*
X117717D01*
X117822Y353676D01*
X117930Y353665D01*
X120323Y353874D01*
X120528Y353934D01*
X120743Y353948D01*
X123063Y354570D01*
X123255Y354665D01*
X123463Y354716D01*
X125640Y355731D01*
X125813Y355857D01*
X126010Y355944D01*
X127977Y357322D01*
X128126Y357477D01*
X128304Y357596D01*
X130002Y359294D01*
X130122Y359473D01*
X130277Y359621D01*
X131654Y361589D01*
X131741Y361785D01*
X131868Y361958D01*
X132883Y364135D01*
X132934Y364343D01*
X133029Y364536D01*
X133650Y366856D01*
X133664Y367070D01*
X133724Y367276D01*
X133934Y369669D01*
X133922Y369776D01*
X133943Y369882D01*
Y389285D01*
X489285D01*
Y254960D01*
D02*
G37*
G36*
X328795Y333957D02*
X328891Y333912D01*
X328975Y333837D01*
X329048Y333732D01*
X329110Y333597D01*
X329160Y333432D01*
X329200Y333237D01*
X329228Y333012D01*
X329244Y332757D01*
X329250Y332472D01*
X327750D01*
X327743Y332757D01*
X327720Y333012D01*
X327682Y333237D01*
X327630Y333432D01*
X327562Y333597D01*
X327480Y333732D01*
X327382Y333837D01*
X327270Y333912D01*
X327143Y333957D01*
X327000Y333972D01*
X328689D01*
X328795Y333957D01*
D02*
G37*
G36*
X223170Y333610D02*
X219847Y332453D01*
X219834Y332489D01*
X219793Y332550D01*
X219724Y332636D01*
X219506Y332884D01*
X218479Y333939D01*
X220601Y336061D01*
X223170Y333610D01*
D02*
G37*
G36*
X255122Y334858D02*
X255167Y334730D01*
X255190Y334697D01*
X255268Y334759D01*
X255394Y334878D01*
Y334492D01*
X255485Y334437D01*
X255651Y334370D01*
X255848Y334317D01*
X256074Y334280D01*
X256331Y334258D01*
X256619Y334250D01*
Y332750D01*
X256331Y332743D01*
X256074Y332720D01*
X255848Y332682D01*
X255651Y332630D01*
X255485Y332562D01*
X255394Y332508D01*
Y332122D01*
X255268Y332241D01*
X255190Y332303D01*
X255167Y332270D01*
X255122Y332142D01*
X255107Y332000D01*
Y332366D01*
X254992Y332442D01*
X254843Y332524D01*
X254688Y332593D01*
X254524Y332649D01*
X254354Y332694D01*
X254176Y332725D01*
X253991Y332744D01*
X253799Y332750D01*
X253799Y334250D01*
X253991Y334256D01*
X254176Y334275D01*
X254354Y334307D01*
X254524Y334350D01*
X254688Y334407D01*
X254843Y334476D01*
X254992Y334558D01*
X255107Y334634D01*
Y335000D01*
X255122Y334858D01*
D02*
G37*
G36*
X247982Y331740D02*
X247897Y331817D01*
X247794Y331858D01*
X247671Y331863D01*
X247530Y331832D01*
X247370Y331765D01*
X247190Y331662D01*
X246992Y331523D01*
X246775Y331349D01*
X246284Y330892D01*
X245209Y331513D01*
X245518Y331831D01*
X246203Y332643D01*
X246351Y332867D01*
X246458Y333068D01*
X246524Y333244D01*
X246550Y333398D01*
X246536Y333528D01*
X246481Y333634D01*
X247982Y331740D01*
D02*
G37*
G36*
X313233Y330672D02*
X312828Y330254D01*
X312194Y329507D01*
X311964Y329179D01*
X311792Y328881D01*
X311678Y328613D01*
X311623Y328375D01*
X311626Y328168D01*
X311687Y327991D01*
X311807Y327844D01*
X309087Y330260D01*
X309273Y330274D01*
X309469Y330316D01*
X309676Y330387D01*
X309892Y330486D01*
X310119Y330613D01*
X310356Y330769D01*
X310603Y330953D01*
X311128Y331405D01*
X311406Y331674D01*
X313233Y330672D01*
D02*
G37*
G36*
X303181Y327300D02*
X303169Y327414D01*
X303133Y327516D01*
X303073Y327606D01*
X302989Y327684D01*
X302881Y327750D01*
X302749Y327804D01*
X302593Y327846D01*
X302413Y327876D01*
X302209Y327894D01*
X301981Y327900D01*
Y329100D01*
X302209Y329106D01*
X302413Y329124D01*
X302593Y329154D01*
X302749Y329196D01*
X302881Y329250D01*
X302989Y329316D01*
X303073Y329394D01*
X303133Y329484D01*
X303169Y329586D01*
X303181Y329700D01*
Y327300D01*
D02*
G37*
G36*
X246539Y326862D02*
X246992Y326477D01*
X247190Y326338D01*
X247370Y326235D01*
X247530Y326168D01*
X247671Y326137D01*
X247794Y326142D01*
X247897Y326183D01*
X247982Y326260D01*
X246481Y324366D01*
X246536Y324472D01*
X246550Y324602D01*
X246524Y324756D01*
X246458Y324932D01*
X246351Y325133D01*
X246203Y325357D01*
X246015Y325604D01*
X245518Y326169D01*
X245209Y326487D01*
X246284Y327108D01*
X246539Y326862D01*
D02*
G37*
G36*
X212509Y324088D02*
X211754Y323311D01*
X210069Y321310D01*
X209701Y320752D01*
X209430Y320249D01*
X209256Y319801D01*
X209179Y319408D01*
X209199Y319069D01*
X209315Y318785D01*
X206002Y323933D01*
X206193Y323723D01*
X206436Y323607D01*
X206731Y323586D01*
X207077Y323658D01*
X207476Y323824D01*
X207926Y324085D01*
X208428Y324439D01*
X208982Y324887D01*
X210245Y326066D01*
X212509Y324088D01*
D02*
G37*
G36*
X255122Y325857D02*
X255167Y325730D01*
X255190Y325697D01*
X255268Y325759D01*
X255394Y325878D01*
Y325492D01*
X255485Y325437D01*
X255651Y325370D01*
X255848Y325318D01*
X256074Y325280D01*
X256331Y325257D01*
X256619Y325250D01*
Y323750D01*
X256331Y323743D01*
X256074Y323720D01*
X255848Y323682D01*
X255651Y323630D01*
X255485Y323563D01*
X255394Y323508D01*
Y323122D01*
X255268Y323241D01*
X255190Y323303D01*
X255167Y323270D01*
X255122Y323143D01*
X255107Y323000D01*
Y323366D01*
X254992Y323442D01*
X254843Y323524D01*
X254688Y323593D01*
X254524Y323650D01*
X254354Y323693D01*
X254176Y323725D01*
X253991Y323744D01*
X253799Y323750D01*
X253799Y325250D01*
X253991Y325256D01*
X254176Y325275D01*
X254354Y325307D01*
X254524Y325350D01*
X254688Y325407D01*
X254843Y325476D01*
X254992Y325558D01*
X255107Y325634D01*
Y326000D01*
X255122Y325857D01*
D02*
G37*
G36*
X334270Y335770D02*
X335064Y335239D01*
X336000Y335053D01*
X339000D01*
X339878Y335227D01*
X339945Y335234D01*
X341378Y334398D01*
Y291000D01*
X341378Y291000D01*
X341395Y290863D01*
X340535Y289735D01*
X340179Y289511D01*
X339899Y289547D01*
X305500D01*
X305500Y289547D01*
X304064Y289358D01*
X302726Y288804D01*
X301577Y287923D01*
X298202Y284547D01*
X281500D01*
X280064Y284358D01*
X278726Y283804D01*
X277577Y282923D01*
X276696Y281774D01*
X276142Y280436D01*
X275953Y279000D01*
X276142Y277564D01*
X276228Y277355D01*
Y273575D01*
Y269990D01*
X276222Y269973D01*
X276228Y269855D01*
Y269818D01*
X276201Y269681D01*
X276228Y269545D01*
Y268015D01*
X276134Y267786D01*
X275997Y266750D01*
X276134Y265714D01*
X276228Y265485D01*
Y264316D01*
X275252Y263718D01*
X274985Y263689D01*
X274845Y263690D01*
X274729Y263694D01*
X273918Y264505D01*
X273343Y264946D01*
X272674Y265223D01*
X271956Y265317D01*
X271398D01*
Y265453D01*
X268724D01*
Y267453D01*
X271398D01*
Y268043D01*
X269378D01*
X268539Y269000D01*
Y276256D01*
X268384Y277431D01*
X268295Y277647D01*
Y283244D01*
X268295Y283244D01*
X268140Y284419D01*
X267687Y285513D01*
X266965Y286454D01*
X266965Y286454D01*
X262709Y290709D01*
X261769Y291431D01*
X261121Y291699D01*
X260689Y292933D01*
X260695Y293394D01*
X271209Y303909D01*
X271931Y304849D01*
X272384Y305943D01*
X272539Y307118D01*
Y307687D01*
X274033Y307999D01*
X274670Y307170D01*
X275499Y306534D01*
X276464Y306134D01*
X277500Y305997D01*
X278536Y306134D01*
X279501Y306534D01*
X280330Y307170D01*
X280966Y307999D01*
X281366Y308964D01*
X281503Y310000D01*
X281366Y311036D01*
X280966Y312001D01*
X280393Y312749D01*
X280348Y312819D01*
X280245Y312926D01*
X280200Y312980D01*
X280169Y313022D01*
X280150Y313051D01*
X280141Y313069D01*
X280140Y313070D01*
X280137Y313146D01*
X280122Y313206D01*
Y320414D01*
X285586Y325878D01*
X301169D01*
Y324728D01*
X305050D01*
X305098Y324613D01*
X305539Y324039D01*
X307539Y322039D01*
X308113Y321598D01*
X308782Y321321D01*
X309500Y321226D01*
X321000D01*
X321718Y321321D01*
X322387Y321598D01*
X322961Y322039D01*
X330461Y329539D01*
X330902Y330113D01*
X331179Y330782D01*
X331274Y331500D01*
Y332394D01*
X331289Y332472D01*
X331285Y332492D01*
X331289Y332512D01*
X331283Y332797D01*
X331274Y332840D01*
Y332850D01*
X331279Y332891D01*
X331274Y332973D01*
Y334500D01*
X331179Y335218D01*
X330921Y335842D01*
X330913Y335939D01*
X331099Y336824D01*
X331372Y337029D01*
X332650Y337389D01*
X334270Y335770D01*
D02*
G37*
G36*
X238570Y322348D02*
X238547Y322226D01*
X238556Y322091D01*
X238594Y321941D01*
X238664Y321779D01*
X238764Y321602D01*
X238895Y321412D01*
X239056Y321208D01*
X239248Y320990D01*
X239471Y320759D01*
X238642Y319892D01*
X238477Y320053D01*
X237923Y320528D01*
X237811Y320605D01*
X237709Y320664D01*
X237617Y320706D01*
X237536Y320732D01*
X237466Y320740D01*
X238623Y322456D01*
X238570Y322348D01*
D02*
G37*
G36*
X266233Y313731D02*
X266132Y313782D01*
X265938Y313828D01*
X265649Y313868D01*
X264790Y313933D01*
X263519Y313955D01*
X262089Y313873D01*
X261939Y313834D01*
X261849Y313790D01*
X261819Y313740D01*
Y313985D01*
X261000Y314000D01*
Y317000D01*
X261819Y317042D01*
Y317260D01*
X261849Y317210D01*
X261939Y317166D01*
X262089Y317127D01*
X262299Y317093D01*
X262469Y317075D01*
X266233Y317269D01*
Y313731D01*
D02*
G37*
G36*
X253151Y317748D02*
X253596Y317367D01*
X253712Y317288D01*
X253813Y317234D01*
X253897Y317204D01*
X253966Y317198D01*
X254019Y317217D01*
X254056Y317260D01*
X253181Y315598D01*
X253199Y315660D01*
X253194Y315737D01*
X253166Y315827D01*
X253115Y315933D01*
X253042Y316052D01*
X252945Y316186D01*
X252826Y316335D01*
X252520Y316674D01*
X252333Y316866D01*
X252972Y317924D01*
X253151Y317748D01*
D02*
G37*
G36*
X224608Y315380D02*
X224631Y315206D01*
X224670Y315035D01*
X224725Y314866D01*
X224795Y314700D01*
X224880Y314536D01*
X224981Y314375D01*
X225098Y314216D01*
X225230Y314059D01*
X225378Y313906D01*
X222622D01*
X222770Y314059D01*
X222902Y314216D01*
X223019Y314375D01*
X223120Y314536D01*
X223205Y314700D01*
X223275Y314866D01*
X223330Y315035D01*
X223369Y315206D01*
X223392Y315380D01*
X223400Y315556D01*
X224600D01*
X224608Y315380D01*
D02*
G37*
G36*
X278108Y312880D02*
X278131Y312706D01*
X278170Y312535D01*
X278224Y312366D01*
X278294Y312200D01*
X278380Y312036D01*
X278481Y311875D01*
X278598Y311716D01*
X278730Y311560D01*
X278878Y311406D01*
X276122D01*
X276270Y311560D01*
X276402Y311716D01*
X276519Y311875D01*
X276620Y312036D01*
X276706Y312200D01*
X276776Y312366D01*
X276830Y312535D01*
X276869Y312706D01*
X276892Y312880D01*
X276900Y313056D01*
X278100D01*
X278108Y312880D01*
D02*
G37*
G36*
X259094Y308622D02*
X258941Y308770D01*
X258784Y308902D01*
X258625Y309019D01*
X258464Y309120D01*
X258300Y309206D01*
X258134Y309276D01*
X257965Y309330D01*
X257794Y309369D01*
X257620Y309392D01*
X257444Y309400D01*
Y310600D01*
X257620Y310608D01*
X257794Y310631D01*
X257965Y310670D01*
X258134Y310724D01*
X258300Y310794D01*
X258464Y310880D01*
X258625Y310981D01*
X258784Y311098D01*
X258941Y311230D01*
X259094Y311378D01*
Y308622D01*
D02*
G37*
G36*
X249317Y309974D02*
X249162Y309252D01*
X248706Y308464D01*
X247964Y308366D01*
X247902Y308341D01*
X247840Y308336D01*
X247822Y308327D01*
X247803Y308325D01*
X247662Y308281D01*
X247581Y308259D01*
X247188Y308178D01*
X247143Y308172D01*
X246750Y308141D01*
X246640Y308139D01*
X246564Y308122D01*
X241631D01*
Y309500D01*
X239253D01*
Y311500D01*
X241631D01*
Y311878D01*
X247414D01*
X249317Y309974D01*
D02*
G37*
G36*
X247089Y304027D02*
X247038Y304193D01*
X246972Y304341D01*
X246891Y304472D01*
X246794Y304586D01*
X246682Y304682D01*
X246554Y304760D01*
X246412Y304821D01*
X246253Y304865D01*
X246080Y304891D01*
X245891Y304900D01*
X246672Y306100D01*
X246847Y306103D01*
X247367Y306144D01*
X247540Y306169D01*
X248056Y306275D01*
X248227Y306322D01*
X248398Y306374D01*
X247089Y304027D01*
D02*
G37*
G36*
X217393Y304966D02*
X217533Y304860D01*
X217682Y304766D01*
X217839Y304685D01*
X218006Y304617D01*
X218183Y304562D01*
X218368Y304519D01*
X218563Y304490D01*
X218767Y304473D01*
X218980Y304468D01*
X217032Y302520D01*
X217027Y302733D01*
X217010Y302937D01*
X216981Y303132D01*
X216938Y303317D01*
X216883Y303494D01*
X216815Y303661D01*
X216734Y303818D01*
X216640Y303967D01*
X216534Y304106D01*
X216415Y304237D01*
X217263Y305085D01*
X217393Y304966D01*
D02*
G37*
G36*
X239594Y299622D02*
X239440Y299770D01*
X239284Y299902D01*
X239125Y300019D01*
X238964Y300120D01*
X238800Y300205D01*
X238634Y300275D01*
X238465Y300330D01*
X238294Y300369D01*
X238120Y300392D01*
X237944Y300400D01*
Y301600D01*
X238120Y301608D01*
X238294Y301631D01*
X238465Y301670D01*
X238634Y301725D01*
X238800Y301795D01*
X238964Y301880D01*
X239125Y301981D01*
X239284Y302098D01*
X239440Y302230D01*
X239594Y302378D01*
Y299622D01*
D02*
G37*
G36*
X181371Y298634D02*
X181481Y298606D01*
X181664Y298581D01*
X182251Y298541D01*
X185000Y298500D01*
Y291500D01*
X181334Y291335D01*
Y298665D01*
X181371Y298634D01*
D02*
G37*
G36*
X174087Y290500D02*
X174037Y290975D01*
X173887Y291400D01*
X173636Y291775D01*
X173285Y292100D01*
X172834Y292375D01*
X172283Y292600D01*
X171631Y292775D01*
X170879Y292900D01*
X170027Y292975D01*
X169075Y293000D01*
Y298000D01*
X170027Y298025D01*
X170879Y298100D01*
X171631Y298225D01*
X172283Y298400D01*
X172834Y298625D01*
X173285Y298900D01*
X173636Y299225D01*
X173887Y299600D01*
X174037Y300025D01*
X174087Y300500D01*
Y290500D01*
D02*
G37*
G36*
X351394Y284466D02*
X351533Y284360D01*
X351681Y284266D01*
X351839Y284185D01*
X352006Y284117D01*
X352183Y284062D01*
X352368Y284019D01*
X352563Y283990D01*
X352767Y283973D01*
X352980Y283968D01*
X351032Y282020D01*
X351027Y282233D01*
X351010Y282437D01*
X350981Y282632D01*
X350938Y282817D01*
X350883Y282994D01*
X350815Y283161D01*
X350734Y283318D01*
X350640Y283467D01*
X350534Y283607D01*
X350415Y283737D01*
X351263Y284585D01*
X351394Y284466D01*
D02*
G37*
G36*
X169911Y290938D02*
X170622Y290876D01*
X171198Y290780D01*
X171630Y290664D01*
X171912Y290549D01*
X172039Y290471D01*
X172059Y290286D01*
X172063Y290273D01*
Y287201D01*
X183346D01*
Y289384D01*
X184863Y289453D01*
X185000D01*
X185072Y289462D01*
X185092Y289463D01*
X185107Y289467D01*
X186436Y289642D01*
X187774Y290196D01*
X188550Y288969D01*
X176620Y277039D01*
X135039D01*
Y280047D01*
X134992Y280406D01*
X136089Y281906D01*
X153295D01*
X154470Y282061D01*
X155565Y282514D01*
X155772Y282673D01*
X158937D01*
Y290216D01*
X160129Y290961D01*
X169035D01*
X169911Y290938D01*
D02*
G37*
G36*
X248202Y278153D02*
X248160Y278068D01*
X248123Y277957D01*
X248090Y277823D01*
X248062Y277663D01*
X248023Y277272D01*
X248003Y276782D01*
X248000Y276500D01*
X245000D01*
X244998Y276782D01*
X244937Y277663D01*
X244910Y277823D01*
X244878Y277957D01*
X244840Y278068D01*
X244797Y278153D01*
X244750Y278215D01*
X248250D01*
X248202Y278153D01*
D02*
G37*
G36*
X315796Y277327D02*
X315844Y277279D01*
X315906Y277237D01*
X315982Y277201D01*
X316071Y277170D01*
X316174Y277145D01*
X316291Y277125D01*
X316421Y277111D01*
X316723Y277100D01*
Y275900D01*
X316565Y275897D01*
X316291Y275875D01*
X316174Y275855D01*
X316071Y275830D01*
X315982Y275799D01*
X315906Y275763D01*
X315844Y275721D01*
X315796Y275673D01*
X315761Y275620D01*
Y277380D01*
X315796Y277327D01*
D02*
G37*
G36*
X259217Y281364D02*
Y279272D01*
X255669D01*
Y277500D01*
X258244D01*
Y275500D01*
X255669D01*
Y273916D01*
X255049Y272485D01*
X255000Y272492D01*
X253825Y272337D01*
X252731Y271884D01*
X252024Y271342D01*
X251223Y271305D01*
X250206Y271562D01*
X250080Y271727D01*
X250041Y272297D01*
X250039Y272518D01*
X250030Y272561D01*
Y276439D01*
X250039Y276482D01*
X250041Y276731D01*
X250057Y277126D01*
X250071Y277262D01*
X250431Y277731D01*
X250884Y278825D01*
X251039Y280000D01*
X250884Y281175D01*
X250765Y281461D01*
X251699Y282961D01*
X257620D01*
X259217Y281364D01*
D02*
G37*
G36*
X338730Y273441D02*
X338598Y273284D01*
X338481Y273125D01*
X338380Y272964D01*
X338295Y272800D01*
X338225Y272634D01*
X338170Y272465D01*
X338131Y272294D01*
X338108Y272120D01*
X338100Y271944D01*
X336900D01*
X336892Y272120D01*
X336869Y272294D01*
X336830Y272465D01*
X336775Y272634D01*
X336705Y272800D01*
X336620Y272964D01*
X336519Y273125D01*
X336402Y273284D01*
X336270Y273441D01*
X336122Y273594D01*
X338878D01*
X338730Y273441D01*
D02*
G37*
G36*
X322248Y271832D02*
X322419Y271686D01*
X322590Y271557D01*
X322760Y271445D01*
X322930Y271350D01*
X323100Y271273D01*
X323269Y271212D01*
X323437Y271169D01*
X323605Y271144D01*
X323773Y271135D01*
X320379D01*
X320534Y271144D01*
X320654Y271169D01*
X320740Y271212D01*
X320792Y271273D01*
X320809Y271350D01*
X320792Y271445D01*
X320740Y271557D01*
X320654Y271686D01*
X320534Y271832D01*
X320379Y271995D01*
X322076D01*
X322248Y271832D01*
D02*
G37*
G36*
X248003Y272218D02*
X248062Y271337D01*
X248090Y271177D01*
X248123Y271043D01*
X248160Y270932D01*
X248202Y270847D01*
X248250Y270785D01*
X244750D01*
X244797Y270847D01*
X244840Y270932D01*
X244878Y271043D01*
X244910Y271177D01*
X244937Y271337D01*
X244977Y271728D01*
X244998Y272218D01*
X245000Y272500D01*
X248000D01*
X248003Y272218D01*
D02*
G37*
G36*
X315156Y271089D02*
X315265Y270986D01*
X315383Y270896D01*
X315512Y270817D01*
X315651Y270751D01*
X315801Y270696D01*
X315960Y270654D01*
X316130Y270624D01*
X316310Y270606D01*
X316500Y270600D01*
Y269400D01*
X316310Y269394D01*
X316130Y269376D01*
X315960Y269346D01*
X315801Y269303D01*
X315651Y269249D01*
X315512Y269183D01*
X315383Y269104D01*
X315265Y269014D01*
X315156Y268911D01*
X315058Y268797D01*
Y271203D01*
X315156Y271089D01*
D02*
G37*
G36*
X348165Y268528D02*
X348210Y268522D01*
X348279Y268516D01*
X348781Y268501D01*
X349398Y268498D01*
Y267298D01*
X348142Y267260D01*
Y268535D01*
X348165Y268528D01*
D02*
G37*
G36*
X319858Y267260D02*
X319835Y267267D01*
X319790Y267273D01*
X319721Y267279D01*
X319219Y267294D01*
X318602Y267298D01*
Y268498D01*
X319858Y268535D01*
Y267260D01*
D02*
G37*
G36*
X257521Y268048D02*
X257585Y267839D01*
X257669Y267655D01*
X257773Y267495D01*
X257898Y267360D01*
X258044Y267249D01*
X258210Y267163D01*
X258397Y267102D01*
X258604Y267065D01*
X258832Y267053D01*
X257856Y265853D01*
X257666Y265849D01*
X257049Y265800D01*
X256827Y265771D01*
X255860Y265588D01*
X255598Y265525D01*
X257478Y268282D01*
X257521Y268048D01*
D02*
G37*
G36*
X348165Y265969D02*
X348210Y265963D01*
X348279Y265957D01*
X348781Y265942D01*
X349398Y265939D01*
Y264739D01*
X348142Y264701D01*
Y265976D01*
X348165Y265969D01*
D02*
G37*
G36*
X319858Y264701D02*
X319835Y264708D01*
X319790Y264715D01*
X319721Y264720D01*
X319219Y264735D01*
X318601Y264739D01*
Y265939D01*
X319858Y265976D01*
Y264701D01*
D02*
G37*
G36*
X300710Y269651D02*
X300666Y269561D01*
X300627Y269411D01*
X300593Y269201D01*
X300565Y268931D01*
X300510Y267761D01*
X300500Y266725D01*
X300503Y266249D01*
X300627Y264089D01*
X300666Y263939D01*
X300710Y263849D01*
X300760Y263819D01*
X297240D01*
X297290Y263849D01*
X297334Y263939D01*
X297373Y264089D01*
X297407Y264299D01*
X297435Y264569D01*
X297490Y265739D01*
X297500Y266775D01*
X297497Y267251D01*
X297373Y269411D01*
X297334Y269561D01*
X297290Y269651D01*
X297240Y269681D01*
X300760D01*
X300710Y269651D01*
D02*
G37*
G36*
X291210D02*
X291166Y269561D01*
X291127Y269411D01*
X291093Y269201D01*
X291065Y268931D01*
X291010Y267761D01*
X291000Y266725D01*
X291003Y266249D01*
X291127Y264089D01*
X291166Y263939D01*
X291210Y263849D01*
X291260Y263819D01*
X287740D01*
X287790Y263849D01*
X287834Y263939D01*
X287873Y264089D01*
X287907Y264299D01*
X287935Y264569D01*
X287990Y265739D01*
X288000Y266775D01*
X287997Y267251D01*
X287873Y269411D01*
X287834Y269561D01*
X287790Y269651D01*
X287740Y269681D01*
X291260D01*
X291210Y269651D01*
D02*
G37*
G36*
X281710Y269652D02*
X281666Y269564D01*
X281627Y269418D01*
X281593Y269212D01*
X281565Y268949D01*
X281510Y267805D01*
X281500Y266750D01*
X281503Y266193D01*
X281627Y264083D01*
X281666Y263936D01*
X281710Y263848D01*
X281760Y263819D01*
X278240D01*
X278290Y263848D01*
X278334Y263936D01*
X278373Y264083D01*
X278407Y264288D01*
X278435Y264551D01*
X278490Y265695D01*
X278500Y266750D01*
X278497Y267307D01*
X278373Y269418D01*
X278334Y269564D01*
X278290Y269652D01*
X278240Y269681D01*
X281760D01*
X281710Y269652D01*
D02*
G37*
G36*
X300760Y263539D02*
X300796Y263437D01*
X300857Y263347D01*
X300942Y263269D01*
X301051Y263203D01*
X301142Y263166D01*
X301878Y263094D01*
X302828Y263057D01*
X303375Y263053D01*
Y261853D01*
X302828Y261848D01*
X301139Y261739D01*
X301051Y261703D01*
X300942Y261637D01*
X300857Y261559D01*
X300796Y261469D01*
X300760Y261367D01*
X300748Y261253D01*
Y261672D01*
X300552Y261627D01*
X300340Y261558D01*
X300176Y261479D01*
X300060Y261391D01*
Y263514D01*
X300176Y263426D01*
X300340Y263348D01*
X300552Y263279D01*
X300748Y263234D01*
Y263653D01*
X300760Y263539D01*
D02*
G37*
G36*
X367393Y265466D02*
X367533Y265360D01*
X367682Y265266D01*
X367839Y265185D01*
X368006Y265117D01*
X368183Y265062D01*
X368368Y265019D01*
X368563Y264990D01*
X368767Y264973D01*
X368980Y264968D01*
X367032Y263020D01*
X367027Y263233D01*
X367010Y263437D01*
X366981Y263632D01*
X366938Y263817D01*
X366883Y263994D01*
X366815Y264161D01*
X366734Y264318D01*
X366640Y264467D01*
X366534Y264606D01*
X366415Y264737D01*
X367263Y265585D01*
X367393Y265466D01*
D02*
G37*
G36*
X264711Y265345D02*
X264837Y265321D01*
X265176Y265283D01*
X265901Y265247D01*
X266886Y265234D01*
X267136Y263734D01*
X266936Y263727D01*
X266753Y263705D01*
X266587Y263669D01*
X266438Y263618D01*
X266307Y263553D01*
X266193Y263473D01*
X266095Y263379D01*
X266015Y263270D01*
X265952Y263147D01*
X265906Y263010D01*
X264613Y265370D01*
X264711Y265345D01*
D02*
G37*
G36*
X262094Y263010D02*
X262048Y263147D01*
X261985Y263270D01*
X261905Y263379D01*
X261807Y263473D01*
X261693Y263553D01*
X261562Y263618D01*
X261413Y263669D01*
X261247Y263705D01*
X261064Y263727D01*
X260864Y263734D01*
X261888Y265234D01*
X262098Y265236D01*
X263077Y265301D01*
X263194Y265321D01*
X263387Y265370D01*
X262094Y263010D01*
D02*
G37*
G36*
X256940Y262091D02*
X256772Y261915D01*
X256485Y261562D01*
X256366Y261385D01*
X256263Y261207D01*
X256176Y261030D01*
X256106Y260852D01*
X256052Y260674D01*
X256015Y260495D01*
X255993Y260317D01*
X254699Y262694D01*
X254846Y262623D01*
X254992Y262574D01*
X255136Y262546D01*
X255277Y262539D01*
X255418Y262553D01*
X255556Y262588D01*
X255693Y262644D01*
X255827Y262722D01*
X255960Y262820D01*
X256091Y262940D01*
X256940Y262091D01*
D02*
G37*
G36*
X348165Y263410D02*
X348210Y263404D01*
X348279Y263398D01*
X348781Y263383D01*
X349398Y263380D01*
Y262179D01*
X348142Y262142D01*
Y263417D01*
X348165Y263410D01*
D02*
G37*
G36*
X319858Y262142D02*
X319835Y262149D01*
X319790Y262155D01*
X319721Y262161D01*
X319219Y262176D01*
X318601Y262179D01*
Y263380D01*
X319858Y263417D01*
Y262142D01*
D02*
G37*
G36*
X361393Y263466D02*
X361533Y263360D01*
X361682Y263266D01*
X361839Y263185D01*
X362006Y263117D01*
X362183Y263062D01*
X362368Y263019D01*
X362563Y262990D01*
X362767Y262973D01*
X362980Y262968D01*
X361032Y261020D01*
X361027Y261233D01*
X361010Y261437D01*
X360981Y261632D01*
X360938Y261817D01*
X360883Y261994D01*
X360815Y262161D01*
X360734Y262318D01*
X360640Y262467D01*
X360534Y262607D01*
X360415Y262737D01*
X361263Y263585D01*
X361393Y263466D01*
D02*
G37*
G36*
X265845Y262797D02*
X265822Y262694D01*
X265783Y262447D01*
X265756Y262147D01*
X265736Y261598D01*
X265734Y261388D01*
X264234Y260364D01*
X264227Y260564D01*
X264205Y260747D01*
X264169Y260913D01*
X264118Y261062D01*
X264053Y261193D01*
X263973Y261307D01*
X263879Y261405D01*
X263770Y261485D01*
X263647Y261548D01*
X263509Y261594D01*
X265870Y262887D01*
X265845Y262797D01*
D02*
G37*
G36*
X319858Y259583D02*
X319835Y259590D01*
X319790Y259596D01*
X319721Y259602D01*
X319219Y259617D01*
X318601Y259620D01*
Y260821D01*
X319858Y260858D01*
Y259583D01*
D02*
G37*
G36*
X270470Y259954D02*
X270546Y259909D01*
X270613Y259834D01*
X270671Y259729D01*
X270720Y259594D01*
X270760Y259429D01*
X270791Y259234D01*
X270813Y259009D01*
X270831Y258469D01*
X269331D01*
X269323Y258754D01*
X269301Y259009D01*
X269263Y259234D01*
X269211Y259429D01*
X269143Y259594D01*
X269061Y259729D01*
X268963Y259834D01*
X268851Y259909D01*
X268723Y259954D01*
X268581Y259969D01*
X270386D01*
X270470Y259954D01*
D02*
G37*
G36*
X181503Y260749D02*
X181627Y258589D01*
X181666Y258439D01*
X181710Y258349D01*
X181760Y258319D01*
X178240D01*
X178290Y258349D01*
X178334Y258439D01*
X178373Y258589D01*
X178407Y258799D01*
X178435Y259069D01*
X178490Y260239D01*
X178500Y261319D01*
X181500D01*
X181503Y260749D01*
D02*
G37*
G36*
X295228Y270002D02*
X295225Y269993D01*
X295228Y269920D01*
Y269818D01*
X295201Y269681D01*
X295228Y269545D01*
Y267669D01*
X295228D01*
X295366Y266762D01*
X295228Y265831D01*
X295228D01*
Y263955D01*
X295201Y263819D01*
X295228Y263682D01*
Y263580D01*
X295225Y263507D01*
X295228Y263498D01*
Y259075D01*
X296228Y258925D01*
Y257547D01*
X299000D01*
Y255547D01*
X296228D01*
Y254169D01*
X298501D01*
X299075Y252783D01*
X284914Y238622D01*
X274080D01*
X273572Y239786D01*
X273545Y240122D01*
X275461Y242039D01*
X275902Y242613D01*
X276179Y243282D01*
X276274Y244000D01*
Y253065D01*
X277228Y254169D01*
X279000D01*
Y256547D01*
X280000D01*
Y257547D01*
X282772D01*
Y258925D01*
X283772Y259075D01*
Y263510D01*
X283778Y263527D01*
X283772Y263645D01*
Y263682D01*
X283799Y263819D01*
X283772Y263955D01*
Y265485D01*
X283866Y265714D01*
X284003Y266750D01*
X283866Y267786D01*
X283772Y268015D01*
Y269545D01*
X283799Y269681D01*
X283772Y269818D01*
Y269855D01*
X283778Y269973D01*
X283772Y269990D01*
Y273452D01*
X285728D01*
Y270002D01*
X285725Y269993D01*
X285728Y269920D01*
Y269818D01*
X285701Y269681D01*
X285728Y269545D01*
Y267765D01*
X285634Y267536D01*
X285497Y266500D01*
X285634Y265464D01*
X285728Y265235D01*
Y263955D01*
X285701Y263819D01*
X285728Y263682D01*
Y263580D01*
X285725Y263507D01*
X285728Y263498D01*
Y259075D01*
X286728Y258925D01*
Y257547D01*
X289500D01*
X292272D01*
Y258925D01*
X293272Y259075D01*
Y263498D01*
X293275Y263507D01*
X293272Y263580D01*
Y263682D01*
X293299Y263819D01*
X293272Y263955D01*
Y265235D01*
X293366Y265464D01*
X293503Y266500D01*
X293366Y267536D01*
X293272Y267765D01*
Y269545D01*
X293299Y269681D01*
X293272Y269818D01*
Y269920D01*
X293275Y269993D01*
X293272Y270002D01*
Y273452D01*
X295228D01*
Y270002D01*
D02*
G37*
G36*
X319858Y257024D02*
X319835Y257031D01*
X319790Y257037D01*
X319721Y257043D01*
X319219Y257058D01*
X318601Y257061D01*
Y258261D01*
X319858Y258299D01*
Y257024D01*
D02*
G37*
G36*
X173372Y261116D02*
X173084Y260657D01*
X172830Y260191D01*
X172610Y259720D01*
X172424Y259242D01*
X172271Y258757D01*
X172185Y258401D01*
X172210Y258349D01*
X172260Y258319D01*
X172165D01*
X172152Y258266D01*
X172068Y257769D01*
X172017Y257266D01*
X172000Y256756D01*
X169000D01*
X168983Y257266D01*
X168932Y257769D01*
X168848Y258266D01*
X168835Y258319D01*
X168740D01*
X168790Y258349D01*
X168815Y258401D01*
X168729Y258757D01*
X168576Y259242D01*
X168390Y259720D01*
X168170Y260191D01*
X167916Y260657D01*
X167628Y261116D01*
X167306Y261569D01*
X173694D01*
X173372Y261116D01*
D02*
G37*
G36*
X248202Y256653D02*
X248160Y256568D01*
X248123Y256457D01*
X248090Y256323D01*
X248062Y256164D01*
X248023Y255771D01*
X248003Y255282D01*
X248000Y255000D01*
X245000D01*
X244998Y255282D01*
X244937Y256164D01*
X244910Y256323D01*
X244878Y256457D01*
X244840Y256568D01*
X244797Y256653D01*
X244750Y256715D01*
X248250D01*
X248202Y256653D01*
D02*
G37*
G36*
X361393Y256966D02*
X361533Y256860D01*
X361682Y256766D01*
X361839Y256685D01*
X362006Y256617D01*
X362183Y256562D01*
X362368Y256519D01*
X362563Y256490D01*
X362767Y256473D01*
X362980Y256468D01*
X361032Y254520D01*
X361027Y254733D01*
X361010Y254937D01*
X360981Y255132D01*
X360938Y255317D01*
X360883Y255494D01*
X360815Y255661D01*
X360734Y255819D01*
X360640Y255967D01*
X360534Y256106D01*
X360415Y256237D01*
X361263Y257085D01*
X361393Y256966D01*
D02*
G37*
G36*
X319858Y254465D02*
X319835Y254472D01*
X319790Y254478D01*
X319721Y254484D01*
X319219Y254499D01*
X318601Y254502D01*
Y255702D01*
X319858Y255740D01*
Y254465D01*
D02*
G37*
G36*
X348194Y255714D02*
X348266Y255690D01*
X348357Y255669D01*
X348468Y255650D01*
X348750Y255622D01*
X349111Y255606D01*
X349552Y255600D01*
X349748Y254400D01*
X348142Y254465D01*
Y255740D01*
X348194Y255714D01*
D02*
G37*
G36*
X352094Y253622D02*
X351940Y253770D01*
X351784Y253902D01*
X351625Y254019D01*
X351464Y254120D01*
X351300Y254205D01*
X351134Y254275D01*
X350965Y254330D01*
X350794Y254369D01*
X350620Y254392D01*
X350444Y254400D01*
Y255600D01*
X350620Y255608D01*
X350794Y255631D01*
X350965Y255670D01*
X351134Y255725D01*
X351300Y255795D01*
X351464Y255880D01*
X351625Y255981D01*
X351784Y256098D01*
X351940Y256230D01*
X352094Y256378D01*
Y253622D01*
D02*
G37*
G36*
X270819Y252260D02*
X268581Y252248D01*
X268723Y252263D01*
X268851Y252309D01*
X268963Y252385D01*
X269061Y252491D01*
X269143Y252628D01*
X269211Y252794D01*
X269263Y252990D01*
X269301Y253217D01*
X269323Y253473D01*
X269331Y253760D01*
X270831D01*
X270819Y252260D01*
D02*
G37*
G36*
X264756Y253475D02*
X264800Y252995D01*
X264839Y252800D01*
X264889Y252635D01*
X264950Y252500D01*
X265023Y252395D01*
X265106Y252320D01*
X265201Y252275D01*
X265307Y252260D01*
X262500Y252248D01*
X262643Y252263D01*
X262770Y252309D01*
X262882Y252385D01*
X262980Y252491D01*
X263063Y252627D01*
X263130Y252794D01*
X263182Y252990D01*
X263220Y253216D01*
X263243Y253473D01*
X263250Y253760D01*
X264750D01*
X264756Y253475D01*
D02*
G37*
G36*
X342299Y251906D02*
X341093Y251909D01*
X340991Y253109D01*
X342299Y253181D01*
Y251906D01*
D02*
G37*
G36*
X325724Y253174D02*
X325769Y253167D01*
X325838Y253162D01*
X326341Y253147D01*
X326958Y253143D01*
Y251943D01*
X325701Y251906D01*
Y253181D01*
X325724Y253174D01*
D02*
G37*
G36*
X393608Y252880D02*
X393631Y252706D01*
X393670Y252535D01*
X393724Y252366D01*
X393794Y252200D01*
X393880Y252036D01*
X393981Y251875D01*
X394098Y251716D01*
X394230Y251559D01*
X394378Y251406D01*
X391622D01*
X391770Y251559D01*
X391902Y251716D01*
X392019Y251875D01*
X392120Y252036D01*
X392206Y252200D01*
X392276Y252366D01*
X392330Y252535D01*
X392369Y252706D01*
X392392Y252880D01*
X392400Y253056D01*
X393600D01*
X393608Y252880D01*
D02*
G37*
G36*
X334033Y277001D02*
X333634Y276036D01*
X333497Y275000D01*
X333634Y273964D01*
X334033Y272999D01*
X334607Y272251D01*
X334652Y272181D01*
X334755Y272074D01*
X334800Y272020D01*
X334831Y271978D01*
X334850Y271949D01*
X334859Y271931D01*
X334859Y271930D01*
X334863Y271854D01*
X334878Y271794D01*
Y256000D01*
X334878Y256000D01*
X334967Y255321D01*
X335229Y254689D01*
X335646Y254146D01*
X339136Y250655D01*
X339136Y250655D01*
X339680Y250238D01*
X340312Y249976D01*
X340991Y249887D01*
X340991Y249887D01*
X341004D01*
X341087Y249870D01*
X342293Y249866D01*
X342294Y249867D01*
X342563Y249831D01*
X347878D01*
X348580Y249923D01*
X349234Y250195D01*
X349796Y250625D01*
X350227Y251187D01*
X351884Y251374D01*
X352464Y251134D01*
X353500Y250997D01*
X354536Y251134D01*
X355501Y251534D01*
X356330Y252170D01*
X356966Y252999D01*
X358732Y253666D01*
X358788Y253654D01*
X359119Y253472D01*
X359161Y253398D01*
X359534Y252499D01*
X360170Y251670D01*
X360999Y251033D01*
X361964Y250634D01*
X363000Y250497D01*
X364036Y250634D01*
X365001Y251033D01*
X365830Y251670D01*
X366466Y252499D01*
X366866Y253464D01*
X367003Y254500D01*
X366866Y255536D01*
X366466Y256501D01*
X365830Y257330D01*
Y258170D01*
X366009Y258402D01*
X366536Y259005D01*
X367964Y259134D01*
X369000Y258997D01*
X370036Y259134D01*
X371001Y259534D01*
X371830Y260170D01*
X372279Y260754D01*
X373253Y261021D01*
X374109Y261045D01*
X375452Y259702D01*
Y242547D01*
X368500D01*
X367064Y242358D01*
X365726Y241804D01*
X364577Y240923D01*
X335202Y211547D01*
X280877D01*
X280256Y213048D01*
X287854Y220646D01*
X287854Y220646D01*
X288706Y220758D01*
X288999Y220533D01*
X289964Y220134D01*
X291000Y219997D01*
X292036Y220134D01*
X293001Y220533D01*
X293830Y221170D01*
X294466Y221999D01*
X294866Y222964D01*
X295003Y224000D01*
X294866Y225036D01*
X294466Y226001D01*
X293893Y226749D01*
X293848Y226819D01*
X293745Y226926D01*
X293700Y226980D01*
X293695Y226986D01*
X318112Y251404D01*
X318904Y251326D01*
X319463Y250952D01*
X320122Y250821D01*
X325437D01*
X326096Y250952D01*
X326655Y251326D01*
X327028Y251884D01*
X327159Y252543D01*
X327074Y252969D01*
X327355Y253185D01*
X327786Y253746D01*
X328057Y254400D01*
X328149Y255102D01*
X328057Y255804D01*
X327818Y256382D01*
X328057Y256960D01*
X328149Y257661D01*
X328057Y258363D01*
X327818Y258941D01*
X328057Y259519D01*
X328149Y260221D01*
X328057Y260922D01*
X327818Y261500D01*
X328057Y262078D01*
X328149Y262779D01*
X328057Y263481D01*
X327818Y264059D01*
X328057Y264637D01*
X328149Y265339D01*
X328057Y266040D01*
X327818Y266618D01*
X328057Y267196D01*
X328149Y267898D01*
X328057Y268600D01*
X327818Y269177D01*
X328057Y269755D01*
X328149Y270457D01*
X328057Y271159D01*
X327786Y271813D01*
X327355Y272375D01*
X326793Y272806D01*
X326139Y273077D01*
X325437Y273169D01*
X323888D01*
X323878Y273171D01*
X323848Y273173D01*
X323817Y273190D01*
X323765Y273224D01*
X323697Y273276D01*
X323613Y273347D01*
X323481Y273473D01*
X323419Y273512D01*
X319979Y276953D01*
X320600Y278452D01*
X333256D01*
X334033Y277001D01*
D02*
G37*
G36*
X248003Y251718D02*
X248062Y250836D01*
X248090Y250677D01*
X248123Y250543D01*
X248160Y250432D01*
X248202Y250347D01*
X248250Y250285D01*
X244750D01*
X244797Y250347D01*
X244840Y250432D01*
X244878Y250543D01*
X244910Y250677D01*
X244937Y250836D01*
X244977Y251228D01*
X244998Y251718D01*
X245000Y252000D01*
X248000D01*
X248003Y251718D01*
D02*
G37*
G36*
X172280Y252700D02*
X172340Y252604D01*
X172440Y252520D01*
X172580Y252447D01*
X172760Y252385D01*
X172980Y252334D01*
X173240Y252295D01*
X173540Y252267D01*
X174260Y252244D01*
Y250244D01*
X173880Y250238D01*
X173240Y250193D01*
X172980Y250154D01*
X172760Y250103D01*
X172580Y250042D01*
X172440Y249968D01*
X172340Y249884D01*
X172280Y249788D01*
X172260Y249681D01*
Y252807D01*
X172280Y252700D01*
D02*
G37*
G36*
X168740Y249681D02*
X168720Y249788D01*
X168660Y249884D01*
X168560Y249968D01*
X168420Y250042D01*
X168240Y250103D01*
X168020Y250154D01*
X167760Y250193D01*
X167460Y250222D01*
X167281Y250227D01*
X167052Y250206D01*
X166902Y250176D01*
X166773Y250138D01*
X166667Y250092D01*
X166582Y250037D01*
X166520Y249973D01*
X166479Y249901D01*
X166460Y249821D01*
X164922Y251923D01*
X166740Y252179D01*
Y252244D01*
X167120Y252250D01*
X167760Y252295D01*
X168020Y252334D01*
X168240Y252385D01*
X168420Y252447D01*
X168560Y252520D01*
X168660Y252604D01*
X168720Y252700D01*
X168740Y252807D01*
Y249681D01*
D02*
G37*
G36*
X178240Y249681D02*
X178220Y249788D01*
X178160Y249884D01*
X178060Y249968D01*
X177920Y250042D01*
X177740Y250103D01*
X177520Y250154D01*
X177260Y250193D01*
X176960Y250222D01*
X176240Y250244D01*
Y252244D01*
X176620Y252246D01*
X178160Y252352D01*
X178220Y252381D01*
X178240Y252413D01*
Y249681D01*
D02*
G37*
G36*
X181629Y251978D02*
X181559Y251808D01*
X181549Y251606D01*
X181599Y251371D01*
X181710Y251105D01*
X181882Y250806D01*
X182114Y250474D01*
X182407Y250111D01*
X183174Y249288D01*
X181366Y248267D01*
X180974Y248645D01*
X180262Y249244D01*
X179942Y249464D01*
X179647Y249632D01*
X179377Y249747D01*
X179130Y249810D01*
X178908Y249819D01*
X178711Y249777D01*
X178537Y249681D01*
X181760Y252116D01*
X181629Y251978D01*
D02*
G37*
G36*
X389108Y248380D02*
X389131Y248206D01*
X389170Y248035D01*
X389225Y247866D01*
X389295Y247700D01*
X389380Y247536D01*
X389481Y247375D01*
X389598Y247216D01*
X389730Y247059D01*
X389878Y246906D01*
X387122D01*
X387270Y247059D01*
X387402Y247216D01*
X387519Y247375D01*
X387620Y247536D01*
X387705Y247700D01*
X387775Y247866D01*
X387830Y248035D01*
X387869Y248206D01*
X387892Y248380D01*
X387900Y248556D01*
X389100D01*
X389108Y248380D01*
D02*
G37*
G36*
X202294Y289404D02*
X203616Y288675D01*
X203461Y287500D01*
X203616Y286325D01*
X204069Y285231D01*
X204791Y284291D01*
X205731Y283569D01*
X206825Y283116D01*
X208000Y282961D01*
X222191D01*
X223500Y282500D01*
Y246000D01*
X223039Y245539D01*
X219047D01*
Y262000D01*
X218858Y263436D01*
X218304Y264774D01*
X217423Y265923D01*
X216274Y266804D01*
X214936Y267358D01*
X213500Y267547D01*
X212064Y267358D01*
X210726Y266804D01*
X209577Y265923D01*
X208696Y264774D01*
X208142Y263436D01*
X207952Y262000D01*
Y256669D01*
X206452Y256048D01*
X196500Y266000D01*
X151772D01*
Y267961D01*
X178500D01*
X179675Y268116D01*
X180769Y268569D01*
X181709Y269291D01*
X201907Y289489D01*
X202294Y289404D01*
D02*
G37*
G36*
X172280Y243749D02*
X172340Y243687D01*
X172440Y243632D01*
X172580Y243584D01*
X172760Y243544D01*
X172980Y243511D01*
X173540Y243467D01*
X174260Y243453D01*
Y241453D01*
X173880Y241449D01*
X172760Y241361D01*
X172580Y241321D01*
X172440Y241273D01*
X172340Y241218D01*
X172280Y241156D01*
X172260Y241087D01*
Y243819D01*
X172280Y243749D01*
D02*
G37*
G36*
X168740Y241087D02*
X168720Y241156D01*
X168660Y241218D01*
X168560Y241273D01*
X168420Y241321D01*
X168240Y241361D01*
X168020Y241394D01*
X167460Y241438D01*
X166740Y241453D01*
Y243453D01*
X167120Y243456D01*
X168240Y243544D01*
X168420Y243584D01*
X168560Y243632D01*
X168660Y243687D01*
X168720Y243749D01*
X168740Y243819D01*
Y241087D01*
D02*
G37*
G36*
X178240Y240693D02*
X178220Y240837D01*
X178160Y240967D01*
X178060Y241080D01*
X177920Y241179D01*
X177740Y241263D01*
X177520Y241331D01*
X177260Y241384D01*
X176960Y241422D01*
X176620Y241445D01*
X176240Y241453D01*
Y243453D01*
X176620Y243456D01*
X177740Y243544D01*
X177920Y243584D01*
X178060Y243632D01*
X178160Y243687D01*
X178220Y243749D01*
X178240Y243819D01*
Y240693D01*
D02*
G37*
G36*
X450070Y240361D02*
X450486Y238547D01*
X450653Y238038D01*
X450835Y237576D01*
X451031Y237162D01*
X451242Y236796D01*
X451468Y236478D01*
X451707Y236207D01*
X450293Y234793D01*
X450022Y235033D01*
X449704Y235258D01*
X449338Y235469D01*
X448924Y235665D01*
X448462Y235847D01*
X447953Y236014D01*
X446792Y236306D01*
X446139Y236430D01*
X445439Y236540D01*
X446053Y237153D01*
X446033Y237154D01*
X449346Y240466D01*
X449347Y240447D01*
X449961Y241060D01*
X450070Y240361D01*
D02*
G37*
G36*
X181781Y243676D02*
X181844Y243503D01*
X181950Y243300D01*
X182098Y243066D01*
X182289Y242803D01*
X182797Y242186D01*
X183474Y241449D01*
X183877Y241036D01*
X182809Y239270D01*
X182367Y239704D01*
X181589Y240379D01*
X181254Y240619D01*
X180955Y240795D01*
X180692Y240906D01*
X180464Y240953D01*
X180273Y240935D01*
X180118Y240852D01*
X179998Y240705D01*
X181760Y243819D01*
X181781Y243676D01*
D02*
G37*
G36*
X154487Y236306D02*
X154583Y236242D01*
X154694Y236185D01*
X154819Y236136D01*
X154959Y236094D01*
X155113Y236061D01*
X155282Y236034D01*
X155466Y236015D01*
X155877Y236000D01*
Y234000D01*
X155664Y233996D01*
X155282Y233966D01*
X155113Y233940D01*
X154959Y233906D01*
X154819Y233864D01*
X154694Y233815D01*
X154583Y233758D01*
X154487Y233694D01*
X154406Y233622D01*
Y236378D01*
X154487Y236306D01*
D02*
G37*
G36*
X181710Y235151D02*
X181666Y235061D01*
X181627Y234911D01*
X181594Y234701D01*
X181565Y234431D01*
X181510Y233261D01*
X181500Y232181D01*
X178500D01*
X178497Y232751D01*
X178373Y234911D01*
X178334Y235061D01*
X178290Y235151D01*
X178240Y235181D01*
X181760D01*
X181710Y235151D01*
D02*
G37*
G36*
X437953Y244453D02*
X424000Y230500D01*
X412042D01*
X411272Y232000D01*
Y233532D01*
X411804Y234226D01*
X412358Y235564D01*
X412547Y237000D01*
Y245953D01*
X437885D01*
X437953Y244453D01*
D02*
G37*
G36*
X443610Y228157D02*
X443345Y228413D01*
X443077Y228641D01*
X442804Y228842D01*
X442529Y229017D01*
X442249Y229164D01*
X441966Y229285D01*
X441680Y229379D01*
X441390Y229446D01*
X441096Y229487D01*
X440799Y229500D01*
Y231500D01*
X441096Y231513D01*
X441390Y231554D01*
X441680Y231621D01*
X441966Y231715D01*
X442249Y231836D01*
X442529Y231983D01*
X442804Y232158D01*
X443077Y232359D01*
X443345Y232587D01*
X443610Y232842D01*
Y228157D01*
D02*
G37*
G36*
X257588Y228154D02*
X257694Y228121D01*
X257830Y228093D01*
X257994Y228068D01*
X258409Y228030D01*
X259248Y228002D01*
X259585Y228000D01*
Y226000D01*
X259373Y225995D01*
X258998Y225957D01*
X258835Y225924D01*
X258689Y225881D01*
X258560Y225829D01*
X258448Y225767D01*
X258352Y225696D01*
X258272Y225615D01*
X258210Y225524D01*
X257510Y228190D01*
X257588Y228154D01*
D02*
G37*
G36*
X291608Y226880D02*
X291631Y226706D01*
X291670Y226535D01*
X291724Y226366D01*
X291794Y226200D01*
X291880Y226036D01*
X291981Y225875D01*
X292098Y225716D01*
X292230Y225559D01*
X292378Y225406D01*
X289622D01*
X289770Y225559D01*
X289902Y225716D01*
X290019Y225875D01*
X290120Y226036D01*
X290206Y226200D01*
X290276Y226366D01*
X290330Y226535D01*
X290369Y226706D01*
X290392Y226880D01*
X290400Y227056D01*
X291600D01*
X291608Y226880D01*
D02*
G37*
G36*
X282085Y226737D02*
X281966Y226606D01*
X281860Y226467D01*
X281766Y226319D01*
X281685Y226161D01*
X281617Y225994D01*
X281562Y225817D01*
X281519Y225632D01*
X281490Y225437D01*
X281473Y225233D01*
X281468Y225020D01*
X279520Y226968D01*
X279733Y226973D01*
X279937Y226990D01*
X280132Y227019D01*
X280317Y227062D01*
X280494Y227117D01*
X280661Y227185D01*
X280819Y227266D01*
X280967Y227360D01*
X281106Y227466D01*
X281237Y227585D01*
X282085Y226737D01*
D02*
G37*
G36*
X263846Y219917D02*
X263744Y219881D01*
X263654Y219820D01*
X263576Y219736D01*
X263510Y219626D01*
X263456Y219493D01*
X263414Y219336D01*
X263384Y219154D01*
X263366Y218948D01*
X263360Y218718D01*
X262160D01*
X262154Y218948D01*
X262136Y219154D01*
X262106Y219336D01*
X262064Y219493D01*
X262010Y219626D01*
X261944Y219736D01*
X261866Y219820D01*
X261776Y219881D01*
X261674Y219917D01*
X261560Y219930D01*
X263960D01*
X263846Y219917D01*
D02*
G37*
G36*
X443610Y218158D02*
X443345Y218413D01*
X443077Y218641D01*
X442804Y218842D01*
X442529Y219017D01*
X442249Y219164D01*
X441966Y219285D01*
X441680Y219379D01*
X441390Y219446D01*
X441096Y219487D01*
X440799Y219500D01*
Y221500D01*
X441096Y221513D01*
X441390Y221554D01*
X441680Y221621D01*
X441966Y221715D01*
X442249Y221836D01*
X442529Y221983D01*
X442804Y222158D01*
X443077Y222359D01*
X443345Y222587D01*
X443610Y222843D01*
Y218158D01*
D02*
G37*
G36*
X237890Y218542D02*
X237768Y218408D01*
X237663Y218266D01*
X237575Y218117D01*
X237504Y217961D01*
X237449Y217798D01*
X237412Y217627D01*
X237392Y217450D01*
X237388Y217265D01*
X237402Y217072D01*
X237433Y216873D01*
X235166Y218440D01*
X235384Y218482D01*
X235790Y218592D01*
X235977Y218658D01*
X236153Y218733D01*
X236319Y218816D01*
X236475Y218907D01*
X236620Y219005D01*
X236754Y219112D01*
X236879Y219227D01*
X237890Y218542D01*
D02*
G37*
G36*
X263366Y216288D02*
X263384Y216082D01*
X263414Y215901D01*
X263456Y215743D01*
X263510Y215610D01*
X263576Y215501D01*
X263654Y215416D01*
X263744Y215355D01*
X263846Y215319D01*
X263960Y215307D01*
X261560D01*
X261674Y215319D01*
X261776Y215355D01*
X261866Y215416D01*
X261944Y215501D01*
X262010Y215610D01*
X262064Y215743D01*
X262106Y215901D01*
X262136Y216082D01*
X262154Y216288D01*
X262160Y216519D01*
X263360D01*
X263366Y216288D01*
D02*
G37*
G36*
X255002Y216678D02*
X255089Y215459D01*
X255116Y215374D01*
X255147Y215324D01*
X255181Y215307D01*
X251819D01*
X251853Y215324D01*
X251884Y215374D01*
X251911Y215459D01*
X251935Y215578D01*
X251955Y215730D01*
X251984Y216136D01*
X252000Y217000D01*
X255000D01*
X255002Y216678D01*
D02*
G37*
G36*
X236106Y216273D02*
X236123Y216070D01*
X236152Y215891D01*
X236193Y215736D01*
X236245Y215605D01*
X236309Y215498D01*
X236385Y215414D01*
X236472Y215354D01*
X236571Y215319D01*
X236681Y215307D01*
X234319D01*
X234429Y215319D01*
X234528Y215354D01*
X234615Y215414D01*
X234691Y215498D01*
X234755Y215605D01*
X234807Y215736D01*
X234848Y215891D01*
X234877Y216070D01*
X234894Y216273D01*
X234900Y216500D01*
X236100D01*
X236106Y216273D01*
D02*
G37*
G36*
X236161Y214639D02*
X236148Y214614D01*
X236137Y214577D01*
X236127Y214526D01*
X236119Y214463D01*
X236107Y214297D01*
X236100Y213953D01*
X234900D01*
X234899Y214081D01*
X234873Y214526D01*
X234863Y214577D01*
X234852Y214614D01*
X234839Y214639D01*
X234825Y214651D01*
X236175Y214651D01*
X236161Y214639D01*
D02*
G37*
G36*
X264760Y215039D02*
X264796Y214937D01*
X264857Y214847D01*
X264942Y214769D01*
X265051Y214703D01*
X265184Y214649D01*
X265341Y214607D01*
X265523Y214577D01*
X265729Y214559D01*
X265960Y214553D01*
Y213353D01*
X265729Y213347D01*
X265523Y213329D01*
X265341Y213299D01*
X265184Y213257D01*
X265051Y213203D01*
X264942Y213137D01*
X264857Y213059D01*
X264796Y212969D01*
X264760Y212867D01*
X264748Y212753D01*
Y215153D01*
X264760Y215039D01*
D02*
G37*
G36*
X163127Y212567D02*
X162961Y212591D01*
X162797Y212597D01*
X162636Y212586D01*
X162478Y212557D01*
X162322Y212511D01*
X162169Y212448D01*
X162018Y212368D01*
X161870Y212269D01*
X161725Y212154D01*
X161582Y212021D01*
X160732Y213293D01*
X160863Y213430D01*
X160983Y213572D01*
X161092Y213717D01*
X161191Y213865D01*
X161279Y214018D01*
X161356Y214174D01*
X161423Y214333D01*
X161479Y214497D01*
X161525Y214664D01*
X161560Y214834D01*
X163127Y212567D01*
D02*
G37*
G36*
X161335Y210689D02*
X159784D01*
X159789Y210702D01*
X159793Y210744D01*
X159800Y210908D01*
X159809Y212059D01*
X161309D01*
X161335Y210689D01*
D02*
G37*
G36*
X452000Y215500D02*
X451688Y214812D01*
X451707Y214793D01*
X451651Y214729D01*
X450320Y211792D01*
X450194Y211292D01*
X450070Y210639D01*
X449961Y209940D01*
X449347Y210553D01*
X449346Y210533D01*
X446033Y213846D01*
X446053Y213847D01*
X445439Y214460D01*
X446139Y214570D01*
X447953Y214986D01*
X448462Y215153D01*
X448924Y215335D01*
X449338Y215531D01*
X449402Y215568D01*
X449491Y215725D01*
X449647Y216061D01*
X449774Y216408D01*
X449873Y216767D01*
X449943Y217138D01*
X449986Y217520D01*
X450000Y217914D01*
X452000Y215500D01*
D02*
G37*
G36*
X157237Y207047D02*
X157218Y207108D01*
X157163Y207163D01*
X157071Y207211D01*
X156943Y207253D01*
X156778Y207288D01*
X156576Y207317D01*
X156063Y207355D01*
X155403Y207368D01*
Y210368D01*
X155749Y210371D01*
X156769Y210448D01*
X156933Y210484D01*
X157061Y210525D01*
X157152Y210573D01*
X157206Y210628D01*
X157225Y210689D01*
X157237Y207047D01*
D02*
G37*
G36*
X147710Y211151D02*
X147666Y211061D01*
X147627Y210911D01*
X147593Y210701D01*
X147565Y210431D01*
X147510Y209261D01*
X147505Y208706D01*
X147627Y206589D01*
X147666Y206439D01*
X147710Y206349D01*
X147760Y206319D01*
X144240D01*
X144290Y206349D01*
X144334Y206439D01*
X144373Y206589D01*
X144406Y206799D01*
X144435Y207069D01*
X144490Y208239D01*
X144495Y208794D01*
X144373Y210911D01*
X144334Y211061D01*
X144290Y211151D01*
X144240Y211181D01*
X147760D01*
X147710Y211151D01*
D02*
G37*
G36*
X209577Y208077D02*
X215577Y202077D01*
X216726Y201196D01*
X218064Y200642D01*
X219140Y200500D01*
X219041Y199000D01*
X210500D01*
X207500Y202000D01*
Y208334D01*
X209000Y208830D01*
X209577Y208077D01*
D02*
G37*
G36*
X442900Y207400D02*
X443555Y206898D01*
X443612Y205904D01*
X443447Y205229D01*
X443304Y205170D01*
X442187Y204313D01*
X441330Y203196D01*
X440791Y201896D01*
X440607Y200500D01*
X440614Y200451D01*
X440609Y200201D01*
X440591Y199981D01*
X440562Y199787D01*
X440524Y199619D01*
X440480Y199474D01*
X440429Y199349D01*
X440374Y199240D01*
X440314Y199144D01*
X440247Y199056D01*
X440109Y198905D01*
X440085Y198864D01*
X439747Y198526D01*
X434562D01*
X434526Y200026D01*
X441962Y207462D01*
X442900Y207400D01*
D02*
G37*
G36*
X156204Y198302D02*
X156194Y198275D01*
X156184Y198230D01*
X156176Y198166D01*
X156164Y197984D01*
X156154Y197404D01*
X154654D01*
X154666Y198311D01*
X156216D01*
X156204Y198302D01*
D02*
G37*
G36*
X158771Y198296D02*
X158766Y198251D01*
X158759Y198071D01*
X158750Y196811D01*
X157250D01*
X157225Y198311D01*
X158775D01*
X158771Y198296D01*
D02*
G37*
G36*
X161237Y199673D02*
X161194Y199538D01*
X161194Y199380D01*
X161237Y199201D01*
X161323Y199000D01*
X161452Y198777D01*
X161623Y198532D01*
X161838Y198265D01*
X162395Y197666D01*
X161219Y196720D01*
X159784Y198311D01*
X161322Y199787D01*
X161237Y199673D01*
D02*
G37*
G36*
X445966Y197154D02*
X445599Y197147D01*
X445248Y197118D01*
X444913Y197068D01*
X444594Y196996D01*
X444292Y196903D01*
X444007Y196789D01*
X443738Y196653D01*
X443485Y196495D01*
X443249Y196316D01*
X443029Y196115D01*
X441615Y197529D01*
X441816Y197749D01*
X441995Y197985D01*
X442153Y198238D01*
X442289Y198507D01*
X442403Y198792D01*
X442496Y199094D01*
X442568Y199413D01*
X442618Y199748D01*
X442647Y200099D01*
X442654Y200466D01*
X445966Y197154D01*
D02*
G37*
G36*
X158757Y195475D02*
X158776Y195220D01*
X158810Y194995D01*
X158856Y194800D01*
X158916Y194635D01*
X158989Y194500D01*
X159075Y194395D01*
X159175Y194320D01*
X159287Y194275D01*
X159413Y194260D01*
X156681D01*
X156789Y194275D01*
X156886Y194320D01*
X156971Y194395D01*
X157045Y194500D01*
X157108Y194635D01*
X157159Y194800D01*
X157199Y194995D01*
X157227Y195220D01*
X157244Y195475D01*
X157250Y195760D01*
X158750D01*
X158757Y195475D01*
D02*
G37*
G36*
X165331Y193599D02*
X165366Y193526D01*
X165425Y193461D01*
X165508Y193405D01*
X165614Y193358D01*
X165744Y193319D01*
X165898Y193289D01*
X166075Y193267D01*
X166276Y193254D01*
X166500Y193250D01*
Y191750D01*
X166276Y191746D01*
X165898Y191711D01*
X165744Y191681D01*
X165614Y191642D01*
X165508Y191595D01*
X165425Y191539D01*
X165366Y191474D01*
X165331Y191401D01*
X165319Y191319D01*
Y193681D01*
X165331Y193599D01*
D02*
G37*
G36*
X159287Y190725D02*
X159175Y190680D01*
X159075Y190605D01*
X158989Y190500D01*
X158916Y190365D01*
X158856Y190200D01*
X158810Y190005D01*
X158776Y189780D01*
X158757Y189525D01*
X158750Y189240D01*
X157250D01*
X157244Y189525D01*
X157199Y190005D01*
X157159Y190200D01*
X157108Y190365D01*
X157045Y190500D01*
X156971Y190605D01*
X156886Y190680D01*
X156789Y190725D01*
X156681Y190740D01*
X159413D01*
X159287Y190725D01*
D02*
G37*
G36*
X395987Y191306D02*
X396083Y191242D01*
X396194Y191185D01*
X396319Y191136D01*
X396459Y191095D01*
X396613Y191060D01*
X396782Y191034D01*
X396966Y191015D01*
X397377Y191000D01*
Y189000D01*
X397164Y188996D01*
X396782Y188966D01*
X396613Y188939D01*
X396459Y188906D01*
X396319Y188864D01*
X396194Y188815D01*
X396083Y188758D01*
X395987Y188694D01*
X395906Y188622D01*
Y191378D01*
X395987Y191306D01*
D02*
G37*
G36*
X431839Y191710D02*
X431899Y191666D01*
X431999Y191627D01*
X432139Y191594D01*
X432319Y191565D01*
X432799Y191523D01*
X433439Y191503D01*
X433819Y191500D01*
Y189500D01*
X433437Y189490D01*
X433096Y189460D01*
X432794Y189410D01*
X432533Y189340D01*
X432311Y189250D01*
X432130Y189140D01*
X431989Y189010D01*
X431888Y188860D01*
X431827Y188690D01*
X431807Y188500D01*
X431819Y191760D01*
X431839Y191710D01*
D02*
G37*
G36*
X423181Y188240D02*
X423161Y188385D01*
X423101Y188514D01*
X423001Y188628D01*
X422861Y188726D01*
X422681Y188810D01*
X422461Y188878D01*
X422201Y188932D01*
X421901Y188970D01*
X421561Y188992D01*
X421181Y189000D01*
Y191000D01*
X421561Y191008D01*
X422201Y191068D01*
X422461Y191121D01*
X422681Y191190D01*
X422861Y191273D01*
X423001Y191372D01*
X423101Y191486D01*
X423161Y191615D01*
X423181Y191760D01*
Y188240D01*
D02*
G37*
G36*
X443610Y188157D02*
X443345Y188413D01*
X443077Y188641D01*
X442804Y188842D01*
X442529Y189017D01*
X442249Y189164D01*
X441966Y189285D01*
X441680Y189379D01*
X441390Y189446D01*
X441096Y189487D01*
X440799Y189500D01*
Y191500D01*
X441096Y191513D01*
X441390Y191554D01*
X441680Y191621D01*
X441966Y191715D01*
X442249Y191836D01*
X442529Y191983D01*
X442804Y192158D01*
X443077Y192359D01*
X443345Y192587D01*
X443610Y192842D01*
Y188157D01*
D02*
G37*
G36*
X431749Y188220D02*
X431687Y188160D01*
X431632Y188060D01*
X431585Y187920D01*
X431544Y187740D01*
X431511Y187520D01*
X431467Y186960D01*
X431453Y186240D01*
X429453D01*
X429449Y186620D01*
X429361Y187740D01*
X429321Y187920D01*
X429273Y188060D01*
X429218Y188160D01*
X429156Y188220D01*
X429087Y188240D01*
X431819D01*
X431749Y188220D01*
D02*
G37*
G36*
X158757Y186031D02*
X158780Y185774D01*
X158818Y185548D01*
X158870Y185351D01*
X158938Y185185D01*
X159020Y185049D01*
X159117Y184943D01*
X159230Y184867D01*
X159358Y184822D01*
X159500Y184807D01*
X156500D01*
X156642Y184822D01*
X156770Y184867D01*
X156883Y184943D01*
X156980Y185049D01*
X157062Y185185D01*
X157130Y185351D01*
X157183Y185548D01*
X157220Y185774D01*
X157243Y186031D01*
X157250Y186319D01*
X158750D01*
X158757Y186031D01*
D02*
G37*
G36*
X431456Y185380D02*
X431544Y184260D01*
X431585Y184080D01*
X431632Y183940D01*
X431687Y183840D01*
X431749Y183780D01*
X431819Y183760D01*
X429087D01*
X429156Y183780D01*
X429218Y183840D01*
X429273Y183940D01*
X429321Y184080D01*
X429361Y184260D01*
X429394Y184480D01*
X429438Y185040D01*
X429453Y185760D01*
X431453D01*
X431456Y185380D01*
D02*
G37*
G36*
X423181Y180240D02*
X423161Y180385D01*
X423101Y180514D01*
X423001Y180628D01*
X422861Y180727D01*
X422681Y180810D01*
X422461Y180878D01*
X422201Y180932D01*
X421901Y180970D01*
X421561Y180992D01*
X421181Y181000D01*
Y183000D01*
X421561Y183008D01*
X422201Y183068D01*
X422461Y183122D01*
X422681Y183190D01*
X422861Y183273D01*
X423001Y183372D01*
X423101Y183486D01*
X423161Y183615D01*
X423181Y183760D01*
Y180240D01*
D02*
G37*
G36*
X431749Y180220D02*
X431687Y180160D01*
X431632Y180060D01*
X431585Y179920D01*
X431544Y179740D01*
X431511Y179520D01*
X431467Y178960D01*
X431453Y178240D01*
X429453D01*
X429449Y178620D01*
X429361Y179740D01*
X429321Y179920D01*
X429273Y180060D01*
X429218Y180160D01*
X429156Y180220D01*
X429087Y180240D01*
X431819D01*
X431749Y180220D01*
D02*
G37*
G36*
X383241Y177827D02*
X383093Y177674D01*
X382845Y177383D01*
X382744Y177244D01*
X382659Y177111D01*
X382590Y176983D01*
X382536Y176860D01*
X382498Y176741D01*
X382475Y176628D01*
X382468Y176520D01*
X380520Y178468D01*
X380628Y178475D01*
X380741Y178498D01*
X380860Y178536D01*
X380983Y178589D01*
X381111Y178659D01*
X381244Y178744D01*
X381382Y178845D01*
X381526Y178961D01*
X381827Y179241D01*
X383241Y177827D01*
D02*
G37*
G36*
X445966Y177154D02*
X445599Y177147D01*
X445248Y177118D01*
X444913Y177068D01*
X444594Y176997D01*
X444292Y176903D01*
X444007Y176789D01*
X443738Y176653D01*
X443485Y176495D01*
X443249Y176316D01*
X443029Y176115D01*
X441615Y177529D01*
X441816Y177749D01*
X441995Y177985D01*
X442153Y178238D01*
X442289Y178507D01*
X442403Y178792D01*
X442496Y179094D01*
X442568Y179413D01*
X442618Y179747D01*
X442647Y180099D01*
X442654Y180466D01*
X445966Y177154D01*
D02*
G37*
G36*
X431456Y177380D02*
X431544Y176260D01*
X431585Y176080D01*
X431632Y175940D01*
X431687Y175840D01*
X431749Y175780D01*
X431819Y175760D01*
X429087D01*
X429156Y175780D01*
X429218Y175840D01*
X429273Y175940D01*
X429321Y176080D01*
X429361Y176260D01*
X429394Y176480D01*
X429438Y177040D01*
X429453Y177760D01*
X431453D01*
X431456Y177380D01*
D02*
G37*
G36*
X159629Y178478D02*
X159558Y178308D01*
X159549Y178106D01*
X159599Y177871D01*
X159710Y177605D01*
X159882Y177306D01*
X160114Y176974D01*
X160407Y176611D01*
X161174Y175788D01*
X159366Y174767D01*
X158974Y175145D01*
X158262Y175744D01*
X157942Y175964D01*
X157647Y176132D01*
X157377Y176247D01*
X157130Y176310D01*
X156908Y176320D01*
X156711Y176277D01*
X156537Y176181D01*
X159760Y178616D01*
X159629Y178478D01*
D02*
G37*
G36*
X389475Y176372D02*
X389498Y176259D01*
X389536Y176140D01*
X389590Y176017D01*
X389659Y175889D01*
X389744Y175756D01*
X389845Y175618D01*
X389961Y175474D01*
X390241Y175173D01*
X388827Y173759D01*
X388674Y173907D01*
X388383Y174155D01*
X388244Y174256D01*
X388111Y174341D01*
X387983Y174410D01*
X387860Y174464D01*
X387741Y174502D01*
X387628Y174525D01*
X387520Y174532D01*
X389468Y176480D01*
X389475Y176372D01*
D02*
G37*
G36*
X401987Y175306D02*
X402083Y175242D01*
X402194Y175185D01*
X402319Y175136D01*
X402459Y175094D01*
X402613Y175060D01*
X402782Y175034D01*
X402966Y175015D01*
X403377Y175000D01*
Y173000D01*
X403164Y172996D01*
X402782Y172966D01*
X402613Y172940D01*
X402459Y172906D01*
X402319Y172864D01*
X402194Y172815D01*
X402083Y172758D01*
X401987Y172694D01*
X401906Y172622D01*
Y175378D01*
X401987Y175306D01*
D02*
G37*
G36*
X423181Y172240D02*
X423161Y172385D01*
X423101Y172514D01*
X423001Y172628D01*
X422861Y172727D01*
X422681Y172810D01*
X422461Y172878D01*
X422201Y172932D01*
X421901Y172970D01*
X421561Y172992D01*
X421181Y173000D01*
Y175000D01*
X421561Y175008D01*
X422201Y175068D01*
X422461Y175121D01*
X422681Y175190D01*
X422861Y175274D01*
X423001Y175372D01*
X423101Y175486D01*
X423161Y175615D01*
X423181Y175760D01*
Y172240D01*
D02*
G37*
G36*
X445966Y167154D02*
X445599Y167147D01*
X445248Y167118D01*
X444913Y167068D01*
X444594Y166997D01*
X444292Y166903D01*
X444007Y166789D01*
X443738Y166653D01*
X443485Y166495D01*
X443249Y166316D01*
X443029Y166115D01*
X441615Y167529D01*
X441816Y167749D01*
X441995Y167985D01*
X442153Y168238D01*
X442289Y168507D01*
X442403Y168792D01*
X442496Y169094D01*
X442568Y169413D01*
X442618Y169747D01*
X442647Y170099D01*
X442654Y170466D01*
X445966Y167154D01*
D02*
G37*
G36*
X432733Y165819D02*
X432337Y165409D01*
X431714Y164673D01*
X431487Y164348D01*
X431316Y164051D01*
X431201Y163782D01*
X431143Y163542D01*
X431141Y163330D01*
X431196Y163146D01*
X431307Y162990D01*
X428587Y165760D01*
X428840Y165774D01*
X429097Y165816D01*
X429356Y165887D01*
X429619Y165986D01*
X429884Y166113D01*
X430153Y166269D01*
X430425Y166453D01*
X430700Y166665D01*
X430978Y166905D01*
X431260Y167174D01*
X432733Y165819D01*
D02*
G37*
G36*
X394487Y165306D02*
X394583Y165242D01*
X394694Y165185D01*
X394819Y165136D01*
X394959Y165094D01*
X395113Y165060D01*
X395282Y165034D01*
X395466Y165015D01*
X395877Y165000D01*
Y163000D01*
X395664Y162996D01*
X395282Y162966D01*
X395113Y162940D01*
X394959Y162906D01*
X394819Y162864D01*
X394694Y162815D01*
X394583Y162758D01*
X394487Y162694D01*
X394406Y162622D01*
Y165378D01*
X394487Y165306D01*
D02*
G37*
G36*
X422681Y162240D02*
X422661Y162385D01*
X422601Y162514D01*
X422501Y162628D01*
X422361Y162726D01*
X422181Y162810D01*
X421961Y162879D01*
X421701Y162932D01*
X421401Y162970D01*
X421061Y162992D01*
X420681Y163000D01*
Y165000D01*
X421061Y165008D01*
X421701Y165068D01*
X421961Y165122D01*
X422181Y165190D01*
X422361Y165273D01*
X422501Y165372D01*
X422601Y165486D01*
X422661Y165615D01*
X422681Y165760D01*
Y162240D01*
D02*
G37*
G36*
X431306Y162220D02*
X431294Y162160D01*
X431284Y162060D01*
X431261Y161520D01*
X431250Y160240D01*
X429250D01*
X429243Y160620D01*
X429190Y161260D01*
X429144Y161520D01*
X429084Y161740D01*
X429011Y161920D01*
X428925Y162060D01*
X428826Y162160D01*
X428713Y162220D01*
X428587Y162240D01*
X431319D01*
X431306Y162220D01*
D02*
G37*
G36*
X451707Y164793D02*
X451349Y164410D01*
X451020Y164006D01*
X450722Y163583D01*
X450454Y163139D01*
X450215Y162675D01*
X450006Y162191D01*
X449828Y161687D01*
X449679Y161162D01*
X449560Y160618D01*
X449471Y160054D01*
X445554Y163971D01*
X446118Y164060D01*
X446663Y164179D01*
X447187Y164328D01*
X447691Y164506D01*
X448175Y164715D01*
X448639Y164954D01*
X449083Y165222D01*
X449506Y165521D01*
X449910Y165849D01*
X450293Y166207D01*
X451707Y164793D01*
D02*
G37*
G36*
X431319Y157760D02*
X428587D01*
X428713Y157780D01*
X428826Y157840D01*
X428925Y157940D01*
X429011Y158080D01*
X429084Y158260D01*
X429144Y158480D01*
X429190Y158740D01*
X429223Y159040D01*
X429250Y159760D01*
X431250D01*
X431319Y157760D01*
D02*
G37*
G36*
X459363Y160797D02*
X459570Y160098D01*
X459691Y159777D01*
X459823Y159476D01*
X459967Y159193D01*
X460123Y158929D01*
X460291Y158685D01*
X460471Y158459D01*
X460662Y158252D01*
X459570Y156516D01*
X459342Y156723D01*
X459101Y156900D01*
X458849Y157047D01*
X458584Y157164D01*
X458307Y157251D01*
X458018Y157308D01*
X457717Y157335D01*
X457403Y157332D01*
X457078Y157299D01*
X456740Y157236D01*
X459278Y161174D01*
X459363Y160797D01*
D02*
G37*
G36*
X406306Y156513D02*
X406242Y156417D01*
X406185Y156306D01*
X406136Y156181D01*
X406095Y156041D01*
X406061Y155887D01*
X406034Y155718D01*
X406015Y155534D01*
X406000Y155123D01*
X404000D01*
X403996Y155336D01*
X403966Y155718D01*
X403939Y155887D01*
X403905Y156041D01*
X403864Y156181D01*
X403815Y156306D01*
X403758Y156417D01*
X403694Y156513D01*
X403622Y156594D01*
X406378D01*
X406306Y156513D01*
D02*
G37*
G36*
X399806D02*
X399742Y156417D01*
X399685Y156306D01*
X399636Y156181D01*
X399594Y156041D01*
X399560Y155887D01*
X399534Y155718D01*
X399515Y155534D01*
X399500Y155123D01*
X397500D01*
X397496Y155336D01*
X397466Y155718D01*
X397440Y155887D01*
X397406Y156041D01*
X397364Y156181D01*
X397315Y156306D01*
X397258Y156417D01*
X397194Y156513D01*
X397122Y156594D01*
X399878D01*
X399806Y156513D01*
D02*
G37*
G36*
X422681Y154240D02*
X422661Y154352D01*
X422601Y154453D01*
X422501Y154541D01*
X422361Y154618D01*
X422181Y154683D01*
X421961Y154736D01*
X421701Y154778D01*
X421401Y154807D01*
X420681Y154831D01*
Y156831D01*
X421061Y156840D01*
X421401Y156868D01*
X421701Y156914D01*
X421961Y156979D01*
X422181Y157063D01*
X422361Y157165D01*
X422501Y157286D01*
X422601Y157425D01*
X422661Y157583D01*
X422681Y157760D01*
Y154240D01*
D02*
G37*
G36*
X431306Y154220D02*
X431294Y154160D01*
X431284Y154060D01*
X431261Y153520D01*
X431250Y152240D01*
X429250D01*
X429243Y152620D01*
X429190Y153260D01*
X429144Y153520D01*
X429084Y153740D01*
X429011Y153920D01*
X428925Y154060D01*
X428826Y154160D01*
X428713Y154220D01*
X428587Y154240D01*
X431319D01*
X431306Y154220D01*
D02*
G37*
G36*
X431319Y149760D02*
X428587D01*
X428713Y149780D01*
X428826Y149840D01*
X428925Y149940D01*
X429011Y150080D01*
X429084Y150260D01*
X429144Y150480D01*
X429190Y150740D01*
X429223Y151040D01*
X429250Y151760D01*
X431250D01*
X431319Y149760D01*
D02*
G37*
G36*
X422681Y146240D02*
X422661Y146385D01*
X422601Y146514D01*
X422501Y146628D01*
X422361Y146727D01*
X422181Y146810D01*
X421961Y146879D01*
X421701Y146932D01*
X421401Y146970D01*
X421061Y146992D01*
X420681Y147000D01*
Y149000D01*
X421061Y149008D01*
X421701Y149068D01*
X421961Y149122D01*
X422181Y149190D01*
X422361Y149274D01*
X422501Y149372D01*
X422601Y149486D01*
X422661Y149615D01*
X422681Y149760D01*
Y146240D01*
D02*
G37*
G36*
X375203Y131569D02*
X375234Y131116D01*
X375288Y130689D01*
X375366Y130288D01*
X375468Y129914D01*
X375593Y129565D01*
X375742Y129243D01*
X375914Y128946D01*
X376110Y128675D01*
X376330Y128431D01*
X374916Y127016D01*
X374671Y127236D01*
X374400Y127432D01*
X374104Y127605D01*
X373781Y127754D01*
X373433Y127879D01*
X373058Y127980D01*
X372657Y128058D01*
X372231Y128112D01*
X371778Y128143D01*
X371299Y128150D01*
X375197Y132047D01*
X375203Y131569D01*
D02*
G37*
%LPC*%
G36*
X182890Y368874D02*
Y357102D01*
X194662D01*
X194582Y358113D01*
X194111Y360073D01*
X193340Y361936D01*
X192286Y363656D01*
X190977Y365189D01*
X189443Y366499D01*
X187724Y367552D01*
X185861Y368324D01*
X183900Y368795D01*
X182890Y368874D01*
D02*
G37*
G36*
X180890D02*
X179879Y368795D01*
X177919Y368324D01*
X176056Y367552D01*
X174336Y366499D01*
X172803Y365189D01*
X171493Y363656D01*
X170440Y361936D01*
X169668Y360073D01*
X169197Y358113D01*
X169118Y357102D01*
X180890D01*
Y368874D01*
D02*
G37*
G36*
X297453Y339772D02*
Y338000D01*
X297819D01*
Y338760D01*
X297840Y338710D01*
X297906Y338666D01*
X298015Y338627D01*
X298168Y338594D01*
X298364Y338565D01*
X298831Y338528D01*
Y339772D01*
X297453D01*
D02*
G37*
G36*
X303547Y339772D02*
X302169D01*
Y338000D01*
X303547D01*
Y339772D01*
D02*
G37*
G36*
X297819Y336000D02*
X297453D01*
Y334228D01*
X298831D01*
Y335449D01*
X298168Y335406D01*
X298015Y335373D01*
X297906Y335334D01*
X297840Y335290D01*
X297819Y335240D01*
Y336000D01*
D02*
G37*
G36*
X169772Y330744D02*
X168000D01*
Y329169D01*
X169772D01*
Y330744D01*
D02*
G37*
G36*
X166000D02*
X164228D01*
Y329169D01*
X166000D01*
Y330744D01*
D02*
G37*
G36*
X157937Y307327D02*
X154295D01*
Y305555D01*
X157937D01*
Y307327D01*
D02*
G37*
G36*
X152295D02*
X148653D01*
Y305555D01*
X152295D01*
Y307327D01*
D02*
G37*
G36*
X157937Y303555D02*
X154295D01*
Y301783D01*
X157937D01*
Y303555D01*
D02*
G37*
G36*
X152295D02*
X148653D01*
Y301783D01*
X152295D01*
Y303555D01*
D02*
G37*
G36*
X364142Y345555D02*
X360500D01*
Y343094D01*
X364142D01*
Y345555D01*
D02*
G37*
G36*
X358500D02*
X354858D01*
Y343094D01*
X358500D01*
Y345555D01*
D02*
G37*
G36*
X364142Y341094D02*
X360500D01*
Y338634D01*
X364142D01*
Y341094D01*
D02*
G37*
G36*
X132496Y347221D02*
Y335449D01*
X144268D01*
X144188Y336459D01*
X143718Y338420D01*
X142946Y340283D01*
X141892Y342002D01*
X140583Y343535D01*
X139049Y344845D01*
X137330Y345899D01*
X135467Y346670D01*
X133506Y347141D01*
X132496Y347221D01*
D02*
G37*
G36*
X130496D02*
X129486Y347141D01*
X127525Y346670D01*
X125662Y345899D01*
X123943Y344845D01*
X122409Y343535D01*
X121100Y342002D01*
X120046Y340283D01*
X119274Y338420D01*
X118804Y336459D01*
X118724Y335449D01*
X130496D01*
Y347221D01*
D02*
G37*
G36*
X394547Y334500D02*
X393169D01*
Y332728D01*
X394547D01*
Y334500D01*
D02*
G37*
G36*
X427449Y330500D02*
X423800D01*
Y326851D01*
X424037Y326882D01*
X425190Y327360D01*
X426181Y328119D01*
X426940Y329110D01*
X427418Y330263D01*
X427449Y330500D01*
D02*
G37*
G36*
X421800D02*
X418151D01*
X418182Y330263D01*
X418659Y329110D01*
X419419Y328119D01*
X420409Y327360D01*
X421563Y326882D01*
X421800Y326851D01*
Y330500D01*
D02*
G37*
G36*
X130496Y333449D02*
X118724D01*
X118804Y332438D01*
X119274Y330478D01*
X120046Y328615D01*
X121100Y326895D01*
X122409Y325362D01*
X123943Y324052D01*
X125662Y322999D01*
X127525Y322227D01*
X129486Y321756D01*
X130496Y321677D01*
Y333449D01*
D02*
G37*
G36*
X427740Y314740D02*
X424000D01*
Y311000D01*
X427740D01*
Y314740D01*
D02*
G37*
G36*
X422000D02*
X418260D01*
Y311000D01*
X422000D01*
Y314740D01*
D02*
G37*
G36*
X398772Y311831D02*
X397000D01*
Y310256D01*
X398772D01*
Y311831D01*
D02*
G37*
G36*
X395000D02*
X393228D01*
Y310256D01*
X395000D01*
Y311831D01*
D02*
G37*
G36*
X389272D02*
X387500D01*
Y310256D01*
X389272D01*
Y311831D01*
D02*
G37*
G36*
X385500D02*
X383728D01*
Y310256D01*
X385500D01*
Y311831D01*
D02*
G37*
G36*
X379772D02*
X378000D01*
Y310256D01*
X379772D01*
Y311831D01*
D02*
G37*
G36*
X376000D02*
X374228D01*
Y310256D01*
X376000D01*
Y311831D01*
D02*
G37*
G36*
X427740Y309000D02*
X423000D01*
X418260D01*
Y305547D01*
X415260D01*
X414274Y306304D01*
X412936Y306858D01*
X411500Y307048D01*
X399772D01*
Y307319D01*
X398772D01*
Y308256D01*
X393228D01*
Y307319D01*
X392228D01*
Y307048D01*
X390272D01*
Y307319D01*
X389272D01*
Y308256D01*
X383728D01*
Y307319D01*
X382728D01*
Y307048D01*
X380772D01*
Y307319D01*
X379772D01*
Y308256D01*
X374228D01*
Y307319D01*
X373228D01*
Y307048D01*
X372000D01*
X370564Y306858D01*
X369226Y306304D01*
X368077Y305423D01*
X367196Y304274D01*
X366642Y302936D01*
X366453Y301500D01*
X366642Y300064D01*
X367196Y298726D01*
X368077Y297577D01*
X369226Y296696D01*
X370564Y296142D01*
X372000Y295953D01*
X409240D01*
X410226Y295196D01*
X411564Y294642D01*
X413000Y294453D01*
X421373D01*
X421482Y294408D01*
X422980Y294210D01*
X424479Y294408D01*
X425875Y294986D01*
X427074Y295906D01*
X427994Y297105D01*
X428573Y298501D01*
X428770Y300000D01*
X428573Y301499D01*
X427994Y302895D01*
X427331Y303760D01*
X427740Y305260D01*
X427740D01*
Y309000D01*
D02*
G37*
G36*
X424760Y283740D02*
X424000D01*
Y280000D01*
X427740D01*
Y280760D01*
X424760Y283740D01*
D02*
G37*
G36*
X422000D02*
X418260D01*
Y280000D01*
X422000D01*
Y283740D01*
D02*
G37*
G36*
X114977Y267535D02*
X112418D01*
Y264976D01*
X114977D01*
Y267535D01*
D02*
G37*
G36*
X142772Y265244D02*
X141000D01*
Y263669D01*
X142772D01*
Y265244D01*
D02*
G37*
G36*
X139000D02*
X137228D01*
Y263669D01*
X139000D01*
Y265244D01*
D02*
G37*
G36*
X133272D02*
X131500D01*
Y263669D01*
X133272D01*
Y265244D01*
D02*
G37*
G36*
X129500D02*
X127728D01*
Y263669D01*
X129500D01*
Y265244D01*
D02*
G37*
G36*
X114977Y262976D02*
X112418D01*
Y260417D01*
X114977D01*
Y262976D01*
D02*
G37*
G36*
X120095Y257496D02*
X117733D01*
Y254724D01*
X115733D01*
Y257496D01*
X113370D01*
Y253772D01*
X112370D01*
Y248197D01*
Y245638D01*
Y243079D01*
Y240520D01*
X113370D01*
Y238961D01*
Y238008D01*
X116733D01*
X120095D01*
Y238961D01*
X121276D01*
Y239990D01*
X120264Y239973D01*
Y241523D01*
X120279Y241519D01*
X120324Y241514D01*
X120504Y241507D01*
X121651Y241499D01*
X121813Y241503D01*
X121998Y241520D01*
X122177Y241547D01*
X122276Y241569D01*
Y243092D01*
X126478D01*
X126997Y242500D01*
X127134Y241464D01*
X127533Y240499D01*
X128170Y239670D01*
X128999Y239034D01*
X129669Y238756D01*
Y238728D01*
X129783Y238709D01*
X129964Y238634D01*
X130999Y238497D01*
X131000Y238497D01*
X131078Y238508D01*
X132036Y238634D01*
X132265Y238728D01*
X140735D01*
X140964Y238634D01*
X142000Y238497D01*
X143036Y238634D01*
X144001Y239034D01*
X144830Y239670D01*
X145466Y240499D01*
X145866Y241464D01*
X146003Y242500D01*
X145866Y243536D01*
X145466Y244501D01*
X144830Y245330D01*
X144001Y245967D01*
X143372Y246227D01*
X143322Y246435D01*
Y247565D01*
X143372Y247773D01*
X144001Y248033D01*
X144830Y248670D01*
X145466Y249499D01*
X145866Y250464D01*
X146003Y251500D01*
X145866Y252536D01*
X145466Y253501D01*
X144830Y254330D01*
X144001Y254966D01*
X143036Y255366D01*
X142000Y255503D01*
X140964Y255366D01*
X140735Y255272D01*
X132265D01*
X132036Y255366D01*
X131078Y255492D01*
X131000Y255503D01*
X131000Y255503D01*
X129964Y255366D01*
X129783Y255292D01*
X129669Y255272D01*
X128195Y255333D01*
X127453Y255671D01*
X127330Y255830D01*
X126501Y256467D01*
X125536Y256866D01*
X124500Y257003D01*
X123464Y256866D01*
X122499Y256467D01*
X121670Y255830D01*
X121595Y255733D01*
X120095Y256242D01*
Y257496D01*
D02*
G37*
G36*
Y236008D02*
X117733D01*
Y234236D01*
X120095D01*
Y236008D01*
D02*
G37*
G36*
X115733D02*
X113370D01*
Y234236D01*
X115733D01*
Y236008D01*
D02*
G37*
G36*
X114977Y231315D02*
X112418D01*
Y228756D01*
X114977D01*
Y231315D01*
D02*
G37*
G36*
Y226756D02*
X112418D01*
Y224197D01*
X114977D01*
Y226756D01*
D02*
G37*
G36*
X148772Y198047D02*
X147000D01*
Y197681D01*
X147464D01*
X147344Y197668D01*
X147236Y197626D01*
X147141Y197557D01*
X147059Y197460D01*
X147000Y197355D01*
Y196669D01*
X148772D01*
Y198047D01*
D02*
G37*
G36*
X145000D02*
X143228D01*
Y196669D01*
X145000D01*
Y197572D01*
X144925Y197626D01*
X144818Y197668D01*
X144697Y197681D01*
X145000D01*
Y198047D01*
D02*
G37*
G36*
X130496Y170055D02*
X129486Y169976D01*
X128104Y169644D01*
X128653Y169462D01*
X129557Y169251D01*
X130465Y169129D01*
X130496Y169127D01*
Y170055D01*
D02*
G37*
G36*
X132496D02*
Y158283D01*
X144268D01*
X144188Y159294D01*
X143718Y161255D01*
X142946Y163118D01*
X141892Y164837D01*
X140583Y166370D01*
X139049Y167680D01*
X137330Y168733D01*
X135467Y169505D01*
X133506Y169976D01*
X132496Y170055D01*
D02*
G37*
G36*
X130496Y168212D02*
X120568Y158283D01*
X130496D01*
Y168212D01*
D02*
G37*
G36*
X119135Y160676D02*
X118804Y159294D01*
X118724Y158283D01*
X119652D01*
X119651Y158314D01*
X119528Y159223D01*
X119318Y160126D01*
X119135Y160676D01*
D02*
G37*
G36*
X144268Y156283D02*
X143340D01*
X143341Y156253D01*
X143464Y155344D01*
X143674Y154440D01*
X143857Y153891D01*
X144188Y155273D01*
X144268Y156283D01*
D02*
G37*
G36*
X142424D02*
X132496D01*
Y146355D01*
X142424Y156283D01*
D02*
G37*
G36*
X445000Y149500D02*
X441748D01*
X441765Y149365D01*
X442203Y148308D01*
X442900Y147400D01*
X443808Y146703D01*
X444865Y146265D01*
X445000Y146248D01*
Y149500D01*
D02*
G37*
G36*
X132496Y145439D02*
Y144511D01*
X133506Y144591D01*
X134888Y144923D01*
X134339Y145105D01*
X133435Y145316D01*
X132527Y145438D01*
X132496Y145439D01*
D02*
G37*
G36*
X130496Y156283D02*
X118724D01*
X118804Y155273D01*
X119274Y153312D01*
X120046Y151449D01*
X121100Y149730D01*
X122409Y148197D01*
X123943Y146887D01*
X125662Y145833D01*
X127525Y145062D01*
X129486Y144591D01*
X130496Y144511D01*
Y156283D01*
D02*
G37*
G36*
X396275Y141856D02*
Y138008D01*
X400124D01*
X400085Y138297D01*
X399588Y139498D01*
X398797Y140529D01*
X397765Y141320D01*
X396564Y141818D01*
X396275Y141856D01*
D02*
G37*
G36*
X346244D02*
X345955Y141818D01*
X344754Y141320D01*
X343723Y140529D01*
X342932Y139498D01*
X342434Y138297D01*
X342396Y138008D01*
X346244D01*
Y141856D01*
D02*
G37*
G36*
X182890Y148402D02*
Y136630D01*
X194662D01*
X194582Y137640D01*
X194111Y139601D01*
X193340Y141464D01*
X192286Y143183D01*
X190977Y144717D01*
X189443Y146026D01*
X187724Y147080D01*
X185861Y147852D01*
X183900Y148322D01*
X182890Y148402D01*
D02*
G37*
G36*
X180890D02*
X179879Y148322D01*
X177919Y147852D01*
X176056Y147080D01*
X174336Y146026D01*
X172803Y144717D01*
X171493Y143183D01*
X170751Y141972D01*
X171268Y142231D01*
X172056Y142721D01*
X172785Y143277D01*
X173455Y143898D01*
Y136630D01*
X180890D01*
Y148402D01*
D02*
G37*
G36*
X400124Y136008D02*
X396275D01*
Y132160D01*
X396564Y132198D01*
X397765Y132695D01*
X398797Y133487D01*
X399588Y134518D01*
X400085Y135719D01*
X400124Y136008D01*
D02*
G37*
G36*
X346244D02*
X342396D01*
X342434Y135719D01*
X342932Y134518D01*
X343723Y133487D01*
X344754Y132695D01*
X345955Y132198D01*
X346244Y132160D01*
Y136008D01*
D02*
G37*
G36*
X180890Y134630D02*
X173455D01*
Y127362D01*
X172785Y127983D01*
X172056Y128539D01*
X171268Y129029D01*
X170751Y129288D01*
X171493Y128077D01*
X172803Y126543D01*
X174336Y125233D01*
X176056Y124180D01*
X177919Y123408D01*
X179879Y122938D01*
X180890Y122858D01*
Y134630D01*
D02*
G37*
G36*
X355512Y147895D02*
X354348Y147780D01*
X353229Y147441D01*
X352197Y146889D01*
X351293Y146148D01*
X350551Y145244D01*
X350000Y144212D01*
X349661Y143093D01*
X349649Y142979D01*
X349232Y142545D01*
X348244Y141951D01*
Y137008D01*
Y132065D01*
X349232Y131471D01*
X349649Y131037D01*
X349661Y130923D01*
X350000Y129804D01*
X350551Y128772D01*
X351293Y127868D01*
X352197Y127126D01*
X353229Y126575D01*
X354348Y126235D01*
X355512Y126121D01*
X356676Y126235D01*
X357795Y126575D01*
X358826Y127126D01*
X359730Y127868D01*
X360472Y128772D01*
X361023Y129804D01*
X361363Y130923D01*
X361477Y132087D01*
X361363Y133250D01*
X361023Y134370D01*
X360472Y135401D01*
X359992Y135985D01*
X359837Y137008D01*
X359992Y138030D01*
X360472Y138615D01*
X361023Y139646D01*
X361363Y140765D01*
X361477Y141929D01*
X361363Y143093D01*
X361023Y144212D01*
X360472Y145244D01*
X359730Y146148D01*
X358826Y146889D01*
X357795Y147441D01*
X356676Y147780D01*
X355512Y147895D01*
D02*
G37*
G36*
X194662Y134630D02*
X182890D01*
Y122858D01*
X183900Y122938D01*
X185861Y123408D01*
X187724Y124180D01*
X189443Y125233D01*
X190977Y126543D01*
X192286Y128077D01*
X193340Y129796D01*
X194111Y131659D01*
X194582Y133620D01*
X194662Y134630D01*
D02*
G37*
%LPD*%
G36*
X124041Y251086D02*
X123974Y251093D01*
X123898Y251085D01*
X123815Y251061D01*
X123724Y251021D01*
X123625Y250966D01*
X123519Y250895D01*
X123404Y250808D01*
X123152Y250588D01*
X123014Y250454D01*
X121954Y251515D01*
X122088Y251652D01*
X122395Y252019D01*
X122466Y252125D01*
X122521Y252224D01*
X122561Y252315D01*
X122585Y252398D01*
X122593Y252474D01*
X122586Y252541D01*
X124041Y251086D01*
D02*
G37*
G36*
X120279Y251755D02*
X120324Y251750D01*
X120504Y251743D01*
X121764Y251734D01*
Y250234D01*
X120264Y250209D01*
Y251760D01*
X120279Y251755D01*
D02*
G37*
G36*
X133409Y249752D02*
X133311Y249854D01*
X133188Y249909D01*
X133039Y249917D01*
X132865Y249879D01*
X132665Y249795D01*
X132440Y249665D01*
X132190Y249488D01*
X131915Y249265D01*
X131288Y248680D01*
X131226Y248727D01*
X130775Y248168D01*
X129442Y248955D01*
X129567Y249089D01*
X129670Y249217D01*
X129750Y249340D01*
X129808Y249457D01*
X129843Y249568D01*
X129856Y249673D01*
X129846Y249773D01*
X129813Y249867D01*
X129758Y249956D01*
X129681Y250039D01*
X130483Y250009D01*
X131321Y251002D01*
X131506Y251281D01*
X131641Y251533D01*
X131728Y251755D01*
X131766Y251950D01*
X131754Y252117D01*
X131693Y252255D01*
X133409Y249752D01*
D02*
G37*
G36*
X120279Y249196D02*
X120324Y249191D01*
X120504Y249184D01*
X121764Y249175D01*
Y247675D01*
X120264Y247650D01*
Y249201D01*
X120279Y249196D01*
D02*
G37*
G36*
Y246637D02*
X120324Y246632D01*
X120504Y246625D01*
X121764Y246616D01*
Y245116D01*
X120264Y245091D01*
Y246641D01*
X120279Y246637D01*
D02*
G37*
G36*
X131226Y245273D02*
X131288Y245320D01*
X131614Y245005D01*
X132190Y244512D01*
X132440Y244335D01*
X132665Y244205D01*
X132865Y244121D01*
X133039Y244083D01*
X133188Y244092D01*
X133311Y244146D01*
X133409Y244248D01*
X131693Y241745D01*
X131754Y241883D01*
X131766Y242050D01*
X131728Y242245D01*
X131641Y242468D01*
X131506Y242719D01*
X131321Y242998D01*
X131087Y243305D01*
X130483Y243991D01*
X129681Y243961D01*
X129757Y244045D01*
X129810Y244136D01*
X129838Y244235D01*
X129842Y244340D01*
X129822Y244454D01*
X129777Y244574D01*
X129708Y244702D01*
X129615Y244837D01*
X129498Y244980D01*
X129357Y245130D01*
X130776Y245832D01*
X131226Y245273D01*
D02*
G37*
%LPC*%
G36*
X292272Y255547D02*
X290500D01*
Y254169D01*
X292272D01*
Y255547D01*
D02*
G37*
G36*
X288500D02*
X286728D01*
Y254169D01*
X288500D01*
Y255547D01*
D02*
G37*
G36*
X282772D02*
X281000D01*
Y254169D01*
X282772D01*
Y255547D01*
D02*
G37*
%LPD*%
D14*
X338500Y363205D02*
X339776Y361930D01*
X338500Y363205D02*
Y363603D01*
X339776Y359311D02*
Y361930D01*
D16*
X349224Y341276D02*
X351500Y339000D01*
X349224Y341276D02*
Y347500D01*
X347650Y338650D02*
Y347500D01*
X344000Y339000D02*
X346075Y341075D01*
Y347500D01*
X336000Y337500D02*
X339000D01*
X333500Y340000D02*
X336000Y337500D01*
X333500Y340000D02*
Y348244D01*
X344500Y343000D02*
Y347500D01*
X339000Y337500D02*
X344500Y343000D01*
Y347500D02*
Y347551D01*
X343000Y344500D02*
Y347500D01*
X337543Y341957D02*
X340457D01*
X343000Y344500D01*
X346000Y364500D02*
X348500D01*
X349224Y363776D01*
X343500Y364500D02*
X346000D01*
X341469Y362469D02*
X343500Y364500D01*
X349224Y359311D02*
Y363776D01*
X341469Y362373D02*
Y362469D01*
X341357Y362261D02*
X341469Y362373D01*
X341357Y359317D02*
Y362261D01*
X341350Y359311D02*
X341357Y359317D01*
X337500Y342000D02*
X337543Y341957D01*
D19*
X224265Y322402D02*
D03*
X226233D02*
D03*
X228202D02*
D03*
X230170D02*
D03*
X232139D02*
D03*
X234107D02*
D03*
X236076D02*
D03*
X238044D02*
D03*
Y337756D02*
D03*
X236076D02*
D03*
X234107D02*
D03*
X232139D02*
D03*
X230170D02*
D03*
X228202D02*
D03*
X226233D02*
D03*
X224265D02*
D03*
X263016Y268224D02*
D03*
X264984D02*
D03*
Y258776D02*
D03*
X263016D02*
D03*
D20*
X240800Y325157D02*
D03*
Y327126D02*
D03*
Y329095D02*
D03*
Y331063D02*
D03*
Y333032D02*
D03*
Y335000D02*
D03*
X221509D02*
D03*
Y333032D02*
D03*
Y331063D02*
D03*
Y329095D02*
D03*
Y327126D02*
D03*
Y325157D02*
D03*
X268724Y266453D02*
D03*
Y264484D02*
D03*
Y262516D02*
D03*
Y260547D02*
D03*
X259276D02*
D03*
Y262516D02*
D03*
Y264484D02*
D03*
Y266453D02*
D03*
D21*
X231154Y330079D02*
D03*
D22*
X213576Y361492D02*
D03*
D23*
X209670Y357594D02*
D03*
Y360193D02*
D03*
Y362791D02*
D03*
Y365390D02*
D03*
D24*
X221422D02*
D03*
Y362791D02*
D03*
Y360193D02*
D03*
Y357594D02*
D03*
D25*
X256000Y351547D02*
D03*
Y357453D02*
D03*
X231526Y357179D02*
D03*
Y351274D02*
D03*
X247000Y351453D02*
D03*
Y345547D02*
D03*
X328000Y356547D02*
D03*
Y362453D02*
D03*
X130500Y294547D02*
D03*
Y300453D02*
D03*
X130500Y285953D02*
D03*
Y280047D02*
D03*
X369500Y354953D02*
D03*
Y349047D02*
D03*
X401000Y272047D02*
D03*
Y277953D02*
D03*
X280000Y271047D02*
D03*
Y276953D02*
D03*
X289500Y271047D02*
D03*
Y276953D02*
D03*
X299000Y271047D02*
D03*
Y276953D02*
D03*
X280000Y256547D02*
D03*
Y262453D02*
D03*
X289500Y256547D02*
D03*
Y262453D02*
D03*
X299000Y256547D02*
D03*
Y262453D02*
D03*
X180000Y251047D02*
D03*
X170500Y242453D02*
D03*
X146000Y218453D02*
D03*
Y212547D02*
D03*
X158000Y183453D02*
D03*
Y177547D02*
D03*
X146000Y204953D02*
D03*
Y199047D02*
D03*
X263000Y213953D02*
D03*
Y208047D02*
D03*
X244000Y213953D02*
D03*
Y208047D02*
D03*
X253500Y213953D02*
D03*
Y208047D02*
D03*
X235500Y213953D02*
D03*
Y208047D02*
D03*
X170500Y236547D02*
D03*
X180000Y256953D02*
D03*
X157500Y355453D02*
D03*
Y349547D02*
D03*
D26*
X333500Y348244D02*
D03*
Y353756D02*
D03*
X140000Y271756D02*
D03*
Y266244D02*
D03*
X149000Y271756D02*
D03*
Y266244D02*
D03*
X130500Y271756D02*
D03*
Y266244D02*
D03*
X167000Y337256D02*
D03*
Y331744D02*
D03*
X396000Y303744D02*
D03*
Y309256D02*
D03*
X386500Y303744D02*
D03*
Y309256D02*
D03*
X377000Y303744D02*
D03*
Y309256D02*
D03*
X407500Y235256D02*
D03*
Y229744D02*
D03*
X398000Y235256D02*
D03*
Y229744D02*
D03*
X388500Y235256D02*
D03*
Y229744D02*
D03*
X180000Y242256D02*
D03*
X170500Y251244D02*
D03*
Y256756D02*
D03*
X180000Y236744D02*
D03*
D27*
X304547Y337000D02*
D03*
X310453D02*
D03*
X263547Y241000D02*
D03*
X269453D02*
D03*
X254547Y315500D02*
D03*
X260453D02*
D03*
X138953Y242500D02*
D03*
X133047D02*
D03*
X384453Y363000D02*
D03*
X378547D02*
D03*
X395547Y335500D02*
D03*
X401453D02*
D03*
X424547Y190000D02*
D03*
X430453D02*
D03*
X424547Y182000D02*
D03*
X430453D02*
D03*
X424547Y174000D02*
D03*
X430453D02*
D03*
X429953Y164000D02*
D03*
X424047D02*
D03*
X429953Y156000D02*
D03*
X424047D02*
D03*
X429953Y148000D02*
D03*
X424047D02*
D03*
X239253Y310500D02*
D03*
X233347D02*
D03*
X310453Y328500D02*
D03*
X304547D02*
D03*
X290547Y337000D02*
D03*
X296453D02*
D03*
X158047Y192500D02*
D03*
X163953D02*
D03*
X133047Y251500D02*
D03*
X138953D02*
D03*
D28*
X263756Y276500D02*
D03*
X258244D02*
D03*
X269256Y250500D02*
D03*
X263744D02*
D03*
X248044Y333500D02*
D03*
X253556D02*
D03*
X248044Y324500D02*
D03*
X253556D02*
D03*
X396244Y363000D02*
D03*
X401756D02*
D03*
X369756Y363000D02*
D03*
X364244D02*
D03*
D29*
X199300Y337933D02*
D03*
Y317067D02*
D03*
X236000Y274433D02*
D03*
Y253567D02*
D03*
D30*
X103544Y263976D02*
D03*
Y227756D02*
D03*
D31*
X111418D02*
D03*
Y263976D02*
D03*
D32*
X102756Y245866D02*
D03*
D33*
X116733Y254724D02*
D03*
Y237008D02*
D03*
D34*
X117323Y250984D02*
D03*
Y243307D02*
D03*
Y240748D02*
D03*
Y248425D02*
D03*
Y245866D02*
D03*
D35*
X359500Y353906D02*
D03*
Y342094D02*
D03*
D36*
X262760Y221972D02*
D03*
X270240D02*
D03*
X266500Y231028D02*
D03*
D37*
X349224Y347500D02*
D03*
X347650D02*
D03*
X346075D02*
D03*
X349224Y359311D02*
D03*
X347650D02*
D03*
X346075D02*
D03*
X344500D02*
D03*
X342925D02*
D03*
X341350D02*
D03*
X339776D02*
D03*
Y347500D02*
D03*
X341350D02*
D03*
X342925D02*
D03*
X344500D02*
D03*
D38*
X279222Y361547D02*
D03*
Y352453D02*
D03*
X304272D02*
D03*
Y361547D02*
D03*
D39*
X287510Y364500D02*
D03*
Y359500D02*
D03*
Y354500D02*
D03*
Y349500D02*
D03*
X295984D02*
D03*
Y354500D02*
D03*
Y359500D02*
D03*
Y364500D02*
D03*
D40*
X265994Y349500D02*
D03*
Y354500D02*
D03*
Y359500D02*
D03*
Y364500D02*
D03*
X317500D02*
D03*
Y359500D02*
D03*
Y354500D02*
D03*
Y349500D02*
D03*
D41*
X274541Y334403D02*
D03*
Y336963D02*
D03*
Y339522D02*
D03*
X283203D02*
D03*
Y336963D02*
D03*
Y334403D02*
D03*
X326831Y339865D02*
D03*
Y337306D02*
D03*
Y334747D02*
D03*
X318169D02*
D03*
Y337306D02*
D03*
Y339865D02*
D03*
D42*
X322779Y270457D02*
D03*
Y267898D02*
D03*
Y265339D02*
D03*
Y262779D02*
D03*
Y260221D02*
D03*
Y257661D02*
D03*
Y255102D02*
D03*
Y252543D02*
D03*
X345220Y270457D02*
D03*
Y267898D02*
D03*
Y265339D02*
D03*
Y262779D02*
D03*
Y260221D02*
D03*
Y257661D02*
D03*
Y255102D02*
D03*
Y252543D02*
D03*
D43*
X344500Y353405D02*
D03*
D44*
X385000Y350500D02*
D03*
D45*
X391299Y352862D02*
D03*
X378701D02*
D03*
D46*
X391299Y349811D02*
D03*
Y347449D02*
D03*
X378701Y349811D02*
D03*
Y347449D02*
D03*
D47*
X155441Y208831D02*
D03*
X158000D02*
D03*
X160559D02*
D03*
Y200169D02*
D03*
X158000D02*
D03*
X155441D02*
D03*
D48*
X153295Y304555D02*
D03*
Y295500D02*
D03*
Y286445D02*
D03*
D49*
X177705Y295500D02*
D03*
D75*
X423000Y279000D02*
D03*
Y310000D02*
D03*
X422800Y371500D02*
D03*
D83*
X107284Y259252D02*
D03*
Y232480D02*
D03*
D88*
X299000Y279000D02*
X300500D01*
X281500D02*
X299000D01*
X345000Y273000D02*
X370000D01*
X456100Y220500D02*
Y237613D01*
X381000Y237000D02*
X407000D01*
X263000Y206000D02*
X337500D01*
X219500D02*
X263000D01*
X368500Y237000D02*
X381000D01*
X337500Y206000D02*
X368500Y237000D01*
X213500Y212000D02*
X219500Y206000D01*
X213500Y212000D02*
Y241000D01*
X456000Y240500D02*
Y243500D01*
X448000Y251500D02*
X456000Y243500D01*
X408500Y251500D02*
X448000D01*
X396000Y301500D02*
X411500D01*
X381000Y237000D02*
Y262000D01*
X370000Y273000D02*
X381000Y262000D01*
X305500Y284000D02*
X339899D01*
X300500Y279000D02*
X305500Y284000D01*
X339899D02*
X345000Y278900D01*
X386500Y301500D02*
X396000D01*
X411500D02*
X413000Y300000D01*
X377000Y301500D02*
X386500D01*
X372000D02*
X377000D01*
X413000Y300000D02*
X422990D01*
X400500Y258000D02*
X407000Y251500D01*
X400500Y258000D02*
Y270000D01*
X407000Y250000D02*
Y251500D01*
Y237000D02*
Y250000D01*
Y251500D02*
X408500D01*
X345000Y273000D02*
Y278900D01*
X213500Y242500D02*
Y262000D01*
X177847Y295000D02*
X185000D01*
X177705Y295142D02*
X177847Y295000D01*
X177705Y295142D02*
Y295500D01*
X395443Y137175D02*
X397000D01*
X437175D01*
X397000D02*
Y144899D01*
X446000Y146000D02*
Y150500D01*
X437175Y137175D02*
X446000Y146000D01*
X351500Y151000D02*
X390899D01*
X346500Y146000D02*
X351500Y151000D01*
X346500Y137752D02*
Y146000D01*
Y137752D02*
X347244Y137008D01*
X390899Y151000D02*
X397000Y144899D01*
X456000Y237713D02*
X456100Y237613D01*
X456000Y237713D02*
Y240500D01*
X446000Y150500D02*
Y160500D01*
D89*
X415000Y379500D02*
X423000Y371500D01*
X214500Y379500D02*
X214500Y379500D01*
X207500Y372500D02*
X214500Y379500D01*
X207500Y363726D02*
Y372500D01*
Y359226D02*
Y363726D01*
X164500Y379500D02*
X214500D01*
X157500Y372500D02*
X164500Y379500D01*
X470250Y270250D02*
X480695Y259805D01*
X460500Y280000D02*
X470250Y270250D01*
X455000Y280000D02*
X460500D01*
X445000D02*
X455000D01*
X435000D02*
X445000D01*
X433500D02*
X435000D01*
X131496Y157283D02*
X153149Y135630D01*
X160000D02*
X181890D01*
X153149D02*
X160000D01*
X113000Y200000D02*
Y227000D01*
Y175779D02*
Y200000D01*
Y175779D02*
X131496Y157283D01*
X423500Y280000D02*
X433500D01*
X214500Y379500D02*
X415000Y379500D01*
X480695Y247060D02*
Y259805D01*
Y247060D02*
X481890Y245866D01*
X113000Y227000D02*
Y227000D01*
X157500Y359000D02*
Y372500D01*
X405000Y351500D02*
X423000D01*
X398500D02*
X405000D01*
D90*
X208500Y363726D02*
Y365500D01*
Y361492D02*
Y363726D01*
Y359226D02*
Y361492D01*
X359000Y353906D02*
X364000D01*
X346638Y354362D02*
X347094Y353906D01*
X369500Y355573D02*
X373073D01*
X265994Y364500D02*
X266500D01*
X241000D02*
X265994D01*
X288004Y357000D02*
Y364500D01*
Y349500D02*
Y357000D01*
X274000D02*
X288004D01*
X261500Y354500D02*
X265994D01*
X268000Y334000D02*
Y342000D01*
Y315500D02*
Y334000D01*
Y314500D02*
Y315500D01*
X124500Y272500D02*
X130500D01*
X178500D01*
X266000Y344000D02*
X268000Y342000D01*
Y307118D02*
Y314500D01*
X255882Y295000D02*
X268000Y307118D01*
X213500Y241000D02*
X262547D01*
X364244Y355573D02*
X369500D01*
X347094Y353906D02*
X359000D01*
X334287Y354500D02*
X346500D01*
X347094Y353906D02*
X347287Y353713D01*
X346500Y354500D02*
X346638Y354362D01*
X114000Y264000D02*
X115965D01*
X116733Y263233D01*
X167000Y329000D02*
Y330000D01*
X167000Y330000D02*
X167000Y330000D01*
X167000Y330000D02*
Y331744D01*
X188000Y303000D02*
X206500D01*
X178000Y313000D02*
X188000Y303000D01*
X178000Y313000D02*
Y337433D01*
X206500Y303000D02*
X208000Y301500D01*
X177500Y337933D02*
X199300D01*
X157933D02*
X177500D01*
X263756Y276697D02*
Y283244D01*
X177500Y337933D02*
X178000Y337433D01*
X208000Y287500D02*
X259500D01*
X178500Y272500D02*
X201000Y295000D01*
X255882D01*
X259500Y287500D02*
X263756Y283244D01*
X157500Y337933D02*
X157933D01*
X130500Y310500D02*
X157933Y337933D01*
X130500Y302000D02*
Y310500D01*
X157500Y337933D02*
Y349547D01*
X205853Y374147D02*
X207500Y372500D01*
X142500Y301000D02*
X145327Y303827D01*
X152567D01*
X153295Y304555D01*
X130500Y272500D02*
Y280047D01*
X130500Y288342D02*
X132398Y286445D01*
X130500Y288342D02*
Y293500D01*
X132398Y286445D02*
X153295D01*
Y295500D02*
X177705D01*
X240500Y364000D02*
X241000Y364500D01*
X198500Y338733D02*
X199300Y337933D01*
X264000Y269000D02*
Y276256D01*
X258000Y242500D02*
Y255500D01*
X260500Y258000D01*
X202367Y341000D02*
X223800D01*
X295984Y357000D02*
X310000D01*
X295984Y359500D02*
Y364500D01*
Y349500D02*
Y354500D01*
Y357000D02*
Y359500D01*
Y354500D02*
Y357000D01*
X403743Y335772D02*
X405500Y337529D01*
X401575Y335772D02*
X403743D01*
X405500Y337529D02*
Y351000D01*
X347287Y353713D02*
X347543Y353457D01*
X359181Y353906D02*
X362577D01*
X364244Y355573D01*
X124500Y227000D02*
Y240500D01*
D91*
X198500Y181000D02*
X345500Y181000D01*
X188500Y191000D02*
X198500Y181000D01*
X188500Y191000D02*
Y234931D01*
X202000Y186000D02*
X343000Y186000D01*
X193500Y194500D02*
X202000Y186000D01*
X193500Y194500D02*
Y237462D01*
X315587Y334441D02*
X321894D01*
X414669Y155831D02*
X424169D01*
X315635Y339865D02*
X318169D01*
X314000Y348000D02*
X315299Y349299D01*
X317299D01*
X317500Y349500D01*
X314000Y341500D02*
Y348000D01*
Y341500D02*
X315635Y339865D01*
X310453Y329306D02*
X315587Y334441D01*
X310453Y328500D02*
Y329306D01*
X283203Y339559D02*
X284500D01*
X281500Y345000D02*
X284500Y342000D01*
X272500Y345000D02*
X281500D01*
X268000Y349500D02*
X272500Y345000D01*
X284500Y339559D02*
Y342000D01*
X265994Y349500D02*
X268000D01*
X265000D02*
X265994D01*
X376500Y212000D02*
X428500D01*
X345500Y181000D02*
X376500Y212000D01*
X374500Y217500D02*
X427000D01*
X343000Y186000D02*
X374500Y217500D01*
X265000Y227000D02*
X266220Y228221D01*
Y230748D01*
X266500Y231028D01*
X258370Y227000D02*
X265000D01*
X258240Y226871D02*
X258370Y227000D01*
X256871Y226871D02*
X258240D01*
X256500Y226500D02*
X256871Y226871D01*
X380500Y176500D02*
X386000Y182000D01*
X410500Y169000D02*
X415500Y164000D01*
X395000Y169000D02*
X410500D01*
X387500Y176500D02*
X395000Y169000D01*
X166047Y242453D02*
X170500D01*
X164500Y244000D02*
X166047Y242453D01*
X164500Y250000D02*
X165744Y251244D01*
X186720Y244327D02*
X193500Y237462D01*
X181236Y242286D02*
X181266Y242256D01*
X188500Y234931D01*
X180000Y242256D02*
X181266D01*
X180000Y251047D02*
X186720Y244327D01*
X180000Y251047D02*
Y251047D01*
X437071Y220500D02*
X446000D01*
X429071Y212500D02*
X437071Y220500D01*
X429000Y212500D02*
X429071D01*
X428500Y212000D02*
X429000Y212500D01*
X427000Y217500D02*
X440000Y230500D01*
X446000D01*
X441000Y195500D02*
X446000Y200500D01*
X392000Y195500D02*
X441000D01*
X361000Y164500D02*
X392000Y195500D01*
X171047Y164500D02*
X361000D01*
X158000Y177547D02*
X171047Y164500D01*
X318169Y339865D02*
X321328D01*
X315894Y334747D02*
X318169D01*
X322500Y337306D02*
Y338694D01*
Y335919D02*
Y337306D01*
X326831D01*
X321328Y334747D02*
X322500Y335919D01*
X318169Y334747D02*
X321328D01*
Y339865D02*
X322500Y338694D01*
X168559Y235000D02*
X170106Y236547D01*
X170500D01*
X153000Y235000D02*
X168559D01*
X179803Y242453D02*
X180000Y242256D01*
X170500Y242453D02*
X179803D01*
X179803Y251244D02*
X180000Y251047D01*
X170500Y251244D02*
X179803D01*
X165744D02*
X170500D01*
X451000Y215500D02*
Y235500D01*
X446000Y240500D02*
X451000Y235500D01*
X386000Y182000D02*
X424547D01*
X415500Y164000D02*
X424047D01*
X393000Y164000D02*
X406500D01*
X398500Y153000D02*
X408500Y143000D01*
X398500Y153000D02*
Y158000D01*
X400500Y174000D02*
X424547D01*
X424547Y174000D01*
X394500Y190000D02*
X424547D01*
X406500Y164000D02*
X414669Y155831D01*
X405000Y154000D02*
Y158000D01*
X411000Y148000D02*
X424047D01*
X405000Y154000D02*
X411000Y148000D01*
X408500Y143000D02*
X433000D01*
X436000Y146000D02*
Y160500D01*
X433000Y143000D02*
X436000Y146000D01*
Y160500D02*
X446000Y170500D01*
X430250Y164000D02*
Y164750D01*
Y148000D02*
Y164000D01*
Y164750D02*
X446000Y180500D01*
X430453Y190500D02*
X446000D01*
X430453Y190000D02*
Y190500D01*
Y182000D02*
Y190000D01*
Y174000D02*
Y182000D01*
X451000Y165500D02*
Y215500D01*
X446000Y210500D02*
X451000Y215500D01*
X446000Y160500D02*
X451000Y165500D01*
X457500Y160000D02*
X462000Y155500D01*
Y146500D02*
Y155500D01*
X440500Y125000D02*
X462000Y146500D01*
X378346Y125000D02*
X440500D01*
X371260Y132087D02*
X378346Y125000D01*
X456500Y160000D02*
X457500D01*
X456000Y160500D02*
X456500Y160000D01*
D92*
X422980Y269000D02*
X444000D01*
X415500D02*
X422980D01*
X444000D02*
X466500Y246500D01*
X423000Y327500D02*
Y331500D01*
Y311520D02*
X431020D01*
X396000D02*
X417000D01*
X377000Y311520D02*
X386500D01*
X433500Y280000D02*
Y310490D01*
X423000Y313539D02*
Y327500D01*
X390000D02*
X395000D01*
X367000D02*
X390000D01*
X359000Y335500D02*
Y343500D01*
X417500Y311520D02*
X423000D01*
X392000D02*
X396000D01*
X358000Y311520D02*
X377000D01*
X386500D02*
X392000Y311520D01*
X407500Y227500D02*
X410000D01*
X381000D02*
X407500D01*
X379500Y202000D02*
X408000D01*
X117476Y263976D02*
X170500D01*
X107284D02*
X111418D01*
X209500Y196000D02*
X341500D01*
X204000Y201500D02*
Y257000D01*
X116733Y227267D02*
Y235000D01*
X107284Y227000D02*
X113000D01*
X432471Y311520D02*
X433500Y310490D01*
X404000Y280500D02*
X415500Y269000D01*
X401500Y280500D02*
X404000D01*
X431020Y311520D02*
X432471D01*
X431020Y311500D02*
Y311520D01*
X359000Y335500D02*
X367000Y327500D01*
X419000D02*
X423000Y331500D01*
X395000Y327500D02*
X419000D01*
X408000Y202000D02*
X433000D01*
X348500Y171000D02*
X379500Y202000D01*
X190500Y171000D02*
X348500D01*
X373000Y227500D02*
X381000D01*
X341500Y196000D02*
X373000Y227500D01*
X113000Y227000D02*
X117000D01*
X115965Y264000D02*
X117453D01*
X111441D02*
X114000D01*
X111418Y263976D02*
X111441Y264000D01*
X117453D02*
X117476Y263976D01*
X180500D02*
X197024D01*
X170500D02*
X180500D01*
X197024D02*
X204000Y257000D01*
Y201500D02*
X209500Y196000D01*
X410000Y227500D02*
X424500D01*
X437500Y240500D02*
X446000D01*
X424500Y227500D02*
X437500Y240500D01*
X178500Y227000D02*
Y227000D01*
Y183000D02*
Y227000D01*
Y183000D02*
X190500Y171000D01*
X136500Y227000D02*
X178500D01*
X441500Y210500D02*
X446000D01*
X433000Y202000D02*
X441500Y210500D01*
X124500Y227000D02*
X136500D01*
X117000D02*
X124500D01*
X116733Y257000D02*
Y263233D01*
X117476Y263976D02*
X117500Y264000D01*
X116733Y227267D02*
X117000Y227000D01*
X466500Y215500D02*
Y246500D01*
X461500Y210500D02*
X466500Y215500D01*
X456600Y210500D02*
X461500D01*
D93*
X364102Y267898D02*
X369000Y263000D01*
X347220Y267898D02*
X364102D01*
X358661Y265339D02*
X363000Y261000D01*
X347220Y265339D02*
X358661D01*
X354720Y262779D02*
X363000Y254500D01*
X347220Y262779D02*
X354720D01*
X243679Y351179D02*
X248026D01*
X314000Y276500D02*
X316723D01*
X313500Y270000D02*
X316500D01*
X318602Y267898D01*
X322779D01*
X316723Y276500D02*
X322766Y270457D01*
X388500Y245500D02*
Y275500D01*
X382000Y282000D02*
X388500Y275500D01*
X361000Y282000D02*
X382000D01*
X386000Y285500D02*
X393000Y278500D01*
X363000Y285500D02*
X386000D01*
X351500Y297000D02*
X363000Y285500D01*
X351500Y297000D02*
Y339000D01*
X347650Y295350D02*
X361000Y282000D01*
X347650Y295350D02*
Y338650D01*
X344000Y291000D02*
Y339000D01*
Y291000D02*
X353000Y282000D01*
X263500Y323500D02*
Y340000D01*
X260300Y320300D02*
X263500Y323500D01*
X257500Y340000D02*
X261000Y336500D01*
Y331000D02*
Y336500D01*
X253453Y357453D02*
X256000D01*
X251500Y355500D02*
X253453Y357453D01*
X253500Y344000D02*
X259500D01*
X251500Y346000D02*
X253500Y344000D01*
X251500Y346000D02*
Y355500D01*
X247000Y344653D02*
X247847Y345500D01*
X241864Y335000D02*
Y338364D01*
X247000Y343500D02*
Y344653D01*
X241864Y338364D02*
X247000Y343500D01*
X243000Y350500D02*
X243679Y351179D01*
X243000Y344200D02*
Y350500D01*
X238044Y339244D02*
X243000Y344200D01*
X259500Y344000D02*
X263500Y340000D01*
X393000Y250000D02*
Y278500D01*
X337500Y256000D02*
X340991Y252509D01*
X337500Y256000D02*
Y275000D01*
X307953Y262453D02*
X310839Y265339D01*
X299000Y262453D02*
X307953D01*
X310839Y265339D02*
X322779D01*
X322766Y270457D02*
X322779D01*
X347323Y255000D02*
X353500D01*
X312779Y262779D02*
X322779D01*
X286000Y236000D02*
X312779Y262779D01*
X254500Y236000D02*
X286000D01*
X291000Y224000D02*
Y228000D01*
X286000Y227000D02*
X316661Y257661D01*
X286000Y222500D02*
Y227000D01*
X314721Y260221D02*
X322779D01*
X279500Y225000D02*
X314721Y260221D01*
X291000Y228000D02*
X318102Y255102D01*
X331385Y252543D02*
X332928Y251000D01*
X322779Y252543D02*
X331385D01*
X332928Y251000D02*
X333000D01*
X316661Y257661D02*
X322779D01*
X318102Y255102D02*
X322779D01*
X262760Y214193D02*
Y221972D01*
X235500Y216500D02*
X235500Y216500D01*
Y213953D02*
Y216500D01*
X235500Y217000D02*
X254500Y236000D01*
X235500Y216500D02*
Y217000D01*
X277453Y213953D02*
X286000Y222500D01*
X263000Y213953D02*
X277453D01*
X262760Y214193D02*
X263000Y213953D01*
X248000Y305500D02*
X249000Y304500D01*
X230000Y305500D02*
X248000D01*
X228202Y307298D02*
X230000Y305500D01*
X229000Y301000D02*
X241000D01*
X219500Y310500D02*
X229000Y301000D01*
X219500Y310500D02*
Y315500D01*
X228202Y307298D02*
Y322402D01*
X226233Y318233D02*
Y322402D01*
X224000Y316000D02*
X226233Y318233D01*
X224000Y312500D02*
Y316000D01*
X219500Y315500D02*
X224265Y320265D01*
Y322402D01*
X340991Y252509D02*
X345186D01*
X255000Y267905D02*
Y267953D01*
X253547Y266453D02*
X255000Y267905D01*
X253547Y266453D02*
X259276D01*
X216300Y305200D02*
X219000Y302500D01*
X216300Y305200D02*
Y321500D01*
X345186Y252509D02*
X345220Y252543D01*
X284500Y328500D02*
X305047D01*
X277500Y321500D02*
X284500Y328500D01*
X277500Y310000D02*
Y321500D01*
X253000Y310000D02*
X260500D01*
X248500Y314500D02*
X253000Y310000D01*
X240000Y314500D02*
X248500D01*
X252547Y317500D02*
X254547Y315500D01*
X241882Y317500D02*
X252547D01*
X259095Y329095D02*
X261000Y331000D01*
X240800Y329095D02*
X259095D01*
X236076Y318424D02*
X240000Y314500D01*
X236076Y318424D02*
Y322402D01*
X238044Y321338D02*
X241882Y317500D01*
X245000Y320300D02*
X260300D01*
X238044Y321338D02*
Y322402D01*
Y337756D02*
Y339244D01*
X236085Y337765D02*
Y340785D01*
X240800Y345500D01*
Y357953D01*
X234107Y337756D02*
Y342307D01*
X238300Y346500D01*
Y356453D01*
X231526Y356179D02*
X233574D01*
X232139Y337756D02*
Y343839D01*
X235800Y347500D01*
Y353953D01*
X233574Y356179D02*
X235800Y353953D01*
X229363Y365390D02*
X238300Y356453D01*
X221422Y365390D02*
X229363D01*
X230253Y368500D02*
X240800Y357953D01*
X217800Y368500D02*
X230253D01*
X243332Y333032D02*
X244526Y334226D01*
Y336226D01*
X247800Y339500D01*
X255109Y260609D02*
Y261109D01*
X255000Y260500D02*
X255109Y260609D01*
Y261109D02*
X256516Y262516D01*
X259276D01*
Y260547D02*
X259285Y260538D01*
X262481D01*
X262688Y260332D02*
X263000D01*
X263016Y258776D02*
Y260003D01*
X262481Y260538D02*
X262688Y260332D01*
X263016Y260003D01*
X253500Y260500D02*
X255000D01*
X216300Y367000D02*
X217800Y368500D01*
X216300Y365500D02*
Y367000D01*
X240800Y331063D02*
X245607D01*
X246872Y332328D01*
X247069D01*
X248044Y333303D01*
Y333500D01*
X240800Y327126D02*
X245418D01*
X246872Y325672D01*
X247069D01*
X248044Y324697D01*
Y324500D02*
Y324697D01*
X240800Y333032D02*
X243332D01*
X240800Y335000D02*
X241864D01*
X236076Y337756D02*
X236085Y337765D01*
X247800Y339500D02*
X250800D01*
X240819Y325176D02*
X243800D01*
Y321500D02*
Y325176D01*
Y321500D02*
X245000Y320300D01*
X218957Y325157D02*
X221509D01*
X216297Y322497D02*
X218957Y325157D01*
X216297Y321503D02*
Y322497D01*
Y321503D02*
X216300Y321500D01*
D94*
X299000Y276953D02*
Y279000D01*
X289500Y262453D02*
Y271047D01*
Y256547D02*
X299000D01*
X231800Y348547D02*
Y351274D01*
X268256Y265484D02*
X269000D01*
X408500Y251500D02*
X409047Y252047D01*
X359000Y353906D02*
X359181D01*
X358000D02*
X359000D01*
X359181D02*
X360228Y354953D01*
X395000Y327500D02*
X395547Y328047D01*
X317500Y354500D02*
X328500D01*
X221335Y332035D02*
Y333205D01*
X219540Y335000D02*
X221335Y333205D01*
X300000Y337000D02*
X300000Y337000D01*
X296453Y337000D02*
X300000D01*
X296453Y337000D02*
X296453Y337000D01*
X258047Y349500D02*
X265000D01*
X265994Y359500D02*
X267000D01*
X258047D02*
X265994D01*
X268000Y315500D02*
X269000D01*
X260453D02*
X268000D01*
X256000Y351547D02*
X258047Y349500D01*
X268000Y314500D02*
X269000Y315500D01*
X256000Y357453D02*
X258047Y359500D01*
X247000Y352205D02*
Y353500D01*
X407000Y250000D02*
X408500Y251500D01*
X280000Y266750D02*
Y271047D01*
Y262453D02*
Y266750D01*
X299000Y262453D02*
Y271047D01*
X280000Y256547D02*
X289500D01*
X246500Y248500D02*
Y258500D01*
X253500Y217000D02*
X253500Y217000D01*
Y213953D02*
Y217000D01*
X244000Y216500D02*
X244000Y216500D01*
Y213953D02*
Y216500D01*
X246500Y269000D02*
Y280000D01*
X327746Y365000D02*
X328000D01*
X327246Y364500D02*
X327746Y365000D01*
X317500Y364500D02*
X327246D01*
X170500Y263976D02*
X170500Y263976D01*
X231800Y348468D02*
Y348547D01*
X231800Y348547D02*
X231800Y348547D01*
X263756Y276500D02*
X264000Y276256D01*
X263756Y276697D02*
X263831Y276772D01*
X263756Y276500D02*
Y276697D01*
X221335Y333205D02*
Y334827D01*
Y333205D02*
X221509Y333032D01*
X218800Y335000D02*
X219540D01*
X261500Y259000D02*
Y259500D01*
X229200Y337558D02*
Y342600D01*
X222300Y349500D02*
Y362000D01*
Y349500D02*
X229200Y342600D01*
X233100Y311500D02*
Y322650D01*
X221335Y334827D02*
X221509Y335000D01*
X221300Y332000D02*
X221335Y332035D01*
X199300Y317067D02*
X204690Y322457D01*
X208757D01*
X214300Y328000D01*
X221771D01*
X178000Y229500D02*
X180000Y231500D01*
X136500Y204000D02*
Y227000D01*
X317500Y359500D02*
X322000D01*
X180000Y263476D02*
X180500Y263976D01*
X180000Y256953D02*
Y263476D01*
X170500Y256756D02*
Y263976D01*
X180000Y231500D02*
Y236744D01*
X136500Y204000D02*
X141453Y199047D01*
X146000D01*
X155403Y208868D02*
X157500D01*
X153632D02*
X155403D01*
X150000Y212500D02*
X153632Y208868D01*
X146047Y212500D02*
X150000D01*
X146000Y204953D02*
Y212547D01*
X146047Y212500D01*
X155403Y208868D02*
X155441Y208831D01*
X395547Y328047D02*
Y335500D01*
X405000Y351500D02*
X405500Y351000D01*
X374152Y363000D02*
X378547D01*
X377210Y352862D02*
X378701D01*
X373073Y355573D02*
X377210Y352862D01*
X364244Y355573D02*
Y363000D01*
X412000Y361500D02*
X423000D01*
X404500Y369000D02*
X412000Y361500D01*
X377000Y369000D02*
X404500D01*
X374152Y366152D02*
X377000Y369000D01*
X374152Y363000D02*
Y366152D01*
X369756Y363000D02*
X374152D01*
X398500Y351500D02*
X401756Y354756D01*
Y363000D01*
X397138Y352862D02*
X398500Y351500D01*
X391299Y352862D02*
X397138D01*
X384453Y363000D02*
X396244D01*
X396244Y363000D01*
D95*
X259276Y264484D02*
X264984D01*
Y258776D02*
Y264484D01*
X264000Y250500D02*
Y254000D01*
X330059Y341559D02*
Y352941D01*
X328365Y339865D02*
X330059Y341559D01*
X326831Y339865D02*
X328365D01*
X328500Y354500D02*
X330059Y352941D01*
X328500Y331500D02*
Y334500D01*
X310453Y337000D02*
X310759Y337306D01*
X318169D01*
X307500Y334047D02*
X310453Y337000D01*
X307500Y326000D02*
Y334047D01*
Y326000D02*
X309500Y324000D01*
X321000D01*
X287951Y334403D02*
X290547Y337000D01*
X283203Y334403D02*
X287951D01*
X268404D02*
X268441Y334441D01*
X268375Y341453D02*
X268404Y341597D01*
X270441Y339559D01*
X268000Y334000D02*
X268404Y334403D01*
X280500Y337000D02*
X283165D01*
X278000Y339500D02*
X280500Y337000D01*
X274563Y339500D02*
X278000D01*
X279559Y334441D02*
X283165D01*
X277000Y337000D02*
X279559Y334441D01*
X274579Y337000D02*
X277000D01*
X274541Y339522D02*
X274563Y339500D01*
X283165Y337000D02*
X283203Y336963D01*
X274541D02*
X274579Y337000D01*
X283165Y334441D02*
X283203Y334403D01*
X274504Y339559D02*
X274541Y339522D01*
X270441Y339559D02*
X274504D01*
X268404Y334403D02*
X274541D01*
X264000Y254000D02*
X264984Y254984D01*
Y258776D01*
X270500Y262544D02*
X271956D01*
X273500Y261000D01*
Y244000D02*
Y261000D01*
X271500Y242000D02*
X273500Y244000D01*
X269648Y260444D02*
X270081D01*
Y251522D02*
Y260444D01*
X258000Y264484D02*
X259276D01*
X264984D02*
Y264500D01*
Y264484D02*
X268724D01*
X269256Y250500D02*
Y250697D01*
X270081Y251522D01*
X269453Y242000D02*
X269453Y242000D01*
X271500D01*
X253556Y324500D02*
X256800D01*
X256800Y324500D01*
X256800Y333500D02*
X256800Y333500D01*
X253556Y333500D02*
X256800D01*
X163000Y214500D02*
X163500D01*
X321000Y324000D02*
X328500Y331500D01*
X325403Y334710D02*
X326793D01*
X326831Y334747D01*
X166500Y192500D02*
X166500Y192500D01*
X163953Y192500D02*
X166500D01*
X160559Y212059D02*
X163000Y214500D01*
X160559Y208831D02*
Y212059D01*
X146081Y196298D02*
X146879Y195500D01*
X146081Y196298D02*
Y198967D01*
X146000Y199047D02*
X146081Y198967D01*
X146879Y195500D02*
X153500D01*
X155403Y197404D01*
Y200132D01*
X155441Y200169D01*
X164000Y192547D02*
Y195000D01*
X163953Y192500D02*
X164000Y192547D01*
X160597Y198404D02*
X164000Y195000D01*
X160597Y198404D02*
Y200132D01*
X160559Y200169D02*
X160597Y200132D01*
X158000Y184047D02*
Y200169D01*
Y184047D02*
X158047Y184000D01*
X373500Y349000D02*
X374311Y349811D01*
X369547Y349000D02*
X373500D01*
X369500Y349047D02*
X369547Y349000D01*
X374311Y349811D02*
X378701D01*
X391299D02*
X394868D01*
X397500Y343000D02*
X398500D01*
X393051Y347449D02*
X397500Y343000D01*
X391299Y347449D02*
X393051D01*
X124252Y240748D02*
X124500Y240500D01*
X117323Y240748D02*
X124252D01*
X122484Y250984D02*
X124500Y253000D01*
X117323Y250984D02*
X122484D01*
X129681Y245866D02*
X132026Y243522D01*
X129972Y248425D02*
X132026Y250478D01*
X117323Y248425D02*
X129972D01*
X132026Y250478D02*
X132419D01*
X133047Y251106D01*
Y251500D01*
X117323Y245866D02*
X129681D01*
X132026Y243522D02*
X132419D01*
X133047Y242894D01*
Y242500D02*
Y242894D01*
D96*
X340043Y347327D02*
Y351628D01*
D97*
X422980Y269000D02*
D03*
Y300000D02*
D03*
X422800Y331500D02*
D03*
Y341500D02*
D03*
Y351500D02*
D03*
Y361500D02*
D03*
D98*
X446000Y220500D02*
D03*
Y230500D02*
D03*
X456000Y150500D02*
D03*
Y160500D02*
D03*
Y170500D02*
D03*
Y180500D02*
D03*
Y190500D02*
D03*
Y200500D02*
D03*
Y210500D02*
D03*
Y220500D02*
D03*
Y230500D02*
D03*
Y240500D02*
D03*
X446000Y150500D02*
D03*
Y160500D02*
D03*
Y170500D02*
D03*
Y180500D02*
D03*
Y190500D02*
D03*
Y200500D02*
D03*
Y210500D02*
D03*
Y240500D02*
D03*
D99*
X387008Y132087D02*
D03*
X371260D02*
D03*
X355512D02*
D03*
X387008Y141929D02*
D03*
X371260D02*
D03*
X355512D02*
D03*
X395275Y137008D02*
D03*
X347244D02*
D03*
D100*
X131496Y334449D02*
D03*
X181890Y356102D02*
D03*
X131496Y157283D02*
D03*
X181890Y135630D02*
D03*
D101*
X481890Y245866D02*
D03*
D102*
X166500Y281000D02*
D03*
X485000Y380000D02*
D03*
X480000Y370000D02*
D03*
X485000Y360000D02*
D03*
X480000Y350000D02*
D03*
X485000Y340000D02*
D03*
X480000Y330000D02*
D03*
X485000Y320000D02*
D03*
X480000Y310000D02*
D03*
X485000Y300000D02*
D03*
X480000Y290000D02*
D03*
X485000Y280000D02*
D03*
X480000Y270000D02*
D03*
Y230000D02*
D03*
X485000Y220000D02*
D03*
X480000Y210000D02*
D03*
X485000Y200000D02*
D03*
X480000Y190000D02*
D03*
X485000Y180000D02*
D03*
X480000Y170000D02*
D03*
X485000Y160000D02*
D03*
X480000Y150000D02*
D03*
X485000Y140000D02*
D03*
X480000Y130000D02*
D03*
X485000Y120000D02*
D03*
X480000Y110000D02*
D03*
X475000Y380000D02*
D03*
X470000Y370000D02*
D03*
X475000Y360000D02*
D03*
X470000Y350000D02*
D03*
X475000Y340000D02*
D03*
X470000Y330000D02*
D03*
X475000Y320000D02*
D03*
X470000Y310000D02*
D03*
X475000Y300000D02*
D03*
X470000Y290000D02*
D03*
X475000Y280000D02*
D03*
X470000Y270000D02*
D03*
X475000Y260000D02*
D03*
Y200000D02*
D03*
X470000Y190000D02*
D03*
X475000Y180000D02*
D03*
X470000Y170000D02*
D03*
X475000Y160000D02*
D03*
X470000Y150000D02*
D03*
X475000Y140000D02*
D03*
X470000Y130000D02*
D03*
X475000Y120000D02*
D03*
X470000Y110000D02*
D03*
X465000Y380000D02*
D03*
X460000Y370000D02*
D03*
X465000Y360000D02*
D03*
X460000Y350000D02*
D03*
X465000Y340000D02*
D03*
X460000Y330000D02*
D03*
X465000Y320000D02*
D03*
X460000Y310000D02*
D03*
X465000Y300000D02*
D03*
X460000Y290000D02*
D03*
X465000Y280000D02*
D03*
X460000Y270000D02*
D03*
Y130000D02*
D03*
X465000Y120000D02*
D03*
X460000Y110000D02*
D03*
X455000Y380000D02*
D03*
X450000Y370000D02*
D03*
X455000Y360000D02*
D03*
X450000Y350000D02*
D03*
X455000Y340000D02*
D03*
X450000Y330000D02*
D03*
X455000Y320000D02*
D03*
X450000Y310000D02*
D03*
X455000Y300000D02*
D03*
X450000Y290000D02*
D03*
X455000Y280000D02*
D03*
Y120000D02*
D03*
X450000Y110000D02*
D03*
X445000Y380000D02*
D03*
X440000Y370000D02*
D03*
X445000Y360000D02*
D03*
X440000Y350000D02*
D03*
X445000Y340000D02*
D03*
X440000Y330000D02*
D03*
X445000Y320000D02*
D03*
X440000Y310000D02*
D03*
X445000Y300000D02*
D03*
X440000Y290000D02*
D03*
X445000Y280000D02*
D03*
X440000Y110000D02*
D03*
X435000Y340000D02*
D03*
Y320000D02*
D03*
Y300000D02*
D03*
X430000Y290000D02*
D03*
X435000Y280000D02*
D03*
X430000Y110000D02*
D03*
X425000Y320000D02*
D03*
X420000Y290000D02*
D03*
X425000Y240000D02*
D03*
X420000Y110000D02*
D03*
X415000Y320000D02*
D03*
X410000Y290000D02*
D03*
Y110000D02*
D03*
X405000Y320000D02*
D03*
X390000Y330000D02*
D03*
X395000Y320000D02*
D03*
X385000Y340000D02*
D03*
X380000Y330000D02*
D03*
X385000Y320000D02*
D03*
Y160000D02*
D03*
X375000Y340000D02*
D03*
X370000Y330000D02*
D03*
X375000Y160000D02*
D03*
X345000Y240000D02*
D03*
X340000Y150000D02*
D03*
Y130000D02*
D03*
X330000Y310000D02*
D03*
X335000Y300000D02*
D03*
Y240000D02*
D03*
X330000Y230000D02*
D03*
Y150000D02*
D03*
X335000Y140000D02*
D03*
X330000Y130000D02*
D03*
X335000Y120000D02*
D03*
X330000Y110000D02*
D03*
X320000Y310000D02*
D03*
X325000Y300000D02*
D03*
Y240000D02*
D03*
X320000Y230000D02*
D03*
X325000Y220000D02*
D03*
X320000Y150000D02*
D03*
X325000Y140000D02*
D03*
X320000Y130000D02*
D03*
X325000Y120000D02*
D03*
X320000Y110000D02*
D03*
X315000Y240000D02*
D03*
X310000Y230000D02*
D03*
X315000Y220000D02*
D03*
X310000Y150000D02*
D03*
X315000Y140000D02*
D03*
X310000Y130000D02*
D03*
X315000Y120000D02*
D03*
X310000Y110000D02*
D03*
X305000Y220000D02*
D03*
X300000Y150000D02*
D03*
X305000Y140000D02*
D03*
X300000Y130000D02*
D03*
X305000Y120000D02*
D03*
X300000Y110000D02*
D03*
X295000Y320000D02*
D03*
X290000Y150000D02*
D03*
X295000Y140000D02*
D03*
X290000Y130000D02*
D03*
X295000Y120000D02*
D03*
X290000Y110000D02*
D03*
X280000Y150000D02*
D03*
X285000Y140000D02*
D03*
X280000Y130000D02*
D03*
X285000Y120000D02*
D03*
X280000Y110000D02*
D03*
X270000Y150000D02*
D03*
X275000Y140000D02*
D03*
X270000Y130000D02*
D03*
X275000Y120000D02*
D03*
X270000Y110000D02*
D03*
X260000Y150000D02*
D03*
X265000Y140000D02*
D03*
X260000Y130000D02*
D03*
X265000Y120000D02*
D03*
X260000Y110000D02*
D03*
X250000Y150000D02*
D03*
X255000Y140000D02*
D03*
X250000Y130000D02*
D03*
X255000Y120000D02*
D03*
X250000Y110000D02*
D03*
X240000Y150000D02*
D03*
X245000Y140000D02*
D03*
X240000Y130000D02*
D03*
X245000Y120000D02*
D03*
X240000Y110000D02*
D03*
X230000Y150000D02*
D03*
X235000Y140000D02*
D03*
X230000Y130000D02*
D03*
X235000Y120000D02*
D03*
X230000Y110000D02*
D03*
X220000Y150000D02*
D03*
X225000Y140000D02*
D03*
X220000Y130000D02*
D03*
X225000Y120000D02*
D03*
X220000Y110000D02*
D03*
X210000Y150000D02*
D03*
X215000Y140000D02*
D03*
X210000Y130000D02*
D03*
X215000Y120000D02*
D03*
X210000Y110000D02*
D03*
X200000Y150000D02*
D03*
X205000Y140000D02*
D03*
X200000Y130000D02*
D03*
X205000Y120000D02*
D03*
X200000Y110000D02*
D03*
X195000Y120000D02*
D03*
X190000Y110000D02*
D03*
X180000D02*
D03*
X170000Y310000D02*
D03*
Y150000D02*
D03*
X175000Y120000D02*
D03*
X170000Y110000D02*
D03*
X165000Y320000D02*
D03*
Y160000D02*
D03*
X160000Y150000D02*
D03*
X165000Y140000D02*
D03*
X160000Y130000D02*
D03*
X165000Y120000D02*
D03*
X160000Y110000D02*
D03*
X155000Y320000D02*
D03*
Y220000D02*
D03*
X150000Y190000D02*
D03*
Y170000D02*
D03*
X155000Y160000D02*
D03*
X150000Y150000D02*
D03*
X155000Y140000D02*
D03*
X150000Y130000D02*
D03*
X155000Y120000D02*
D03*
X150000Y110000D02*
D03*
X145000Y380000D02*
D03*
X140000Y370000D02*
D03*
X145000Y360000D02*
D03*
X140000Y350000D02*
D03*
Y190000D02*
D03*
X145000Y180000D02*
D03*
Y140000D02*
D03*
X140000Y130000D02*
D03*
X145000Y120000D02*
D03*
X140000Y110000D02*
D03*
X130000Y210000D02*
D03*
X135000Y200000D02*
D03*
X130000Y190000D02*
D03*
X135000Y180000D02*
D03*
Y140000D02*
D03*
X120000Y310000D02*
D03*
Y290000D02*
D03*
Y210000D02*
D03*
X125000Y200000D02*
D03*
X120000Y190000D02*
D03*
X125000Y180000D02*
D03*
X120000Y170000D02*
D03*
X115000Y340000D02*
D03*
X110000Y330000D02*
D03*
X115000Y320000D02*
D03*
X110000Y310000D02*
D03*
X115000Y300000D02*
D03*
X110000Y290000D02*
D03*
X115000Y280000D02*
D03*
Y220000D02*
D03*
X110000Y210000D02*
D03*
X115000Y200000D02*
D03*
X110000Y190000D02*
D03*
X115000Y180000D02*
D03*
X110000Y170000D02*
D03*
Y150000D02*
D03*
X369000Y263000D02*
D03*
X363000Y261000D02*
D03*
Y254500D02*
D03*
X314000Y276500D02*
D03*
X313500Y270000D02*
D03*
X396000Y302000D02*
D03*
X386500D02*
D03*
X377000D02*
D03*
X359000Y345000D02*
D03*
X358000Y311500D02*
D03*
X353000Y282000D02*
D03*
X346000Y364500D02*
D03*
X338500Y363603D02*
D03*
X337500Y342000D02*
D03*
X300000Y337000D02*
D03*
X266500Y364500D02*
D03*
X261500Y354500D02*
D03*
X266000Y344000D02*
D03*
X247000Y353500D02*
D03*
X388500Y245500D02*
D03*
X393000Y250000D02*
D03*
X271500Y288500D02*
D03*
X408000Y202000D02*
D03*
X380500Y201500D02*
D03*
X201000Y246000D02*
D03*
X333000Y197000D02*
D03*
X337500Y275000D02*
D03*
X280000Y266750D02*
D03*
X289500Y266500D02*
D03*
Y254500D02*
D03*
X353500Y255000D02*
D03*
X333000Y251000D02*
D03*
X114000Y264000D02*
D03*
X167000Y329000D02*
D03*
X113000Y227000D02*
D03*
X291000Y224000D02*
D03*
X279500Y225000D02*
D03*
X256500Y226500D02*
D03*
X253500Y217000D02*
D03*
X235500Y216500D02*
D03*
X244000D02*
D03*
X224000Y312500D02*
D03*
X208000Y301500D02*
D03*
Y287500D02*
D03*
X387500Y176500D02*
D03*
X380500D02*
D03*
X219000Y302500D02*
D03*
X241000Y301000D02*
D03*
X249000Y304500D02*
D03*
X277500Y310000D02*
D03*
X260500D02*
D03*
X257500Y340000D02*
D03*
X185000Y295000D02*
D03*
X213500Y262000D02*
D03*
X142500Y301000D02*
D03*
X240500Y364000D02*
D03*
X231800Y348468D02*
D03*
X207526Y359226D02*
D03*
Y363726D02*
D03*
X124500Y272500D02*
D03*
X218800Y335000D02*
D03*
X256000Y276500D02*
D03*
X264000Y263500D02*
D03*
X223000Y206500D02*
D03*
X256800Y324500D02*
D03*
Y333500D02*
D03*
X250800Y339500D02*
D03*
X241800Y310500D02*
D03*
X223800Y341000D02*
D03*
X381000Y227500D02*
D03*
X410000D02*
D03*
X163500Y214500D02*
D03*
X321000Y349000D02*
D03*
X322000Y359500D02*
D03*
X328000Y365000D02*
D03*
X153000Y235000D02*
D03*
X166500Y192500D02*
D03*
X146000Y220000D02*
D03*
X374152Y363000D02*
D03*
X390000Y363000D02*
D03*
X398500Y343000D02*
D03*
X164500Y244000D02*
D03*
Y250000D02*
D03*
X124500Y240500D02*
D03*
Y253000D02*
D03*
X142000Y251500D02*
D03*
Y242500D02*
D03*
X131000D02*
D03*
Y251500D02*
D03*
X393000Y164000D02*
D03*
X398500Y158000D02*
D03*
X400500Y174000D02*
D03*
X394500Y190000D02*
D03*
X405000Y158000D02*
D03*
D103*
X255000Y267953D02*
D03*
X246500Y280000D02*
D03*
Y258500D02*
D03*
Y269000D02*
D03*
Y248500D02*
D03*
X253500Y260500D02*
D03*
D104*
X229300Y333600D02*
D03*
X233000D02*
D03*
X236600Y326500D02*
D03*
X233000D02*
D03*
X229300D02*
D03*
X225700D02*
D03*
X236600Y330000D02*
D03*
X233000D02*
D03*
X229300D02*
D03*
X225700D02*
D03*
X236500Y333600D02*
D03*
X225700D02*
D03*
M02*
