G04*
G04 #@! TF.GenerationSoftware,Altium Limited,Altium Designer,19.1.8 (144)*
G04*
G04 Layer_Color=65535*
%FSLAX25Y25*%
%MOIN*%
G70*
G01*
G75*
%ADD10C,0.00984*%
%ADD11C,0.01181*%
%ADD12C,0.00984*%
%ADD13C,0.02362*%
%ADD14C,0.01000*%
%ADD15C,0.00787*%
%ADD16C,0.00800*%
%ADD17C,0.00394*%
%ADD18C,0.00591*%
D10*
X221804Y320728D02*
X221066Y321155D01*
Y320302D01*
X221804Y320728D01*
X258095Y269406D02*
X257356Y269832D01*
Y268979D01*
X258095Y269406D01*
X259906Y220988D02*
X259167Y221414D01*
Y220562D01*
X259906Y220988D01*
X284482Y331648D02*
X283744Y332074D01*
Y331221D01*
X284482Y331648D01*
X317874Y342621D02*
X317136Y343047D01*
Y342195D01*
X317874Y342621D01*
X323272Y273311D02*
X322533Y273737D01*
Y272885D01*
X323272Y273311D01*
X352079Y360787D02*
X351341Y361214D01*
Y360361D01*
X352079Y360787D01*
X153177Y199382D02*
X152439Y199808D01*
Y198956D01*
X153177Y199382D01*
X264400Y347354D02*
X288612D01*
X264400Y366646D02*
X288612D01*
X294882D02*
X319094D01*
X294882Y347354D02*
X319094D01*
D11*
X439248Y240362D02*
X438658Y240953D01*
X438067Y240362D01*
X438658Y239772D01*
X439248Y240362D01*
D12*
X261419Y364476D02*
D03*
X322437Y349524D02*
D03*
D13*
X332819Y267602D02*
X332374Y268526D01*
X331375Y268754D01*
X330574Y268115D01*
Y267090D01*
X331375Y266451D01*
X332374Y266679D01*
X332819Y267602D01*
D14*
X391693Y356405D02*
X390905D01*
X391693D01*
X415000Y294936D02*
Y292312D01*
X416312Y291000D01*
X417624Y292312D01*
Y294936D01*
X418936D02*
Y291000D01*
X420904D01*
X421560Y291656D01*
Y294280D01*
X420904Y294936D01*
X418936D01*
X425495Y294280D02*
X424839Y294936D01*
X423527D01*
X422871Y294280D01*
Y291656D01*
X423527Y291000D01*
X424839D01*
X425495Y291656D01*
X415000Y259000D02*
Y262936D01*
X416968D01*
X417624Y262280D01*
Y260968D01*
X416968Y260312D01*
X415000D01*
X416312D02*
X417624Y259000D01*
X418936Y262936D02*
X421560D01*
X420248D01*
Y259000D01*
X425495Y262280D02*
X424839Y262936D01*
X423527D01*
X422871Y262280D01*
Y259656D01*
X423527Y259000D01*
X424839D01*
X425495Y259656D01*
X417624Y288280D02*
X416968Y288936D01*
X415656D01*
X415000Y288280D01*
Y285656D01*
X415656Y285000D01*
X416968D01*
X417624Y285656D01*
Y286968D01*
X416312D01*
X418936Y285000D02*
Y288936D01*
X421560Y285000D01*
Y288936D01*
X422871D02*
Y285000D01*
X424839D01*
X425495Y285656D01*
Y288280D01*
X424839Y288936D01*
X422871D01*
X417624Y318780D02*
X416968Y319436D01*
X415656D01*
X415000Y318780D01*
Y316156D01*
X415656Y315500D01*
X416968D01*
X417624Y316156D01*
Y317468D01*
X416312D01*
X418936Y315500D02*
Y319436D01*
X421560Y315500D01*
Y319436D01*
X422871D02*
Y315500D01*
X424839D01*
X425495Y316156D01*
Y318780D01*
X424839Y319436D01*
X422871D01*
X430000Y330000D02*
Y333936D01*
X432624Y330000D01*
Y333936D01*
X433936D02*
X436560D01*
X435248D01*
Y330000D01*
X440495Y333280D02*
X439839Y333936D01*
X438527D01*
X437872Y333280D01*
Y330656D01*
X438527Y330000D01*
X439839D01*
X440495Y330656D01*
X441807Y331968D02*
X444431D01*
X430000Y339750D02*
Y343686D01*
X432624Y339750D01*
Y343686D01*
X433936D02*
X436560D01*
X435248D01*
Y339750D01*
X440495Y343030D02*
X439839Y343686D01*
X438527D01*
X437872Y343030D01*
Y340406D01*
X438527Y339750D01*
X439839D01*
X440495Y340406D01*
X441807Y341718D02*
X444431D01*
X443119Y343030D02*
Y340406D01*
X430000Y353436D02*
Y349500D01*
X431968D01*
X432624Y350156D01*
Y350812D01*
X431968Y351468D01*
X430000D01*
X431968D01*
X432624Y352124D01*
Y352780D01*
X431968Y353436D01*
X430000D01*
X433936Y349500D02*
Y352124D01*
X435248Y353436D01*
X436560Y352124D01*
Y349500D01*
Y351468D01*
X433936D01*
X437872Y353436D02*
X440495D01*
X439183D01*
Y349500D01*
X441807Y351468D02*
X444431D01*
X432624Y362530D02*
X431968Y363186D01*
X430656D01*
X430000Y362530D01*
Y361874D01*
X430656Y361218D01*
X431968D01*
X432624Y360562D01*
Y359906D01*
X431968Y359250D01*
X430656D01*
X430000Y359906D01*
X433936Y359250D02*
Y363186D01*
X436560Y359250D01*
Y363186D01*
X440495Y362530D02*
X439839Y363186D01*
X438527D01*
X437872Y362530D01*
Y361874D01*
X438527Y361218D01*
X439839D01*
X440495Y360562D01*
Y359906D01*
X439839Y359250D01*
X438527D01*
X437872Y359906D01*
X430000Y372936D02*
Y369000D01*
X431968D01*
X432624Y369656D01*
Y370312D01*
X431968Y370968D01*
X430000D01*
X431968D01*
X432624Y371624D01*
Y372280D01*
X431968Y372936D01*
X430000D01*
X433936Y369000D02*
Y371624D01*
X435248Y372936D01*
X436560Y371624D01*
Y369000D01*
Y370968D01*
X433936D01*
X437872Y372936D02*
X440495D01*
X439183D01*
Y369000D01*
X441807Y370968D02*
X444431D01*
X443119Y372280D02*
Y369656D01*
X466124Y181280D02*
X465468Y181936D01*
X464156D01*
X463500Y181280D01*
Y180624D01*
X464156Y179968D01*
X465468D01*
X466124Y179312D01*
Y178656D01*
X465468Y178000D01*
X464156D01*
X463500Y178656D01*
X467436Y181936D02*
Y178000D01*
X468748Y179312D01*
X470060Y178000D01*
Y181936D01*
X471372Y179968D02*
X473995D01*
X475307Y178000D02*
X476619D01*
X475963D01*
Y181936D01*
X475307Y181280D01*
X478587Y181936D02*
Y178000D01*
X481211D01*
X466124Y191280D02*
X465468Y191936D01*
X464156D01*
X463500Y191280D01*
Y190624D01*
X464156Y189968D01*
X465468D01*
X466124Y189312D01*
Y188656D01*
X465468Y188000D01*
X464156D01*
X463500Y188656D01*
X467436Y191936D02*
Y188000D01*
X468748Y189312D01*
X470060Y188000D01*
Y191936D01*
X471372Y189968D02*
X473995D01*
X475307Y188000D02*
X476619D01*
X475963D01*
Y191936D01*
X475307Y191280D01*
X481211D02*
X480555Y191936D01*
X479243D01*
X478587Y191280D01*
Y188656D01*
X479243Y188000D01*
X480555D01*
X481211Y188656D01*
X466124Y201280D02*
X465468Y201936D01*
X464156D01*
X463500Y201280D01*
Y200624D01*
X464156Y199968D01*
X465468D01*
X466124Y199312D01*
Y198656D01*
X465468Y198000D01*
X464156D01*
X463500Y198656D01*
X467436Y201936D02*
Y198000D01*
X468748Y199312D01*
X470060Y198000D01*
Y201936D01*
X471372Y199968D02*
X473995D01*
X475307Y198000D02*
X476619D01*
X475963D01*
Y201936D01*
X475307Y201280D01*
X478587Y198000D02*
Y201936D01*
X480555D01*
X481211Y201280D01*
Y199968D01*
X480555Y199312D01*
X478587D01*
X479899D02*
X481211Y198000D01*
X466124Y171280D02*
X465468Y171936D01*
X464156D01*
X463500Y171280D01*
Y170624D01*
X464156Y169968D01*
X465468D01*
X466124Y169312D01*
Y168656D01*
X465468Y168000D01*
X464156D01*
X463500Y168656D01*
X467436Y171936D02*
Y168000D01*
X468748Y169312D01*
X470060Y168000D01*
Y171936D01*
X471372Y169968D02*
X473995D01*
X475307Y171280D02*
X475963Y171936D01*
X477275D01*
X477931Y171280D01*
Y168656D01*
X477275Y168000D01*
X475963D01*
X475307Y168656D01*
Y171280D01*
X479243Y168000D02*
Y171936D01*
X481211D01*
X481867Y171280D01*
Y169968D01*
X481211Y169312D01*
X479243D01*
X480555D02*
X481867Y168000D01*
X466124Y161280D02*
X465468Y161936D01*
X464156D01*
X463500Y161280D01*
Y160624D01*
X464156Y159968D01*
X465468D01*
X466124Y159312D01*
Y158656D01*
X465468Y158000D01*
X464156D01*
X463500Y158656D01*
X467436Y161936D02*
Y158000D01*
X468748Y159312D01*
X470060Y158000D01*
Y161936D01*
X471372Y159968D02*
X473995D01*
X475307Y161280D02*
X475963Y161936D01*
X477275D01*
X477931Y161280D01*
Y158656D01*
X477275Y158000D01*
X475963D01*
X475307Y158656D01*
Y161280D01*
X481867D02*
X481211Y161936D01*
X479899D01*
X479243Y161280D01*
Y158656D01*
X479899Y158000D01*
X481211D01*
X481867Y158656D01*
X466124Y151280D02*
X465468Y151936D01*
X464156D01*
X463500Y151280D01*
Y150624D01*
X464156Y149968D01*
X465468D01*
X466124Y149312D01*
Y148656D01*
X465468Y148000D01*
X464156D01*
X463500Y148656D01*
X467436Y151936D02*
Y148000D01*
X468748Y149312D01*
X470060Y148000D01*
Y151936D01*
X471372Y149968D02*
X473995D01*
X475307Y151280D02*
X475963Y151936D01*
X477275D01*
X477931Y151280D01*
Y148656D01*
X477275Y148000D01*
X475963D01*
X475307Y148656D01*
Y151280D01*
X479243Y151936D02*
Y148000D01*
X481867D01*
X469936Y372876D02*
Y374188D01*
Y373532D01*
X466656D01*
X466000Y374188D01*
Y374844D01*
X466656Y375500D01*
X469936Y371564D02*
X466000D01*
Y368940D01*
X469280Y365005D02*
X469936Y365661D01*
Y366973D01*
X469280Y367629D01*
X466656D01*
X466000Y366973D01*
Y365661D01*
X466656Y365005D01*
X469936Y361069D02*
Y362381D01*
Y361725D01*
X466656D01*
X466000Y362381D01*
Y363037D01*
X466656Y363693D01*
X469936Y359757D02*
X466000D01*
Y357133D01*
X469280Y353198D02*
X469936Y353853D01*
Y355165D01*
X469280Y355821D01*
X466656D01*
X466000Y355165D01*
Y353853D01*
X466656Y353198D01*
X469936Y349262D02*
Y350574D01*
Y349918D01*
X466656D01*
X466000Y350574D01*
Y351230D01*
X466656Y351886D01*
X469936Y347950D02*
X466000D01*
Y345326D01*
X469280Y341390D02*
X469936Y342046D01*
Y343358D01*
X469280Y344014D01*
X466656D01*
X466000Y343358D01*
Y342046D01*
X466656Y341390D01*
X469936Y337455D02*
Y338766D01*
Y338110D01*
X466656D01*
X466000Y338766D01*
Y339422D01*
X466656Y340078D01*
X469936Y336143D02*
X466000D01*
Y333519D01*
X469280Y329583D02*
X469936Y330239D01*
Y331551D01*
X469280Y332207D01*
X466656D01*
X466000Y331551D01*
Y330239D01*
X466656Y329583D01*
X305000Y284500D02*
Y287832D01*
X306666Y289498D01*
X308332Y287832D01*
Y284500D01*
Y286999D01*
X305000D01*
X300332Y284500D02*
X297000D01*
X300332Y287832D01*
Y288665D01*
X299499Y289498D01*
X297833D01*
X297000Y288665D01*
X288500Y284500D02*
X290166D01*
X289333D01*
Y289498D01*
X288500Y288665D01*
X278500D02*
X279333Y289498D01*
X280999D01*
X281832Y288665D01*
Y285333D01*
X280999Y284500D01*
X279333D01*
X278500Y285333D01*
Y288665D01*
X305000Y261165D02*
X305833Y261998D01*
X307499D01*
X308332Y261165D01*
Y257833D01*
X307499Y257000D01*
X305833D01*
X305000Y257833D01*
Y261165D01*
X306000Y271500D02*
X307666D01*
X306833D01*
Y276498D01*
X306000Y275665D01*
X371000Y333000D02*
Y338998D01*
X373999D01*
X374999Y337998D01*
Y335999D01*
X373999Y334999D01*
X371000D01*
X376998Y336999D02*
Y333000D01*
Y334999D01*
X377998Y335999D01*
X378997Y336999D01*
X379997D01*
X383996Y333000D02*
X385995D01*
X386995Y334000D01*
Y335999D01*
X385995Y336999D01*
X383996D01*
X382996Y335999D01*
Y334000D01*
X383996Y333000D01*
X389994Y337998D02*
Y336999D01*
X388994D01*
X390993D01*
X389994D01*
Y334000D01*
X390993Y333000D01*
X408988Y338998D02*
X406988D01*
X405989Y337998D01*
Y334000D01*
X406988Y333000D01*
X408988D01*
X409987Y334000D01*
Y337998D01*
X408988Y338998D01*
X411987Y336999D02*
X413986Y333000D01*
X415985Y336999D01*
X417985D02*
Y333000D01*
Y334999D01*
X418985Y335999D01*
X419984Y336999D01*
X420984D01*
X276500Y228998D02*
Y224000D01*
X278999D01*
X279832Y224833D01*
Y228165D01*
X278999Y228998D01*
X276500D01*
X281498Y224000D02*
X283165D01*
X282331D01*
Y228998D01*
X281498Y228165D01*
X260132Y286065D02*
X259299Y286898D01*
X257633D01*
X256800Y286065D01*
Y282733D01*
X257633Y281900D01*
X259299D01*
X260132Y282733D01*
X261798Y286065D02*
X262631Y286898D01*
X264298D01*
X265131Y286065D01*
Y285232D01*
X264298Y284399D01*
X265131Y283566D01*
Y282733D01*
X264298Y281900D01*
X262631D01*
X261798Y282733D01*
Y283566D01*
X262631Y284399D01*
X261798Y285232D01*
Y286065D01*
X262631Y284399D02*
X264298D01*
X278332Y250665D02*
X277499Y251498D01*
X275833D01*
X275000Y250665D01*
Y247333D01*
X275833Y246500D01*
X277499D01*
X278332Y247333D01*
X279998Y246500D02*
X281664D01*
X280831D01*
Y251498D01*
X279998Y250665D01*
X284164Y246500D02*
X285830D01*
X284997D01*
Y251498D01*
X284164Y250665D01*
X253002Y239500D02*
Y241166D01*
Y240333D01*
X258000D01*
Y239500D01*
Y241166D01*
X253835Y246998D02*
X253002Y246164D01*
Y244498D01*
X253835Y243665D01*
X257167D01*
X258000Y244498D01*
Y246164D01*
X257167Y246998D01*
X258000Y251996D02*
Y248664D01*
X254668Y251996D01*
X253835D01*
X253002Y251163D01*
Y249497D01*
X253835Y248664D01*
X211900Y266498D02*
Y261500D01*
X215232D01*
X216898D02*
X218565D01*
X217731D01*
Y266498D01*
X216898Y265665D01*
X275000Y238500D02*
Y243498D01*
X277499D01*
X278332Y242665D01*
Y240999D01*
X277499Y240166D01*
X275000D01*
X276666D02*
X278332Y238500D01*
X279998D02*
X281664D01*
X280831D01*
Y243498D01*
X279998Y242665D01*
X284164Y243498D02*
X287496D01*
Y242665D01*
X284164Y239333D01*
Y238500D01*
X262032Y335165D02*
X261199Y335998D01*
X259533D01*
X258700Y335165D01*
Y331833D01*
X259533Y331000D01*
X261199D01*
X262032Y331833D01*
X263698Y331000D02*
X265365D01*
X264531D01*
Y335998D01*
X263698Y335165D01*
X267864D02*
X268697Y335998D01*
X270363D01*
X271196Y335165D01*
Y334332D01*
X270363Y333499D01*
X271196Y332666D01*
Y331833D01*
X270363Y331000D01*
X268697D01*
X267864Y331833D01*
Y332666D01*
X268697Y333499D01*
X267864Y334332D01*
Y335165D01*
X268697Y333499D02*
X270363D01*
X262032Y326165D02*
X261199Y326998D01*
X259533D01*
X258700Y326165D01*
Y322833D01*
X259533Y322000D01*
X261199D01*
X262032Y322833D01*
X263698Y322000D02*
X265365D01*
X264531D01*
Y326998D01*
X263698Y326165D01*
X267864Y322833D02*
X268697Y322000D01*
X270363D01*
X271196Y322833D01*
Y326165D01*
X270363Y326998D01*
X268697D01*
X267864Y326165D01*
Y325332D01*
X268697Y324499D01*
X271196D01*
X214500Y348998D02*
X216166D01*
X215333D01*
Y344000D01*
X214500D01*
X216166D01*
X221998Y348165D02*
X221164Y348998D01*
X219498D01*
X218665Y348165D01*
Y344833D01*
X219498Y344000D01*
X221164D01*
X221998Y344833D01*
X226996Y348998D02*
X225330Y348165D01*
X223664Y346499D01*
Y344833D01*
X224497Y344000D01*
X226163D01*
X226996Y344833D01*
Y345666D01*
X226163Y346499D01*
X223664D01*
X173500Y329998D02*
Y325000D01*
X176832D01*
X181831D02*
X178498D01*
X181831Y328332D01*
Y329165D01*
X180998Y329998D01*
X179331D01*
X178498Y329165D01*
X236000Y357000D02*
Y361998D01*
X238499D01*
X239332Y361165D01*
Y359499D01*
X238499Y358666D01*
X236000D01*
X237666D02*
X239332Y357000D01*
X240998Y361165D02*
X241831Y361998D01*
X243498D01*
X244331Y361165D01*
Y360332D01*
X243498Y359499D01*
X242665D01*
X243498D01*
X244331Y358666D01*
Y357833D01*
X243498Y357000D01*
X241831D01*
X240998Y357833D01*
X248496Y357000D02*
Y361998D01*
X245997Y359499D01*
X249329D01*
X229600Y300100D02*
Y305098D01*
X232099D01*
X232932Y304265D01*
Y302599D01*
X232099Y301766D01*
X229600D01*
X231266D02*
X232932Y300100D01*
X234598Y304265D02*
X235431Y305098D01*
X237098D01*
X237931Y304265D01*
Y303432D01*
X237098Y302599D01*
X236264D01*
X237098D01*
X237931Y301766D01*
Y300933D01*
X237098Y300100D01*
X235431D01*
X234598Y300933D01*
X239597Y305098D02*
X242929D01*
Y304265D01*
X239597Y300933D01*
Y300100D01*
X225000Y368000D02*
Y372998D01*
X227499D01*
X228332Y372165D01*
Y370499D01*
X227499Y369666D01*
X225000D01*
X226666D02*
X228332Y368000D01*
X229998Y372165D02*
X230831Y372998D01*
X232498D01*
X233331Y372165D01*
Y371332D01*
X232498Y370499D01*
X231664D01*
X232498D01*
X233331Y369666D01*
Y368833D01*
X232498Y368000D01*
X230831D01*
X229998Y368833D01*
X234997Y372165D02*
X235830Y372998D01*
X237496D01*
X238329Y372165D01*
Y371332D01*
X237496Y370499D01*
X238329Y369666D01*
Y368833D01*
X237496Y368000D01*
X235830D01*
X234997Y368833D01*
Y369666D01*
X235830Y370499D01*
X234997Y371332D01*
Y372165D01*
X235830Y370499D02*
X237496D01*
X198332Y365333D02*
Y368665D01*
X197499Y369498D01*
X195833D01*
X195000Y368665D01*
Y365333D01*
X195833Y364500D01*
X197499D01*
X196666Y366166D02*
X198332Y364500D01*
X197499D02*
X198332Y365333D01*
X203331Y364500D02*
X199998D01*
X203331Y367832D01*
Y368665D01*
X202498Y369498D01*
X200831D01*
X199998Y368665D01*
X319400Y282298D02*
Y278133D01*
X320233Y277300D01*
X321899D01*
X322732Y278133D01*
Y282298D01*
X327731Y277300D02*
X324398D01*
X327731Y280632D01*
Y281465D01*
X326898Y282298D01*
X325231D01*
X324398Y281465D01*
X396500Y352498D02*
Y348333D01*
X397333Y347500D01*
X398999D01*
X399832Y348333D01*
Y352498D01*
X401498Y347500D02*
X403164D01*
X402331D01*
Y352498D01*
X401498Y351665D01*
X318300Y328898D02*
X321632D01*
X319966D01*
Y323900D01*
X323298Y328065D02*
X324131Y328898D01*
X325798D01*
X326631Y328065D01*
Y327232D01*
X325798Y326399D01*
X324964D01*
X325798D01*
X326631Y325566D01*
Y324733D01*
X325798Y323900D01*
X324131D01*
X323298Y324733D01*
X274700Y327698D02*
X278032D01*
X276366D01*
Y322700D01*
X283031D02*
X279698D01*
X283031Y326032D01*
Y326865D01*
X282198Y327698D01*
X280531D01*
X279698Y326865D01*
X166400Y206998D02*
X169732D01*
X168066D01*
Y202000D01*
X171398D02*
X173064D01*
X172231D01*
Y206998D01*
X171398Y206165D01*
X347232Y159565D02*
X346399Y160398D01*
X344733D01*
X343900Y159565D01*
Y158732D01*
X344733Y157899D01*
X346399D01*
X347232Y157066D01*
Y156233D01*
X346399Y155400D01*
X344733D01*
X343900Y156233D01*
X348898Y160398D02*
Y155400D01*
X350565Y157066D01*
X352231Y155400D01*
Y160398D01*
X353897Y155400D02*
X355563D01*
X354730D01*
Y160398D01*
X353897Y159565D01*
X410880Y282000D02*
X415879D01*
Y279501D01*
X415046Y278668D01*
X413379D01*
X412546Y279501D01*
Y282000D01*
Y280334D02*
X410880Y278668D01*
X415879Y277002D02*
Y273669D01*
Y275336D01*
X410880D01*
X415046Y268671D02*
X415879Y269504D01*
Y271170D01*
X415046Y272003D01*
X411713D01*
X410880Y271170D01*
Y269504D01*
X411713Y268671D01*
X410880Y267005D02*
Y265339D01*
Y266172D01*
X415879D01*
X415046Y267005D01*
X301500Y341000D02*
Y345998D01*
X303999D01*
X304832Y345165D01*
Y343499D01*
X303999Y342666D01*
X301500D01*
X303166D02*
X304832Y341000D01*
X306498Y345165D02*
X307331Y345998D01*
X308998D01*
X309831Y345165D01*
Y344332D01*
X308998Y343499D01*
X308165D01*
X308998D01*
X309831Y342666D01*
Y341833D01*
X308998Y341000D01*
X307331D01*
X306498Y341833D01*
X314829Y345998D02*
X313163Y345165D01*
X311497Y343499D01*
Y341833D01*
X312330Y341000D01*
X313996D01*
X314829Y341833D01*
Y342666D01*
X313996Y343499D01*
X311497D01*
X316000Y369500D02*
Y374498D01*
X318499D01*
X319332Y373665D01*
Y371999D01*
X318499Y371166D01*
X316000D01*
X317666D02*
X319332Y369500D01*
X320998Y373665D02*
X321831Y374498D01*
X323498D01*
X324331Y373665D01*
Y372832D01*
X323498Y371999D01*
X322664D01*
X323498D01*
X324331Y371166D01*
Y370333D01*
X323498Y369500D01*
X321831D01*
X320998Y370333D01*
X329329Y374498D02*
X325997D01*
Y371999D01*
X327663Y372832D01*
X328496D01*
X329329Y371999D01*
Y370333D01*
X328496Y369500D01*
X326830D01*
X325997Y370333D01*
X286800Y326600D02*
Y331598D01*
X289299D01*
X290132Y330765D01*
Y329099D01*
X289299Y328266D01*
X286800D01*
X288466D02*
X290132Y326600D01*
X291798Y330765D02*
X292631Y331598D01*
X294298D01*
X295131Y330765D01*
Y329932D01*
X294298Y329099D01*
X293464D01*
X294298D01*
X295131Y328266D01*
Y327433D01*
X294298Y326600D01*
X292631D01*
X291798Y327433D01*
X300129Y326600D02*
X296797D01*
X300129Y329932D01*
Y330765D01*
X299296Y331598D01*
X297630D01*
X296797Y330765D01*
X245000Y364500D02*
Y369498D01*
X247499D01*
X248332Y368665D01*
Y366999D01*
X247499Y366166D01*
X245000D01*
X246666D02*
X248332Y364500D01*
X249998Y368665D02*
X250831Y369498D01*
X252498D01*
X253331Y368665D01*
Y367832D01*
X252498Y366999D01*
X251664D01*
X252498D01*
X253331Y366166D01*
Y365333D01*
X252498Y364500D01*
X250831D01*
X249998Y365333D01*
X254997Y368665D02*
X255830Y369498D01*
X257496D01*
X258329Y368665D01*
Y365333D01*
X257496Y364500D01*
X255830D01*
X254997Y365333D01*
Y368665D01*
X405700Y145500D02*
Y150498D01*
X408199D01*
X409032Y149665D01*
Y147999D01*
X408199Y147166D01*
X405700D01*
X407366D02*
X409032Y145500D01*
X414031D02*
X410698D01*
X414031Y148832D01*
Y149665D01*
X413198Y150498D01*
X411531D01*
X410698Y149665D01*
X415697Y146333D02*
X416530Y145500D01*
X418196D01*
X419029Y146333D01*
Y149665D01*
X418196Y150498D01*
X416530D01*
X415697Y149665D01*
Y148832D01*
X416530Y147999D01*
X419029D01*
X406200Y171500D02*
Y176498D01*
X408699D01*
X409532Y175665D01*
Y173999D01*
X408699Y173166D01*
X406200D01*
X407866D02*
X409532Y171500D01*
X414531D02*
X411198D01*
X414531Y174832D01*
Y175665D01*
X413698Y176498D01*
X412031D01*
X411198Y175665D01*
X416197D02*
X417030Y176498D01*
X418696D01*
X419529Y175665D01*
Y174832D01*
X418696Y173999D01*
X419529Y173166D01*
Y172333D01*
X418696Y171500D01*
X417030D01*
X416197Y172333D01*
Y173166D01*
X417030Y173999D01*
X416197Y174832D01*
Y175665D01*
X417030Y173999D02*
X418696D01*
X405700Y161500D02*
Y166498D01*
X408199D01*
X409032Y165665D01*
Y163999D01*
X408199Y163166D01*
X405700D01*
X407366D02*
X409032Y161500D01*
X414031D02*
X410698D01*
X414031Y164832D01*
Y165665D01*
X413198Y166498D01*
X411531D01*
X410698Y165665D01*
X415697Y166498D02*
X419029D01*
Y165665D01*
X415697Y162333D01*
Y161500D01*
X265400Y313000D02*
Y317998D01*
X267899D01*
X268732Y317165D01*
Y315499D01*
X267899Y314666D01*
X265400D01*
X267066D02*
X268732Y313000D01*
X273731D02*
X270398D01*
X273731Y316332D01*
Y317165D01*
X272898Y317998D01*
X271231D01*
X270398Y317165D01*
X278729Y317998D02*
X277063Y317165D01*
X275397Y315499D01*
Y313833D01*
X276230Y313000D01*
X277896D01*
X278729Y313833D01*
Y314666D01*
X277896Y315499D01*
X275397D01*
X300800Y318100D02*
Y323098D01*
X303299D01*
X304132Y322265D01*
Y320599D01*
X303299Y319766D01*
X300800D01*
X302466D02*
X304132Y318100D01*
X309131D02*
X305798D01*
X309131Y321432D01*
Y322265D01*
X308298Y323098D01*
X306631D01*
X305798Y322265D01*
X314129Y323098D02*
X310797D01*
Y320599D01*
X312463Y321432D01*
X313296D01*
X314129Y320599D01*
Y318933D01*
X313296Y318100D01*
X311630D01*
X310797Y318933D01*
X406200Y179500D02*
Y184498D01*
X408699D01*
X409532Y183665D01*
Y181999D01*
X408699Y181166D01*
X406200D01*
X407866D02*
X409532Y179500D01*
X414531D02*
X411198D01*
X414531Y182832D01*
Y183665D01*
X413698Y184498D01*
X412031D01*
X411198Y183665D01*
X418696Y179500D02*
Y184498D01*
X416197Y181999D01*
X419529D01*
X405700Y153500D02*
Y158498D01*
X408199D01*
X409032Y157665D01*
Y155999D01*
X408199Y155166D01*
X405700D01*
X407366D02*
X409032Y153500D01*
X414031D02*
X410698D01*
X414031Y156832D01*
Y157665D01*
X413198Y158498D01*
X411531D01*
X410698Y157665D01*
X415697D02*
X416530Y158498D01*
X418196D01*
X419029Y157665D01*
Y156832D01*
X418196Y155999D01*
X417363D01*
X418196D01*
X419029Y155166D01*
Y154333D01*
X418196Y153500D01*
X416530D01*
X415697Y154333D01*
X406200Y187500D02*
Y192498D01*
X408699D01*
X409532Y191665D01*
Y189999D01*
X408699Y189166D01*
X406200D01*
X407866D02*
X409532Y187500D01*
X414531D02*
X411198D01*
X414531Y190832D01*
Y191665D01*
X413698Y192498D01*
X412031D01*
X411198Y191665D01*
X419529Y187500D02*
X416197D01*
X419529Y190832D01*
Y191665D01*
X418696Y192498D01*
X417030D01*
X416197Y191665D01*
X384000Y272500D02*
Y277498D01*
X386499D01*
X387332Y276665D01*
Y274999D01*
X386499Y274166D01*
X384000D01*
X385666D02*
X387332Y272500D01*
X392331D02*
X388998D01*
X392331Y275832D01*
Y276665D01*
X391498Y277498D01*
X389831D01*
X388998Y276665D01*
X393997Y272500D02*
X395663D01*
X394830D01*
Y277498D01*
X393997Y276665D01*
X113000Y297000D02*
Y301998D01*
X115499D01*
X116332Y301165D01*
Y299499D01*
X115499Y298666D01*
X113000D01*
X114666D02*
X116332Y297000D01*
X121331D02*
X117998D01*
X121331Y300332D01*
Y301165D01*
X120498Y301998D01*
X118831D01*
X117998Y301165D01*
X122997D02*
X123830Y301998D01*
X125496D01*
X126329Y301165D01*
Y297833D01*
X125496Y297000D01*
X123830D01*
X122997Y297833D01*
Y301165D01*
X353500Y332000D02*
Y336998D01*
X355999D01*
X356832Y336165D01*
Y334499D01*
X355999Y333666D01*
X353500D01*
X355166D02*
X356832Y332000D01*
X358498D02*
X360164D01*
X359331D01*
Y336998D01*
X358498Y336165D01*
X362664Y332833D02*
X363497Y332000D01*
X365163D01*
X365996Y332833D01*
Y336165D01*
X365163Y336998D01*
X363497D01*
X362664Y336165D01*
Y335332D01*
X363497Y334499D01*
X365996D01*
X366500Y341000D02*
Y345998D01*
X368999D01*
X369832Y345165D01*
Y343499D01*
X368999Y342666D01*
X366500D01*
X368166D02*
X369832Y341000D01*
X371498D02*
X373165D01*
X372331D01*
Y345998D01*
X371498Y345165D01*
X375664D02*
X376497Y345998D01*
X378163D01*
X378996Y345165D01*
Y344332D01*
X378163Y343499D01*
X378996Y342666D01*
Y341833D01*
X378163Y341000D01*
X376497D01*
X375664Y341833D01*
Y342666D01*
X376497Y343499D01*
X375664Y344332D01*
Y345165D01*
X376497Y343499D02*
X378163D01*
X375300Y368400D02*
Y373398D01*
X377799D01*
X378632Y372565D01*
Y370899D01*
X377799Y370066D01*
X375300D01*
X376966D02*
X378632Y368400D01*
X380298D02*
X381964D01*
X381131D01*
Y373398D01*
X380298Y372565D01*
X387796Y373398D02*
X386130Y372565D01*
X384464Y370899D01*
Y369233D01*
X385297Y368400D01*
X386963D01*
X387796Y369233D01*
Y370066D01*
X386963Y370899D01*
X384464D01*
X185400Y251500D02*
Y256498D01*
X187899D01*
X188732Y255665D01*
Y253999D01*
X187899Y253166D01*
X185400D01*
X187066D02*
X188732Y251500D01*
X190398D02*
X192064D01*
X191231D01*
Y256498D01*
X190398Y255665D01*
X197896Y256498D02*
X194564D01*
Y253999D01*
X196230Y254832D01*
X197063D01*
X197896Y253999D01*
Y252333D01*
X197063Y251500D01*
X195397D01*
X194564Y252333D01*
X129800Y232100D02*
Y237098D01*
X132299D01*
X133132Y236265D01*
Y234599D01*
X132299Y233766D01*
X129800D01*
X131466D02*
X133132Y232100D01*
X134798D02*
X136465D01*
X135631D01*
Y237098D01*
X134798Y236265D01*
X141463Y232100D02*
Y237098D01*
X138964Y234599D01*
X142296D01*
X112500Y283000D02*
Y287998D01*
X114999D01*
X115832Y287165D01*
Y285499D01*
X114999Y284666D01*
X112500D01*
X114166D02*
X115832Y283000D01*
X117498D02*
X119165D01*
X118331D01*
Y287998D01*
X117498Y287165D01*
X121664D02*
X122497Y287998D01*
X124163D01*
X124996Y287165D01*
Y286332D01*
X124163Y285499D01*
X123330D01*
X124163D01*
X124996Y284666D01*
Y283833D01*
X124163Y283000D01*
X122497D01*
X121664Y283833D01*
X156100Y360400D02*
Y365398D01*
X158599D01*
X159432Y364565D01*
Y362899D01*
X158599Y362066D01*
X156100D01*
X157766D02*
X159432Y360400D01*
X161098D02*
X162765D01*
X161931D01*
Y365398D01*
X161098Y364565D01*
X168596Y360400D02*
X165264D01*
X168596Y363732D01*
Y364565D01*
X167763Y365398D01*
X166097D01*
X165264Y364565D01*
X129800Y256900D02*
Y261898D01*
X132299D01*
X133132Y261065D01*
Y259399D01*
X132299Y258566D01*
X129800D01*
X131466D02*
X133132Y256900D01*
X134798D02*
X136465D01*
X135631D01*
Y261898D01*
X134798Y261065D01*
X138964D02*
X139797Y261898D01*
X141463D01*
X142296Y261065D01*
Y257733D01*
X141463Y256900D01*
X139797D01*
X138964Y257733D01*
Y261065D01*
X156800Y237000D02*
Y241998D01*
X159299D01*
X160132Y241165D01*
Y239499D01*
X159299Y238666D01*
X156800D01*
X158466D02*
X160132Y237000D01*
X161798Y237833D02*
X162631Y237000D01*
X164298D01*
X165131Y237833D01*
Y241165D01*
X164298Y241998D01*
X162631D01*
X161798Y241165D01*
Y240332D01*
X162631Y239499D01*
X165131D01*
X258800Y198100D02*
Y203098D01*
X261299D01*
X262132Y202265D01*
Y200599D01*
X261299Y199766D01*
X258800D01*
X260466D02*
X262132Y198100D01*
X263798Y202265D02*
X264631Y203098D01*
X266298D01*
X267131Y202265D01*
Y201432D01*
X266298Y200599D01*
X267131Y199766D01*
Y198933D01*
X266298Y198100D01*
X264631D01*
X263798Y198933D01*
Y199766D01*
X264631Y200599D01*
X263798Y201432D01*
Y202265D01*
X264631Y200599D02*
X266298D01*
X239800Y198100D02*
Y203098D01*
X242299D01*
X243132Y202265D01*
Y200599D01*
X242299Y199766D01*
X239800D01*
X241466D02*
X243132Y198100D01*
X244798Y203098D02*
X248131D01*
Y202265D01*
X244798Y198933D01*
Y198100D01*
X249300Y218900D02*
Y223898D01*
X251799D01*
X252632Y223065D01*
Y221399D01*
X251799Y220566D01*
X249300D01*
X250966D02*
X252632Y218900D01*
X257631Y223898D02*
X255964Y223065D01*
X254298Y221399D01*
Y219733D01*
X255131Y218900D01*
X256798D01*
X257631Y219733D01*
Y220566D01*
X256798Y221399D01*
X254298D01*
X231300Y218900D02*
Y223898D01*
X233799D01*
X234632Y223065D01*
Y221399D01*
X233799Y220566D01*
X231300D01*
X232966D02*
X234632Y218900D01*
X239631Y223898D02*
X236298D01*
Y221399D01*
X237965Y222232D01*
X238798D01*
X239631Y221399D01*
Y219733D01*
X238798Y218900D01*
X237131D01*
X236298Y219733D01*
X132300Y199500D02*
Y204498D01*
X134799D01*
X135632Y203665D01*
Y201999D01*
X134799Y201166D01*
X132300D01*
X133966D02*
X135632Y199500D01*
X139798D02*
Y204498D01*
X137298Y201999D01*
X140631D01*
X144300Y178000D02*
Y182998D01*
X146799D01*
X147632Y182165D01*
Y180499D01*
X146799Y179666D01*
X144300D01*
X145966D02*
X147632Y178000D01*
X149298Y182165D02*
X150131Y182998D01*
X151798D01*
X152631Y182165D01*
Y181332D01*
X151798Y180499D01*
X150964D01*
X151798D01*
X152631Y179666D01*
Y178833D01*
X151798Y178000D01*
X150131D01*
X149298Y178833D01*
X144700Y190000D02*
Y194998D01*
X147199D01*
X148032Y194165D01*
Y192499D01*
X147199Y191666D01*
X144700D01*
X146366D02*
X148032Y190000D01*
X153031D02*
X149698D01*
X153031Y193332D01*
Y194165D01*
X152198Y194998D01*
X150531D01*
X149698Y194165D01*
X134000Y213000D02*
Y217998D01*
X136499D01*
X137332Y217165D01*
Y215499D01*
X136499Y214666D01*
X134000D01*
X135666D02*
X137332Y213000D01*
X138998D02*
X140665D01*
X139831D01*
Y217998D01*
X138998Y217165D01*
X297932Y370933D02*
Y374265D01*
X297099Y375098D01*
X295433D01*
X294600Y374265D01*
Y370933D01*
X295433Y370100D01*
X297099D01*
X296266Y371766D02*
X297932Y370100D01*
X297099D02*
X297932Y370933D01*
X299598Y374265D02*
X300431Y375098D01*
X302098D01*
X302931Y374265D01*
Y373432D01*
X302098Y372599D01*
X301265D01*
X302098D01*
X302931Y371766D01*
Y370933D01*
X302098Y370100D01*
X300431D01*
X299598Y370933D01*
X264932D02*
Y374265D01*
X264099Y375098D01*
X262433D01*
X261600Y374265D01*
Y370933D01*
X262433Y370100D01*
X264099D01*
X263266Y371766D02*
X264932Y370100D01*
X264099D02*
X264932Y370933D01*
X266598Y370100D02*
X268265D01*
X267431D01*
Y375098D01*
X266598Y374265D01*
X429000Y238000D02*
Y242998D01*
X431499D01*
X432332Y242165D01*
Y240499D01*
X431499Y239666D01*
X429000D01*
X433998Y238000D02*
X435665D01*
X434831D01*
Y242998D01*
X433998Y242165D01*
X108832Y272998D02*
X107166D01*
X107999D01*
Y268833D01*
X107166Y268000D01*
X106333D01*
X105500Y268833D01*
X110498Y268000D02*
X112164D01*
X111331D01*
Y272998D01*
X110498Y272165D01*
X159300Y317798D02*
X160966D01*
X160133D01*
Y312800D01*
X159300D01*
X160966D01*
X166798Y316965D02*
X165964Y317798D01*
X164298D01*
X163465Y316965D01*
Y313633D01*
X164298Y312800D01*
X165964D01*
X166798Y313633D01*
X171796Y317798D02*
X168464D01*
Y315299D01*
X170130Y316132D01*
X170963D01*
X171796Y315299D01*
Y313633D01*
X170963Y312800D01*
X169297D01*
X168464Y313633D01*
X338700Y341898D02*
X340366D01*
X339533D01*
Y336900D01*
X338700D01*
X340366D01*
X346198Y341065D02*
X345364Y341898D01*
X343698D01*
X342865Y341065D01*
Y337733D01*
X343698Y336900D01*
X345364D01*
X346198Y337733D01*
X350363Y336900D02*
Y341898D01*
X347864Y339399D01*
X351196D01*
X415879Y309668D02*
Y313000D01*
X410880D01*
Y309668D01*
X413379Y313000D02*
Y311334D01*
X415879Y308002D02*
X410880Y304669D01*
X415879D02*
X410880Y308002D01*
X415879Y303003D02*
Y299671D01*
Y301337D01*
X410880D01*
Y298005D02*
Y296339D01*
Y297172D01*
X415879D01*
X415046Y298005D01*
X152432Y336165D02*
X151599Y336998D01*
X149933D01*
X149100Y336165D01*
Y332833D01*
X149933Y332000D01*
X151599D01*
X152432Y332833D01*
X154098Y332000D02*
X155764D01*
X154931D01*
Y336998D01*
X154098Y336165D01*
X158264Y336998D02*
X161596D01*
Y336165D01*
X158264Y332833D01*
Y332000D01*
X335332Y370665D02*
X334499Y371498D01*
X332833D01*
X332000Y370665D01*
Y367333D01*
X332833Y366500D01*
X334499D01*
X335332Y367333D01*
X336998Y366500D02*
X338665D01*
X337831D01*
Y371498D01*
X336998Y370665D01*
X344496Y371498D02*
X342830Y370665D01*
X341164Y368999D01*
Y367333D01*
X341997Y366500D01*
X343663D01*
X344496Y367333D01*
Y368166D01*
X343663Y368999D01*
X341164D01*
X396132Y372565D02*
X395299Y373398D01*
X393633D01*
X392800Y372565D01*
Y369233D01*
X393633Y368400D01*
X395299D01*
X396132Y369233D01*
X397798Y368400D02*
X399465D01*
X398631D01*
Y373398D01*
X397798Y372565D01*
X405296Y373398D02*
X401964D01*
Y370899D01*
X403630Y371732D01*
X404463D01*
X405296Y370899D01*
Y369233D01*
X404463Y368400D01*
X402797D01*
X401964Y369233D01*
X364132Y372565D02*
X363299Y373398D01*
X361633D01*
X360800Y372565D01*
Y369233D01*
X361633Y368400D01*
X363299D01*
X364132Y369233D01*
X365798Y368400D02*
X367464D01*
X366631D01*
Y373398D01*
X365798Y372565D01*
X372463Y368400D02*
Y373398D01*
X369964Y370899D01*
X373296D01*
X155932Y255665D02*
X155099Y256498D01*
X153433D01*
X152600Y255665D01*
Y252333D01*
X153433Y251500D01*
X155099D01*
X155932Y252333D01*
X157598Y251500D02*
X159265D01*
X158431D01*
Y256498D01*
X157598Y255665D01*
X161764D02*
X162597Y256498D01*
X164263D01*
X165096Y255665D01*
Y254832D01*
X164263Y253999D01*
X163430D01*
X164263D01*
X165096Y253166D01*
Y252333D01*
X164263Y251500D01*
X162597D01*
X161764Y252333D01*
X188732Y241165D02*
X187899Y241998D01*
X186233D01*
X185400Y241165D01*
Y237833D01*
X186233Y237000D01*
X187899D01*
X188732Y237833D01*
X190398Y237000D02*
X192064D01*
X191231D01*
Y241998D01*
X190398Y241165D01*
X197896Y237000D02*
X194564D01*
X197896Y240332D01*
Y241165D01*
X197063Y241998D01*
X195397D01*
X194564Y241165D01*
X395132Y244565D02*
X394299Y245398D01*
X392633D01*
X391800Y244565D01*
Y241233D01*
X392633Y240400D01*
X394299D01*
X395132Y241233D01*
X396798Y240400D02*
X398464D01*
X397631D01*
Y245398D01*
X396798Y244565D01*
X400964D02*
X401797Y245398D01*
X403463D01*
X404296Y244565D01*
Y241233D01*
X403463Y240400D01*
X401797D01*
X400964Y241233D01*
Y244565D01*
X387632Y223765D02*
X386799Y224598D01*
X385133D01*
X384300Y223765D01*
Y220433D01*
X385133Y219600D01*
X386799D01*
X387632Y220433D01*
X389298D02*
X390131Y219600D01*
X391798D01*
X392631Y220433D01*
Y223765D01*
X391798Y224598D01*
X390131D01*
X389298Y223765D01*
Y222932D01*
X390131Y222099D01*
X392631D01*
X406632Y223765D02*
X405799Y224598D01*
X404133D01*
X403300Y223765D01*
Y220433D01*
X404133Y219600D01*
X405799D01*
X406632Y220433D01*
X408298Y224598D02*
X411631D01*
Y223765D01*
X408298Y220433D01*
Y219600D01*
X120132Y270665D02*
X119299Y271498D01*
X117633D01*
X116800Y270665D01*
Y267333D01*
X117633Y266500D01*
X119299D01*
X120132Y267333D01*
X125131Y271498D02*
X123465Y270665D01*
X121798Y268999D01*
Y267333D01*
X122631Y266500D01*
X124298D01*
X125131Y267333D01*
Y268166D01*
X124298Y268999D01*
X121798D01*
X139132Y281065D02*
X138299Y281898D01*
X136633D01*
X135800Y281065D01*
Y277733D01*
X136633Y276900D01*
X138299D01*
X139132Y277733D01*
X144131Y281898D02*
X140798D01*
Y279399D01*
X142464Y280232D01*
X143298D01*
X144131Y279399D01*
Y277733D01*
X143298Y276900D01*
X141631D01*
X140798Y277733D01*
X157732Y270665D02*
X156899Y271498D01*
X155233D01*
X154400Y270665D01*
Y267333D01*
X155233Y266500D01*
X156899D01*
X157732Y267333D01*
X161898Y266500D02*
Y271498D01*
X159398Y268999D01*
X162731D01*
X395132Y318565D02*
X394299Y319398D01*
X392633D01*
X391800Y318565D01*
Y315233D01*
X392633Y314400D01*
X394299D01*
X395132Y315233D01*
X396798Y318565D02*
X397631Y319398D01*
X399298D01*
X400131Y318565D01*
Y317732D01*
X399298Y316899D01*
X398464D01*
X399298D01*
X400131Y316066D01*
Y315233D01*
X399298Y314400D01*
X397631D01*
X396798Y315233D01*
X385632Y297765D02*
X384799Y298598D01*
X383133D01*
X382300Y297765D01*
Y294433D01*
X383133Y293600D01*
X384799D01*
X385632Y294433D01*
X390631Y293600D02*
X387298D01*
X390631Y296932D01*
Y297765D01*
X389798Y298598D01*
X388131D01*
X387298Y297765D01*
X377032Y318565D02*
X376199Y319398D01*
X374533D01*
X373700Y318565D01*
Y315233D01*
X374533Y314400D01*
X376199D01*
X377032Y315233D01*
X378698Y314400D02*
X380364D01*
X379531D01*
Y319398D01*
X378698Y318565D01*
X415698Y359800D02*
X410700D01*
Y357301D01*
X411533Y356468D01*
X412366D01*
X413199Y357301D01*
Y359800D01*
Y357301D01*
X414032Y356468D01*
X414865D01*
X415698Y357301D01*
Y359800D01*
X410700Y354802D02*
X414032D01*
X415698Y353135D01*
X414032Y351469D01*
X410700D01*
X413199D01*
Y354802D01*
X415698Y349803D02*
Y346471D01*
Y348137D01*
X410700D01*
Y344805D02*
Y343139D01*
Y343972D01*
X415698D01*
X414865Y344805D01*
D15*
X433709Y284000D02*
X446209D01*
Y264000D02*
Y284000D01*
X433709Y264000D02*
X446209D01*
X433709D02*
Y265750D01*
X436209D01*
Y272250D01*
X433709D02*
X436209D01*
X433709D02*
Y275750D01*
X436209D01*
Y282250D01*
X433709D02*
X436209D01*
X433709D02*
Y284000D01*
X428118Y280250D02*
X436209D01*
X428118Y277750D02*
X436209D01*
X427760Y270250D02*
X436209D01*
X427760Y267750D02*
X436209D01*
X446209Y279000D02*
X479772D01*
Y269000D02*
Y279000D01*
X446209Y269000D02*
X479772D01*
X446209Y280250D02*
X471693D01*
X472193Y279750D01*
Y279000D02*
Y279750D01*
Y268250D02*
Y269000D01*
X471693Y267750D02*
X472193Y268250D01*
X446209Y267750D02*
X471693D01*
Y269000D01*
Y279000D02*
Y280250D01*
X433709Y315000D02*
X446209D01*
Y295000D02*
Y315000D01*
X433709Y295000D02*
X446209D01*
X433709D02*
Y296750D01*
X436209D01*
Y303250D01*
X433709D02*
X436209D01*
X433709D02*
Y306750D01*
X436209D01*
Y313250D01*
X433709D02*
X436209D01*
X433709D02*
Y315000D01*
X428118Y311250D02*
X436209D01*
X428118Y308750D02*
X436209D01*
X427760Y301250D02*
X436209D01*
X427760Y298750D02*
X436209D01*
X446209Y310000D02*
X479772D01*
Y300000D02*
Y310000D01*
X446209Y300000D02*
X479772D01*
X446209Y311250D02*
X471693D01*
X472193Y310750D01*
Y310000D02*
Y310750D01*
Y299250D02*
Y300000D01*
X471693Y298750D02*
X472193Y299250D01*
X446209Y298750D02*
X471693D01*
Y300000D01*
Y310000D02*
Y311250D01*
X254622Y353713D02*
Y355287D01*
X257378Y353713D02*
Y355287D01*
X232904Y353439D02*
Y355014D01*
X230148Y353439D02*
Y355014D01*
X248378Y347713D02*
Y349287D01*
X245622Y347713D02*
Y349287D01*
X326622Y358713D02*
Y360287D01*
X329378Y358713D02*
Y360287D01*
X306713Y338378D02*
X308287D01*
X306713Y335622D02*
X308287D01*
X265713Y242378D02*
X267287D01*
X265713Y239622D02*
X267287D01*
X129122Y296713D02*
Y298287D01*
X131878Y296713D02*
Y298287D01*
X131878Y282213D02*
Y283787D01*
X129122Y282213D02*
Y283787D01*
X210914Y339902D02*
X211702D01*
X210914Y315098D02*
X211702D01*
X186898Y339902D02*
X187686D01*
X186898Y315098D02*
X187686D01*
X211702D02*
Y339902D01*
X186898Y315098D02*
Y339902D01*
X256713Y316878D02*
X258287D01*
X256713Y314122D02*
X258287D01*
X135213Y241122D02*
X136787D01*
X135213Y243878D02*
X136787D01*
X100000Y230118D02*
Y261614D01*
X356350Y346031D02*
Y349969D01*
X362650Y346031D02*
Y349969D01*
X380713Y361622D02*
X382287D01*
X380713Y364378D02*
X382287D01*
X370878Y351213D02*
Y352787D01*
X368122Y351213D02*
Y352787D01*
X397713Y336878D02*
X399287D01*
X397713Y334122D02*
X399287D01*
X399622Y274213D02*
Y275787D01*
X402378Y274213D02*
Y275787D01*
X426713Y191378D02*
X428287D01*
X426713Y188622D02*
X428287D01*
X426713Y183378D02*
X428287D01*
X426713Y180622D02*
X428287D01*
X426713Y175378D02*
X428287D01*
X426713Y172622D02*
X428287D01*
X426213Y162622D02*
X427787D01*
X426213Y165378D02*
X427787D01*
X426213Y154622D02*
X427787D01*
X426213Y157378D02*
X427787D01*
X426213Y146622D02*
X427787D01*
X426213Y149378D02*
X427787D01*
X278622Y273213D02*
Y274787D01*
X281378Y273213D02*
Y274787D01*
X288122Y273213D02*
Y274787D01*
X290878Y273213D02*
Y274787D01*
X297622Y273213D02*
Y274787D01*
X300378Y273213D02*
Y274787D01*
X278622Y258713D02*
Y260287D01*
X281378Y258713D02*
Y260287D01*
X288122Y258713D02*
Y260287D01*
X290878Y258713D02*
Y260287D01*
X297622Y258713D02*
Y260287D01*
X300378Y258713D02*
Y260287D01*
X272209Y225319D02*
Y227681D01*
X260791D02*
X272209D01*
X260791Y225319D02*
Y227681D01*
Y225319D02*
X272209D01*
X248402Y251598D02*
Y276402D01*
X223598Y251598D02*
Y276402D01*
X247614D02*
X248402D01*
X247614Y251598D02*
X248402D01*
X223598Y276402D02*
X224386D01*
X223598Y251598D02*
X224386D01*
X235513Y309122D02*
X237087D01*
X235513Y311878D02*
X237087D01*
X441000Y154500D02*
X442000Y154988D01*
X460000D02*
X461000Y154500D01*
X441000Y156500D02*
X442000Y156012D01*
X441000Y164500D02*
X442000Y164988D01*
X441000Y166500D02*
X442000Y166012D01*
X441000Y174500D02*
X442000Y174988D01*
X441000Y176500D02*
X442000Y176012D01*
X441000Y184500D02*
X442000Y184988D01*
X441000Y186500D02*
X442000Y186012D01*
X441000Y194500D02*
X442000Y194988D01*
X441000Y196500D02*
X442000Y196012D01*
X441000Y204500D02*
X442000Y204988D01*
X441000Y206500D02*
X442000Y206012D01*
X441000Y214500D02*
X442000Y214988D01*
X441000Y216500D02*
X442000Y216012D01*
X441000Y224500D02*
X442000Y224988D01*
X441000Y226500D02*
X442000Y226012D01*
X449000Y235040D02*
X451000Y234500D01*
X441000D02*
X442000Y234988D01*
X449000Y235960D02*
X451000Y236500D01*
X441000D02*
X442000Y236012D01*
X441000Y236500D02*
Y245500D01*
X461000Y236500D02*
Y245500D01*
X441000D02*
X461000D01*
X441000Y145500D02*
X461000D01*
Y154500D01*
Y156500D02*
Y164500D01*
Y166500D02*
Y174500D01*
Y176500D02*
Y184500D01*
Y186500D02*
Y194500D01*
Y196500D02*
Y204500D01*
Y206500D02*
Y214500D01*
Y216500D02*
Y224500D01*
Y226500D02*
Y234500D01*
X441000Y226500D02*
Y234500D01*
Y216500D02*
Y224500D01*
Y206500D02*
Y214500D01*
Y196500D02*
Y204500D01*
Y186500D02*
Y194500D01*
Y176500D02*
Y184500D01*
Y166500D02*
Y174500D01*
Y156500D02*
Y164500D01*
Y145500D02*
Y154500D01*
X451000Y234500D02*
X453000Y235040D01*
X460000Y234988D02*
X461000Y234500D01*
X451000Y236500D02*
X453000Y235960D01*
X460000Y234988D02*
Y236012D01*
X461000Y236500D01*
X460000Y226012D02*
X461000Y226500D01*
X460000Y224988D02*
X461000Y224500D01*
X460000Y216012D02*
X461000Y216500D01*
X460000Y214988D02*
X461000Y214500D01*
X460000Y206012D02*
X461000Y206500D01*
X460000Y204988D02*
X461000Y204500D01*
X460000Y196012D02*
X461000Y196500D01*
X460000Y194988D02*
X461000Y194500D01*
X460000Y186012D02*
X461000Y186500D01*
X460000Y184988D02*
X461000Y184500D01*
X460000Y176012D02*
X461000Y176500D01*
X460000Y174988D02*
X461000Y174500D01*
X460000Y166012D02*
X461000Y166500D01*
X460000Y164988D02*
X461000Y164500D01*
X460000Y156012D02*
X461000Y156500D01*
X449000Y235040D02*
Y235960D01*
X453000Y235040D02*
Y235960D01*
X442000Y234988D02*
Y236012D01*
Y224988D02*
Y226012D01*
Y214988D02*
Y216012D01*
Y204988D02*
Y206012D01*
Y194988D02*
Y196012D01*
Y184988D02*
Y186012D01*
Y174988D02*
Y176012D01*
Y164988D02*
Y166012D01*
Y154988D02*
Y156012D01*
X460000Y224988D02*
Y226012D01*
Y214988D02*
Y216012D01*
Y204988D02*
Y206012D01*
Y194988D02*
Y196012D01*
Y184988D02*
Y186012D01*
Y174988D02*
Y176012D01*
Y164988D02*
Y166012D01*
Y154988D02*
Y156012D01*
X449000Y225040D02*
X451000Y224500D01*
X449000Y225960D02*
X451000Y226500D01*
Y224500D02*
X453000Y225040D01*
X451000Y226500D02*
X453000Y225960D01*
X449000Y225040D02*
Y225960D01*
X453000Y225040D02*
Y225960D01*
X449000Y215040D02*
X451000Y214500D01*
X449000Y215960D02*
X451000Y216500D01*
Y214500D02*
X453000Y215040D01*
X451000Y216500D02*
X453000Y215960D01*
X449000Y215040D02*
Y215960D01*
X453000Y215040D02*
Y215960D01*
X449000Y205040D02*
X451000Y204500D01*
X449000Y205960D02*
X451000Y206500D01*
Y204500D02*
X453000Y205040D01*
X451000Y206500D02*
X453000Y205960D01*
X449000Y205040D02*
Y205960D01*
X453000Y205040D02*
Y205960D01*
X449000Y195040D02*
X451000Y194500D01*
X449000Y195960D02*
X451000Y196500D01*
Y194500D02*
X453000Y195040D01*
X451000Y196500D02*
X453000Y195960D01*
X449000Y195040D02*
Y195960D01*
X453000Y195040D02*
Y195960D01*
X449000Y185040D02*
X451000Y184500D01*
X449000Y185960D02*
X451000Y186500D01*
Y184500D02*
X453000Y185040D01*
X451000Y186500D02*
X453000Y185960D01*
X449000Y185040D02*
Y185960D01*
X453000Y185040D02*
Y185960D01*
X449000Y175040D02*
X451000Y174500D01*
X449000Y175960D02*
X451000Y176500D01*
Y174500D02*
X453000Y175040D01*
X451000Y176500D02*
X453000Y175960D01*
X449000Y175040D02*
Y175960D01*
X453000Y175040D02*
Y175960D01*
X449000Y165040D02*
X451000Y164500D01*
X449000Y165960D02*
X451000Y166500D01*
Y164500D02*
X453000Y165040D01*
X451000Y166500D02*
X453000Y165960D01*
X449000Y165040D02*
Y165960D01*
X453000Y165040D02*
Y165960D01*
X449000Y155040D02*
X451000Y154500D01*
X449000Y155960D02*
X451000Y156500D01*
Y154500D02*
X453000Y155040D01*
X451000Y156500D02*
X453000Y155960D01*
X449000Y155040D02*
Y155960D01*
X453000Y155040D02*
Y155960D01*
Y235500D02*
X460000D01*
X442000D02*
X449000D01*
X453000Y225500D02*
X460000D01*
X442000D02*
X449000D01*
X453000Y215500D02*
X460000D01*
X442000D02*
X449000D01*
X453000Y205500D02*
X460000D01*
X442000D02*
X449000D01*
X453000Y195500D02*
X460000D01*
X442000D02*
X449000D01*
X453000Y185500D02*
X460000D01*
X442000D02*
X449000D01*
X453000Y175500D02*
X460000D01*
X442000D02*
X449000D01*
X453000Y165500D02*
X460000D01*
X442000D02*
X449000D01*
X453000Y155500D02*
X460000D01*
X442000D02*
X449000D01*
X306713Y327122D02*
X308287D01*
X306713Y329878D02*
X308287D01*
X280053Y333026D02*
Y340900D01*
X277691Y333026D02*
X280053D01*
X277691D02*
Y340900D01*
X280053D01*
X292713Y338378D02*
X294287D01*
X292713Y335622D02*
X294287D01*
X321319Y333369D02*
Y341243D01*
X323681D01*
Y333369D02*
Y341243D01*
X321319Y333369D02*
X323681D01*
X327701Y251461D02*
Y271539D01*
X340299Y251461D02*
Y271539D01*
X327701D02*
X340299D01*
X327701Y251461D02*
X340299D01*
X147378Y214713D02*
Y216287D01*
X144622Y214713D02*
Y216287D01*
X160213Y193878D02*
X161787D01*
X160213Y191122D02*
X161787D01*
X159378Y179713D02*
Y181287D01*
X156622Y179713D02*
Y181287D01*
X147378Y201213D02*
Y202787D01*
X144622Y201213D02*
Y202787D01*
X154063Y203319D02*
X161937D01*
X154063D02*
Y205681D01*
X161937D01*
Y203319D02*
Y205681D01*
X264378Y210213D02*
Y211787D01*
X261622Y210213D02*
Y211787D01*
X245378Y210213D02*
Y211787D01*
X242622Y210213D02*
Y211787D01*
X254878Y210213D02*
Y211787D01*
X252122Y210213D02*
Y211787D01*
X236878Y210213D02*
Y211787D01*
X234122Y210213D02*
Y211787D01*
X171878Y238713D02*
Y240287D01*
X169122Y238713D02*
Y240287D01*
X135213Y252878D02*
X136787D01*
X135213Y250122D02*
X136787D01*
X181378Y253213D02*
Y254787D01*
X178622Y253213D02*
Y254787D01*
X158878Y351713D02*
Y353287D01*
X156122Y351713D02*
Y353287D01*
X158610Y308295D02*
X172390D01*
Y282705D02*
Y308295D01*
X158610Y282705D02*
X172390D01*
X158610D02*
Y308295D01*
X149653Y307705D02*
X156937D01*
X448086Y249346D02*
X448324Y248870D01*
X449038Y248156D01*
X444039D01*
D16*
X473900Y321500D02*
Y381500D01*
X427400Y321500D02*
X473900D01*
X427400Y381500D02*
X427400Y321500D01*
Y381500D02*
X473900D01*
X293500Y292500D02*
X294500D01*
X285000Y253000D02*
X294500D01*
X303000D02*
Y292500D01*
X275500Y281000D02*
X310000D01*
X275500Y266500D02*
X310000D01*
X294500Y253000D02*
Y292500D01*
X285000Y253000D02*
Y292500D01*
X275500D02*
X310000D01*
Y253000D02*
Y292500D01*
X294500Y253000D02*
X310000D01*
X275500D02*
X285000D01*
X275500D02*
Y292500D01*
X404500Y331000D02*
Y339500D01*
X392500Y331000D02*
X404500D01*
X392500D02*
Y339500D01*
X404500D01*
X371260Y109843D02*
Y122441D01*
X356693Y109843D02*
X371260D01*
X356693D02*
Y122047D01*
X397244Y122441D02*
Y131890D01*
Y142126D02*
Y151969D01*
X344488D02*
X397244D01*
X344488Y141732D02*
Y151969D01*
Y122441D02*
Y132283D01*
Y122441D02*
X397244D01*
D17*
X209296Y367504D02*
X221205D01*
X209178Y355496D02*
X221304D01*
X392480Y354831D02*
Y356405D01*
X377126D02*
X392480D01*
X377126Y354831D02*
Y356405D01*
Y344595D02*
Y346169D01*
Y344595D02*
X392480D01*
Y346169D01*
D18*
X430883Y285191D02*
X431071Y284816D01*
X431633Y284254D01*
X427697D01*
X430883Y316191D02*
X431071Y315816D01*
X431633Y315254D01*
X427697D01*
M02*
