G04*
G04 #@! TF.GenerationSoftware,Altium Limited,Altium Designer,19.1.8 (144)*
G04*
G04 Layer_Color=32896*
%FSLAX25Y25*%
%MOIN*%
G70*
G01*
G75*
%ADD17C,0.00394*%
%ADD116C,0.00197*%
D17*
X422990Y269000D02*
Y270969D01*
X421022Y269000D02*
X422990D01*
Y267032D02*
Y269000D01*
X424959D01*
X422990Y279000D02*
Y280968D01*
X421022Y279000D02*
X422990D01*
Y277031D02*
Y279000D01*
X424959D01*
X422990Y274000D02*
Y275969D01*
X421022Y274000D02*
X422990D01*
Y272031D02*
Y274000D01*
X424959D01*
X422990Y300000D02*
Y301969D01*
X421022Y300000D02*
X422990D01*
Y298031D02*
Y300000D01*
X424959D01*
X422990Y310000D02*
Y311968D01*
X421022Y310000D02*
X422990D01*
Y308032D02*
Y310000D01*
X424959D01*
X422990Y305000D02*
Y306968D01*
X421022Y305000D02*
X422990D01*
Y303031D02*
Y305000D01*
X424959D01*
D116*
X446000Y148531D02*
Y150500D01*
Y152469D01*
X444031Y150500D02*
X446000D01*
X447968D01*
X456000Y148531D02*
Y150500D01*
Y152469D01*
X454032Y150500D02*
X456000D01*
X457969D01*
X451000Y195500D02*
X452969D01*
X449031D02*
X451000D01*
Y197468D01*
Y193532D02*
Y195500D01*
X456000Y240500D02*
X457969D01*
X454032D02*
X456000D01*
Y242469D01*
Y238531D02*
Y240500D01*
Y230500D02*
X457969D01*
X454032D02*
X456000D01*
Y232469D01*
Y228532D02*
Y230500D01*
Y220500D02*
X457969D01*
X454032D02*
X456000D01*
Y222468D01*
Y218531D02*
Y220500D01*
Y210500D02*
X457969D01*
X454032D02*
X456000D01*
Y212469D01*
Y208531D02*
Y210500D01*
Y200500D02*
X457969D01*
X454032D02*
X456000D01*
Y202468D01*
Y198531D02*
Y200500D01*
Y190500D02*
X457969D01*
X454032D02*
X456000D01*
Y192469D01*
Y188531D02*
Y190500D01*
Y180500D02*
X457969D01*
X454032D02*
X456000D01*
Y182468D01*
Y178532D02*
Y180500D01*
Y170500D02*
X457969D01*
X454032D02*
X456000D01*
Y172468D01*
Y168532D02*
Y170500D01*
Y160500D02*
X457969D01*
X454032D02*
X456000D01*
Y162469D01*
Y158531D02*
Y160500D01*
X446000Y240500D02*
X447968D01*
X444031D02*
X446000D01*
Y242469D01*
Y238531D02*
Y240500D01*
Y230500D02*
X447968D01*
X444031D02*
X446000D01*
Y232469D01*
Y228532D02*
Y230500D01*
Y220500D02*
X447968D01*
X444031D02*
X446000D01*
Y222468D01*
Y218531D02*
Y220500D01*
Y210500D02*
X447968D01*
X444031D02*
X446000D01*
Y212469D01*
Y208531D02*
Y210500D01*
Y200500D02*
X447968D01*
X444031D02*
X446000D01*
Y202468D01*
Y198531D02*
Y200500D01*
Y190500D02*
X447968D01*
X444031D02*
X446000D01*
Y192469D01*
Y188531D02*
Y190500D01*
Y180500D02*
X447968D01*
X444031D02*
X446000D01*
Y182468D01*
Y178532D02*
Y180500D01*
Y170500D02*
X447968D01*
X444031D02*
X446000D01*
Y172468D01*
Y168532D02*
Y170500D01*
Y160500D02*
X447968D01*
X444031D02*
X446000D01*
Y162469D01*
Y158531D02*
Y160500D01*
M02*
